<svg xmlns="http://www.w3.org/2000/svg" viewBox="0 0 99.4 94.7"><title>rl-logo</title><path d="M56.8,9.9a7.4,7.4,0,1,1-7.4-7.4A7.4,7.4,0,0,1,56.8,9.9Z" style="fill:#ec662d"/><path d="M80.5,18.5a7.4,7.4,0,1,1-7.4-7.4A7.4,7.4,0,0,1,80.5,18.5Z" style="fill:#ec662d"/><path d="M92.9,37.1a7.4,7.4,0,1,1-7.4-7.4A7.4,7.4,0,0,1,92.9,37.1Z" style="fill:#ec662d"/><path d="M93.2,58a7.4,7.4,0,1,1-7.4-7.4A7.4,7.4,0,0,1,93.2,58Z" style="fill:#ec662d"/><path d="M78.8,76.9a7.4,7.4,0,1,1-7.4-7.4A7.4,7.4,0,0,1,78.8,76.9Z" style="fill:#ec662d"/><path d="M56.8,84.8a7.4,7.4,0,1,1-7.4-7.3A7.4,7.4,0,0,1,56.8,84.8Z" style="fill:#ec662d"/><path d="M35.4,76.9a7.4,7.4,0,1,1-14.7,0,7.4,7.4,0,1,1,14.7,0Z" style="fill:#ec662d"/><path d="M21.4,58A7.4,7.4,0,1,1,14,50.6,7.4,7.4,0,0,1,21.4,58Z" style="fill:#ec662d"/><path d="M21,37.1a7.4,7.4,0,1,1-7.4-7.4A7.4,7.4,0,0,1,21,37.1Z" style="fill:#ec662d"/><path d="M34.4,18.5A7.4,7.4,0,1,1,27,11.1,7.4,7.4,0,0,1,34.4,18.5Z" style="fill:#ec662d"/><path d="M67.2,4.7a3.5,3.5,0,0,1-4.4,2.2,3.5,3.5,0,0,1-2.1-4.4A3.4,3.4,0,0,1,65,.3,3.5,3.5,0,0,1,67.2,4.7Z" style="fill:#ec662d"/><path d="M37.2,5.2A3.5,3.5,0,0,1,30.6,3a3.5,3.5,0,0,1,6.6,2.2Z" style="fill:#ec662d"/><path d="M15,22.6a3.3,3.3,0,0,1-4.3,2.1,3.3,3.3,0,0,1-2.2-4.3A3.4,3.4,0,1,1,15,22.6Z" style="fill:#ec662d"/><path d="M7.2,48.5a3.4,3.4,0,0,1-4.4,2.2A3.4,3.4,0,1,1,5,44.2,3.4,3.4,0,0,1,7.2,48.5Z" style="fill:#ec662d"/><path d="M16,75.5a3.4,3.4,0,0,1-4.4,2.1,3.4,3.4,0,0,1-2.2-4.3A3.5,3.5,0,1,1,16,75.5Z" style="fill:#ec662d"/><path d="M38.1,91.4a3.4,3.4,0,0,1-4.3,2.2,3.5,3.5,0,0,1-2.2-4.4A3.5,3.5,0,0,1,36,87.1,3.3,3.3,0,0,1,38.1,91.4Z" style="fill:#ec662d"/><path d="M66.6,92.2A3.5,3.5,0,0,1,60,90a3.5,3.5,0,0,1,4.4-2.1A3.4,3.4,0,0,1,66.6,92.2Z" style="fill:#ec662d"/><path d="M90.2,74.8A3.6,3.6,0,0,1,85.8,77a3.5,3.5,0,0,1-2.2-4.4A3.5,3.5,0,0,1,88,70.5,3.4,3.4,0,0,1,90.2,74.8Z" style="fill:#ec662d"/><path d="M90.9,22.6a3.5,3.5,0,0,1-6.6-2.2,3.5,3.5,0,1,1,6.6,2.2Z" style="fill:#ec662d"/><path d="M98.8,48.5a3.4,3.4,0,0,1-4.4,2.2,3.4,3.4,0,0,1,2.2-6.5A3.4,3.4,0,0,1,98.8,48.5Z" style="fill:#ec662d"/><path d="M61.2,27a4.6,4.6,0,0,1-5.8,2.9,4.5,4.5,0,0,1,2.9-8.6A4.5,4.5,0,0,1,61.2,27Z" style="fill:#ec662d"/><path d="M72,36.2a3.1,3.1,0,0,1-4,2,3.2,3.2,0,1,1,4-2Z" style="fill:#ec662d"/><path d="M76.9,49.9a4.6,4.6,0,0,1-5.8,2.8A4.5,4.5,0,0,1,74,44.1,4.7,4.7,0,0,1,76.9,49.9Z" style="fill:#ec662d"/><path d="M71.7,61.7a3.2,3.2,0,0,1-4.1,2,3.3,3.3,0,0,1-2-4,3.2,3.2,0,0,1,6.1,2Z" style="fill:#ec662d"/><path d="M60.9,70.3a4.5,4.5,0,1,1-8.6-2.9A4.4,4.4,0,0,1,58,64.6,4.5,4.5,0,0,1,60.9,70.3Z" style="fill:#ec662d"/><path d="M45.3,70.2a3.4,3.4,0,0,1-4.1,2,3.2,3.2,0,0,1,2-6.1A3.3,3.3,0,0,1,45.3,70.2Z" style="fill:#ec662d"/><path d="M35.7,61.9a4.6,4.6,0,0,1-5.8,2.8A4.5,4.5,0,0,1,27.1,59a4.5,4.5,0,0,1,5.7-2.9A4.6,4.6,0,0,1,35.7,61.9Z" style="fill:#ec662d"/><path d="M29.9,47.7a3.3,3.3,0,0,1-4,2,3.2,3.2,0,1,1,4-2Z" style="fill:#ec662d"/><path d="M35.1,35.8a4.6,4.6,0,0,1-5.8,2.9,4.5,4.5,0,0,1,2.9-8.6A4.5,4.5,0,0,1,35.1,35.8Z" style="fill:#ec662d"/><path d="M45.2,27.2a3.1,3.1,0,0,1-4,2,3.2,3.2,0,0,1,2-6A3.1,3.1,0,0,1,45.2,27.2Z" style="fill:#ec662d"/></svg>