<svg xmlns="http://www.w3.org/2000/svg" viewBox="0 0 800 94.4"><title>rl-logo-2</title><circle cx="48.9" cy="9.7" r="7.4" style="fill:#ec662d"/><circle cx="72.7" cy="18.3" r="7.4" style="fill:#ec662d"/><circle cx="85" cy="36.9" r="7.4" style="fill:#ec662d"/><circle cx="85.4" cy="57.9" r="7.4" style="fill:#ec662d"/><circle cx="70.9" cy="76.8" r="7.4" style="fill:#ec662d"/><circle cx="48.9" cy="84.7" r="7.4" style="fill:#ec662d"/><circle cx="27.6" cy="76.8" r="7.4" style="fill:#ec662d"/><circle cx="13.5" cy="57.9" r="7.4" style="fill:#ec662d"/><circle cx="13.2" cy="36.9" r="7.4" style="fill:#ec662d"/><circle cx="26.6" cy="18.3" r="7.4" style="fill:#ec662d"/><circle cx="63.5" cy="3.7" r="3.4" transform="translate(39.8 62.5) rotate(-71.5)" style="fill:#ec662d"/><circle cx="33.5" cy="4.2" r="3.4" transform="translate(18.8 34.3) rotate(-71.4)" style="fill:#ec662d"/><circle cx="11.3" cy="21.6" r="3.4" transform="translate(-12.8 25.2) rotate(-71.4)" style="fill:#ec662d"/><circle cx="3.4" cy="47.6" r="3.4" transform="translate(-42.8 35.4) rotate(-71.5)" style="fill:#ec662d"/><circle cx="12.3" cy="74.5" r="3.4" transform="translate(-62.3 62.1) rotate(-71.5)" style="fill:#ec662d"/><circle cx="34.4" cy="90.5" r="3.4" transform="translate(-62.3 94) rotate(-71.5)" style="fill:#ec662d"/><circle cx="62.9" cy="91.3" r="3.4" transform="translate(-43.7 121.5) rotate(-71.4)" style="fill:#ec662d"/><circle cx="86.4" cy="73.9" r="3.4" transform="translate(-11.1 132) rotate(-71.4)" style="fill:#ec662d"/><circle cx="87.2" cy="21.6" r="3.4" transform="translate(38.9 97.1) rotate(-71.4)" style="fill:#ec662d"/><circle cx="95.1" cy="47.6" r="3.4" transform="translate(19.8 122.3) rotate(-71.5)" style="fill:#ec662d"/><circle cx="56.4" cy="25.7" r="4.5" transform="translate(14.1 70.7) rotate(-71.4)" style="fill:#ec662d"/><circle cx="68.5" cy="35.3" r="3.2" transform="translate(13.2 88.8) rotate(-71.4)" style="fill:#ec662d"/><circle cx="72.1" cy="48.5" r="4.5" transform="translate(3.2 101.2) rotate(-71.5)" style="fill:#ec662d"/><circle cx="68.2" cy="60.8" r="3.2" transform="translate(-11.1 105.8) rotate(-71.4)" style="fill:#ec662d"/><circle cx="56.1" cy="69" r="4.5" transform="translate(-27.1 100) rotate(-71.5)" style="fill:#ec662d"/><circle cx="41.8" cy="69.3" r="3.2" transform="translate(-37.2 86.6) rotate(-71.4)" style="fill:#ec662d"/><circle cx="30.9" cy="60.5" r="4.5" transform="matrix(0.32, -0.95, 0.95, 0.32, -36.29, 70.32)" style="fill:#ec662d"/><circle cx="26.4" cy="46.8" r="3.2" transform="translate(-26.3 56.7) rotate(-71.4)" style="fill:#ec662d"/><circle cx="30.3" cy="34.5" r="4.5" transform="translate(-12.1 52) rotate(-71.5)" style="fill:#ec662d"/><circle cx="41.7" cy="26.3" r="3.2" transform="translate(3.5 57.3) rotate(-71.5)" style="fill:#ec662d"/><path d="M144.2,65.5l15.7,19.6H146L133,68.5l-1.7-2.1V85.1H120.8V20.5h-8.2l5.2-10.6h15.3a29.5,29.5,0,0,1,27.5,29.3A28.9,28.9,0,0,1,144.2,65.5Zm-11.6-45a5.4,5.4,0,0,0-1.4,0V58a18.8,18.8,0,0,0,1.4-37.5Z" transform="translate(0 -0.3)" style="fill:#fff"/><path d="M206.2,55.3l-19.2,18a13.3,13.3,0,0,0,7.6,2.4,14,14,0,0,0,8.8-3.3l8.3,6.1a23.7,23.7,0,1,1,2-30.2Zm-11.6-6.7a13.5,13.5,0,0,0-13.5,13.5,12.3,12.3,0,0,0,.3,2.9l16.9-15.9A12.9,12.9,0,0,0,194.6,48.7Z" transform="translate(0 -0.3)" style="fill:#fff"/><path d="M274.8,85.1V54.9a7.5,7.5,0,0,0-15,0V85.1H250V54.9a7.5,7.5,0,0,0-15,0V85.1h-9.8V38.5l5.5,4.6a17.3,17.3,0,0,1,11.7-4.6,17.1,17.1,0,0,1,12.4,5.2,17.4,17.4,0,0,1,29.8,10.7V85.1Z" transform="translate(0 -0.3)" style="fill:#fff"/><path d="M322,85.9a23.7,23.7,0,1,1,23.7-23.7A23.7,23.7,0,0,1,322,85.9Zm0-37.2a13.5,13.5,0,1,0,13.5,13.5A13.5,13.5,0,0,0,322,48.7Z" transform="translate(0 -0.3)" style="fill:#fff"/><path d="M372.6,48.2V85.1h-9.8V48.2H356v-9h6.8V27.9l9.8-4.5V39.2h6v9Z" transform="translate(0 -0.3)" style="fill:#fff"/><path d="M424.4,55.3l-19.2,18a13.3,13.3,0,0,0,7.6,2.4,14,14,0,0,0,8.8-3.3l8.3,6.1a23.7,23.7,0,1,1,2-30.2Zm-11.6-6.7a13.5,13.5,0,0,0-13.5,13.5,12.3,12.3,0,0,0,.3,2.9l16.9-15.9A12.9,12.9,0,0,0,412.8,48.7Z" transform="translate(0 -0.3)" style="fill:#fff"/><path d="M443.4,51.3V44.5h22.5v6.8Z" transform="translate(0 -0.3)" style="fill:#fff"/><path d="M481.1,85.1h0V9.9h10.5V74.6h21.1V85.1Z" transform="translate(0 -0.3)" style="fill:#fff"/><path d="M556.1,55.3l-19.2,18a13.3,13.3,0,0,0,7.6,2.4,14,14,0,0,0,8.8-3.3l8.3,6.1a23.7,23.7,0,1,1,2-30.2Zm-11.6-6.7A13.5,13.5,0,0,0,531,62.2a12.3,12.3,0,0,0,.3,2.9l16.9-15.9A12.9,12.9,0,0,0,544.5,48.7Z" transform="translate(0 -0.3)" style="fill:#fff"/><path d="M612.8,79.6a23.7,23.7,0,1,1-16.1-41A23.3,23.3,0,0,1,612.8,45l7.6-6.4V85.9ZM596.7,48.7a13.5,13.5,0,1,0,13.5,13.5A13.5,13.5,0,0,0,596.7,48.7Z" transform="translate(0 -0.3)" style="fill:#fff"/><path d="M654.7,48.7a6.1,6.1,0,0,0-2.5-.5,7.5,7.5,0,0,0-7.4,6.7V85.1H635V38.5l5.5,4.6a16.8,16.8,0,0,1,11.7-4.6,17.9,17.9,0,0,1,7.8,1.8Z" transform="translate(0 -0.3)" style="fill:#fff"/><path d="M697.2,85.1V54.9a7.5,7.5,0,0,0-15,0V85.1h-9.8V38.5l5.5,4.6a17.3,17.3,0,0,1,11.7-4.6A17.3,17.3,0,0,1,707,54.4V85.1Z" transform="translate(0 -0.3)" style="fill:#fff"/><path d="M756,55.3l-19.2,18a13.3,13.3,0,0,0,7.6,2.4,14,14,0,0,0,8.8-3.3l8.3,6.1a23.7,23.7,0,1,1,2-30.2Zm-11.6-6.7a13.5,13.5,0,0,0-13.5,13.5,12.3,12.3,0,0,0,.3,2.9l16.9-15.9A12.9,12.9,0,0,0,744.4,48.7Z" transform="translate(0 -0.3)" style="fill:#fff"/><path d="M794.7,48.7a6.1,6.1,0,0,0-2.5-.5,7.5,7.5,0,0,0-7.4,6.7V85.1H775V38.5l5.5,4.6a16.8,16.8,0,0,1,11.7-4.6,17.9,17.9,0,0,1,7.8,1.8Z" transform="translate(0 -0.3)" style="fill:#fff"/></svg>