<svg xmlns="http://www.w3.org/2000/svg" viewBox="0 0 957.8 917.7">
  <title>dots</title>
  <g>
    <g>
      <path d="M547.4,115.9a71.8,71.8,0,1,1-71.8-71.8A71.8,71.8,0,0,1,547.4,115.9Z" transform="translate(0 -21.3)" style="fill: #fff"/>
      <path d="M778,199.5a71.8,71.8,0,1,1-71.8-71.8A71.8,71.8,0,0,1,778,199.5Z" transform="translate(0 -21.3)" style="fill: #fff"/>
      <path d="M898.2,379.9a71.8,71.8,0,1,1-71.8-71.8A71.8,71.8,0,0,1,898.2,379.9Z" transform="translate(0 -21.3)" style="fill: #fff"/>
      <path d="M901.6,583.7a71.8,71.8,0,1,1-71.8-71.8A71.8,71.8,0,0,1,901.6,583.7Z" transform="translate(0 -21.3)" style="fill: #fff"/>
      <path d="M761.3,767.5a71.8,71.8,0,1,1-71.8-71.8A71.8,71.8,0,0,1,761.3,767.5Z" transform="translate(0 -21.3)" style="fill: #fff"/>
      <path d="M547.4,844.3a71.8,71.8,0,1,1-71.8-71.8A71.9,71.9,0,0,1,547.4,844.3Z" transform="translate(0 -21.3)" style="fill: #fff"/>
      <path d="M340.3,767.5a71.8,71.8,0,1,1-71.8-71.8A71.8,71.8,0,0,1,340.3,767.5Z" transform="translate(0 -21.3)" style="fill: #fff"/>
      <path d="M203.3,583.7a71.8,71.8,0,1,1-71.8-71.8A71.8,71.8,0,0,1,203.3,583.7Z" transform="translate(0 -21.3)" style="fill: #fff"/>
      <path d="M199.9,379.9a71.8,71.8,0,1,1-71.8-71.8A71.8,71.8,0,0,1,199.9,379.9Z" transform="translate(0 -21.3)" style="fill: #fff"/>
      <path d="M330.2,199.5a71.8,71.8,0,1,1-71.8-71.8A71.8,71.8,0,0,1,330.2,199.5Z" transform="translate(0 -21.3)" style="fill: #fff"/>
    </g>
    <g>
      <path d="M648.8,65.5a33.5,33.5,0,1,1-21.1-42.4A33.5,33.5,0,0,1,648.8,65.5Z" transform="translate(0 -21.3)" style="fill: #fff"/>
      <path d="M357.1,70.1A33.5,33.5,0,1,1,336,27.7,33.5,33.5,0,0,1,357.1,70.1Z" transform="translate(0 -21.3)" style="fill: #fff"/>
      <path d="M141.7,239.2a33.5,33.5,0,1,1-21.1-42.4A33.5,33.5,0,0,1,141.7,239.2Z" transform="translate(0 -21.3)" style="fill: #fff"/>
      <path d="M65.3,491.6a33.5,33.5,0,1,1-21.1-42.5A33.5,33.5,0,0,1,65.3,491.6Z" transform="translate(0 -21.3)" style="fill: #fff"/>
      <path d="M151,753.3a33.5,33.5,0,1,1-21.1-42.4A33.5,33.5,0,0,1,151,753.3Z" transform="translate(0 -21.3)" style="fill: #fff"/>
      <path d="M366.4,908.4A33.5,33.5,0,1,1,345.2,866,33.5,33.5,0,0,1,366.4,908.4Z" transform="translate(0 -21.3)" style="fill: #fff"/>
      <path d="M642.7,916.1a33.5,33.5,0,1,1-21.1-42.4A33.5,33.5,0,0,1,642.7,916.1Z" transform="translate(0 -21.3)" style="fill: #fff"/>
      <path d="M871.9,747.1a33.5,33.5,0,1,1-21.1-42.5A33.5,33.5,0,0,1,871.9,747.1Z" transform="translate(0 -21.3)" style="fill: #fff"/>
      <path d="M878.9,239.2a33.5,33.5,0,1,1-21.1-42.4A33.5,33.5,0,0,1,878.9,239.2Z" transform="translate(0 -21.3)" style="fill: #fff"/>
      <path d="M956.1,491.6A33.5,33.5,0,1,1,935,449.1,33.5,33.5,0,0,1,956.1,491.6Z" transform="translate(0 -21.3)" style="fill: #fff"/>
    </g>
    <g>
      <path d="M590.1,282.3a44.1,44.1,0,1,1-27.8-55.8A44,44,0,0,1,590.1,282.3Z" transform="translate(0 -21.3)" style="fill: #fff"/>
      <path d="M695.5,371.7A31,31,0,1,1,676,332.5,30.9,30.9,0,0,1,695.5,371.7Z" transform="translate(0 -21.3)" style="fill: #fff"/>
      <path d="M742.7,504.3a44.1,44.1,0,1,1-27.8-55.8A44,44,0,0,1,742.7,504.3Z" transform="translate(0 -21.3)" style="fill: #fff"/>
      <path d="M692.4,619.3a31,31,0,1,1-19.5-39.2A30.9,30.9,0,0,1,692.4,619.3Z" transform="translate(0 -21.3)" style="fill: #fff"/>
      <path d="M587.4,703a44.1,44.1,0,1,1-27.8-55.8A44,44,0,0,1,587.4,703Z" transform="translate(0 -21.3)" style="fill: #fff"/>
      <path d="M435.6,701.8a31,31,0,1,1-19.5-39.2A31,31,0,0,1,435.6,701.8Z" transform="translate(0 -21.3)" style="fill: #fff"/>
      <path d="M342.5,620.9a44.1,44.1,0,1,1-27.8-55.8A44.1,44.1,0,0,1,342.5,620.9Z" transform="translate(0 -21.3)" style="fill: #fff"/>
      <path d="M286.3,483.1a31,31,0,1,1-19.5-39.2A31,31,0,0,1,286.3,483.1Z" transform="translate(0 -21.3)" style="fill: #fff"/>
      <path d="M336.5,368.1a44.1,44.1,0,1,1-27.8-55.8A44.1,44.1,0,0,1,336.5,368.1Z" transform="translate(0 -21.3)" style="fill: #fff"/>
      <path d="M435.1,284.4a31,31,0,1,1-19.5-39.2A31,31,0,0,1,435.1,284.4Z" transform="translate(0 -21.3)" style="fill: #fff"/>
    </g>
  </g>
</svg>
