<svg xmlns="http://www.w3.org/2000/svg" viewBox="0 0 310.45 195.52" aria-labelledby="svg-gears-title svg-gears-desc">
  <title id="svg-gears-title">Remote-Learner Gears Graphic</title>
  <desc id="svg-gears-desc">A group of connected gears representing Remote-Learner&apos;s custom solutions.</desc>
    <g class="rl-gears">
        <path class="rl-gear" id="gear1" d="M142.88 1.24L144 6.8a37.33 37.33 0 0 1 5 2.2l4.88-2.9 4.77 3.48-1.25 5.56a37.34 37.34 0 0 1 3.61 4l5.68-.66 3 5.12-3.44 4.61a38.85 38.85 0 0 1 1.64 5.1l5.5 1.72L174 41l-5.08 2.85a39.1 39.1 0 0 1-.58 5.23l4.39 3.87-1.83 5.62-5.9.53a38.1 38.1 0 0 1-2.61 4.47l2.45 5.43-4 4.39-5.66-1.92a37.61 37.61 0 0 1-4.13 3l.06 6-5.4 2.4-4.42-4.09a37.53 37.53 0 0 1-5 1L134 85.3h-5.92l-2.39-5.56c-.82-.12-1.65-.26-2.47-.44s-1.64-.38-2.44-.61l-4.45 4.1-5.4-2.4.08-6a36.82 36.82 0 0 1-4.09-3l-5.71 1.92-3.95-4.39 2.51-5.45a37.21 37.21 0 0 1-2.56-4.41l-6-.55-1.82-5.63L93.88 49a38.41 38.41 0 0 1-.56-5.16l-5.14-2.89.62-5.88 5.6-1.74a37.51 37.51 0 0 1 1.6-5l-3.48-4.68 3-5.11 5.73.67a37.73 37.73 0 0 1 3.58-4l-1.26-5.61 4.78-3.47L113.23 9a37.93 37.93 0 0 1 5-2.22l1.12-5.58 5.73-1.2 3.27 4.63a38.41 38.41 0 0 1 5.47 0L137.1 0l5.78 1.23zm-18 70.27a29.84 29.84 0 1 0-23-35.4 29.83 29.83 0 0 0 23 35.4z"/>
        <path class="rl-gear" id="gear2" d="M107.75 82.91l.94 4.71a30.65 30.65 0 0 1 4.21 1.88l4.1-2.45 4 2.94-1 4.7a31.75 31.75 0 0 1 3 3.41l4.8-.56 2.5 4.33-2.91 3.9a32.31 32.31 0 0 1 1.39 4.31l4.65 1.45.52 5-4.29 2.41a35.15 35.15 0 0 1-.49 4.42l3.71 3.28-1.54 4.75-5 .45a30.26 30.26 0 0 1-2.21 3.79l2.09 4.55-3.22 3.68-4.79-1.62a31.86 31.86 0 0 1-3.49 2.52v5.07l-4.56 2-3.74-3.46a32.69 32.69 0 0 1-4.18.89l-2 4.67h-5l-2-4.7c-.69-.1-1.39-.22-2.09-.37s-1.38-.32-2.06-.51l-3.76 3.46-4.56-2 .06-5.1a31.78 31.78 0 0 1-3.46-2.51l-4.82 1.63-3.34-3.71 2.12-4.61a31.31 31.31 0 0 1-2.16-3.72l-5-.47-1.54-4.76 3.76-3.3a30 30 0 0 1-.47-4.36l-4.35-2.44.52-5 4.68-1.46a33.27 33.27 0 0 1 1.36-4.24l-2.94-4 2.5-4.32 4.84.57a30.34 30.34 0 0 1 3-3.37L74.49 90l4.05-3 4.15 2.47a31.91 31.91 0 0 1 4.18-1.87l.95-4.73 4.89-1 2.76 3.91a32.38 32.38 0 0 1 4.62 0l2.77-3.91 4.89 1zm-15.21 59.4a25.22 25.22 0 1 0-19.41-29.92 25.21 25.21 0 0 0 19.41 29.92z"/>
        <path class="rl-gear" id="gear3" d="M181.13 78.4l.86 4.31a29.33 29.33 0 0 1 3.87 1.72l3.78-2.24 3.7 2.7-1 4.3a30.69 30.69 0 0 1 2.8 3.13l4.4-.51 2.29 4-2.67 3.57a28.4 28.4 0 0 1 1.27 4l4.27 1.34.48 4.55-3.94 2.21a29.52 29.52 0 0 1-.45 4l3.41 3-1.42 4.36-4.55.42a29.15 29.15 0 0 1-2 3.47l1.92 4.17-3.07 3.4-4.38-1.49a27.72 27.72 0 0 1-3.21 2.31v4.65l-4.18 1.86-3.43-3.16a28.92 28.92 0 0 1-3.83.8l-1.85 4.29h-4.58l-1.85-4.31c-.64-.09-1.28-.2-1.92-.34s-1.27-.29-1.89-.47l-3.45 3.18-4.18-1.87.06-4.67a29.13 29.13 0 0 1-3.17-2.3l-4.42 1.49-3.06-3.4 1.94-4.22a28.39 28.39 0 0 1-2-3.42l-4.61-.43-1.42-4.35 3.45-3a29.48 29.48 0 0 1-.43-4l-4-2.24.49-4.55 4.33-1.35a29.39 29.39 0 0 1 1.24-3.89l-2.69-3.62 2.29-4 4.44.52a29.07 29.07 0 0 1 2.77-3.09l-1-4.35 3.7-2.69 3.81 2.27a28 28 0 0 1 3.95-1.74l.87-4.33 4.48-1 2.53 3.61a29.86 29.86 0 0 1 4.23 0l2.54-3.58 4.48 1zm-13.94 54.45a23.12 23.12 0 1 0-17.79-27.43 23.11 23.11 0 0 0 17.79 27.43z"/>
        <path class="rl-gear" id="gear4" d="M215.12 22.34l.8 4.05a26.53 26.53 0 0 1 3.64 1.61l3.56-2.11 3.48 2.53-.91 4.06a26.17 26.17 0 0 1 2.63 2.94l4.14-.48 2.15 3.73-2.5 3.36a28.25 28.25 0 0 1 1.19 3.72l4 1.25.45 4.29-3.7 2.08a27.74 27.74 0 0 1-.42 3.81l3.2 2.82-1.33 4.1-4.28.39a27.93 27.93 0 0 1-1.91 3.27l1.8 3.92-2.88 3.2-4.13-1.39a28 28 0 0 1-3 2.17l.05 4.37-3.94 1.75-3.22-3a27.56 27.56 0 0 1-3.61.76l-1.74 4h-4.31l-1.74-4c-.6-.09-1.2-.19-1.81-.32s-1.19-.22-1.78-.42l-3.25 3-3.92-1.8v-4.39a26.7 26.7 0 0 1-3-2.17l-4.16 1.41-2.88-3.2 1.83-4a27.7 27.7 0 0 1-1.87-3.21l-4.34-.41-1.25-4.03 3.24-2.85a27.72 27.72 0 0 1-.41-3.76l-3.75-2.11.46-4.28 4.07-1.27a29.46 29.46 0 0 1 1.17-3.66l-2.53-3.4 2.16-3.73 4.17.49a27.9 27.9 0 0 1 2.61-2.91l-.92-4.09 3.49-2.53 3.58 2.1a29.23 29.23 0 0 1 3.61-1.62l.82-4.07 4.21-.89 2.39 3.37a29.37 29.37 0 0 1 4 0l2.39-3.37 4.22.9zm-11.76 51.47a21.74 21.74 0 1 0-18.1-26.05 21.85 21.85 0 0 0 18.1 26.05z"/>
        <path class="rl-gear" id="gear5" d="M240.53 79.53l.65 3.27a21.38 21.38 0 0 1 2.93 1.3l2.89-1.7 2.81 2-.73 3.26a22.81 22.81 0 0 1 2.12 2.38l3.33-.39 1.74 3-2 2.71a22.29 22.29 0 0 1 1 3l3.24 1 .36 3.45-3 1.68a21.52 21.52 0 0 1-.34 3.07l2.47 2.34-1 3.3-3.45.32a21.53 21.53 0 0 1-1.54 2.63l1.46 3.16-2.33 2.58-3.32-1.13a23 23 0 0 1-2.43 1.75v3.53l-3.18 1.41-2.6-2.4a21.31 21.31 0 0 1-2.9.61l-1.4 3.25h-3.48l-1.4-3.27c-.48-.07-1-.15-1.45-.25s-1-.23-1.44-.36l-2.61 2.41-3.17-1.44v-3.54a22.92 22.92 0 0 1-2.4-1.74l-3.35 1.13-2.32-2.58 1.47-3.2a22.32 22.32 0 0 1-1.5-2.59l-3.5-.33-1.07-3.3 2.61-2.3a21.6 21.6 0 0 1-.33-3l-3-1.69.37-3.46 3.28-1a22.08 22.08 0 0 1 1-3l-2.05-2.74 1.74-3 3.37.4a22.31 22.31 0 0 1 2.1-2.34l-.74-3.3 2.81-2 2.89 1.71a22.89 22.89 0 0 1 2.9-1.3l.66-3.28 3.4-.72 1.9 2.69a21.5 21.5 0 0 1 3.21 0l1.93-2.72 3.4.73zM230 120.81A17.53 17.53 0 1 0 216.46 100 17.53 17.53 0 0 0 230 120.81z"/>
        <path class="rl-gear" id="gear6" d="M273.2 40.29l.6 3a20.27 20.27 0 0 1 2.72 1.22l2.66-1.51 2.61 1.9-.68 3a20.5 20.5 0 0 1 2 2.2l3.1-.36 1.61 2.79-1.91 2.47a20.45 20.45 0 0 1 .89 2.78l3 .94.33 3.21-2.77 1.55a21.22 21.22 0 0 1-.31 2.85l2.4 2.12-1 3.06-3.21.3a21 21 0 0 1-1.42 2.44l1.35 2.94-2.17 2.43-3.09-1.05a19.91 19.91 0 0 1-2.26 1.63v3.27l-2.94 1.31-2.42-2.23a20.41 20.41 0 0 1-2.69.57l-1.31 3h-3.22l-1.31-3q-.68-.1-1.35-.24c-.45-.1-.89-.21-1.33-.33l-2.42 2.23-3-1.31v-3.29a20.77 20.77 0 0 1-2.23-1.62l-3.11 1-2.16-2.39 1.37-3a22 22 0 0 1-1.39-2.4l-3.25-.3-1-3.07 2.42-2.13a21.75 21.75 0 0 1-.3-2.81l-2.81-1.58.34-3.21 3.05-.95a22.3 22.3 0 0 1 .88-2.73l-1.9-2.55 1.62-2.79 3.12.37a20.22 20.22 0 0 1 1.95-2.18l-.68-3.06 2.6-1.89 2.82 1.65a20.28 20.28 0 0 1 2.69-1.21l.62-3 3.15-.67 1.79 2.53a21 21 0 0 1 3 0l1.8-2.52 3.15.67zm-9.82 38.33a16.27 16.27 0 1 0-12.52-19.31 16.28 16.28 0 0 0 12.52 19.31z"/>
        <path class="rl-gear" id="gear7" d="M292.55 85.92l.56 2.79a20 20 0 0 1 2.5 1.11l2.44-1.45 2.4 1.75-.63 2.78a19.31 19.31 0 0 1 1.81 2l2.85-.33 1.52 2.59-1.73 2.32a18.49 18.49 0 0 1 .82 2.55l2.76.86.31 3-2.54 1.43a19.65 19.65 0 0 1-.3 2.62l2.21 1.94-.92 2.82-2.94.27a20 20 0 0 1-1.31 2.25l1.24 2.7-2 2.2-2.84-1a17.05 17.05 0 0 1-2.07 1.5v3l-2.69 1.19-2.22-2a18.83 18.83 0 0 1-2.48.52l-1.19 2.78h-3l-1.2-2.79c-.41-.06-.82-.13-1.24-.22s-.82-.19-1.22-.31l-2.23 2.06-2.71-1.21v-3a18.81 18.81 0 0 1-2.05-1.49l-2.86 1-2-2.2 1.26-2.74a17.26 17.26 0 0 1-1.28-2.2l-3-.28-.91-2.82 2.23-2a18.51 18.51 0 0 1-.28-2.58l-2.58-1.45.31-2.95 2.81-.87a19 19 0 0 1 .8-2.52l-1.74-2.34 1.48-2.56 2.87.33a18.9 18.9 0 0 1 1.8-2l-.63-2.81 2.39-1.74 2.47 1.47a19.15 19.15 0 0 1 2.48-1.12l.56-2.8 2.9-.61 1.64 2.32a20.88 20.88 0 0 1 2.74 0l1.64-2.32 2.9.62zm-9 35.23A15 15 0 1 0 272 103.4a15 15 0 0 0 11.53 17.75z"/>
        <path class="rl-gear" id="gear8" d="M303.3 66.79l.25 1.28a10 10 0 0 1 1.15.51l1.13-.66 1.1.8-.29 1.28a9.18 9.18 0 0 1 .83.93l1.31-.15.67 1.17-.79 1.05a8 8 0 0 1 .38 1.17l1.27.4.14 1.35-1.17.65a9.94 9.94 0 0 1-.13 1.21l1 .89-.41 1.33-1.35.13a8.2 8.2 0 0 1-.61 1l.57 1.24-.91 1-1.3-.44a7.84 7.84 0 0 1-.95.68V85l-1.24.56-1-.94a10.46 10.46 0 0 1-1.14.24l-.55 1.27h-1.36l-.55-1.28-.57-.1-.56-.14-1 .94L296 85v-1.38a10.72 10.72 0 0 1-.94-.68l-1.31.44-.91-1 .58-1.25a8.69 8.69 0 0 1-.59-1l-1.41-.13-.42-1.32 1-.9a9.41 9.41 0 0 1-.13-1.19l-1.18-.66.14-1.36 1.29-.4a9.07 9.07 0 0 1 .37-1.15l-.8-1.08.68-1.17 1.32.15a10.17 10.17 0 0 1 .82-.92l-.29-1.29 1.1-.8 1.13.67a11.64 11.64 0 0 1 1.14-.51l.26-1.28 1.33-.28.76 1.06a8.69 8.69 0 0 1 1.25 0l.76-1.06 1.33.28zM299.16 83a6.87 6.87 0 1 0-5.29-8.15 6.87 6.87 0 0 0 5.29 8.15z"/>
        <path class="rl-gear" id="gear9" d="M213.1 122.7l.25 1.25a8.67 8.67 0 0 1 1.12.5l1.09-.65 1.07.78-.28 1.25a8.66 8.66 0 0 1 .81.9l1.27-.14.67 1.14-.78 1a7.58 7.58 0 0 1 .37 1.14l1.24.39.13 1.31-1.13.64a9.67 9.67 0 0 1-.13 1.18l1 .86-.41 1.26-1.32.13a7.65 7.65 0 0 1-.58 1l.55 1.21-.88 1-1.27-.43a9.93 9.93 0 0 1-.93.67v1.34l-1.21.54-1-.91a8.09 8.09 0 0 1-1.11.23l-.53 1.24h-1.33l-.53-1.25a5.48 5.48 0 0 1-.56-.1 4.72 4.72 0 0 1-.54-.13l-1 .92-1.21-.54v-1.33a8.52 8.52 0 0 1-.91-.67l-1.28.43-.89-1 .56-1.22a9.75 9.75 0 0 1-.57-1l-1.33-.13-.41-1.26 1-.87a9 9 0 0 1-.13-1.16l-1.15-.65.14-1.31 1.25-.39a9.94 9.94 0 0 1 .36-1.13l-.78-1.05.66-1.14 1.29.15a8.57 8.57 0 0 1 .8-.9l-.28-1.26 1.07-.77 1.1.65a9.19 9.19 0 0 1 1.11-.5l.25-1.25 1.3-.27.73 1a8.42 8.42 0 0 1 1.23 0l.73-1 1.3.27zm-4 15.76a6.69 6.69 0 1 0-5.14-7.94 6.69 6.69 0 0 0 5.1 7.94z"/>
        <path class="rl-gear" id="gear10" d="M242 131.73l.54 2.75a17.67 17.67 0 0 1 2.47 1.1l2.41-1.43 2.36 1.71-.62 2.75a18.61 18.61 0 0 1 1.78 2l2.81-.32 1.45 2.53-1.69 2.27a20 20 0 0 1 .8 2.52l2.72.85.31 2.9-2.51 1.41a19.19 19.19 0 0 1-.29 2.59l2.17 1.91-.9 2.77-2.9.27a18 18 0 0 1-1.29 2.21l1.22 2.66-1.95 2.17-2.8-1a18.16 18.16 0 0 1-2 1.47v3l-2.7 1.18-2.18-2a18.25 18.25 0 0 1-2.44.52l-1.18 2.73h-2.92l-1.18-2.75c-.41-.05-.82-.13-1.22-.21s-.81-.19-1.21-.3l-2.2 2-2.66-1.19v-3a18.64 18.64 0 0 1-2-1.47l-2.82.95-2-2.17 1.24-2.69a18.22 18.22 0 0 1-1.27-2.18l-2.94-.27-.9-2.78 2.2-1.93a19.35 19.35 0 0 1-.28-2.54l-2.43-1.39.3-2.9 2.76-.86a18.41 18.41 0 0 1 .8-2.48l-1.72-2.31 1.46-2.52 2.83.33a17.4 17.4 0 0 1 1.77-2l-.62-2.77 2.36-1.72 2.43 1.45a19.14 19.14 0 0 1 2.44-1.1l.55-2.76 2.86-.6 1.61 2.28a18.73 18.73 0 0 1 2.7 0l1.62-2.29 2.86.61zm-8.89 34.7A14.73 14.73 0 1 0 221.75 149a14.74 14.74 0 0 0 11.34 17.43z"/>
        <path class="rl-gear" id="gear11" d="M195.52 145.05l.67 3.34a21.78 21.78 0 0 1 3 1.34l2.93-1.74 2.87 2.09-.75 3.34a21.58 21.58 0 0 1 2.16 2.42l3.42-.4 1.77 3.08-2.07 2.77a22.76 22.76 0 0 1 1 3.06l3.3 1 .37 3.53-3 1.71a21.38 21.38 0 0 1-.35 3.15l2.65 2.32-1.1 3.37-3.53.33a21.73 21.73 0 0 1-1.57 2.69l1.48 3.23-2.37 2.64-3.4-1.15a23.89 23.89 0 0 1-2.48 1.78v3.61l-3.28 1.44-2.65-2.46a21.18 21.18 0 0 1-3 .63l-1.44 3.32h-3.54l-1.44-3.34c-.5-.07-1-.15-1.49-.26s-1-.23-1.46-.36l-2.64 2.47-3.24-1.45v-3.62a21.57 21.57 0 0 1-2.45-1.78l-3.43 1.16-2.37-2.64 1.5-3.27a22.49 22.49 0 0 1-1.53-2.65l-3.58-.33-1.09-3.38 2.67-2.35a22.64 22.64 0 0 1-.34-3.09l-3.08-1.74.37-3.53 3.36-1a22.48 22.48 0 0 1 1-3l-2.09-2.81 1.78-3.07 3.44.4a22.2 22.2 0 0 1 2.15-2.39l-.76-3.37 2.87-2.09 3 1.76a22 22 0 0 1 3-1.33l.67-3.36 3.47-.73 2 2.78a22.44 22.44 0 0 1 3.28 0l2-2.78 3.47.74zm-10.81 42.2A17.92 17.92 0 1 0 170.92 166a17.92 17.92 0 0 0 13.79 21.25z"/>
        <path class="rl-gear" id="gear12" d="M147.51 139.69l.55 2.71a19 19 0 0 1 2.43 1.09l2.38-1.42 2.33 1.7-.61 2.72a16.41 16.41 0 0 1 1.76 2l2.78-.33 1.44 2.5-1.68 2.25a19.52 19.52 0 0 1 .8 2.49l2.69.84.3 2.87-2.48 1.39a18.75 18.75 0 0 1-.29 2.56l2.15 1.88-.89 2.75-2.87.26a17 17 0 0 1-1.28 2.19l1.21 2.63-1.93 2.14-2.76-.94a19.18 19.18 0 0 1-2 1.46v2.92l-2.63 1.18-2.16-2a19.62 19.62 0 0 1-2.42.51l-1.16 2.7h-2.89l-1.15-2.74c-.41-.06-.81-.13-1.21-.22s-.8-.18-1.19-.29l-2.17 2-2.64-1.18v-2.94a17.87 17.87 0 0 1-2-1.45l-2.78.94-1.93-2.14 1.22-2.66a20 20 0 0 1-1.25-2.15l-2.9-.27-.89-2.75 2.21-1.89a17.36 17.36 0 0 1-.27-2.51l-2.51-1.41.3-2.87 2.73-.85a18 18 0 0 1 .79-2.45l-1.7-2.28 1.44-2.5 2.8.33a18.94 18.94 0 0 1 1.74-1.94l-.61-2.74 2.33-1.7 2.4 1.43a18 18 0 0 1 2.42-1.08l.54-2.73 2.83-.6 1.6 2.26a19.68 19.68 0 0 1 2.66 0l1.6-2.26 2.82.61zM138.73 174a14.56 14.56 0 1 0-11.21-17.27A14.55 14.55 0 0 0 138.73 174z"/>
        <path class="rl-gear" id="gear13" d="M112.07 155.19l.26 1.28a10.83 10.83 0 0 1 1.15.51l1.12-.66 1.11.8-.29 1.28a8.11 8.11 0 0 1 .83.93l1.31-.15.68 1.18-.79 1.06a8.07 8.07 0 0 1 .37 1.18l1.27.39.14 1.36-1.17.66a8.3 8.3 0 0 1-.13 1.2l1 .89-.42 1.3-1.35.12a9.69 9.69 0 0 1-.6 1l.57 1.24-.92 1-1.3-.44a9.11 9.11 0 0 1-1 .68v1.38l-1.24.56-1-.94a10.46 10.46 0 0 1-1.14.24l-.55 1.27h-1.36l-.56-1.28-.57-.1-.49-.13-1 .94-1.25-.55V172a9.4 9.4 0 0 1-.94-.68l-1.32.44-.91-1 .58-1.26a7.83 7.83 0 0 1-.59-1l-1.37-.13-.42-1.3 1-.9a7.87 7.87 0 0 1-.12-1.19l-1.19-.66.14-1.36 1.29-.4a8.58 8.58 0 0 1 .37-1.15l-.8-1.08.68-1.18 1.32.15a9 9 0 0 1 .83-.91l-.29-1.3 1.1-.8 1.13.68a9.74 9.74 0 0 1 1.14-.52l.26-1.28 1.33-.29.76 1.07a8.83 8.83 0 0 1 1.26 0l.75-1.06 1.33.28zm-4.14 16.19a6.87 6.87 0 1 0-5.29-8.15 6.86 6.86 0 0 0 5.29 8.15z"/>
        <path class="rl-gear" id="gear14" d="M36.72 79.74l.74 3.74A25.84 25.84 0 0 1 40.81 85l3.27-2 3.21 2.33-.84 3.73a26 26 0 0 1 2.42 2.72l3.82-.45 2 3.44-2.31 3.09a24 24 0 0 1 1.1 3.43l3.7 1.15.41 4-3.41 1.91a26.5 26.5 0 0 1-.39 3.52l2.95 2.59-1.23 3.78-3.94.36a25.67 25.67 0 0 1-1.75 3l1.66 3.61-2.66 3-3.82-1.35a24.76 24.76 0 0 1-2.78 2l.05 4-3.63 1.61-3-2.75a24.67 24.67 0 0 1-3.31.71l-1.61 3.71h-4l-1.6-3.73c-.55-.08-1.11-.18-1.66-.3s-1.1-.25-1.64-.41l-3 2.76-3.62-1.62.05-4.05a24.55 24.55 0 0 1-2.74-2l-3.83 1.29-2.66-3 1.69-3.65a25 25 0 0 1-1.72-3l-4-.38-1.15-3.64 3-2.62a24.91 24.91 0 0 1-.38-3.46L0 106.39l.42-4 3.75-1.17a26.35 26.35 0 0 1 1.08-3.36l-2.34-3.09 2-3.44 3.85.46a24.53 24.53 0 0 1 2.4-2.68l-.85-3.77 3.2-2.34 3.3 2a25.25 25.25 0 0 1 3.32-1.48l.76-3.76 3.88-.82L27 82a24.84 24.84 0 0 1 3.66 0l2.21-3.1 3.88.82zm-12.09 47.17a20 20 0 1 0-15.41-23.76 20 20 0 0 0 15.41 23.76z"/>
        <path class="rl-gear" id="gear15" d="M69.76 43.14l.57 2.86a19.54 19.54 0 0 1 2.6 1.15l2.53-1.5 2.48 1.81-.65 2.88a20.73 20.73 0 0 1 1.88 2.1l3-.34 1.53 2.66-1.79 2.39a18.59 18.59 0 0 1 .85 2.65l2.86.89.32 3.06-2.63 1.48A19.54 19.54 0 0 1 83 68l2.29 2-.95 2.91-3.05.29a19.84 19.84 0 0 1-1.36 2.32l1.28 2.8-2 2.28-2.94-1A20.57 20.57 0 0 1 74 81.14v3.11l-2.75 1.25L69 83.38a18.48 18.48 0 0 1-2.56.54l-1.25 2.87h-3.12l-1.24-2.88c-.43-.07-.85-.14-1.28-.23s-.85-.2-1.27-.32L56 85.49l-2.8-1.25v-3.13a19.24 19.24 0 0 1-2.13-1.54l-3 1-2-2.28 1.3-2.83A20.07 20.07 0 0 1 46 73.17l-3-.29L42 70l2.31-2a21.53 21.53 0 0 1-.31-2.75l-2.67-1.5.32-3 2.91-.9a20.35 20.35 0 0 1 .83-2.61l-1.8-2.43 1.53-2.65 3 .35A19.32 19.32 0 0 1 50 50.38l-.66-2.91 2.49-1.8 2.55 1.51A21.18 21.18 0 0 1 56.93 46l.58-2.9 3-.64 1.71 2.41a19.09 19.09 0 0 1 2.83 0l1.71-2.4 3 .64zm-9.35 36.49a15.49 15.49 0 1 0-11.92-18.38 15.48 15.48 0 0 0 11.92 18.38z"/>
        <path class="rl-gear" id="gear16" d="M28 50.49l.3 1.5a10.25 10.25 0 0 1 1.35.6l1.35-.78 1.3.94-.3 1.5a9.2 9.2 0 0 1 1 1.1l1.54-.18.8 1.38-.93 1.25a9.62 9.62 0 0 1 .44 1.38l1.49.46.17 1.59-1.46.77a11.6 11.6 0 0 1-.15 1.42l1.19 1-.5 1.58-1.59.13a10.3 10.3 0 0 1-.7 1.21l.7 1.46-1.11 1.2-1.53-.52a9.77 9.77 0 0 1-1.11.8v1.62l-1.46.65-1.19-1.1a10.29 10.29 0 0 1-1.34.28l-.65 1.5H24l-.65-1.51-.67-.11-.66-.17-1.2 1.11-1.46-.65v-1.63a9.77 9.77 0 0 1-1.11-.8l-1.49.53-1.07-1.19.68-1.48a8.78 8.78 0 0 1-.69-1.19L14.07 66l-.5-1.52 1.21-1.05a9.36 9.36 0 0 1-.15-1.4l-1.39-.78.16-1.59 1.52-.47a10.25 10.25 0 0 1 .43-1.36l-.94-1.26.8-1.38 1.55.18a9.1 9.1 0 0 1 1-1.08l-.34-1.52 1.29-.94 1.33.79a10.73 10.73 0 0 1 1.34-.6l.3-1.51 1.56-.33.89 1.25a12.18 12.18 0 0 1 1.48 0l.88-1.25 1.57.34zm-4.87 19A8.07 8.07 0 1 0 17 59.92a8.06 8.06 0 0 0 6.16 9.57z"/>
    </g>
    <g class="rl-gears-icons">
        <path class="cls-2 gear-blue" d="M70.21 63.3a1.07 1.07 0 0 0-.81-.3H69v-2.3a5.38 5.38 0 0 0-10.75 0V63h-.39a1.16 1.16 0 0 0-1.15 1.15V71a1.14 1.14 0 0 0 1.15 1.15H69.4A1.14 1.14 0 0 0 70.55 71v-6.89a1.07 1.07 0 0 0-.34-.81m-9.64-2.64a3.07 3.07 0 0 1 6.14 0V63h-6.14z"/>
        <path class="cls-2 gear-blue" d="M214.9 43.75a7.25 7.25 0 0 0-2-2.4 9.75 9.75 0 0 0-2.77-1.51 9.35 9.35 0 0 0-6.32 0 9.89 9.89 0 0 0-2.77 1.51 7.25 7.25 0 0 0-2 2.4 6.61 6.61 0 0 0-.76 3.13 6.45 6.45 0 0 0 1.75 4.53c.5.56.93 1.05 1.26 1.48a11.63 11.63 0 0 1 1 1.61 4.88 4.88 0 0 1 .57 1.82 1.59 1.59 0 0 0-.37 2.47 1.58 1.58 0 0 0-.43 1.09 1.56 1.56 0 0 0 .77 1.37 1.56 1.56 0 0 0-.22.8 1.42 1.42 0 0 0 .53 1.2 2.06 2.06 0 0 0 1.31.42 2.81 2.81 0 0 0 1 1.19 2.73 2.73 0 0 0 2.94 0 2.74 2.74 0 0 0 1-1.19 2.06 2.06 0 0 0 1.31-.42 1.43 1.43 0 0 0 .54-1.2 1.57 1.57 0 0 0-.23-.8 1.56 1.56 0 0 0 .77-1.37 1.58 1.58 0 0 0-.43-1.09 1.59 1.59 0 0 0-.37-2.47 4.73 4.73 0 0 1 .58-1.82 10.77 10.77 0 0 1 1-1.61c.34-.43.76-.92 1.26-1.48a6.45 6.45 0 0 0 1.75-4.53 6.61 6.61 0 0 0-.76-3.13m-2.56 6.17c-.11.13-.29.32-.52.56l-.51.56a9.3 9.3 0 0 0-2.39 5.05h-3.86a9.35 9.35 0 0 0-2.29-5.09l-.52-.56c-.23-.24-.41-.43-.52-.56a4.51 4.51 0 0 1-1.15-3 4.7 4.7 0 0 1 .58-2.27 5.18 5.18 0 0 1 1.53-1.72 7.82 7.82 0 0 1 2.08-1 7.21 7.21 0 0 1 4.62 0 7.82 7.82 0 0 1 2.08 1 5.18 5.18 0 0 1 1.53 1.72 4.59 4.59 0 0 1 .58 2.27 4.51 4.51 0 0 1-1.15 3m-2.19-4.57a3.67 3.67 0 0 0-1.48-.91 5.42 5.42 0 0 0-1.68-.27l-.38.16-.16.38.16.38.38.16a4.16 4.16 0 0 1 1.8.43 1.31 1.31 0 0 1 .91 1.2l.16.38.38.16.38-.16.16-.38a2.12 2.12 0 0 0-.63-1.53"/>
        <path class="cls-2 gear-blue" d="M110.21 109.87a2.19 2.19 0 0 0-1.61-.68h-5v-2.28a1.37 1.37 0 0 0-1.37-1.37H94a1.35 1.35 0 0 0-1 .4 1.31 1.31 0 0 0-.4 1v2.28h-5a2.3 2.3 0 0 0-2.28 2.29V117h25.56v-5.48a2.17 2.17 0 0 0-.67-1.61m-13.94 10.24h3.66v-1.82h-3.66zm5-1.83v2.29a.89.89 0 0 1-.27.64.87.87 0 0 1-.64.27h-4.54a.92.92 0 0 1-.92-.91v-2.29h-9.58v6.85a2.29 2.29 0 0 0 2.28 2.29h21a2.29 2.29 0 0 0 2.28-2.29v-6.85zm-6.85-10.95h7.31v1.82h-7.29z"/>
        <path class="cls-2 gear-blue" d="M294.06 100.07a1.14 1.14 0 0 0-.84-.35H292v-.9a1.44 1.44 0 0 0-.44-1.06 1.42 1.42 0 0 0-1.06-.44h-.6a1.5 1.5 0 0 0-1.49 1.5v.9h-3.6v-.9a1.44 1.44 0 0 0-.44-1.06 1.42 1.42 0 0 0-1.06-.44h-.6a1.5 1.5 0 0 0-1.5 1.5v.9H280a1.15 1.15 0 0 0-.85.35 1.18 1.18 0 0 0-.35.84v12a1.18 1.18 0 0 0 .35.84 1.16 1.16 0 0 0 .85.36h13.18a1.23 1.23 0 0 0 1.2-1.2v-12a1.15 1.15 0 0 0-.36-.84m-3.33 1.65l-.21.09h-.6l-.21-.09-.09-.21v-2.69l.09-.21.21-.09h.6l.21.09.09.21v2.69zm-.21 1.59h2.7V106h-2.7zm-3.59 0h3V106h-3zm3.59 3.3h2.7v3h-2.7zm-7-4.89l-.21.09h-.6l-.21-.09-.09-.21v-2.69l.09-.21.21-.09h.6l.21.09.09.21v2.69zm3.39 4.89h3v3h-3zm3.59 3.59h2.7v2.7h-2.7zm-7.19-6.89h3V106h-3zm3.6 6.89h3v2.7h-3zm-6.87-6.89h2.69V106H280zm3.29 3.3h3v3h-3zm-3.29 0h2.69v3H280zm3.29 3.59h3v2.7h-3zm-3.29 0h2.69v2.7H280z"/>
        <path class="cls-2 gear-teal" d="M197.29 163a2.5 2.5 0 0 0-.33-.58 6.27 6.27 0 0 0 .57-1.56v-.08c-.9-.53-1.37-.79-1.4-.79h-.07a11.25 11.25 0 0 0-1 1.26h-.67c-.11-.15-.31-.41-.59-.76s-.46-.52-.52-.52a2.33 2.33 0 0 0-.34.18l-.67.38-.39.23v.08a6.27 6.27 0 0 0 .57 1.56 3 3 0 0 0-.34.58c-1.12.11-1.68.23-1.68.35v1.58c0 .12.56.24 1.68.35a3.21 3.21 0 0 0 .34.59 6.27 6.27 0 0 0-.57 1.56v.07c.92.54 1.38.8 1.4.8s.23-.17.52-.53.48-.6.59-.76h.67c.11.16.3.41.59.76s.46.53.52.53.48-.26 1.4-.8v-.07a6.27 6.27 0 0 0-.57-1.56 3.84 3.84 0 0 0 .33-.59c1.13-.11 1.69-.23 1.69-.35v-1.58c0-.12-.56-.24-1.69-.35m0 11.56a2.58 2.58 0 0 0-.33-.54 6.27 6.27 0 0 0 .57-1.56v-.08c-.9-.52-1.37-.79-1.4-.79h-.07a10.4 10.4 0 0 0-1 1.26h-.67c-.11-.16-.31-.41-.59-.76s-.46-.53-.52-.53a2.33 2.33 0 0 0-.34.18l-.67.39-.39.22v.08a6.27 6.27 0 0 0 .57 1.56 3 3 0 0 0-.34.59c-1.12.11-1.68.23-1.68.35v1.58c0 .12.56.23 1.68.35a2.84 2.84 0 0 0 .34.58 6.27 6.27 0 0 0-.57 1.56v.08c.92.53 1.38.8 1.4.8s.23-.18.52-.53.48-.61.59-.77h.67c.11.16.3.42.59.77s.46.53.52.53l1.4-.8v-.08a6.27 6.27 0 0 0-.57-1.56 3.33 3.33 0 0 0 .33-.58c1.13-.12 1.69-.23 1.69-.35v-1.58c0-.12-.56-.24-1.69-.35m-5.61-5.89l-.2-.12-1.71-.26a7.94 7.94 0 0 0-.38-.92c.11-.17.28-.39.5-.68s.39-.49.48-.61l.08-.21c0-.21-.55-.81-1.63-1.81l-.24-.09-.22.08-1.33 1a4.38 4.38 0 0 0-.85-.35l-.26-1.73-.11-.2-.23-.08h-2.1a.34.34 0 0 0-.34.27 14 14 0 0 0-.26 1.74 4.54 4.54 0 0 0-.86.36l-1.3-1-.24-.08c-.14 0-.44.22-.89.67a10.85 10.85 0 0 0-.93 1l-.07.23.07.22c.43.51.76.94 1 1.3a5 5 0 0 0-.36.86l-1.75.27-.18.12-.08.22V171l.08.22.19.1 1.72.27a5.81 5.81 0 0 0 .39.93l-.53.69c-.23.29-.39.49-.46.6l-.08.21c0 .2.54.81 1.62 1.81l.24.09.23-.08 1.33-1a4.59 4.59 0 0 0 .84.35l.26 1.73.12.2.22.08h2.1a.33.33 0 0 0 .34-.27 13 13 0 0 0 .26-1.75 5.45 5.45 0 0 0 .87-.35l1.3 1 .23.08c.15 0 .44-.23.89-.68a9.52 9.52 0 0 0 .93-1l.08-.21-.08-.23c-.42-.5-.76-.93-1-1.29a8 8 0 0 0 .36-.86l1.75-.27.18-.12.08-.22v-2.09zm4-3.51a1.43 1.43 0 0 1-1 .42 1.4 1.4 0 0 1-1-.42 1.45 1.45 0 0 1 1-2.46 1.4 1.4 0 0 1 1 .42 1.43 1.43 0 0 1 .43 1 1.39 1.39 0 0 1-.42 1m0 11.56a1.43 1.43 0 0 1-1 .42 1.4 1.4 0 0 1-1-.42 1.46 1.46 0 0 1 1-2.47 1.41 1.41 0 0 1 1 .43 1.43 1.43 0 0 1 .43 1 1.39 1.39 0 0 1-.42 1m-11.14-3.91a2.75 2.75 0 0 1-2-.85 2.87 2.87 0 0 1 0-4.08 2.75 2.75 0 0 1 2-.85 2.89 2.89 0 1 1 0 5.78"/>
        <path class="cls-2 gear-teal" d="M133.92 55.77l.16-.48.18-.47c-.25-.06-.34-.25-.27-.59s.25-.52.65-.9a1 1 0 0 0 .27-1.08 7.8 7.8 0 0 1-.11-.86c0-.38-.06-.64-.09-.8l.22.13.25.14.12-.24.13-.27.19-.17.2-.13.2-.14.26-.2.27-.1.24.1V50.53v-.3l.14-.33.26-.16h.22l.24.16.25.12.81.5v-.06l.09-.06.12-.07.13-.06H139.54l.17.1.15.13.16.13.25.16.28.18.18.2.06.3.54.18.28.08.29.1a14 14 0 0 1-7.9 4.3zm4.7-19.77c.33.09.38.21.16.36h-.5l.34.13.07.21.13.45-.7.25v.09l-.38.25-.29.12-.34.2-.07.27v.27h-.19l-.41.21-.47.24v.36h-.48l-.16.22-.17.25-.05.36.1.05.17.11.11.07-.24.2-.34.79-.28.19-.35.14-.19.08-.34.42v.42l.42.27v1.37l-.1.21h-.25c-.12-.07-.27-.4-.43-1l-.27-.54-.2.14h-.11l-.12-.11-.16-.12-.4-.11-.35-.12c-.36.27-.58.21-.65-.2v.3l.06.22h-1.77l.09.07.09.07-.06.14H129.24l-.22.24-.21.22.13.55-.07.56-.06.6.22.84.51.66.54.11h.54l.2-.16.12-.26.06-.24.59-.45h.4l.1.22-.09.28-.17.33-.12.27-.08.51-.06.39h.34v-.27l.36.21.36-.18.27.34.25.45.09.29v.29l-.22.08-.12.06v.17l.06.2.09.19.06.12a.77.77 0 0 0 1.11.41c0 .44-.11.67-.32.72l-.41-.23-.15-.45-.16.2-.41-.33-.41-.34-.12-.19-.2-.33-.18-.35v-.17a1.55 1.55 0 0 1-1.25-.25l-.48-.48-.53-.13-.3.08-.33.06-.36-.09-.49-.26-.42-.24-.29-.15-.36-.18-.29-.22-.19-.3-.11-.55-.18-.59-.39-.45-.45-.22v-.31l-.32-.44-.27-.29-.38-.43-.27-.42V42.53l-.17-.09-.19-.08h-.14l.1.33.13.35.38.66a2.63 2.63 0 0 1 .54 1.4l-.18-.05-.07-.25v-.22l-.35-.3-.35-.31h.06l-.23-.52-.22-.45-.32-.53-.22-.51-.23-.24-.34-.22-.27-.17-.18-.21c-.5-.6-.65-.92-.45-1-.2 0-.36-.1-.49-.44a1.34 1.34 0 0 1-.12-.78v-1.34l.22-.36-.24-.28v-.42l.2.09.21.2.22-.4-.47-.47a8.37 8.37 0 0 0-1-.62l-.07-.43-.26.07v-.25l-.12-.2-.27-.18a14.37 14.37 0 0 1 5.31-5h.5l.34.11.33.25.26.23-.11-.41.49-.27a1.24 1.24 0 0 1 .68 0l-.45-.57-.11.12c-.13-.11-.44-.05-1 .15l-.23.13-.29.15h-.28a13.79 13.79 0 0 1 2.13-.93l.23.19.24.22h-.09v.46l.31.18h.46l.36-.05h.23c.48.05.67 0 .57-.13l.16.37.2.4v-.64l.14-.09.26-.1.19-.08-.18-.32-.19-.06-.26-.09-.24-.13-.11-.18.12-.26.44-.09.46.12c.41.22.47.42.19.6l.54.18.25.34.36-.34.22.31.12.31.36.11.37-.4.22-.24v-.18l.61-.11.18.2-.06.39.17.45-.36.25-.32-.11-.33-.13-.32.13-.23.38-.26.39a1.42 1.42 0 0 1-1.14.25v.13l-.21.31-.16.19-.27.52v.3l-.09.4.43.27v.34a2.68 2.68 0 0 1 1.31.09c.54.19.85.39.92.59q.13-.21.66 0a1.18 1.18 0 0 1 .36.68l.31.59.46.14h.07l.15-.08.12-.09.08-.1v-.09l-.24-.37v-.42l.36-.27.36-.36-.22-.49-.32-.35.15-.27.02-.43-.07-.28-.09-.32.1-.23a1.35 1.35 0 0 1 .74 0 2.82 2.82 0 0 1 .77.21l.29.14.4.19.19.19h-.11l.19.32-.17.27.36.07v.25h.19l.19-.06.11-.08.1-.07h.24l.1-.11.17-.23.16-.11h.12l.1.13.06.14.06.13.22.24.21.24.09.33.18.38.34.16h.46l.11.18.13-.18.15.47.39.16v.5l-.34.17-.34.1-.33.27-.21.3a1.11 1.11 0 0 0-1.16-.25 5.67 5.67 0 0 0-1.17.27l-.5.34-.08.16-.11.24-.1.12.3-.22.22-.21a1.18 1.18 0 0 1 1-.27m-22.2-2.86a17.46 17.46 0 0 0 0 17.43 17.23 17.23 0 0 0 6.32 6.31 17.46 17.46 0 0 0 17.43 0 17.31 17.31 0 0 0 6.32-6.31 17.46 17.46 0 0 0 0-17.43 17.33 17.33 0 0 0-6.32-6.32 17.46 17.46 0 0 0-17.43 0 17.26 17.26 0 0 0-6.32 6.32"/>
        <path class="cls-2 gear-teal" d="M246.48 99.33l-12.3-3.87H234l-12.3 3.87a.33.33 0 0 0-.24.34.34.34 0 0 0 .24.34l3.66 1.14a6.78 6.78 0 0 0-1.08 3.62 1.35 1.35 0 0 0-.71 1.22 1.31 1.31 0 0 0 .64 1.17l-.64 4.76.09.27.26.12H226l.26-.12.09-.27-.64-4.76a1.39 1.39 0 0 0 0-2.37 7 7 0 0 1 .37-2 2.74 2.74 0 0 1 .78-1.22l7.16 2.26h.22l12.3-3.86a.34.34 0 0 0 .24-.34.33.33 0 0 0-.24-.34m-11.88 5.88a1.8 1.8 0 0 1-1.06 0l-6.3-2-.2 3.47a1.68 1.68 0 0 0 .9 1.41 7.62 7.62 0 0 0 2.58 1 16.77 16.77 0 0 0 7.1 0 7.62 7.62 0 0 0 2.58-1 1.68 1.68 0 0 0 .9-1.41l-.2-3.47z"/>
        <path class="cls-2 gear-teal" d="M180.22 97.46a3.65 3.65 0 0 0-2.58 6.23 3.65 3.65 0 0 0 5.16 0 3.65 3.65 0 0 0-2.58-6.23m3.71 7.3a3 3 0 0 0-.62.3 9.61 9.61 0 0 1-1.39.61 5.12 5.12 0 0 1-1.7.3 5.66 5.66 0 0 1-1.89-.33 8.86 8.86 0 0 1 .07 1 6.28 6.28 0 0 1-1.16 3.65 4.93 4.93 0 0 1 3.78 1.83h1.91a3.31 3.31 0 0 0 2-.58 1.94 1.94 0 0 0 .8-1.69q0-5-1.77-5M172 101.11a5.46 5.46 0 1 0 3.87 1.6 5.28 5.28 0 0 0-3.87-1.6m-8.22-3.65a3.65 3.65 0 0 0-2.58 6.23 3.65 3.65 0 1 0 5.16-5.16 3.48 3.48 0 0 0-2.58-1.07M182 117.85a13.46 13.46 0 0 0-.2-1.55 12.13 12.13 0 0 0-.38-1.55 7.43 7.43 0 0 0-.61-1.39 5 5 0 0 0-.89-1.16 3.66 3.66 0 0 0-1.22-.76 4.29 4.29 0 0 0-1.59-.29 1.81 1.81 0 0 0-.61.31l-1 .68a6.13 6.13 0 0 1-1.53.69 6.13 6.13 0 0 1-3.85 0 6.13 6.13 0 0 1-1.53-.69l-1-.68a1.81 1.81 0 0 0-.61-.31 4.29 4.29 0 0 0-1.59.29 3.66 3.66 0 0 0-1.22.76 5 5 0 0 0-.89 1.16 7.43 7.43 0 0 0-.61 1.39 12.13 12.13 0 0 0-.38 1.55c-.1.55-.16 1.07-.2 1.55s0 1 0 1.48a3.56 3.56 0 0 0 1 2.7 3.87 3.87 0 0 0 2.77 1h12.47a3.87 3.87 0 0 0 2.77-1 3.56 3.56 0 0 0 1-2.7c0-.51 0-1-.05-1.48m-16.39-11.26a8.86 8.86 0 0 1 .07-1 5.61 5.61 0 0 1-1.89.33 5.12 5.12 0 0 1-1.7-.3 10.13 10.13 0 0 1-1.39-.61 2.73 2.73 0 0 0-.62-.3q-1.77 0-1.77 5a1.94 1.94 0 0 0 .8 1.69 3.31 3.31 0 0 0 2 .58H163a4.93 4.93 0 0 1 3.78-1.83 6.28 6.28 0 0 1-1.16-3.65"/>
        <path class="cls-2 gear-darkblue" d="M259.24 68.14a.6.6 0 0 0-.44.17.53.53 0 0 0-.19.41v1.17h17.54v-1.17a.53.53 0 0 0-.19-.41.6.6 0 0 0-.44-.17zm1.76-1.76h-.54a.64.64 0 0 0-.45.18.54.54 0 0 0-.18.41v.58H275V67a.54.54 0 0 0-.18-.41.64.64 0 0 0-.45-.18h-.54v-7h-2.34v7h-1.19v-7H268v7h-1.2v-7h-2.34v7h-1.17v-7H261zM258.61 57v1.2h1.17a.57.57 0 0 0 .18.41.68.68 0 0 0 .45.17h13.94a.68.68 0 0 0 .45-.17.57.57 0 0 0 .18-.41h1.17V57l-8.77-3.51z"/>
        <path class="cls-2 gear-darkblue" d="M21.21 98.77c-.78.45-1.18.93-1.18 1.46v1.46c0 .53.4 1 1.18 1.46a10.46 10.46 0 0 0 3.2 1.07 22.41 22.41 0 0 0 4.4.4 22.31 22.31 0 0 0 4.39-.4 10.46 10.46 0 0 0 3.2-1.07c.79-.45 1.18-.93 1.18-1.46v-1.46c0-.53-.39-1-1.18-1.46a10.46 10.46 0 0 0-3.2-1.07 23.13 23.13 0 0 0-4.39-.39 23.24 23.24 0 0 0-4.4.39 10.46 10.46 0 0 0-3.2 1.07M20 108.52v2c0 .52.4 1 1.18 1.46a10.74 10.74 0 0 0 3.2 1.07 23.24 23.24 0 0 0 4.4.39 23.13 23.13 0 0 0 4.42-.44 10.74 10.74 0 0 0 3.2-1.07c.79-.45 1.18-.94 1.18-1.46v-2a9.84 9.84 0 0 1-3.71 1.53 25.85 25.85 0 0 1-10.12 0 9.9 9.9 0 0 1-3.75-1.48m0 4.39v1.94c0 .53.4 1 1.18 1.46a10.46 10.46 0 0 0 3.2 1.07 24.35 24.35 0 0 0 8.79 0 10.46 10.46 0 0 0 3.2-1.07c.79-.45 1.18-.93 1.18-1.46v-1.94a10 10 0 0 1-3.71 1.45 24.61 24.61 0 0 1-5.06.49 24.54 24.54 0 0 1-5.06-.49 10.06 10.06 0 0 1-3.72-1.45m0-8.77v1.94c0 .52.4 1 1.18 1.46a10.46 10.46 0 0 0 3.2 1.07 23.24 23.24 0 0 0 4.4.39 23.13 23.13 0 0 0 4.39-.39 10.46 10.46 0 0 0 3.2-1.07c.79-.45 1.18-.94 1.18-1.46v-1.94a10 10 0 0 1-3.71 1.45 26.37 26.37 0 0 1-10.12 0 10.06 10.06 0 0 1-3.72-1.45"/>
        <path class="cls-2 gear-darkblue" d="M232.9 149.58l.17-.23.26-.09h6.2l.21.09v.23l-.22.66-.16.23-.26.09h-6.21l-.2-.09v-.23zm.85-2.61l.17-.23.26-.1h6.2l.21.1v.23l-.22.65-.17.23-.26.1h-6.2l-.21-.1v-.23zm10 .2a1.69 1.69 0 0 1 0 .58l-3.06 10.07a.74.74 0 0 1-.36.42 1.07 1.07 0 0 1-.57.16h-9.42c-.82 0-1.31-.24-1.47-.71a.48.48 0 0 1 0-.44.46.46 0 0 1 .39-.16h8.87a1.85 1.85 0 0 0 1.31-.35 4 4 0 0 0 .73-1.56l2.79-9.25a1.47 1.47 0 0 0-.18-1.33 1.34 1.34 0 0 0-1.16-.57h-7.77a2.89 2.89 0 0 0-.52.09 1.77 1.77 0 0 0-.48-.05l-.37.12-.27.23-.2.33-.16.37-.16.36-.17.31-.17.21-.18.24-.09.18v.53a3.84 3.84 0 0 1-.28 1 4.27 4.27 0 0 1-.44.87l-.22.23-.23.31a.48.48 0 0 0 0 .28 1.45 1.45 0 0 1 0 .33 3.9 3.9 0 0 1-.25.92 6.55 6.55 0 0 1-.43.94l-.17.23-.18.29v.59a4.9 4.9 0 0 1-.3.93 7.52 7.52 0 0 1-.46.94l-.12.19-.17.24-.08.21v1.07a1.88 1.88 0 0 0 0 1.3 2.87 2.87 0 0 0 1 1.34 2.49 2.49 0 0 0 1.52.55h9.42a2 2 0 0 0 1.25-.45 2.1 2.1 0 0 0 .78-1.09l2.8-9.25a1.46 1.46 0 0 0-.18-1.32 1.29 1.29 0 0 0-.6-.43"/>
        <path class="cls-2 gear-darkblue" d="M149.14 154.26a1.31 1.31 0 0 0-1-.4h-12.52a1.22 1.22 0 0 0-1 .44 1.72 1.72 0 0 0-.36 1.11 2 2 0 0 0 .47 1.17 4.19 4.19 0 0 0 1 1l1.75 1.22c1 .67 1.72 1.19 2.23 1.56l.37.26.46.32.44.28a3 3 0 0 0 .49.23 1.46 1.46 0 0 0 .43.08 1.35 1.35 0 0 0 .42-.08 2.38 2.38 0 0 0 .49-.23c.18-.1.33-.2.45-.28l.46-.32.36-.26 4-2.78a4 4 0 0 0 1-1.05 2.31 2.31 0 0 0 .41-1.28 1.31 1.31 0 0 0-.4-1m-.45 4.22c-1.87 1.26-3.28 2.24-4.25 2.94-.32.24-.59.43-.79.56a5 5 0 0 1-.81.41 2.39 2.39 0 0 1-.93.21 2.47 2.47 0 0 1-.94-.21 5.47 5.47 0 0 1-.81-.41c-.2-.13-.46-.32-.79-.56-.76-.56-2.18-1.54-4.24-2.94a4.77 4.77 0 0 1-.86-.75v6.78a1.38 1.38 0 0 0 1.37 1.37h12.56a1.32 1.32 0 0 0 1-.41 1.28 1.28 0 0 0 .4-1v-6.78a4.43 4.43 0 0 1-.85.75"/>
    </g>
</svg>