<svg xmlns="http://www.w3.org/2000/svg" viewBox="0 0 963.33 942.72"><defs><style>.cls-1{fill:#ee662d;}.cls-2{fill:none;stroke:#ed662d;stroke-linecap:round;stroke-linejoin:round;stroke-width:6px;}.cls-3{fill:#ed662d;}</style></defs><title>rl-process-strategy</title><g id="Layer_2" data-name="Layer 2"><g id="Layer_2-2" data-name="Layer 2"><path class="cls-1" d="M58.91,310.48c-18.28,1-36.48,22.58-45.8,36.38-15.2,22.48-18.93,51.95-1.8,73.92,15.1,19.35,38,26.89,57.05,10.14,17.5-15.41,24.08-41.9,34.07-63.07,16.08,24.26,49.3,78.6,83.42,63.27,5.18-2.33,26.81-16.53,41.22-29.64,1,1.39,2,2.68,3,4.11,1.12,1.7,3.84.24,2.73-1.58s-2.17-3.21-3.24-4.84c8-7.65,12.92-14.65,9.93-18.31l-.75-.92a5.54,5.54,0,0,0-.64-.54,29,29,0,0,0,3.73-.92c5.5-1.79,6.86-11.17.5-12.89-16-4.32-28-5.36-39.46-19.83-10.21-12.9-12.39-32.36-5.34-47.44,9.72-20.75,32.36-25.7,51-18.27,9.27,3.7,16.84,11.55,21.77,20.53,3.6,6.57,1.77,13.68,6.57,19.23a2.12,2.12,0,0,0,2.42.54c1.91,2,4.85,3,7.49,1.33,12.17-7.58,23.33-18.22,34.63-27.24s22.14-19.27,30.06-31.8a4.6,4.6,0,0,0,.69-3.16c2.66-1.39,4.24-5.56,1.85-8.44-11.3-13.68-22.32-27.63-33.65-41.29-7.16-8.64-13.85-18-22.08-25.31,3.7-13.05,13.52-14.93,27.17-17.87,11.3-2.43,21.44-5.94,30.76-13.41,18.12-14.53,17.61-45.89,3.82-62.73C329.37,53,268.38,79.31,249.15,118c-7.4-8.95-16-16.8-24.27-24.77-9.2-8.91-18.69-22.59-30.13-27.85-1.93-.89-4.18-.13-5.8,1.38C179.74,66.09,167,78.29,161.27,83c-14,11.4-27.68,25-37.29,40.88a8,8,0,0,0-1,4.48,4.32,4.32,0,0,0,1.35,5c3.74,2.74,6.8,7,10.52,10a109.42,109.42,0,0,1,11.08,10.15,43.71,43.71,0,0,1,11.29,21c2.69,12.41-3.49,24.43-11.92,32.49-8.26,7.88-20.28,12-31.06,9-6.36-1.77-11.17-6.29-15.14-11.72-5.39-7.37-5.19-19.17-11.42-25.22-3.53-3.43-8.52-2.31-10.34,2.51a15.37,15.37,0,0,0-.84,5.25c-23.4,15.8-45.2,38.21-63,60-2.6,3.19-3.79,8.48-.46,11.77C29.56,274.77,46.3,290.41,58.91,310.48Zm-23.75,111c-13.9-8-19.8-20-19.93-33.06C20.06,394,25.82,399,30.74,404.07q9.51,9.76,18.86,19.73C45.15,424.94,40.36,424.41,35.16,421.43ZM55.81,421c-6.43-7.56-13-15-19.58-22.39-6.33-7.09-12.37-15.79-19.68-22a64,64,0,0,1,2.7-8.78C27,373.74,34,383.66,39.86,390.18c7.38,8.16,15,17,23.74,23.88A37.15,37.15,0,0,1,55.81,421ZM67.33,409.3C57,399.9,48.33,388,39.47,377.25c-4-4.9-9.72-13.52-16.23-18h0a69.9,69.9,0,0,1,5.27-8.19c6.4,9.7,15.42,17.67,23.14,26.11A262.45,262.45,0,0,1,71.9,402.28C70.43,404.75,68.9,407.1,67.33,409.3Zm8-13.1a251.67,251.67,0,0,0-15.62-21.6c-8.07-10-16.3-21.41-26-29.69A64,64,0,0,1,43,336.82c5.72,5.36,11.64,10.54,17,16.31,7.86,8.47,15.74,16.93,24.44,24.4C81.67,383.57,78.64,390,75.34,396.2Zm19.29-38.48a123.34,123.34,0,0,0-7.46,14.09c-8.55-8.3-16.2-17.6-24-26.72-3.5-4.09-7.33-9.13-11.59-13.52a123.58,123.58,0,0,1,12-5.38c7.33,7.09,15.54,13.48,23.06,20.28a112.3,112.3,0,0,0,11.11,8.86A5.66,5.66,0,0,0,94.63,357.72ZM229.24,379.8c-3,1.91-5.92,4-8.77,6.21-3.29-4.39-6.65-8.69-10.15-12.83A45.71,45.71,0,0,0,229.24,379.8Zm56.2-76.26c-2.17-8.58-9.19-18-15.94-25.08,5.5,5.51,10.85,11.11,15.94,16.88,2.09,2.38,5.38-.95,3.46-3.45-15.74-20.52-33.82-38.44-51.81-56.62-19.94-20.14-38.33-42.1-58.31-62.08-3.62-3.62-8.37,1.35-5.55,5.52,25.07,37.19,62.15,65.92,94.19,97.68a61.74,61.74,0,0,0-9-7.61c-16-10.22-34.58-9.84-50.16-1.5a201.29,201.29,0,0,0-25.88-32.65c-6.65-6.68-14.93-14.89-23.87-18.94a51.26,51.26,0,0,0,6.83-9.23c10.07,12.23,24.42,22.57,35.74,33,8.06,7.41,17.11,17.95,27.88,20.29,1.53.33,2.83-1.93,1.25-2.87-11-6.54-20.61-18.08-29.73-27.19-9.76-9.76-19.81-23.31-31.58-30.71a55.66,55.66,0,0,0,3.45-25.08c-.88-9.32-5.43-17.85-10.7-25.1,17,18.4,39.36,34.17,55.85,48.5,33,28.73,61.15,55.54,84.39,93.11A129.25,129.25,0,0,0,285.44,303.54Zm59.27-47.21c0,.05-.11.06-.17.12-.73.74-1.51,1.4-2.25,2.12q-4.85-6.93-9.82-13.83C336.44,248.78,340.48,252.73,344.71,256.33Zm9.7-129.75a24,24,0,0,1-1.73,5.39,214.86,214.86,0,0,0-18.06-23.64c-5-5.8-9.77-12.52-14.91-18.53C339.5,90.41,359.25,101.83,354.41,126.58ZM310.89,90.29c4.25,6.45,10.46,11.94,15.53,17.31,8.5,9,16.72,18.23,23.61,28.75a25.85,25.85,0,0,1-3.12,3.33C335,130.09,325.47,118,315.59,106c-3.33-4-7.45-9.69-12.14-14.37A68.62,68.62,0,0,1,310.89,90.29Zm-18.38,4.92c7.73,7.05,15.68,13.74,22.91,21.75,8.34,9.24,17.2,19.17,27.83,25.54-4.47,3-9.88,5.18-15.52,7.09A321.54,321.54,0,0,0,304,118.22c-5-5.76-12.9-15.48-20.95-18A62.6,62.6,0,0,1,292.51,95.21Zm-15.41,9.33s0,0,0,0c2.86,3.14,6.7,4.87,10.08,7.31,5.22,3.77,9.8,8.54,14.27,13.25a316.8,316.8,0,0,1,21.49,26c-5.47,1.71-11,3.3-16,5.23-5-11.73-12.7-22.32-20.7-31.78-3.69-4.37-10.12-12.69-16.61-12.31A55.88,55.88,0,0,1,277.1,104.54Zm-11.31,13a3.42,3.42,0,0,0,3.26,1.71c.3,0,4.46,3.81,5.25,4.44a91.83,91.83,0,0,1,10.56,10.5c6.54,7.27,12.73,15.35,17.24,24.29a31.85,31.85,0,0,0-8.83,6c-6-7.65-11.63-15.74-17.5-23.51-3.78-5-8.31-12.22-14.07-15.68A60.65,60.65,0,0,1,265.79,117.51ZM182.16,84.23c2.5-1.9,5.38-3.39,7.88-5.24,5.72,9,15.92,15.71,23.53,22.07,10.7,8.93,21.07,18.28,31.64,27.36-1,7.55,8.91,11.11,12.91,5.23,11.33,10.95,21,23.77,31.86,35.26a21,21,0,0,0-2.11,12.72A6.33,6.33,0,0,0,286,185C254.34,147.46,219.41,113,180.75,85.38,181.23,85,181.68,84.6,182.16,84.23Zm-33.89,51.18a38.47,38.47,0,0,0-10.52-5.9c1.28-1.89,2.47-4,3.9-5.93.38-.52.79-1,1.18-1.51a97.31,97.31,0,0,0,12.42,19.41C153,139.34,150.67,137.32,148.27,135.41Zm.67-20.62c2.92-3.2,6-6.27,9-9.28a4.3,4.3,0,0,0,.28.52c13.9,18.19,35.21,31.9,51.62,47.74,14.46,14,28.58,28.27,42.25,43.13,21.74,23.62,42.65,56.2,68.68,74.37,1.11.77,2.52-.63,1.88-1.88-14.71-29.07-43.86-54.29-64.79-78.23-13.31-15.22-27.28-29.62-41.43-43.94-14.72-14.9-33.25-39.45-53.2-46.78q5.87-5.55,12.09-10.67c58.14,54.13,112.59,109.9,163.46,172.07-9.07,8.3-18.79,15.47-28.72,22.68-1.62,1.18-3.3,2.36-5,3.54C300,258.28,267,231.41,248.35,213.34,214.76,180.89,182.05,147.45,148.94,114.79Zm3.2,106.66c7.73,7,18.08,11.76,26,18.57a163,163,0,0,1,26.3,29.47,60.19,60.19,0,0,0-13.39,11.79c-8.94-11.13-18.4-21.85-27.94-32.36-5.73-6.32-13.5-16.3-21.79-20.81A63.46,63.46,0,0,0,152.14,221.45ZM132.35,231.5a3.91,3.91,0,0,0,.43.72c7.67,9.27,19,16.07,27.61,24.61,9.41,9.35,18,19.53,27,29.28a51.31,51.31,0,0,0-7.12,17.5C164.74,285.28,148,268,131.45,250.78c-5.7-5.92-11.41-12.09-17.19-18.24A40.33,40.33,0,0,0,132.35,231.5ZM73,207.89c15.47,18.07,35,33.23,52.16,49.18,18.67,17.38,36.45,35.59,54.05,54.16a72,72,0,0,0,5.9,34c.22.51.55,1,.79,1.53-16.65-16.83-34-33-49.79-51.32-15.94-18.48-33.17-35.65-48.59-54.64-6-7.36-11.71-17.36-19.58-22.57a4,4,0,0,0-3.6-.56C67.31,214.46,70.24,211.23,73,207.89Zm-11.72,13a5.24,5.24,0,0,0,.81,4.89c20.21,22.44,39,46.26,59.71,68.39,30.48,32.57,67.41,59.23,95.62,94.27-6.53,5.22-12.82,10.83-19.35,16.08-11.59-32.26-38.79-56.83-62.1-79.3-30.2-29.11-56.89-60.16-85.42-90.76a3.83,3.83,0,0,0-1.91-1.11C52.86,229.2,57.12,225.07,61.25,220.84ZM43.75,238a4.33,4.33,0,0,0,.35,1.31c14.7,32.45,45.87,56.74,71.05,79.48,14.11,12.75,28.24,25.38,41.76,38.86,6.53,6.52,12.64,13.46,18.66,20.51,1.8,2.11,24.28,29.77,9.9,21.77-.36-.2-.71.38-.35.59,7.92,4.53,5.57,3.43,10.69,5.66a112.31,112.31,0,0,1-13.35,9.21c-22.61,12.86-51.66-31.49-65.77-53.2a2.21,2.21,0,0,0-1.27-2.76c-.28-.11-.51-.28-.79-.39-.76-1.16-1.47-2.25-2.11-3.2-2.18-3.25-5.16-3.5-7.65-2.15-6.75-4.52-12.78-10.16-18.68-16.12C81.1,332.44,76,326.39,70.1,322A8.35,8.35,0,0,0,71.39,317c3.67-1.81,6.1-6.16,3.38-11-1.37-2.41-2.81-4.74-4.29-7,9.83,9.85,20,19.35,29.71,28.86,28.32,27.56,54,55.49,78,87.44,1.49,2,4.13-.36,3.23-2.48-12.84-30.45-38.82-54.47-60.83-77.2-28.79-29.73-56.31-59.7-83.15-91.36Q40.53,241.14,43.75,238Z"/><path class="cls-2" d="M803.43,295.51c.22.4,21.69-13,21.88-12.64.41.7-12.46,36.37-12.06,37.07.61,1.05,38.6-23.82,39.26-22.67s-26.17,30.81-25.7,31.63,28.17-17.42,28.67-16.55"/><path class="cls-2" d="M852.88,50.5c.93,1.62,55.76-34,56.57-32.66.46.81-16,34.88-15.53,35.62.55,1,36.92-22.28,37.34-21.55.56,1-26.75,29.91-26.24,30.8s31.55-19.32,32-18.49-27.19,31.25-26.59,32.29c.51.89,38.28-23.56,38.91-22.46s-35.14,41.29-34.51,42.39,44.67-27.57,45.44-26.23c2.49,4.3-149.91,110.59-147.42,114.9,1.91,3.31,140.21-85.38,142.13-82.06,2.9,5-162.22,112.79-159.28,117.9,2.29,4,128.58-79.07,130.67-75.44S799,241.61,800.94,245c.6,1,37-22.69,37.59-21.71s-28.5,33-27.85,34.12c.48.82,34-20.45,34.39-19.85s-2.48,23.17-2.23,23.6c.07.11,5.82-3.51,5.88-3.4"/><path class="cls-2" d="M786.93,36.09c.57,1,31.85-19.53,32.34-18.67,1.31,2.26-71.39,61.89-70.28,63.8,2.26,3.91,129.42-79.06,131.3-75.81,2.38,4.13-140.95,106.42-138.5,110.66.85,1.46,63.41-38.2,64.1-37s-42.11,52.44-41.34,53.77,39.78-24.21,40.32-23.27"/><path class="cls-2" d="M852.59,301.35s.34-.22.35-.21"/><path class="cls-2" d="M794.63,308.79l.08,0"/><path class="cls-2" d="M803,312.15c.09.15,10.16-6,10.22-5.9.24.42,9.17,12.67,9.36,13,0,.07,2.25-1.41,2.3-1.33"/><path class="cls-2" d="M795.41,308.4l.16-.09c.31.54,12.78,23,13.11,23.54.22.4,19.16-11.49,19.34-11.17s2.93,13,3.08,13.29c.29.5,20.95-12.68,21.2-12.24"/><path class="cls-2" d="M851.47,297.52s6.89-4,6.91-4"/><path class="cls-2" d="M835.56,288.7s.4-.24.4-.23c.24.41,19.2,12.43,19.51,13,0,0,1.22-.74,1.23-.71"/><path class="cls-2" d="M821.7,288.54c0,.09,10.21-6.05,10.28-5.93"/><path class="cls-2" d="M823.38,279.06c.09.16,4.14-2.57,4.22-2.44.25.44,16.65,7.13,16.92,7.6,0,0,1.05-.63,1.06-.61"/><path class="cls-2" d="M826.26,277.33s7.6-4.41,7.61-4.39"/><path class="cls-2" d="M827.84,274.6s.74-.46.75-.44"/><path class="cls-2" d="M802.62,285.24c.26.44,13.65-8.39,13.87-8,.51.88-16.78,31.94-16.35,32.67.17.3,9.32-5.71,9.47-5.46.3.53-4.9,21.88-4.59,22.43.12.2,14.28-8.47,14.38-8.3"/><path class="cls-2" d="M822.91,286.25c0,.05.31-.23.34-.19.43.75,30.81,4.58,31.18,5.22,0,.06,1.38-.86,1.4-.81.2.35.48,14.51.69,14.87,0,0,7.84-4.57,7.86-4.54"/><path class="cls-2" d="M818.58,291.82c0,.09,1.86-1.18,1.91-1.1"/><path class="cls-2" d="M798.45,287.28c0,.08,1.55-1,1.59-.92"/><path class="cls-2" d="M949.66,83.74s.84-.52.86-.49c.27.47-.15,19.53.09,19.93,0,0,1-.63,1-.59"/><path class="cls-2" d="M948.7,103.5s0-.06.06,0"/><path class="cls-2" d="M920.19,28.42l.1-.06c.3.51,16.4,13.18,16.65,13.62,0,0,.41-.25.42-.24.35.62,10.58,23.72,10.95,24.36,0,0,6.75-3.91,6.76-3.9"/><path class="cls-2" d="M806.09,69.57c.06.11,2.48-1.56,2.54-1.46.52.91-18.52,32.89-18.08,33.66a4.05,4.05,0,0,0,.35-.21"/><path class="cls-2" d="M851.66,42.52s0-.06,0,0c.57,1,41.09-1.61,41.58-.77,0,0,.37-.23.38-.22"/><path class="cls-2" d="M847.79,45.19c0,.06.86-.57.89-.52"/><path class="cls-2" d="M809.06,106.33l.09,0"/><path class="cls-2" d="M890,56.24l.08,0c.22.38,10.87,10.33,11,10.61l2-1.18c.19.34,4.63,14.46,4.86,14.86,0,0,.69-.42.7-.4"/><path class="cls-2" d="M910.45,151.94c.42.72,29.24-17.6,29.55-17.06"/><path class="cls-2" d="M945.06,108.7s.63-.37.64-.36c1.76,3-106.74,84.19-105.13,87,.72,1.26,53.38-32.71,54.2-31.29,1,1.78-72.65,54.77-71.54,56.69.44.76,37.36-22.75,37.87-21.86.67,1.16-25.79,42.87-25.22,43.85.19.33,9.53-5.87,9.69-5.59"/><path class="cls-2" d="M911.13,67.05c.09.16,8.58-5.12,8.65-5,.35.6-2.14,23.39-1.85,23.9.09.15,9-5.35,9.06-5.23.57,1-27.3,44.57-26.6,45.78.17.3,8.13-5.07,8.29-4.79,1.66,2.87-107.85,84.17-106,87.33.05.08,7.63-4.55,7.69-4.44.35.61-9.63,27.36-9.3,27.93,0,.05,7.88-4.62,7.91-4.56.28.48,12.07,16.88,12.3,17.27,0,.05,3.32-2,3.35-1.93"/><path class="cls-2" d="M895.85,60.67h0c.19.33,9.84,13.2,10.06,13.59l.18-.11c.33.56-4.19,30.66-3.74,31.45,0,0,1.53-1,1.56-.9,1.34,2.33-97.23,76.11-96,78.31,1.14,2,72.55-44.71,73.77-42.59,1.45,2.5-94.2,78.62-92.77,81.1.17.29,13.62-8.33,13.83-8s-7.93,20.12-7.7,20.53c.15.25,10.16-6.18,10.29-5.94.27.46,2.68,22.07,3,22.63.19.34,10.35-6.28,10.48-6.05.24.41,2.83,21.23,3.05,21.61.4.69,32.62-19.64,33-19"/><path class="cls-2" d="M879,40.12s4.16-2.41,4.16-2.4c.23.4-2.73,17-2.49,17.4s15.44-9.39,15.65-9c.37.64,6.62,23.72,6.88,24.17.08.15,11.21-6.65,11.29-6.51.35.61-6.68,22.88-6.38,23.4.09.15,7-4.23,7.07-4.08.28.49-10.95,22-10.65,22.48.14.23,6.85-4.35,7-4,.91,1.58-55,47.26-54.2,48.65.6,1,40.48-24.64,41-23.68"/><path class="cls-2" d="M904.38,14.65s1.66-1,1.69-1c.41.71,22.58,14.73,23,15.42,0,0,.83-.51.84-.49.35.59,16.45,16.88,16.73,17.36,0,0,.63-.38.64-.37.19.33,7.07,12,7.27,12.33,0,0,.41-.25.41-.24"/><path class="cls-2" d="M793,33.3c.59,1,43.93-26.95,44.61-25.76.5.85,42.31-.16,42.74.58,0,.09,4.26-2.57,4.31-2.48.35.61,22.17,12.31,22.5,12.88,0,.06.53-.35.55-.31.34.6,23.31,15.3,23.63,15.86,0,0,1.68-1,1.7-1,.25.43,15,16.94,15.26,17.46,0,0,.6-.36.61-.35"/><path class="cls-2" d="M794.79,30.92c.13.23,4.68-3,4.79-2.77"/><path class="cls-2" d="M777.62,43.94s6-3.46,6-3.45c.75,1.31-33.82,36.59-33.25,37.58.06.11,3.33-2.07,3.4-2,.37.66-9.21,27.89-8.77,28.67,0,0,2-1.24,2.08-1.2.3.52,7.47,18.32,7.68,18.68,0,0,4.69-2.75,4.71-2.72.26.46,10.74,13.28,11,13.7,0,0,1.68-1,1.71-1"/><path class="cls-2" d="M812.65,67.05c.71,1.23,37.85-23.21,38.43-22.19,1,1.67-55.1,60.63-54.11,62.35,0,0,7.24-4.22,7.26-4.19.28.49-8.62,21.29-8.36,21.73,0,.08,4.17-2.5,4.21-2.43"/><path class="cls-2" d="M750.33,67.15c0,.06,8.73-5.14,8.77-5.06.61,1-21.42,38.73-20.85,39.72,0,0,6.16-3.65,6.2-3.58.27.46-3.18,22.52-2.9,23,.05.08,4.91-3,5-2.87.19.33,11.6,9.53,11.82,9.91,0,.07,3.37-2.07,3.43-2,.33.58,18.68,13.47,19,14.06s21.32-12.77,21.52-12.42"/><path class="cls-2" d="M797,82.66c1,1.7,72.25-44.52,73.46-42.42,1,1.65-70,61.77-68.75,63.94.06.1,3.9-2.37,4-2.28.26.44-5.83,22-5.52,22.49.14.24,2.32-1.63,2.45-1.41"/><path class="cls-2" d="M803.38,81.67c1,1.66,75.26-46.19,76.45-44.14S802.74,99.62,804.13,102c.07.12,3.64-2.26,3.71-2.14.2.34.23,18.3.5,18.77.1.16,8.63-5.14,8.7-5"/><path class="cls-2" d="M827.54,6.66c.08.14,3.42-2.13,3.48-2"/><path class="cls-2" d="M776.78,31.85c.06.1,10.67-6.27,10.72-6.19.81,1.41-52.13,58.32-51.32,59.73.07.11,4.55-2.79,4.62-2.67"/><path class="cls-2" d="M784.42,25.44c.05.08,1.31-.84,1.35-.77.89,1.54-50.19,53.75-49.37,55.16,0,0,2.44-1.43,2.45-1.41.3.51-7.64,19.44-7.37,19.91.06.1,1.09-.77,1.15-.66"/><path class="cls-2" d="M780.81,25.29c.58,1,32.79-20.11,33.3-19.23C815.45,8.37,740.87,69,742,70.92c0,0,.13-.1.15-.08.55,1-14.66,37.83-14.09,38.82,0,0,7.19-4.18,7.2-4.16.27.46,8.77,24.16,9.06,24.68.09.14,4.28-2.62,4.34-2.51.29.5,14.7,18.29,15,18.79.08.14,9.56-5.69,9.63-5.56"/><path class="cls-2" d="M827.74,11.63c.26.46,14.7-9,14.93-8.62.5.87,40.9,2,41.36,2.79,0,.07,4.31-2.57,4.34-2.51.22.38,13.41,7.45,13.61,7.8,0,.05,2.3-1.4,2.33-1.35.17.3,10.91,10.13,11.13,10.51,0,.05,3.21-1.93,3.25-1.87.27.47,18.94,10.93,19.2,11.38,0,0,1.18-.75,1.21-.69.34.59,12.13,22,12.47,22.58,0,0,.48-.32.5-.28"/><path class="cls-2" d="M786.27,32.11c.6,1,33.71-20.66,34.23-19.76,1.31,2.27-71.65,62-70.54,64,0,0,1.2-.76,1.22-.71.51.88-12.7,35-12.18,35.9l6.3-3.63"/><path class="cls-2" d="M805.24,68.14c.15.27,7.83-4.83,8-4.6.61,1.07-25.05,36.49-24.53,37.39,0,0,0,0,0,0,.2.36,7,12.9,7.18,13.26l6.31-3.64"/><path class="cls-2" d="M798.42,113.5l7-4.06"/><path class="cls-2" d="M746.71,102.86s1-.63,1-.61c.28.48,10.81,19.84,11.06,20.28,0,0,2.44-1.43,2.45-1.41.21.36,12.07,8.24,12.26,8.57,0,0,.84-.5.85-.48"/><path class="cls-2" d="M788.26,39c.57,1,32-19.64,32.53-18.78,1.29,2.23-70.31,61.29-69.22,63.19.06.1,2.9-1.79,2.95-1.7.48.84-8.34,34.35-7.84,35.21,0,0,7.31-4.25,7.33-4.23.27.47,18.22,18.69,18.52,19.21,0,0,.78-.48.8-.45"/><path class="cls-2" d="M737.57,92l.14-.08c.3.52,2,21.49,2.23,21.94,0,0,.3-.19.3-.18.36.62,14.8,21.3,15.16,21.93l6.29-3.63"/><path class="cls-2" d="M857.05,56.81s1-.59,1-.56"/><path class="cls-2" d="M814.84,80.89c0,.06,1-.64,1-.59.31.55.43,22.36.7,22.82,0,0,.13-.09.14-.08.5.88-16.81,32.92-16.29,33.81,0,0,7.72-4.5,7.74-4.47"/><path class="cls-3" d="M508,398c-.62-2.59-1.52-8.61-5.6-8.16-5.58.61-6.43,5-6.84,9.85-.58,6.91.17,13.94,7.23,16.67,3.43,1.32,6.54-1.46,7.69-4.37C512.41,407.18,509.13,402.63,508,398Z"/><path class="cls-3" d="M645.75,401.88c-.94-4.83-1-9.4-3.23-13.85-1.79-3.59-7.72-3.6-9.52,0-3.7,7.43-5.91,22.15.83,28.24a7.11,7.11,0,0,0,11-1.42C647.6,410.36,646.72,406.83,645.75,401.88Z"/><path class="cls-3" d="M605,420.49c-3.8-4.28-9.48-.43-10,4.16-.92,7.51,2.78,14.45-2.74,21.06-4.8,5.72-13,7.5-20.07,7.8-18.8.77-29.84-10.57-29.4-28.86.08-3.34-4.8-4.77-6.38-1.73-13,25.05,13.21,43,35.78,43.62,11.27.32,23.32-3.68,30.92-12.22C610.88,445.55,613.14,429.63,605,420.49Z"/><path class="cls-3" d="M862.17,581.67c-.34-.09-.53-.38-.91-.38-1.48,0-2.88.17-4.33.27.47-34.37,2.86-68.94.36-103.25-1.65-22.66,1.6-48.57-2.5-70.56,1-3.55-1.74-7.9-6.2-6.59-65.43,19.31-125.1,49.35-189.39,70.21,12.82-11,23-24.61,28.93-41.07,15.45,3.78,32.08-2.51,38.24-18.62,2.84-7.4,2-15.55-3.19-21.71-6.74-8-18.2-9.74-28.08-9.75a7,7,0,0,0-2.26.6A143.8,143.8,0,0,0,689.08,361c8.2-.72,16.36-1.6,24.49-2.7,16.9-2.3,12.89-32.09-4-29.85-1.46.19-3,.26-4.42.44,6.52-34.45-6.11-70.69-28.29-97-17.39-20.62-50.78-41.8-78.63-32.59a21.88,21.88,0,0,0-3.05-8.34c-16.34-23.33-53.24-19.27-76.23-9.43-3.87,1.65-5.81,6.52-6,10.39-.12,3.05-.2,6.33-.3,9.53-36-.81-60.72,48.35-68.9,77.34-4.28,15.14-9.62,45.26-1.44,63.15a83.91,83.91,0,0,0-22.44,7.47c-6.44,3.36-5.85,12.83,0,16.34,8.35,5,18.9,7,30.15,7.44A144.15,144.15,0,0,0,447,393.75a17.12,17.12,0,0,0-10.23-.67c-8.41,1.92-14.59,10.63-17.54,18.16s-2.4,17.25,3.15,23.62c7.05,8.12,21.42,10.1,31,5.91,11.57,28.69,36.72,47.26,66.52,56.34C432.43,502,334.78,488,272.2,435.47c-4.63-3.88-10,1.15-7.68,5.9-5.34,12.91-1.61,34.52-1.73,47.61-.24,29.78.63,59.47,3.3,89.15-10.91-.5-23.91,6.15-30.59,13.71C217.93,611.75,225,642,250.06,651.55a35.12,35.12,0,0,0,17.76,1.84c-6.81,18.83-13,48.19-6.28,66.16a6.23,6.23,0,0,0,7.21,4.26c11.06,24.11,47.44,38.37,69.13,46.9,45.3,17.83,90.84,28.09,137.44,33.66-1.89,13.54-1.49,27.18-1.23,40.86.44,22.84-6.72,21.31-24.8,32-21.93,12.94-33.39,34-34.27,59-.14,4,4.24,7.57,8.12,6.18,28.79-10.28,57.22-11.84,87.39-10.71,13.62.51,29.16.24,36-13.15,11.06-21.54,6-50.41,2.42-77a.22.22,0,0,1,0-.08c-1.44-10.71-2.65-21.07-2.43-30.37a5.29,5.29,0,0,0-.32-1.69c7.36.22,14.72.43,22.16.51,16.47.15,39.25,1.23,64.88,1.71,3.93,36,6.85,72,9.93,108.14.33,3.78,2.88,6.8,6.87,6.86,36.45.59,73.84-3.59,108,12,5.31,2.42,11-.46,11.33-6.5,2.37-37.4-23.6-73.08-61.43-75.85-1.57-15-.83-30.1-2.73-45.13a5.41,5.41,0,0,0-.25-.71c69.17-4.47,137.7-21,154.64-73.08a6.58,6.58,0,0,0-.21-4.55,7,7,0,0,0,.25-1.63c-.38-14.09-1.52-27.89-.84-42,.54-11.37,2.28-22.84,2.51-34.25,19-2.6,30.93-19.49,33.08-38.52C896.46,597.93,882.16,577,862.17,581.67Zm-168.37-189a5.17,5.17,0,0,0,1.31.34c10.16-.34,22.92,2.57,19,15.31-3,9.86-13.69,13.69-23.29,13.19A105.31,105.31,0,0,0,693.8,392.66ZM432.48,427.07c-3.22-2.92-2.4-7.66-1.11-11.57,2.48-7.49,8.17-12.27,15.09-12a102.45,102.45,0,0,0,3.4,27C443.94,430.11,437.08,431.27,432.48,427.07ZM592.42,252.81c1.1-9.28,5.93-27.07,6.51-42.09,25.19,3.11,46.51,16.56,65.61,33.46,24.66,21.81,28.38,55.29,26.24,86.14-34.52,3.16-69.67,3.09-104.8,3.42C585.7,306.84,589.28,279.47,592.42,252.81Zm-28.06-56.42c20.51.59,11.42,21.75,10.15,35.51C571.38,265.68,566,300,566.6,334q-12.06.24-24.09.76c1-20.69-2.73-41.9-3.79-62.57-1.23-24.2-1.39-48.34-1.61-72.56C545.74,196.52,555.22,196.12,564.36,196.39ZM460.07,285.3c7.25-31.22,25.62-54.31,52.31-69.46-.48,39.53,2.18,85.76,18,119.63-6,.36-12.06.71-18.06,1.27-16.55,1.52-36.49,1.07-55.36,3.05C451.4,324.53,456.84,299.17,460.07,285.3Zm42.79,190.52c-37.93-17.86-40.4-65.69-43.24-102.6,18.52-.53,37.95-4.08,52.68-5.41,54.18-4.86,109.58-2.29,163.81-5.92C690,432.15,646.45,484,576.21,488.67,550.89,490.35,525.88,486.66,502.86,475.82Zm-242.93,162c-37.78-6.11-7.12-62.88,17.76-42.73a3.42,3.42,0,0,0,5.24-1,20,20,0,0,1,6,6.3c3.1,5.47,1.87,12.19-.1,17.75C284.87,629.27,272.25,639.77,259.93,637.78Zm189.27,284c-3.89-3.16-7.92-6.13-12-9.09,1-1.54,2.33-2.73,3.44-4.15a120.26,120.26,0,0,0,17.81,11.29C455.38,920.38,452.28,921,449.2,921.75Zm17.3-3.22c-.2-.33-.31-.72-.68-.94-7.21-4.47-14.47-8.79-21.58-13.4,1.55-1.66,3.35-3.13,5.06-4.66,9.12,5.34,16.95,12.44,25.8,18.12C472.23,917.89,469.37,918.14,466.5,918.53Zm22.83-1.27c-2.65-.13-5.31,0-8,.07a2.56,2.56,0,0,0-1.07-3c-9.33-6-18.7-12.18-28.79-16.82,2.53-2.11,5.53-3.89,8.32-5.82,7.07,5.57,14,11.28,21.22,16.71,3.89,2.94,8.05,6.32,12.49,9.16C492.12,917.45,490.69,917.32,489.33,917.26Zm22.48,1.26a3.14,3.14,0,0,0-.65-1.27c-7.07-7-17.45-10.91-25.86-16.19-6.87-4.31-13.7-8.61-20.64-12.77,2.15-1.36,4.42-2.68,6.67-4a239.14,239.14,0,0,1,30.06,16.82c7.8,5,15.4,11,23.72,15.34A37.79,37.79,0,0,1,511.81,918.52Zm21.76-8.92c-15.32-12.66-36.09-22.42-54.86-29.52,2.33-1.29,4.63-2.58,7.09-3.86a6.48,6.48,0,0,0,1.6-1.29A269.85,269.85,0,0,0,511,891.18c7.24,4.43,16.31,11.25,25.22,12A22.34,22.34,0,0,1,533.57,909.6Zm.89-94.07c-6-2.79-12.17-5.07-18.3-7.51,6.1.39,12.2.79,18.35,1.05a5.55,5.55,0,0,0-.32,2.1Zm-.56,10.76a4.1,4.1,0,0,0,1.27.2l.45,7c-7.51-3.52-15.13-6.88-22.46-10.71a291.39,291.39,0,0,0-30.4-14.19c-.13-1.1-.14-2.21-.3-3.31,5.4.59,10.85,1,16.28,1.47a3.5,3.5,0,0,0,.87,1.39C509.87,815.9,521.86,821.75,533.9,826.29Zm2.5,19.42c.1,1.63.22,3.26.31,4.89C521.19,840,502,831.41,484.53,828.26c-.28-4.44-.8-8.88-1.2-13.32C501.26,823.62,517.33,839.91,536.4,845.71Zm.94,46.91c-6.43-4.24-15.09-6.32-21.7-9.44a190.45,190.45,0,0,1-26.29-15.24,2.21,2.21,0,0,0,0-.37A119.78,119.78,0,0,1,486.72,854c16.08,9.92,33.07,22.65,50.87,25.36C537.56,883.77,537.59,888.18,537.34,892.62Zm-27.16-34.34c-8.09-3.82-16.14-7.67-24.29-11.32-.38-3.81-.58-7.62-.84-11.44,19.53,6.3,34.41,20.36,52.35,29.48.06,1.78.22,3.56.25,5.34C529,865.59,519.12,862.5,510.18,858.28Zm134.65-38.12c-.14,0-.22.07-.36,0-.62-2.8-1.19-5.61-1.91-8.38h3.21c.17.15.14.37.37.51,14,8.43,30.47,18.6,46.67,21.93,0,1.9.13,3.8.17,5.69a3.61,3.61,0,0,0-.82-.6C676.62,832.36,661.21,825,644.83,820.16ZM663,811.83c9.33-.08,18.78-.25,28.35-.66.55,4.13.82,8.27,1.06,12.42C682.77,819.28,672.78,815.82,663,811.83Zm-16.77,16.24C660.76,833.72,674.3,841.53,689,847a3.56,3.56,0,0,0,4.16-1.29c.09,3.93.23,7.85.48,11.77-13.94-6-28-11.52-41.57-16.85a2.79,2.79,0,0,0-3.34,1.19Q647.54,834.9,646.21,828.07Zm10.18,85.11c-.29-3.71-.61-7.46-.91-11.21,2.21,1.63,4.38,3,5.74,4,3.65,2.7,7.53,5,11.38,7.43C667.24,913.42,661.85,913.37,656.39,913.18Zm35,.29c-5.24-5.57-14.48-8.56-21-12.1a184.77,184.77,0,0,1-15.75-9.86c-.29-3.4-.65-6.81-1-10.21,14.13,11.36,29.17,23.11,45.19,32.31C696.35,913.57,693.86,913.48,691.36,913.47Zm30.57,1.31c-22.39-15.06-46.68-27.76-69.16-42.85-.24-2.22-.52-4.42-.77-6.63,25.67,14.57,49.13,35.15,74.74,50.18C725.14,915.28,723.54,914.94,721.93,914.78ZM746,897.23a59.06,59.06,0,0,1,6.39,15.84c-30.73-22.24-67.13-40.44-101.36-56-.43-3.37-1-6.7-1.55-10C682.5,861.66,712.08,885.21,746,897.23ZM846,730.31a6.64,6.64,0,0,0-.75,1c-34.43,76.74-208.3,58-276.91,58.86a707.49,707.49,0,0,1-151.57-14.83c-42.9-8.81-112.53-25.36-142.65-61.25.42-9.11-.91-18.59-.62-27.73.37-11.38,1.59-23.08.88-34.46,12.25-4,22.76-14,28.15-26,8.24-18.39-1-48.89-25.09-47,4.55-34.66.65-72.94-1.18-107.85,0-.22-1.74-11.53-4.07-20.86,58.5,62.85,180.35,64.37,258,62.23,104-2.87,223.12-40.16,312.15-95.29-4.67,13.24-1.7,32.29-1.11,43.6,2.11,40.72,1.71,81.07,1.77,121.86a6.82,6.82,0,0,0,.45,2.19,38,38,0,0,0-23.6,31.36c-2.37,20.56,10.81,35.81,30.24,38.63C842.82,677.69,839.6,708.26,846,730.31Zm7.8-91c-12.59-.11-19.82-11.39-18.11-23.13,1.88-13,12-22,23.94-25.61.43.29.71.73,1.29.87,13.92,3.39,19.39,10.4,18.29,24.95C878.17,630.6,867.5,639.44,853.84,639.32Z"/></g></g></svg>