<svg xmlns="http://www.w3.org/2000/svg" viewBox="0 0 290.23 1104.12"><defs><style>.cls-1{fill:#999;stroke:#fff;stroke-miterlimit:10;}</style></defs><title>rl-process-arrow</title><g id="Layer_2" data-name="Layer 2"><g id="Layer_2-2" data-name="Layer 2"><path class="cls-1" d="M223.06,1094.59c26-53,44.79-108,65.9-161.25,3-6.86-3.21-11.81-8.23-10.29-29.33,9.7-60.2,18.17-88.5,36.08l-.77-.62C89.21,893.15,91.84,703.31,95.48,566,99,408.22,126.58,234.7,214,70.37c12.87-19.21,26.63-39.55,41.95-58.65,7.2-9-1.28-15.79-9.26-7.42l-8.11,10.11c-3.09-2.47-8.1-1-12.61,4.66-9.13,13-16.73,27.19-25.09,40.78-237.92,309.41-264.68,769.66-76.3,952.07-21.35,12.41-42.84,26.56-65,38.35-10.17,4.77-10.3,17.58-4,20.79,44.89,23.07,101.23,23.94,152.93,32.17C212.51,1104.58,219.2,1102.57,223.06,1094.59Zm-139.42-38c16.34-10.89,31.13-23,48.24-33.3,6.05-4.38,7.34-10.73,5.92-13.71,2.7-3.37,3-6.85,1.55-9.83C-9,807-11.9,503.87,131.61,211c-42.1,126.82-55,256.74-57.87,372.56-2.21,85,2.4,166.18,17.17,242.62,11.94,59.41,35,124,91.93,138.3h0c-9.53,7.13-3.87,19.05,4.62,14.78,25.34-11,49.79-21,74.1-29.18-17.12,43.49-33.47,87.6-53.8,130.35C166.6,1073.31,121.83,1070.65,83.64,1056.63Z"/></g></g></svg>