<svg xmlns="http://www.w3.org/2000/svg" viewBox="0 0 1158.05 711.33"><defs><style>.cls-1{fill:#827892;}</style></defs><title>rl-process-design</title><g id="Layer_2" data-name="Layer 2"><g id="Layer_2-2" data-name="Layer 2"><path class="cls-1" d="M402.17,425.51c-3.23-10.35-13.52-47.68-29.67-47.69-30.17,0-14.39,68-31.74,83-40.6,35.12-20.94-76.87-20.57-94.05.13-5.79-4.55-11-10.55-9.78-40.73,8-58.94,79.25-66.5,113.08C229.45,531.32,280.63,574.91,324,609.3a8.65,8.65,0,0,0,2.92,1.55A7.37,7.37,0,0,0,335,619.6c20.74-2,51.58-.33,66.61-18.05,17.6-20.77,19.12-53.37,17.56-79.51C417.24,489.44,411.93,456.73,402.17,425.51Z"/><path class="cls-1" d="M444.07,629.65c-2-5.24-8.05-6.08-12.54-4.49-38.63,13.64-80.78,6.52-118.6,23.2-7.53,3.32-4.13,13,1.75,14.78-2.43,13.39-.24,27.06,3.7,40.37,1.47,5,5.46,8.64,10.88,7.66,38.89-7.1,77.72-14.36,116.08-24a9.58,9.58,0,0,0,7.59-8.44C454.78,661.27,450.21,645.86,444.07,629.65Z"/><path class="cls-1" d="M806.65,512.39c-41.41-71.66-107.82-2.56-152.84,26.4-4.36,2.81-7.2,8-4.52,13.21,7,13.55,18.6,38,33.18,43.69,5.31,2.07,9.64-2.08,10.1-7.06,13-8.37,31.62-16.19,45.51-24.43,22.21-13.17,44.74-25.89,66.22-40.27C807.61,521.72,808.6,515.76,806.65,512.39Z"/><path class="cls-1" d="M754.13,368.16c-4.89-19.56-12.63-44.17-30-56.06-11.74-8.06-21.55-1.86-28.8,7.49C687,304.84,673.06,294.9,660,300.85c-4.38-35.27-14.17-100.93-43.77-92.39-38.45,11.09-19.67,85.69-8.44,119.74a39.09,39.09,0,0,0-17.15,9.93c-13.59,13.8-12.92,36.64-10.34,54.47,7,48,40.58,99.16,90.44,105.38,35.19,4.39,63-26.25,77.52-54.69C761.37,417.5,761,395.49,754.13,368.16Zm-156.71,9.28a8,8,0,0,0-.78-.27c-.3-8.51.93-17,5.12-24.26a18.63,18.63,0,0,1,2-2.71C599.07,358.13,597.21,367.51,597.42,377.44ZM703.55,469.3c.64-.48,1.29-.94,1.92-1.44A109.51,109.51,0,0,0,732,437C725.28,450.1,715.3,461.65,703.55,469.3Z"/><path class="cls-1" d="M574.07,412.34c-21.47-3.34-43.93,3-64.89,7.41-29.5,6.17-58.08,11.87-88.4,11.27a9,9,0,0,0-9.44,8.73,5.45,5.45,0,0,0-1.81,5.12c1.22,7.52,3.69,14.1,6.3,21.29,1.37,3.79,6.17,5.81,9.85,5.11,29.25-5.54,58.56-10.51,87.91-15.5,18.5-3.14,50.08-3.51,63.94-17.72a7.85,7.85,0,0,0,.7-10.54C583.75,423.4,582,413.57,574.07,412.34Z"/><path class="cls-1" d="M783.55,47.38C744.64,24,684.83,43.75,644.77,52.73,576.77,68,506.52,71.08,438.1,84.62c-34.49,6.83-69.53,10.4-103.93,17.57-21,4.39-43.05,12-56.59,29.69-10.53,13.73-7.31,34.49-5.29,50.35,3.25,25.48,4.12,51,6.51,76.58,4.06,43.41,16.65,92.28,63,103.55l.64.24,0-.07c.77.18,1.48.44,2.27.6.26.05.49,0,.74.07l2.62,1a6.86,6.86,0,0,0,10.48-6c.23.06.41.18.64.23,2.41.53,5.1-2.44,4.35-4.84-7.51-23.92-11.39-49.16-14.54-74.08-4.31-34.16-13.79-68-15-102.41-.55-15.22,1.63-36.25,16-44.2,12.16-6.73,31.12-5,44.51-6.08,46.79-3.75,93.74-15.05,139.76-24,38.36-7.41,77.39-13.19,115.19-23.13,33.69-8.85,85.22-29.46,90.48,21.93,9.09,88.9,29.66,176.41,43.32,264.72-4.73,3.67-4.73,8.35-5.23,14.55a9.51,9.51,0,0,0,1.61,6.42,6.77,6.77,0,0,0-.53,4.42,13,13,0,0,0,2.18,5l1.33,1.22q-1.32-1.14.71.67a5.14,5.14,0,0,0,1,.48,9.36,9.36,0,0,0,10.18,5.75c43-6,51.65-47.51,50.2-85.52-1.78-46.54-12.41-93.21-16.13-139.8C825.31,138,824.12,71.8,783.55,47.38ZM296.22,250.64c-.12-1.6-.22-3.12-.33-4.66a10,10,0,0,0,1.71-.21,9.48,9.48,0,0,0,1.07,2.79A11.87,11.87,0,0,0,296.22,250.64ZM329.76,283c.67,5.44,1.17,12.6,2,20.36-16.46-4.25-19.16-25.2-20.21-41.46a59.89,59.89,0,0,1,11.1-2.93,9,9,0,0,0,3-1.14C327.24,266.28,328.73,274.68,329.76,283Zm478.63-83.08c2.88,18.65,1.73,40.31-13.67,49-2.27-12.47-4.23-24.93-5.54-37.61-1.69-16.21-4.71-36.81.3-53,3.85,3.77,6.89,8.62,9.72,13.15C804.6,180.1,806.85,189.91,808.39,199.91Z"/><path class="cls-1" d="M688,105.41c-46.11-11.56-105.43,6.7-150.56,16.45-59.61,12.87-120.3,26.14-178.39,44.83-6.48,2.08-4.92,10.93,1.92,10.53C415.7,174,469.4,157.09,522.59,144.89c26.92-6.17,54-11.64,81.24-16s56.3-2.41,83-8.38C693.63,118.94,696,107.42,688,105.41Z"/><path class="cls-1" d="M692.92,138.56a1.09,1.09,0,0,0,0-.18c4.34-.39-6.8-.47-8.73,0q-12,2.88-24.11,5.63c-25.53,5.83-51.28,9.8-77.2,13.52-37.63,5.39-74.55,12.53-111.58,21.08-35.22,8.13-71.54,11.27-106.5,19.66-3.55.85-4.82,6.79-.64,7.86,29.62,7.6,61.24.3,90.61-5.35,40.39-7.77,80-17.48,120.8-23.37,27.71-4,55.4-7.67,82.75-13.72,13.47-3,29.68-4,40.51-12.78C704.74,146.12,699.37,137.59,692.92,138.56Z"/><path class="cls-1" d="M674.37,171.76c-35.49,8-70.88,16.44-106.48,24-34.54,7.29-69,14.88-103.54,22.38-25.36,5.52-59.24,7.07-81.79,20.76a3.15,3.15,0,0,0,1.08,5.89c18.82,3.53,41.23-3,59.79-6.07,29.71-4.89,59.33-10.21,88.83-16.25,32.83-6.73,65.5-14.16,98.24-21.28,11.78-2.56,23.63-4.58,35.34-7.44,5.91-1.44,11.81-2.88,17.74-4.23,8.08-1.83,9.58,1.45,7.45-6.55,1.49,5.59,6.91,7.25,11.47,4.17l1.53-1c2.33-1.57,3.21-5.22,2.72-7.84C704,163.24,683.92,169.61,674.37,171.76Z"/><path class="cls-1" d="M581.49,236.66c-65.14-2.65-130.12,16.08-192.69,32-7.63,1.94-5.63,13.21,2.23,12.23C454.26,273,515.57,252.48,580,254.77,591.45,255.17,593,237.13,581.49,236.66Z"/><path class="cls-1" d="M704.44,217.49a136.39,136.39,0,0,0-38.63,12.34c-6,3-3.06,13.61,3.79,11.73,12.59-3.46,25.13-4.95,37.86-7.5C717.93,232,715,215.76,704.44,217.49Z"/><path class="cls-1" d="M725.13,262.71c-1.23-3.7-5.67-5-9-4.68-8.05.84-16.32,3.86-24.19,5.79-3.16.76-7.26,1.34-10.14,2.92a8.14,8.14,0,0,0-3.15,2.45l-.06.1c-3.23,1.86-2.22,7.47,1.45,8.1a8.85,8.85,0,0,0,3.93,1.26c3.25.46,7.3-.44,10.52-.83,8-1,16.84-1.06,24.67-3.11,3.27-.86,7-3.67,6.8-7.56A14.63,14.63,0,0,0,725.13,262.71Z"/><path class="cls-1" d="M577.34,288.71c-62.1,5.93-121.4,29.81-184.09,35.12-4.86.42-4.3,8.23.41,8.57,60.85,4.43,128.51-9.85,186.81-26.5C591.1,302.86,588.45,287.64,577.34,288.71Z"/><path class="cls-1" d="M1130.74,319.6c-2.21,0-5.86.27-10.6.67-.5-7.17-1.66-14.26-2.75-21.38-1.72-11.18-1.11-20.34.51-31.42,0-.12,0-.22,0-.33,2.82.46,5.64.95,8.42,1.51,5.87,1.19,8.8-6.47,5-9.39a4.46,4.46,0,0,0-3.69-5.29c-35.16-8.16-74.56-8.21-110.25-4.67-27.4,2.71-74.32,10.93-77.57,45.81-3.62,38.88,40.38,46.75,70,48.53,40.57,2.43,80.6-5.11,120.94-7.67,4.57-.29,6-5.25,4.21-8.18C1136.88,324.71,1135.49,319.58,1130.74,319.6ZM959.25,288.88c11.23-25.07,60.45-24.81,82.65-25.56,22.39-.76,45.77-.38,68.33,2.68-3,5.21-3.94,11.35-3.81,17.84-19.28-1.51-40.25,2.52-59.32,3.71-23.49,1.45-47,2.44-70.49.93-2.55-.16-2.4,3.56,0,3.87,23.41,3.06,46.94,2.93,70.49,2.18,19.3-.61,40.6.14,59.87-3.19.35,2.68.8,5.37,1.34,8.05a3.12,3.12,0,0,0-.62-.26c-22.53-4.32-46.79.44-69.29,2.9-13,1.42-26,2.86-39.07,3-9.13.12-17-2.66-25.72-3.76-.87-.11-1.3,1-.94,1.64,7.44,13.56,42.73,7.58,54.39,6.74,26.41-1.92,53.24-6.85,79.73-3.9a2.7,2.7,0,0,0,2.62-1.27c1.32,5.75,2.8,11.33,3.9,16.37C1063.22,325.39,937.27,337.91,959.25,288.88Z"/><path class="cls-1" d="M1075.68,368.81c-25.66-7.18-55.19-4.8-81.59-5.51-24.23-.66-50.2-2.52-74.27,1.3-5,.79-4.7,6.48-1.58,9a4.53,4.53,0,0,0-.52,2.61c-.07.09-.15.16-.22.26-2.26,3.23.81,6.25,3.94,6.31a19.25,19.25,0,0,1,2.93,5.61c1.52,5,1.32,10.52,1.16,15.67-.24,7.65-3.39,15.62-3.71,23.26-1.19.08-2.39.13-3.58.22a3.49,3.49,0,0,0,0,7c1.34.11,2.68.18,4,.28,9.59,3.49,33.42,2.52,48.85,1.46q17.52-.18,35-1.18c36.14,1.51,77.33,8.85,106.15-13.78C1143.6,396.8,1096.42,374.62,1075.68,368.81Zm7.61,54.61a53.35,53.35,0,0,0,6.45-2.87,9.32,9.32,0,0,0,1,.3A71.8,71.8,0,0,1,1083.29,423.42Zm-.09-11.78c-21.55,10.9-49.71,12.23-74.92,13a195.24,195.24,0,0,0-21.44-.2c-6.27.36-12.53.87-18.79,1.38-12.67.22-25.34.4-38,1,3.3-6.75,5.34-17.1,5.33-27,15.54,1.11,31.29.82,46.83,1.1,14,.25,30.85,3.18,44.44-.38a2.52,2.52,0,0,0,0-4.82c-13.59-3.55-30.45-.62-44.44-.37-15.56.27-31.35,0-46.91,1.1a44.26,44.26,0,0,0-3-15c4.53-.13,9.57-.08,12.33-.22,12.52-.64,25.1-.25,37.63-.25,15.6,0,31.12.05,46.7,1.13,17.07,1.19,34.5,3.32,50.62,9.31C1092.77,396.4,1096.3,405,1083.2,411.64Z"/><path class="cls-1" d="M1154.44,492.2c-13.47-32.31-58-36.47-87.7-38.07-56.64-3.07-113.87.34-170.57,1.32-3.07-2.27-8.68-.93-8.68,4.06V467a5.38,5.38,0,0,0,5.32,5.32c3.35.09,6.7.12,10.05.12a4.53,4.53,0,0,0,.29.88c2.75,5.62,6.57,9.43,8.1,15.89a42.9,42.9,0,0,1,.75,4.25,1.76,1.76,0,0,0,.21,1.82,96.55,96.55,0,0,1-.31,16.41,105.93,105.93,0,0,1-4,20.87c-.17.58-.9,3.42-1.66,6.08-5,.68-10,2-13.58,4.93-4.48,3.59-6.42,12.37-.27,15.69,8.23,4.45,19.48,2.48,28.35,1.72,16.27-1.38,32.33-2.37,48.68-2.77,26.74-.65,53.55-.88,80.29-.5,18.06.25,36.25,1.24,54.2-1.42C1134.75,551.71,1169.47,528.24,1154.44,492.2Zm-69.13-26.78a3.13,3.13,0,0,0,.47.75c-4.68-.73-9.37-1.39-14.08-1.94C1076.26,464.48,1080.81,464.87,1085.31,465.42Zm30.41,77.86c2.15-1,4.25-2.18,6.31-3.41a9.34,9.34,0,0,0,2.25.49A61.17,61.17,0,0,1,1115.72,543.28Zm9.22-18.2c-10.55,10.33-26.5,14.07-40.55,16.49-54.56,9.4-111.16-5.36-166.15-3.75l-3.54.12c2.41-4.7,3.78-10.7,4.68-16.06,27.41,3,55.29,4.49,82.78,6.29,23,1.5,56.63,5.64,77.69-6.26,2.46-1.39,1.49-5.68-1.49-5.48-11.74.78-23.25,4-35.11,4.73-13.66.88-27.43.37-41.09-.22-26.95-1.16-55-6.12-82-4.09.19-1.46.37-2.83.53-4a106.05,106.05,0,0,0,.88-16.08c26.18,2.48,53.64-.77,79.67-1.59,16.13-.51,32.27-.6,48.41-.17,15.64.41,31.11,3.29,46.69,3.68,3.81.1,4.32-5.34.87-6.44-28-8.94-61.64-6-90.58-4.87-28.23,1.09-57.16,1.38-85.38,3.89-.67-7.33-2.45-14.52-6.38-19,38.4-.77,76.73-5,115.12-1.24,19.34,1.87,38.68,3,57.89,6.13,14.39,2.38,45.11,6.11,50.63,22.81C1141.56,509.3,1130.63,519.5,1124.94,525.08Z"/><path class="cls-1" d="M1060.41,406.89a661.24,661.24,0,0,0-81.71,1.7c-4.38.36-41.14,1.36-42,4.67a.53.53,0,0,0-.88-.51c-5.54,5.26,24.6,4,25.59,3.9,33-2.48,66-1.53,99-3.28A3.24,3.24,0,0,0,1060.41,406.89Z"/><path id="ipad" class="cls-1" d="M207.06,285.35c-.6-30.76-4.19-240.69-5.39-264.52C199.87-2.24,181.89.06,169.31.06H21.3c-6.59,0-18,.77-19.18,5.39C-1.47,16.21.33,32.36,1.52,50.82s5.4,166.86,6,222.23c.6,54.59,3,63.05,7.19,73.82,4.19,10,35.95,5.38,91.68,6.15s89.89,3.85,96.48-4.61S207.06,316.11,207.06,285.35Zm-10.18,43.83c-6,.77-109.66,2.31-135.43,2.31s-39.55-3.85-42.55-6.92S11.71,256.13,12.31,210s-1.8-92.27-4.19-124.57c-2.4-33.07-3.6-71.51-1.2-75.36C8.72,7,91.41,9.29,112.38,9.29c21.58-.77,72.51-5.38,77.9,8.46s4.8,24.61,4.8,36.91S200.47,240,199.87,269.2,202.87,328.41,196.88,329.18Zm-160-306c2.4-.77-.6-7.69-3.6-7.69S19.5,17,17.7,18.52c-1.79,2.31,0,40,.6,42.29.6,1.54,4.8-.77,6-3.84s0-29.22,0-30.76C24.3,25.44,34.48,23.9,36.88,23.13Zm115.65,10c-13.18,0-88.09-1.54-96.47-1.54-9,0-21,3.85-22.78,6.92C31.49,43.9,32.09,67,31.49,80.81c0,14.61,1.2,114.57.6,141.49s1.19,45.37,4.79,53.05,15,6.93,33,8.46,48.54,2.31,67.71,3.08,28.76-.77,37.15-7.69,7.79-16.15,8.39-35.37,2.4-133,3-160.72-1.8-28.45-4.2-40.75C179.5,31.59,165.72,33.13,152.53,33.13ZM177.1,223.06c0,22.3,0,37.68-2.4,43.07-1.79,5.38-6.59,12.3-27,12.3s-77.9-3.08-85.69-3.08c-7.19-.76-17.38,0-19.78-6.92-2.39-7.69-3-44.6-3-94.58.6-50.75-2.4-123.8,0-128.42.6-2.3,44.34-2.3,64.71-2.3,21-.77,64.12.77,67.12,3.07,3,1.54,8.39,13.07,8.39,29.22S177.1,200,177.1,223.06ZM119,296.12c-9.58-8.46-20.37-2.31-23.37,2.3-3,3.85-1.79,13.85,1.8,16.92s15,6.15,19.18,3.85S128,305.34,119,296.12Zm-8.38,15.38c-5.4,0-14.39-3.08-7.79-9.23,1.79-1.54,9.58-1.54,12.58,1.54S116,311.5,110.59,311.5Zm7.79-261.45c-2.4,0-3,2.3-3,4.61,0,0,44.34,76.13,46.14,78.44s2.4-1.54,1.8-4.62C163.32,125.41,121.37,50.05,118.38,50.05Zm-24,15.38c-3.6,0-3.6,3.07-3,4.61S101.6,87,111.78,103.11C122,120,157.33,174.62,157.92,174.62,158.52,173.85,99.2,65.43,94.41,65.43ZM75.83,84.65c-2.4-.77-3.6,3.08-3,4.61s3,6.16,10.19,16.15,61.12,107.66,61.12,107.66-2.39-7.69-9-24.61C128,172.31,77,85.42,75.83,84.65ZM62.65,117.72c-6.59,0-2.4,6.92-2.4,8.45s8.39,14.62,21,33.07,51.54,88.43,53.33,86.89C137,243.83,64.44,117.72,62.65,117.72Zm-.6,59.21c-.6.77-3,2.3-3,4.61s57.53,90.74,58.13,89.2C117.18,268.43,64.44,175.39,62.05,176.93Zm-3.6,53.82c-6-.76,0,10,1.2,12.31,1.2,3.07,19.78,26.91,21,23.07C81.82,263.05,61.45,231.52,58.45,230.75Z"/></g></g></svg>