<svg xmlns="http://www.w3.org/2000/svg" viewBox="0 0 1867.94 982.48"><defs><style>.cls-1{fill:#6bbbb6;}.cls-2{fill:#fff;}.cls-3{fill:#999;}.cls-4{fill:none;stroke:#6cbbb6;stroke-linecap:round;stroke-linejoin:round;stroke-width:5px;}</style></defs><title>rl-process-integrations</title><g id="Layer_2" data-name="Layer 2"><g id="Layer_2-2" data-name="Layer 2"><path class="cls-1" d="M1242.35,280.24c-2.62-4.67-8.87-5.9-14-4.36-1.53-6.33-6.64-12.06-14.94-12-38.72.43-74.29-9.38-88.2-48.87-11.36-32.22,4.08-67,20.93-95.12a22.65,22.65,0,0,0,2.59.16c6.15-.41,12-7.1,10.66-13.36-3.54-17.19-26.11-24.32-40.58-30.76-15.84-7.06-32.62-13.6-49.68-17-3.7-.73-8.47,1-10.64,4.13-.15.23-.27.43-.42.65-1.89-11.76-17.67-14.53-24.14-3.26-11.06,19.23-15.51,48.91-37.83,59.15C981,126.56,962.4,106.52,953.66,97c-13.24-14.47-24.09-31.77-33.5-48.9-5.07-9.22-8-18.9-15.09-25.64a25.87,25.87,0,0,0,3.64-3.08c6.32-6.93.62-16.87-7.27-18.72C885.91-3,862.25,10,847,14.1c-14.49,3.92-35.08,5-46.09,16.09-2.69,2.7-.64,6.69,2,8.26a24.54,24.54,0,0,0,8.47,2.81c.77,14.35,7.61,26.95,6.21,42-1.72,18.36-14.71,31.77-29.13,41.58-36.46,24.81-82.94,12.8-118.1-7.13,3-12.3-15.89-23.5-24.1-8.22-6.61,12.28-14.15,24.21-20.42,36.55-4.67-1.39-9.06,5-4.57,8.71l.34.26c-4.52,10.32-7.87,21-8.72,32.62-13.63-4.12-26.34,14.1-13.31,24.68,22.82,18.53,42.72,40.46,46.48,70.74,4.55,36.77-41.9,33.37-65.28,29.68-8-1.27-11.88,4.88-11.18,10.83-5.08.22-10.15,3.33-11.27,9.35-5.2,28-1.61,60.79,6.13,89.1-7.16,9.36-2.25,26.25,12.41,23.72,91.81-15.79,138.81,76.45,73.89,142.37-3.26,3.31-2.83,7.32-.74,10.43-1.19,2.87,1.86,6.83,5,5.12-.27.15,22.43,16.63,25.06,18.42,13.3,9,27.47,18,39.67,28.42,14.62,12.55,31.82-14.61,13.74-22.67-19.19-8.55-36.16-21.72-55.59-29.94-1.86-.79-4-1.63-6.34-2.36a125.29,125.29,0,0,0,16-16.86c9,3.72,18,7.53,26.75,11.92,12.81,6.4,25.54,15.5,39.55,18.87a75.52,75.52,0,0,0-11.49,39.75c-.06,8.07,13.4,10.11,15.76,2.42,10.74-34.93,36.46-55.43,73.92-50.4A59,59,0,0,1,869.84,623c12.83,15.93,4.48,34.87,13.23,50.9,2.24,4.1,5.88,6.34,9.69,6.46a9.47,9.47,0,0,0,6.37,4.17c16.48,2.08,33.63.62,50.2.61,17.77,0,35.62,1.86,53.28,1.77,15.64-.09,14.06-22.81.58-26-10.08-2.35-22.11-1.38-33.49-.29-3.57-2.82-8.06-4.2-12.32-6.17a224.19,224.19,0,0,1-21.82-11.84c-9.57-5.81-20.74-12.54-28.79-20.38-1.6-1.57-3.79-1.1-5.28.19A110.36,110.36,0,0,0,895.11,610c-12.24-20.49-36.23-31.9-58.83-36a81.71,81.71,0,0,0-44.64,4.36,6.59,6.59,0,0,0-1.94-3.51c-9.06-8.53-23.54-12.54-34.71-17.52-15.75-7-31.42-14.28-46.71-22.28,0,0-.09,0-.14,0,3.61-17.35,2.24-35.79-4.38-54.28C797.69,541.67,899.18,595.38,999,643.41a7,7,0,0,0,7.25-.58,121.33,121.33,0,0,0,13,28.66c6,9.58,21.12.58,17-9.52-10.6-25.76-18.71-64.41,11.3-81,25.81-14.23,50.46,2.36,60.65,26.75,3.91,9.34,13.37,10.42,20.13,6.67,5.19,2.66,12.34,1.77,15.12-4.84a468.61,468.61,0,0,1,25.35-51.1c5.84-10.19,14.17-19.35,15.39-31.4a11.51,11.51,0,0,0-4.44-10.57c1.18-3.7.07-7.91-4.6-9.59-43.42-15.52-59.93-48.67-39.84-91.27,7.66-16.24,21-30.06,37.41-37.37,18-8,31.48,5.06,48.47,1.85a11.56,11.56,0,0,0,8.66-6.9c3-1.13,5.4-3.69,5.71-8.24,1-15.24,3-30.27,5.36-45.36C1242.86,307.19,1248.82,291.74,1242.35,280.24Zm-336,355.9c5.87,6.64,13.59,11.78,21,16.81,5.1,3.45,10.47,6.49,15.82,9.56-11.92.54-23.92,1.07-35.7,2.61C910.11,656.29,909.09,646,906.37,636.14Zm150.89-561a10.82,10.82,0,0,0,5.55,5.44c14,5.36,27.83,11.42,41.33,18,6.59,3.22,13.93,8.78,21.49,13.45a132.56,132.56,0,0,0-18.12,27.73c-16.79-14.47-40.12-24.63-61.58-32.39A111.58,111.58,0,0,0,1057.26,75.11ZM1038.82,119c9.11,4.16,18,8.69,26.73,13.66,11.51,6.54,22.22,14.7,34.72,19.26a7.29,7.29,0,0,0,1.85.33,125.89,125.89,0,0,0-3.94,12.41c-3.65-1.49-7.27-2.77-10-4.1-14-6.91-27.85-14.26-42-20.85a133.37,133.37,0,0,0-18.53-7.39A93.85,93.85,0,0,0,1038.82,119ZM887.35,30.28C886.61,41.6,892.59,54.1,898.61,65c-.73-.44-1.49-.86-2.21-1.32a406.77,406.77,0,0,1-39.52-28.35C866.05,34,877.18,32.88,887.35,30.28Zm-42.68,7.38a409.53,409.53,0,0,0,67.61,51.2c11.46,19,25.64,37,43.58,49.72,22.46,16,44,13.61,61.52,1.9,10.6,4.62,43.32,21,46.38,22.77,7.13,4.2,19.79,14.51,31.31,18.63A124,124,0,0,0,1098,226c.57,2.29,1.34,4.43,2.09,6.59-38.12-29.62-85.66-50.67-127.25-74.48-12.27-7-124.65-62.76-122.4-75.2a2.19,2.19,0,0,0-2.91-2.32c2.29-14.87.18-29.57-9-41.5C840.61,38.59,842.66,38.11,844.67,37.66ZM658.94,131.81v0c31.57,25.83,77.25,39,117.32,28.3,38.34,21.28,77,41.68,115.75,61.93a148,148,0,0,0-50.62,12.85c-2.48,1.13-4.65,2.6-7,3.86a5.8,5.8,0,0,0-.86-1.57c-15.51-20.27-51.28-31.64-73.29-43.94-32.67-18.26-65.11-37-97.5-55.71-4.09-2.36-8.24,4.52-4.29,7.07q47.22,30.39,94.64,60.44c19.36,12.28,45.22,35.58,68.95,41a142.81,142.81,0,0,0-12.54,9.46c-25.52-16.11-54.7-27.61-81.07-42.35a869.36,869.36,0,0,1-87.52-56.48A135.28,135.28,0,0,1,658.94,131.81ZM952.76,419c4.77,3,9.64,5.75,14.48,8.6a122.61,122.61,0,0,1-33.15,23.24,16,16,0,0,0-8.35,8.94c-52,8.67-97.76,1-123.18-52.09-23.46-49-4.35-104.56,38.09-135.17,104.57-75.41,199.22,65,134.46,146.28-5.77-2.7-11.53-5.44-17.31-8.12C952.85,408.35,948,416,952.76,419ZM635.4,204.87c-3.49-3.39-7.08-6.57-10.73-9.52a160,160,0,0,1,11.12-29.17c27.35,21.24,55.85,40.82,85.08,59.42,23.72,15.09,49,32.61,75.67,42.81a137,137,0,0,0-14.81,19.84,5.73,5.73,0,0,0-2.58-3.65c-21.83-14.06-46.17-24.6-69-37C684.88,234,660.38,219,635.4,204.87Zm22.78,28.31q19.58,11.7,39.21,23.25c23.41,13.81,49.09,35.55,76.27,40.65a6,6,0,0,0,3.3-.38,142.67,142.67,0,0,0-14.25,46.05c-29.38-16.26-60.12-30.65-90.35-45.39C676.85,275.22,670.21,252.8,658.18,233.18Zm10.15,76.58c30.48,17.72,61.72,34.72,93,50.75a152.78,152.78,0,0,0,4,36.12c-14.18-8.3-29.41-15.56-42.22-23.32-24.42-14.78-49-29.94-74.76-42.58A44.88,44.88,0,0,0,668.33,309.76ZM745.39,568c10.76,5.36,22.46,12.8,34.35,16.34a78.24,78.24,0,0,0-19.58,16.4,3.89,3.89,0,0,0-.39-.43c-11.64-9.17-27.45-14-41-19.88a253.26,253.26,0,0,0-25.51-9.65,105.73,105.73,0,0,0,11.87-24.59C718.13,554.17,731.71,561.14,745.39,568Zm257.25,58.57C908.47,557,794.84,514.28,692.09,457.35c-24.4-34.5-70.09-47.56-111.29-42.05A260.19,260.19,0,0,1,578.74,386c-.08-8.92.9-17.82,1.71-26.71,135.93,86,274.78,177.12,422.56,240.91A85,85,0,0,0,1002.64,626.53Zm7.19-46.06C865.29,507,727.63,419.11,581.14,349.85a120.73,120.73,0,0,0,.08-15.8c17,4.48,37.08,6.15,54.18,1.65q41.22,23.21,80.52,49.49c17.85,11.95,38.1,30.48,59.14,39.84,23,47.47,74.51,71.41,123.88,62.43a4.89,4.89,0,0,0,1.92,2.64c22.3,15.46,47.46,26.59,71.77,38.46,18.26,8.92,36.29,22.61,54.92,32.05A59.7,59.7,0,0,0,1009.83,580.47Zm38.94-30.07c-13.38-14.33-36.29-22.28-53.16-29.94-27.14-12.31-54.3-24.54-81.4-36.93A115.68,115.68,0,0,0,930,477.19c3.49,3.26,8.55,4.78,14.52,3.08,45.7,22.24,90.47,46.44,136,69A66.3,66.3,0,0,0,1048.77,550.4Zm79.59,33.28a75.31,75.31,0,0,0-17.55-20c7.26,3.41,14.44,6.95,21.76,10.21C1131.15,577.17,1129.61,580.37,1128.36,583.68Zm15-48.74c5.57,2.83,12.33-3.64,9.67-9.33a49.52,49.52,0,0,0-4.83-7.89,85.72,85.72,0,0,0,12.08,3.66c-6.84,7.46-10.74,17.73-15.3,26.59-1.43,2.78-2.87,5.74-4.32,8.61-61.34-27.61-123-54.7-185-80.76a127.47,127.47,0,0,0,42.43-30.7c16.83,9.24,33.78,18.29,50.51,27.66C1081.27,491.09,1110.56,518.28,1143.38,534.94Zm-111.9-178q17.63,9.38,35.22,18.8c14.31,7.7,28.63,18.66,44.13,24.35-.7,1.27-1.52,2.53-2.17,3.81a93.29,93.29,0,0,0-9.28,29.74c-12.08-8.62-31.17-12.4-44.08-17.16-9.55-3.53-19.16-6.91-28.74-10.38-.7-.25-2.23-.61-4-1A138.62,138.62,0,0,0,1031.48,356.92Zm3.23,65.92c11.34,5.11,22.85,9.86,34.25,14.81,8.74,3.8,19.2,11,28.85,11.28.24,0,.48-.07.72-.08A77.94,77.94,0,0,0,1111,488.19c-10-5.62-20.16-10.59-28.56-15.27-24.65-13.73-49.93-26.54-75.4-38.91a127.21,127.21,0,0,0,10.6-18.15C1024.1,418.91,1031.22,421.28,1034.71,422.84Zm84-35.5c-12-8.59-27.27-13.79-40.43-19.95-15.89-7.42-31.55-15.35-47.23-23.22a154.68,154.68,0,0,0-8.54-40.11,128.19,128.19,0,0,0-7.33-16.48c41,22.49,81.51,45.81,121.09,71.19a10.21,10.21,0,0,0,8.13,1.43C1134.34,367.45,1125.82,377.07,1118.72,387.34Zm47.11-38a68.93,68.93,0,0,0-15.32,6.89c2.9-3.74,3.27-9.14-1.83-13-108-81.47-236.13-130.83-357.7-188.31a97.84,97.84,0,0,0,14.23-7.58c9-5.87,17.67-14.72,24.92-25.08,44.86,44.61,98.51,78.85,152.68,111.13,63.68,37.95,135.22,87.18,205.38,112.27A96.58,96.58,0,0,0,1165.83,349.33Zm49.79-30.12c-1,9.17-2.72,19.51-3,29.52a53.44,53.44,0,0,0-12.92-2.73c3.65-2.74,4.72-8.47.42-12.62-41.46-40-108.78-62.43-159.61-88.36-72.37-36.92-144.15-76.37-206.12-129.28a102.58,102.58,0,0,0,11.85-28.15c4.87,22.56,72.6,55.67,84.17,62.95,54.09,34,108.14,69.66,163.74,101.09,5.48,3.1,10.43-.45,12.28-5.27,21.36,36.34,69.75,48.78,110.27,46.11.49,0,.79-.27,1.25-.33C1216.26,301.14,1216.49,311.52,1215.62,319.21Z"/><path class="cls-1" d="M465.1,964.92c-18.31-30.7-49.78-49.43-69.92-78.56a1.63,1.63,0,0,0-.17-.2,26.12,26.12,0,0,0,2.37-1.95c14.3-14,14.55-34,16.05-52.77,2.36-29.48,1.94-59.18,2.45-88.73.38-21.61,1.78-43.26-1.61-64.7-7.13-45.07-53.8-41.26-89.15-41.14-64.47.2-128.87,4.14-193.25,7.11-20.18.93-43.49-1.44-63.1,4.34C57.33,651.69,56,665.05,54.69,675c-3.61,28.26-3.56,56.19-4.31,84.62-.71,27.23-3.44,54.28-1.55,81.53A117.45,117.45,0,0,0,53,864.48a6.43,6.43,0,0,0,2.66,3.8,5.74,5.74,0,0,0,3.64,4c1.87.79,3.78,1.5,5.68,2.21-21.86,31.49-39.39,65.91-63.25,96-3.41,4.31-1.73,12,4.86,11.73,77.48-3.2,154.23-8.45,231.79-4.38,74.29,3.9,148.57,9.16,222.46-2.45C465.44,974.65,467.25,968.54,465.1,964.92Zm-145-27.4,2.55,3.78c-1.28-.81-2.61-1.55-3.91-2.33A5.06,5.06,0,0,0,320.09,937.52ZM136.2,871.23c-23.24-1.08-48-2.13-69.66-11.33-.26-.11-.51-.16-.76-.24-8.37-41-.91-84.87-.75-126.37.08-22.42.63-45.7,5.69-67.64,2.37-10.28,45.61-6.76,53.48-7.12,51.55-2.32,103.07-5.23,154.66-6.73q38.43-1.11,76.87-.68c23.57.26,39.77,6.23,44.91,30.64,3.61,17.17,1.76,36.26,1.28,53.63-.69,24.74-.59,49.5-1.45,74.24-.67,19.21,2.61,52.55-14.51,65.6-12.45,9.49-33.35,5.68-47.64,4-45-5.34-89.7-4.62-134.93-5.17C181,873.78,158.59,872.27,136.2,871.23ZM198,948a11.89,11.89,0,0,1,5.92-7.51c5.07-2.89,12.13-2.94,17.76-3.2,9.82-.45,19.62.43,29.43.11,1.05,3.75,2.07,7.51,2.78,11.33C235.3,948.75,216.61,948.87,198,948Z"/><line class="cls-2" x1="162.62" y1="657.89" x2="580.5" y2="415.34"/><polygon class="cls-3" points="580.97 416.15 579.45 416.2 580.11 418.18 580.97 416.15"/><path class="cls-3" d="M571.77,412.93l-1.55,1.89c4.12,4.49,1.72,3.88,7,5.78.62-1.44,2-4.62.49-6.45-.66.66-.66,3.3-2.18,3.34-.37-1.77,1-2.31.44-4.59-2.79-.51-.45,2-2.91,2.43Z"/><path class="cls-3" d="M572.4,419.42a13.39,13.39,0,0,0-1.11-2.7C571.62,417.72,571.29,419.37,572.4,419.42Z"/><path class="cls-3" d="M571.51,420.64c-1.37.53-1.09-1.9-1.37-2.11l.5,4.15Z"/><path class="cls-3" d="M566.18,423.44a4.43,4.43,0,0,0-.41.65C566.27,424.51,566.19,424,566.18,423.44Z"/><path class="cls-3" d="M563.85,425.33c1.17.84,1.42-.22,1.92-1.24a1.05,1.05,0,0,1-.2-.16c-1.28-.55-2-3.32-.46-3.35.9-1.24,2.15,1.16,2.31-1l-2.56-1.09C563.14,419.91,564,424,563.85,425.33Z"/><path class="cls-3" d="M566.18,423.44a1.92,1.92,0,0,1,.59-.54C566.24,422.68,566.17,423,566.18,423.44Z"/><polygon class="cls-3" points="568.95 422.21 569.31 421.34 568.57 420.43 568.95 422.21"/><path class="cls-3" d="M559.69,428c-1.57-3.39,3.25-1.42,2.13-4.12-1.6,1.11-4.32-.47-5-2.46l-1.28,2.09C555.64,425.07,557.83,427,559.69,428Z"/><path class="cls-3" d="M551.3,421.94a1.42,1.42,0,0,1-.1.81A1,1,0,0,0,551.3,421.94Z"/><path class="cls-3" d="M545.1,433l2.47-5.77c.2,1.28.95,2.19.17,3.14,2.18-.69,1.23-2.89,3-3.49,2.22,2.72-2.69,1.84-.21,4a4.24,4.24,0,0,0,2.1-4.91l3,1L553.08,424c-1.27-.53,0,3.43-1.73,1.4a1.93,1.93,0,0,1-.16-2.61c-.77,1.34-4.64-.75-6.71,1C542.21,425.58,545.8,430.44,545.1,433Z"/><polygon class="cls-3" points="542.83 429.44 541.8 428.31 543.01 429.93 542.83 429.44"/><path class="cls-3" d="M540.57,436.48l1.08-3.38a5.88,5.88,0,0,1,1.45,1.26c-.53-.7-.67-2.35-1.13-2.92-2.76-2.37-2.22,2.56-3.13,3.79-4,.52-.78-1.7-3.67-3.78,1-.44,1.4.26,2.76-.28-3.92-2.22-4.6,2.31-5.37,3.87.53.08,1.16,1,1.71.29l-.74,1.74C536.25,438.64,537.78,438.61,540.57,436.48Z"/><path class="cls-3" d="M544.61,434.1c-.71.72-1.16.68-1.47.3C543.83,435.08,544.45,435.49,544.61,434.1Z"/><path class="cls-3" d="M531.92,435.53c.25.1.44-.11.64-.49C532.33,435,532.11,435.1,531.92,435.53Z"/><path class="cls-3" d="M535.26,438.31l-1.76.62,1.43,1C535.06,439.68,535.72,439,535.26,438.31Z"/><path class="cls-3" d="M471.9,469c.85,1.14,1.78,1.39,2.87.44.79,1.71-1,2.31-1.18,3.67,2.22.11,1.06,1.91,2.38,3.24,1.9-.89,1.48-3.47,3.67-4.16a3.49,3.49,0,0,0,1.19,1.62c1.74-2.37,4.81-6.16,7.89-6.09,2.53-.67,3.72-2.36,5.7-4.49,8.4-3.76,15.68-10.2,25.08-13.63l-.62-3.84c1.31,1.32,2-1.18,3,1-.69-.13-1,.46-1.48.82,3.42,1.7,4.69-3,7.45-3.31-.57-.41-2.52-2.94-2.14-3.81,1.86,3.6,2.54-1.56,5.52,2.09,2.76-.27-1.69-3.11.9-3.87-1-2.2-2.76.27-4.07-1.05-.26-2.08,2.46-.5,1.1-2.6-4.24,1.1-8.52,9.32-13.42,13.73l-.54-2.28c-2,3-6.62,5.79-10.74,3.95,1.61,1.54-4.78,1.46-1.93,5.4-1.27-.54-1.4-.25-2.64,0l.49,1.5c-1.48.81-2.43-1.37-4-.27,2.14,1.17,1.23,2.41,1.61,4.18-3.09-.89-6.35-1.36-9-2a5.58,5.58,0,0,0,2,1.51c-1.54,0-.33,1.65-.29,2.44-1.06.73-2.3-1.66-2.93-2.87-2.47.48-.82,5.45-3.21,4.87l1.61,1.53c-1.85,1.69-4.81.68-6.79,2.65-2.6-1.88.65-3.3,1-5-.79-.26-1.87.19-2.68-.47a55.58,55.58,0,0,1-1.43,6.56C475.69,466.83,472.81,468.72,471.9,469Z"/><path class="cls-3" d="M477.65,463.91a9.61,9.61,0,0,0,.09-1.4c-.14.29-.25.58-.67.66A1.88,1.88,0,0,0,477.65,463.91Z"/><path class="cls-3" d="M471.9,469a3,3,0,0,1-.22-.26C471.55,469,471.67,469.06,471.9,469Z"/><path class="cls-3" d="M489.11,467.69c-.13,0-.26,0-.39,0a3.59,3.59,0,0,1-.43.14Z"/><path class="cls-3" d="M486,458.26a17.84,17.84,0,0,0,2.94.95A2.59,2.59,0,0,0,486,458.26Z"/><path class="cls-3" d="M501.45,452.06c.25-.58-.33-1-.36-1.77C500.13,450.73,500.18,451.51,501.45,452.06Z"/><polygon class="cls-3" points="474.81 464.92 473.37 466.54 473 467.4 474.81 464.92"/><path class="cls-3" d="M444.4,495.48c2.85,1.29,4.37-1.39,6.55-2.08,2.87-3.21-2.36-5.1.85-7.31l2.07,4.89c3.2-2.22,8.52-4.05,9.05-9.7.58.41,1.57.75,1.08,1.91,2.13-1.49-2.61-7.17,1.27-7.39-1.16,4.45,2.47,2.15,3.34,5.42l-.25.58c1.73-1.4,3.37-4.37,4.74-4.89-.63-1.2-2.77-2.37-1.17-3.48-.81.16-1.31-1.32-1.93-2.54-1,2.32-2.4,2.06-2.56,4.21-1.85-1,.38-.86-1.48-1.82l-.57,2.23c-1.23.23.16-2.16-1.62-1.54a3,3,0,0,1-1.76,3.25l.05-.74c-.61,1.16-2.4,1.18-.46,3.46L459,478.08l1.19,1.61c-3,.84-6.39-2.72-8.53,1.4,1.11.05.91,1.41.67,2,2.1.36,1-2.33,2.18-3.33,1.2,1.6.13,5,2.35,5.08-3-1-3.22,2.21-6.47-1.64-2.3,1-1.89,3.55-4.66,3.81l-.3-.67c1.24,3.07-2.53-.27-2.45,3.59l1.52,0c.63,1.2.09,1.56-.57,2.22-.17-.49-.17-.49-.75-.91,1,2.2-1.3,4-1.26,4.75,1.24-.25,1.52-2.68,2.42-3.92C444.44,493.61,445.63,495.24,444.4,495.48Z"/><path class="cls-3" d="M462.18,475.08l-.12,1.4A1.9,1.9,0,0,0,462.18,475.08Z"/><path class="cls-3" d="M432.57,497.51c-1.64.33-.66-2-2.47-2.15-.56,2.24,3.3,2,3.18,4.93-1.56-.75-1.69,2.18-2.22,2.55-.09-1.58-2-4.1-2.6-4.51-.09,1.07-2.06.4-3,.84,3.21.43-1.27,2.11,1.82,2.82.78,1.69-.62,4.1-2.18,3.34-.62-1.2.21-1.36.74-1.73-.83-2.48-2.1-.38-3.59-2.21-.32,4.3-7.21,8-2.42,11.84,1.28.54,1.2-1,1.86-1.68-2.76.29-1.53-2.61-1.86-3.61,1.4.26,2.1-2.25,2.75-.27l-.41,2.72c5.31-1.83,11.63-5.95,16.68-9.87l-2.42,1.28c-.5-1.5.57-2.24,1.06-3.38l-3.05-2.59c.83-.15,1.2-1,1.82.18,0-1.87-.84-2.48-2-3.31,1.43-1.61,2.47-.49,2.59-3.42-4.49-1-1.19,3.66-5.92,3.27Z"/><polygon class="cls-3" points="437.97 491.98 438.22 494.04 438.84 492.6 437.97 491.98"/><path class="cls-3" d="M441,499.83c-.46-.7-.21-1.28-.67-2C438.72,498.18,439.46,499.08,441,499.83Z"/><path class="cls-3" d="M420.34,502.3l-1.44,1.6,1.53,0A1.53,1.53,0,0,1,420.34,502.3Z"/><path class="cls-3" d="M412.87,518c2.27-1.76,2.42-3.91,6.17-3.85.12-2.94-3-3.65-3.51-5.93-1.65.33.62,3.86-.41,5.37-1.59-1.52-1.85,1.63-3.46,2A4.5,4.5,0,0,1,412.87,518Z"/><path class="cls-3" d="M400.31,515.88c-1.14.63-1.44,2.72-2.84,2.35-.55-1.23-.12-2,.73-2.13-2-2.37-1,1.13-3.24.08.27.23,1,.42,1,1.18-3.37,1.15-.45,3.14-5.24,3.93-.15,1-.72,1.36.39,3-3.51-.91-2.37-1.55-6.17-1.93.69,1,2.93,2.79,4.17,5-5.56-.87-3.61,2.68-7.36,1.78.2-.28.21-1,1-1.1-2.09-2.87-1.71,1.72-3.4,1.91L378,527.28c-1,1.15-2.15,4.09-4.82,3.09l-.4-1.51c-2,3.83-6.25,5.06-8.38,7.6l-2.39-.77c-2.57,4.14,4.23-1.23,3.76,4.23-3.19-4.56-1,2.69-4.24,2-2.1-1.32,1.57-2.23-.81-3.78,1,2.73-.72,1.36-1.43,2.73-1.1-2.46-2.54,1-3.36-2l-1.47,6.6c-1.4-.94-2.42,0-3.08.77,2.16-1.22,1.42,3.8,4.44,3.47,2.85-3.14,8.24-7.32,13.32-8.64-1.37-3.46,2.83-1.58,2-4.6.7,1,1.53,1.65,2.23,2.6,2.42-2.32-1.67-1.36-1.66-2.91,1-1.14,3.09.19,3.65,1.41,2.12-1-.28-1-.25-3.32l3.35,2.74c5.67-4.73,12.64-11.92,21-14.1l-1.82-1.88c4-.67,2.62-8,8.22-5l-.11-2.45c.09,1.38,2.47,3,2.49,4.94.45-1.25,1.87-1,2.39-2.18l-2.22-.1c.05-2.51,2-2.09,3.29-.69,1.14-3.62-3.64-3-5.24-4.49-1.06,6-5.74-2-8,1.64C397.07,515.19,399.76,514.64,400.31,515.88Z"/><path class="cls-3" d="M408,519.42a2.67,2.67,0,0,0,.16-.87A2.22,2.22,0,0,0,408,519.42Z"/><path class="cls-3" d="M351.34,546.28a4,4,0,0,0-.88.68C350.46,547.7,350.75,547,351.34,546.28Z"/><path class="cls-3" d="M411.66,515.61l0,0s0,0,0,0Z"/><polygon class="cls-3" points="410.17 509.3 409.22 509.75 409.96 510.66 410.17 509.3"/><path class="cls-3" d="M340.17,549.1l.66,1.15A2.69,2.69,0,0,0,340.17,549.1Z"/><path class="cls-3" d="M313.82,563.46l.6-.28A.51.51,0,0,0,313.82,563.46Z"/><path class="cls-3" d="M253,602c-1.29,1.69-3.14,3.69-3.31,6.28l-.55-1.22c-.57,1.08-2.43,4.64.65,5.59l-.12-1.27c1.15-3,2.67,1,4.77.77,1.7-1.71.35-6.73,2.74-6.73.7-.59,1.26.65,1.53,1.65,2-.73.75-4.46,1.74-5.6,5.55,8.41,4.14-5.6,10-1.59,1.27-1.68,4-2.23,5.11-5.19.12,2.84,2.12-1,3.08,1.74-2.33-5.42,7.48-1.31,4.15-7.92,4,.1-.12-.5,4.11-.94.4.72-.16,1-.3,1.3,2.09.56.46-3.91,3.24-1.64,3-1.08-.54-2,.06-4.63,3.24-.86,2.94.45,6,2.19-1.52-3.19,1-2.69,1.45-5.06-.42.06-2.68.56-2.1-1.31,3.53-1.41,1.44-3.52,4-6.1,3.48,2.46-3,1.85,1.23,3-1,2.68-2.57,3.37-2.18,6.42a19.65,19.65,0,0,0,7.53-6.73c1.83-.46.12,2,1.54,1.65,3.65-.15,2.31-5.93,5.4-5.74l.54,2c0-3.09,5.23-2.36,7.09-5.14-.84-.68-1.4-1.14-1.39-1.91,2.49,4.38,2.29-4.37,6.64-2.78-1.81-2.64-.22-5.64,1.19-6.83,1,.44,1.53,1.64,1.95,2.37-3.52-.12-.74,4.47-2,6.92.87-2.41,4.53-2.55,4.84-5.41l.68,2.5c2.54-1-.79-6.09,2.87-5.45l.68,1.72c4.82-3.08,12.28-3.62,14.18-9.48-.43-1.52-4.21-3.44-4.9-4.39-1.71,2.5-1.74,5.6-2.88,7.79l-1.42-2.5c.58,1.94-1,4.21,1,4.86-.73,2.13-2.39-1.55-3.25.86-1.37-2.69-.53-3.55-1.77-5.73l-.73,2.14c-.12-1.29-1.39-.38-1.53-1.65-.9,4.73-4.5,1-6.51,4l1.84-.45c.83,1.46-.16,1.83-.59,2.64-1.95-1.59-2.25-1-4.22-1.1-.58,1.87.24,4.87-1.46,5.83-1.24-3-3.66.14-5.33-2,1.23,2.95-2.7,2.87-2,4.59a1.52,1.52,0,0,1-2.82,0,4.4,4.4,0,0,1,.4-.86l-.95.41c-.1-.36-.27-.58-.2-.69-.83.4.32,2.4-1.51,1.64-.41-.73.15-1.05.45-1.59-2.41.77-1.33,6.33-4.55,4.87.39,1.5-2,3,.21,5.64-1.26-.63-2.34-3.1-3.91-1.64.39,3-2.54.26-3,2.63.32-3.62-.41-.71-.24-4.1-1.83-.31-1.73,4.06-4.13,4.83-.56-.45-1-1.19-1.53-1.64-.29,1.33,0,3.87-2,2.27l1.1,1.69c-2,0-3.67,1.68-6.34.67l.1,4.38c-4.47-2.1-5.94,2.94-6.12,7.09-1,.37-2.67.55-3.09-.18.06-.38.12-1.1.27-1.77-1.39.63-4.1-.33-3.23,2.87-.87,1.62-2.1-1.33-3.37-1.2-.47,5.48-9.73,1.82-7.11,8.24,1.12-.64,3.94-.68,5.92-2.18-.15,1,1,1.95.26,2.54-2,1.51-4.36,0-5.92,2.19L263,596.51C257.12,594.81,259,605.7,253,602Z"/><path class="cls-3" d="M280.42,586.14l-2.67-1,1.11,1.53A1.14,1.14,0,0,1,280.42,586.14Z"/><path class="cls-3" d="M278.86,586.67a4.07,4.07,0,0,0-.46,1.3,1.21,1.21,0,0,0,.74-.92Z"/><path class="cls-3" d="M247.16,606.2a2,2,0,0,0-1.71.94C246.15,607.33,247.14,607,247.16,606.2Z"/><polygon class="cls-3" points="246.01 608.38 247.13 608.52 246.99 608.02 246.01 608.38"/><path class="cls-3" d="M202.51,638l-1.17,3.74c-1.11-.91-3.11,2.13-3.37-.41.11,3.6-4.66,2.81-1.18,6.06,6.52-5.59,18-9.14,24.38-17.56l-.44,2.37c2.58-5.69,8-.07,8-8.32l1.37,3.46c2.53-.27,1.19-6.83,5.24-4.68l-1-1.19c.56-.32,1.12.13,1.69-.18l-.56-.45c.71-2.15,1.72-2.51,3.68-2.47.69,1-.43.83-.72,1.36,1.27.65,1.15-2.17,2.29-2.81,1.4.38.83,1.46,1,2,2.57-3.38,6.06-.91,5.69-7.06-.27-1-1.81-1.1-.82-2.24-3.09-.18-3.81,2.74-5.11,5.21l.57-.33c1.06,5.56-1.83-.33-3.28,3.17-.4-2.27.75-2.9.61-4.17-5.05-1.8-2.73,5.17-7.33,1.81l.14-.27c-.71-.19-1,1.13-1.44,1.94.57.46,1.41.38,2.12.55-.44.83.39,3.06.66,4.06-2-1.6-.44,1.58-2.26,1.27-1.53-1.64,0-2.32-.11-3.59l-.72,2.13c-1.28.91-2.53-1.28-3.78-1.92-.31,2.1,1.25.64,1.51,3.19-2.8-1.5-8.6,2.73-10.48,6.27.86-.86-.81-2.22.59-2.63-.69-.18-1.7,1.73-.87,3.18-1.29,2.46-4.4,3-7.06,2.82l1.39,1.14c-.17,3.38-5.07.54-7.07,3.59h.08c-.73.84.55,4.83-1.53,5.06C202.63,640.08,203.61,639.71,202.51,638Z"/><path class="cls-3" d="M194.54,647.12l-.25-2.55c-1.28.14-1,3.46-.06,4.65.44-.83,1.85-.45,1.29-1.69C195.24,647.31,194.83,646.58,194.54,647.12Z"/><path class="cls-3" d="M175.85,658.4c-.1.68.45,1.38.62,2,3.85-2.57,8.31-6.24,10.82-5.59,1.69-.17.17-3.36,1.45-5.05l1.95,1.6c.17-1.82,4.25-1.23,1.31-4-.27-.24.12,2-1,1.9l-.55-1.23-1.57,1.45-.25-1.77c-3.66-.64.79,5.33-3,5.74L184,650.57c-2.12,1-2.56,2.59-5.37,1.85,0,0,.84,1.47.85.69.42,0,1.53.88,1.8,1.88-1.73,4-.53-2-3.35-2-1.44,3.5-5.43,8.05-8.23,6.55,2.25,1,1.51,4,0,4.64-1.26-.64-.55-2-.82-3-.85.09-1.83-.32-2.25.5a4.26,4.26,0,0,1,1.49,5.51C172.53,667,172.18,660.08,175.85,658.4Z"/><path class="cls-3" d="M176.25,661.45a1,1,0,0,0,.22-1c-.46.3-.91.61-1.35.87Z"/><line class="cls-2" x1="1103.62" y1="379.89" x2="1455.5" y2="237.34"/><polygon class="cls-3" points="1455.85 238.21 1454.6 237.93 1455.07 239.95 1455.85 238.21"/><path class="cls-3" d="M1448.45,233.22l-1.34,1.46c3.19,5.14,1.25,4,5.46,7,.56-1.24,1.8-4,.67-6-.57.49-.68,3-1.93,2.71-.23-1.76.9-2,.55-4.27-2.26-1.06-.45,1.76-2.48,1.7Z"/><path class="cls-3" d="M1448.71,239.51a16.71,16.71,0,0,0-.8-2.79C1448.14,237.74,1447.8,239.24,1448.71,239.51Z"/><path class="cls-3" d="M1447.92,240.49c-1.13.22-.8-2-1-2.3l.24,4.05Z"/><path class="cls-3" d="M1443.45,242a2.47,2.47,0,0,0-.36.53C1443.48,243.06,1443.44,242.53,1443.45,242Z"/><path class="cls-3" d="M1441.46,243.33c.93,1,1.18.09,1.63-.77a1.37,1.37,0,0,1-.16-.2c-1-.79-1.49-3.57-.24-3.28.79-1,1.72,1.56,1.93-.45l-2-1.57C1441.1,238,1441.68,242.07,1441.46,243.33Z"/><path class="cls-3" d="M1443.45,242a1.29,1.29,0,0,1,.5-.4C1443.53,241.32,1443.46,241.64,1443.45,242Z"/><polygon class="cls-3" points="1445.77 241.44 1446.1 240.69 1445.53 239.66 1445.77 241.44"/><path class="cls-3" d="M1438,245c-1.15-3.55,2.73-.66,1.92-3.46-1.36.72-3.52-1.36-4-3.39l-1.13,1.72C1434.76,241.36,1436.47,243.67,1438,245Z"/><path class="cls-3" d="M1431.34,237.47a1.52,1.52,0,0,1-.12.75A1,1,0,0,0,1431.34,237.47Z"/><path class="cls-3" d="M1425.81,246.62l2.26-5c.11,1.26.68,2.29,0,3,1.81-.19,1.12-2.48,2.6-2.68,1.71,3.05-2.27,1.19-.33,3.75.91-.47,2.26-1.18,1.91-4.22l2.39,1.58-1.94-3.33c-1-.77-.1,3.27-1.47,1a2,2,0,0,1,0-2.51c-.68,1.11-3.76-1.69-5.54-.42S1426.49,244.39,1425.81,246.62Z"/><polygon class="cls-3" points="1424.1 242.81 1423.3 241.53 1424.22 243.31 1424.1 242.81"/><path class="cls-3" d="M1422,249l1-3a6.94,6.94,0,0,1,1.14,1.5c-.41-.77-.45-2.36-.81-3-2.16-2.83-1.92,2-2.71,2.94-3.29-.34-.58-1.77-2.85-4.35.79-.23,1.13.54,2.27.31-3.12-2.93-3.86,1.23-4.56,2.54.44.2.92,1.16,1.39.64l-.68,1.5C1418.34,250.17,1419.59,250.46,1422,249Z"/><path class="cls-3" d="M1425.36,247.62c-.61.53-1,.39-1.21,0C1424.68,248.38,1425.17,248.91,1425.36,247.62Z"/><path class="cls-3" d="M1414.92,246.31c.2.14.37,0,.54-.34C1415.27,245.89,1415.09,245.93,1414.92,246.31Z"/><path class="cls-3" d="M1417.54,249.65l-1.47.22,1.14,1.28A1.46,1.46,0,0,0,1417.54,249.65Z"/><path class="cls-3" d="M1364.43,265.47c.66,1.26,1.4,1.7,2.33,1,.58,1.78-.89,2-1.11,3.23,1.81.57.79,2,1.82,3.58,1.59-.45,1.35-3,3.17-3.18a4.48,4.48,0,0,0,.91,1.79c1.52-1.88,4.19-4.84,6.7-4.13,2.1-.1,3.14-1.46,4.85-3.06,7-1.81,13.25-6.4,21.08-7.68l-.35-3.78c1,1.53,1.7-.69,2.38,1.57-.56-.26-.79.24-1.24.47,2.73,2.34,4-1.89,6.23-1.57-.45-.51-1.94-3.33-1.6-4.07,1.38,3.81,2.15-.95,4.43,3.14,2.27.32-1.25-3.3.9-3.48-.69-2.29-2.27-.33-3.29-1.86-.12-2,2,.05,1-2.24-3.52.15-7.35,7.07-11.54,10.22l-.35-2.28c-1.8,2.47-5.66,4.11-9,1.5,1.25,1.8-4,.38-1.8,4.73-1-.78-1.14-.54-2.16-.58l.34,1.53c-1.25.46-1.94-1.82-3.29-1.11,1.7,1.57.91,2.55,1.15,4.31-2.49-1.49-5.14-2.62-7.3-3.79a6.58,6.58,0,0,0,1.62,1.86c-1.26-.29-.34,1.5-.33,2.26-.91.47-1.82-2.06-2.29-3.34-2-.06-.89,5-2.83,3.94l1.27,1.8c-1.59,1.21-4-.36-5.67,1.09-2-2.33.66-3,1-4.5-.63-.41-1.54-.22-2.17-1a52.9,52.9,0,0,1-1.44,5.94C1367.62,264.22,1365.2,265.41,1364.43,265.47Z"/><path class="cls-3" d="M1369.35,261.85a10.32,10.32,0,0,0,.13-1.3c-.13.25-.23.5-.57.48A2.17,2.17,0,0,0,1369.35,261.85Z"/><path class="cls-3" d="M1364.43,265.47c0-.1-.11-.17-.16-.29C1364.15,265.44,1364.24,265.49,1364.43,265.47Z"/><path class="cls-3" d="M1378.57,267.86a1.65,1.65,0,0,0-.32-.07c-.13,0-.22.06-.36,0Z"/><path class="cls-3" d="M1376.39,258.24a16.6,16.6,0,0,0,2.36,1.52A2.49,2.49,0,0,0,1376.39,258.24Z"/><path class="cls-3" d="M1389.31,255.6c.23-.5-.23-1-.23-1.75C1388.29,254.07,1388.29,254.82,1389.31,255.6Z"/><polygon class="cls-3" points="1366.98 262.22 1365.74 263.45 1365.4 264.2 1366.98 262.22"/><path class="cls-3" d="M1340.85,284.85c2.28,1.83,3.63-.4,5.45-.6,2.48-2.44-1.73-5.34,1-6.76l1.49,5.08c2.71-1.43,7.14-2.05,7.81-7.31.46.51,1.25,1,.8,2,1.81-1-1.84-7.36,1.34-6.75-1.13,4,1.94,2.56,2.51,5.84l-.22.51c1.47-1,2.93-3.44,4.07-3.65-.46-1.27-2.16-2.83-.81-3.55-.67,0-1-1.53-1.48-2.82-.9,2-2,1.46-2.26,3.46-1.48-1.3.34-.74-1.14-2l-.56,2c-1,0,.22-2-1.26-1.81a2.37,2.37,0,0,1-1.58,2.72l.08-.69c-.55,1-2,.62-.52,3.19l-2-2.32.92,1.79c-2.5.17-5.13-3.92-7-.47.91.28.69,1.53.47,2,1.71.79.9-2,1.92-2.7.92,1.77-.1,4.76,1.72,5.32-2.39-1.59-2.72,1.42-5.23-2.92-1.92.44-1.69,3-4,2.64l-.22-.7c.89,3.18-2-.78-2.15,2.9l1.25.29c.46,1.27,0,1.5-.56,2a1.59,1.59,0,0,0-.58-1c.7,2.28-1.23,3.48-1.22,4.24,1,0,1.35-2.23,2.14-3.21C1341,283.09,1341.87,284.89,1340.85,284.85Z"/><path class="cls-3" d="M1356.23,269.22l-.15,1.3A1.92,1.92,0,0,0,1356.23,269.22Z"/><path class="cls-3" d="M1331.08,284.3c-1.35,0-.45-2-1.93-2.57-.55,2,2.62,2.6,2.4,5.35-1.25-1-1.47,1.72-1.92,2a11.57,11.57,0,0,0-2-4.83c-.11,1-1.7,0-2.49.17,2.61,1.08-1.13,1.73,1.37,3.06.58,1.77-.67,3.76-1.92,2.71-.45-1.27.23-1.25.68-1.49-.58-2.52-1.7-.8-2.85-2.85-.44,4-6.22,6.1-2.46,10.74,1,.78,1-.73,1.59-1.21-2.28-.31-1.15-2.8-1.37-3.82,1.13.54,1.8-1.7,2.26.33l-.45,2.49c4.42-.62,9.76-3.21,14.06-5.86l-2,.7c-.35-1.53.56-2,1-3l-2.39-3.1c.68,0,1-.72,1.47.55a4.3,4.3,0,0,0-1.48-3.56c1.23-1.22,2,.05,2.26-2.7-3.64-1.87-1.13,3.23-5,1.86Z"/><polygon class="cls-3" points="1335.73 280.18 1335.85 282.19 1336.42 280.95 1335.73 280.18"/><path class="cls-3" d="M1337.91,288.27c-.34-.75-.12-1.25-.46-2C1336.09,286.22,1336.66,287.24,1337.91,288.27Z"/><path class="cls-3" d="M1320.88,286.27l-1.24,1.22,1.25.28A1.66,1.66,0,0,1,1320.88,286.27Z"/><path class="cls-3" d="M1314.12,299.64c1.93-1.19,2.14-3.2,5.21-2.35.22-2.77-2.28-4.09-2.63-6.37-1.36,0,.35,3.79-.55,5-1.24-1.78-1.58,1.16-2.92,1.16A5.55,5.55,0,0,1,1314.12,299.64Z"/><path class="cls-3" d="M1303.93,295c-1,.36-1.29,2.29-2.42,1.64-.4-1.28,0-2,.69-1.87-1.51-2.66-.87.86-2.65-.6.21.27.77.6.73,1.32-2.81.38-.49,2.89-4.45,2.63-.16.95-.64,1.14.2,3-2.84-1.61-1.88-2-5-3.13.52,1.06,2.28,3.27,3.21,5.61-4.52-2-3.07,1.78-6.1.14.18-.22.21-.92.89-.83-1.59-3.17-1.47,1.28-2.86,1.1l-1-2.84c-.87.87-1.93,3.43-4.07,1.92l-.27-1.52c-1.8,3.21-5.32,3.49-7.16,5.46l-1.93-1.24c-2.27,3.39,3.51-.27,2.9,4.81-2.42-5-.93,2.34-3.55,1-1.66-1.69,1.38-1.79-.5-3.76.67,2.8-.65,1.14-1.29,2.29-.8-2.57-2.12.46-2.66-2.57l-1.48,6a1.5,1.5,0,0,0-2.55.08c1.81-.71,1,3.9,3.49,4.22,2.46-2.38,7-5.22,11.25-5.4-1-3.57,2.38-.91,1.84-3.94.53,1.05,1.18,1.88,1.71,2.93,2.08-1.7-1.31-1.64-1.24-3.12.86-.87,2.53.84,2.93,2.11,1.78-.5-.19-1-.07-3.21l2.63,3.31c4.84-3.3,10.84-8.67,17.73-9l-1.41-2.16c3.27.2,2.47-7.06,6.93-3v-2.36c0,1.33,1.9,3.34,1.83,5.22.43-1.09,1.58-.53,2-1.56l-1.81-.57c.14-2.38,1.7-1.57,2.72,0,1.08-3.2-2.86-3.57-4.11-5.36-1.11,5.51-4.61-3.07-6.63-.14C1301.31,293.63,1303.53,293.67,1303.93,295Z"/><path class="cls-3" d="M1310.09,300a2.48,2.48,0,0,0,.16-.8A2.62,2.62,0,0,0,1310.09,300Z"/><path class="cls-3" d="M1262.62,313.55a2.36,2.36,0,0,0-.75.46C1261.84,314.71,1262.11,314.12,1262.62,313.55Z"/><path class="cls-3" d="M1313.23,297.09l0,0s0,0,0,0Z"/><polygon class="cls-3" points="1312.27 290.78 1311.48 291.02 1312.05 292.04 1312.27 290.78"/><path class="cls-3" d="M1253.37,313.88l.48,1.22A3.2,3.2,0,0,0,1253.37,313.88Z"/><path class="cls-3" d="M1231.21,322l.51-.14A.35.35,0,0,0,1231.21,322Z"/><path class="cls-3" d="M1179.84,345.76c-1.12,1.33-2.72,2.84-3,5.27l-.4-1.28c-.52.91-2.19,3.89.3,5.45l0-1.23c1.06-2.57,2.14,1.51,3.87,1.73,1.47-1.27.56-6.32,2.52-5.82.6-.41,1,.88,1.19,1.89,1.65-.27.8-4.08,1.65-4.95,4.2,9.16,3.61-4.45,8.26.59,1.12-1.32,3.34-1.28,4.4-3.85,0,2.72,1.78-.49,2.45,2.3-1.69-5.64,6.18.33,3.72-6.65,3.23.93-.08-.5,3.4,0,.3.76-.17,1-.3,1.17,1.69,1,.53-3.62,2.72-.87,2.48-.4-.36-2,.24-4.39,2.68-.14,2.39,1,4.84,3.35-1.11-3.35.93-2.35,1.4-4.5-.35,0-2.22,0-1.67-1.69,2.95-.59,1.32-3,3.53-4.95,2.75,3.07-2.51,1.13.89,3.07-.94,2.33-2.24,2.66-2,5.64a12.78,12.78,0,0,0,6.43-4.81c1.52-.05,0,2,1.19,1.88,3,.63,2.13-5.14,4.66-4.31l.36,2c.14-2.93,4.37-1.14,6-3.39-.66-.82-1.1-1.38-1.06-2.11,1.86,4.69,2-3.66,5.54-1.24a5.07,5.07,0,0,1,1.25-6.24,6.23,6.23,0,0,1,1.5,2.67c-2.87-.86-.78,4.08-2,6.14.81-2.1,3.82-1.47,4.19-4.12l.45,2.52c2.12-.45-.39-6,2.58-4.57l.48,1.77c4.07-1.92,10.2-.86,12-6-.29-1.53-3.3-4.14-3.83-5.19-1.5,2-1.65,4.95-2.68,6.79l-1.06-2.68c.4,2-1,3.79.6,4.82-.68,1.88-1.89-2-2.69.14-1-2.84-.29-3.48-1.22-5.82l-.68,1.88c0-1.24-1.13-.64-1.19-1.88-.93,4.31-3.72,0-5.49,2.47l1.52,0c.62,1.55-.2,1.7-.59,2.38-1.53-1.92-1.8-1.46-3.4-1.93-.55,1.65,0,4.68-1.44,5.23-.89-3.07-3-.64-4.28-3,.89,3.06-2.32,2.15-1.83,3.94-.52.91-1.69,1-2.31-.56a3.71,3.71,0,0,1,.36-.73l-.8.19c-.06-.37-.19-.61-.13-.7-.7.2.16,2.35-1.3,1.25-.31-.79.17-1,.43-1.43-2,.23-1.34,5.74-3.92,3.67.26,1.51-1.77,2.47-.06,5.41-1-.87-1.79-3.44-3.13-2.38.19,3-2.09-.29-2.56,1.87.42-3.38-.3-.77,0-3.95-1.48-.68-1.57,3.49-3.57,3.72-.44-.54-.75-1.33-1.19-1.88-.29,1.2-.19,3.67-1.72,1.74l.84,1.83c-1.61-.45-3.08.83-5.22-.69l-.1,4.18c-3.57-2.93-5,1.55-5.29,5.45-.83.14-2.21,0-2.53-.83.06-.34.14-1,.29-1.62-1.16.31-3.33-1.17-2.76,2.05-.77,1.36-1.66-1.7-2.7-1.84-.62,5.1-8-.32-6.16,6.32.94-.36,3.25.19,4.93-.82-.16,1,.72,2.06.11,2.47-1.68,1-3.56-1-4.94.83l-1.42-4.13C1183.53,339.84,1184.6,350.57,1179.84,345.76Z"/><path class="cls-3" d="M1203,336.5l-2.14-1.51.84,1.69C1201.94,336.23,1202.35,336.06,1203,336.5Z"/><path class="cls-3" d="M1201.65,336.68a3.81,3.81,0,0,0-.43,1.13.84.84,0,0,0,.65-.71Z"/><path class="cls-3" d="M1174.91,348.56a1.27,1.27,0,0,0-1.43.54C1174,349.43,1174.87,349.29,1174.91,348.56Z"/><polygon class="cls-3" points="1173.88 350.39 1174.8 350.76 1174.7 350.25 1173.88 350.39"/><path class="cls-3" d="M1137.07,369.4l-1.1,3.3c-.87-1.1-2.64,1.37-2.74-1.1-.06,3.44-3.94,1.69-1.22,5.51,5.57-3.94,15.07-4.91,20.67-11.55l-.46,2.15c2.35-4.86,6.56,1.62,6.85-6.23l1,3.58c2.08.27,1.25-6.24,4.48-3.35l-.74-1.33c.47-.19.91.36,1.39.19l-.44-.55c.67-1.89,1.51-2,3.11-1.57.52,1.06-.38.69-.64,1.14,1,.88,1-1.82,2-2.19,1.14.65.63,1.57.71,2.07,2.24-2.67,5,.41,4.95-5.51-.18-1-1.44-1.43-.58-2.29-2.53-.83-3.24,1.8-4.4,3.87l.48-.2c.64,5.5-1.49-.69-2.81,2.33-.23-2.24.73-2.6.67-3.84-4.06-2.76-2.45,4.34-6.08.18l.13-.23c-.57-.33-.87.87-1.25,1.55.44.56,1.13.65,1.7,1-.39.7.2,3,.38,4-1.53-1.92-.43,1.42-1.9.74-1.19-1.88.11-2.2.06-3.44l-.69,1.88c-1.08.6-2-1.75-3-2.62-.34,1.93,1,.87,1.11,3.35-2.23-2-7.15.79-8.83,3.75.73-.63-.57-2.28.59-2.37-.56-.32-1.46,1.28-.84,2.84-1.16,2.06-3.73,2-5.9,1.19l1.09,1.38c-.27,3.17-4.17-.56-5.93,1.91l.07,0c-.63.64.25,4.71-1.47,4.49C1137.09,371.38,1137.91,371.24,1137.07,369.4Z"/><path class="cls-3" d="M1130.18,376.37l-.1-2.48c-1-.13-1,3.07-.23,4.41.38-.7,1.52,0,1.12-1.33C1130.75,376.7,1130.44,375.92,1130.18,376.37Z"/><path class="cls-3" d="M1114.43,383.15a6.81,6.81,0,0,0,.42,2.07c3.25-1.63,7.05-4.18,9.08-3,1.39.19.28-3.16,1.4-4.5l1.53,1.94c.21-1.7,3.52-.28,1.23-3.53-.21-.28,0,2-.89,1.6l-.4-1.29-1.35,1-.13-1.74c-3-1.37.43,5.24-2.7,4.83l-1.25-3.13c-1.77.51-2.2,1.92-4.46.63,0,0,.62,1.58.66.84a3.39,3.39,0,0,1,1.4,2.16c-1.59,3.47-.36-2-2.67-2.57-1.32,3-4.77,6.5-7,4.49,1.79,1.47,1.07,4.08-.23,4.4-1-.87-.37-2-.55-3-.7-.1-1.48-.69-1.86,0a5,5,0,0,1,1,5.54C1111.36,390.63,1111.36,384,1114.43,383.15Z"/><path class="cls-3" d="M1114.63,386.13a.93.93,0,0,0,.22-.91c-.39.2-.77.39-1.14.54Z"/><path class="cls-4" d="M1556.81,170.09c.4.69,33.61-20.41,34-19.65,1.24,2.14-66.85,61.86-65.53,64.14,2,3.48,123-75.71,125-72.2,1.87,3.23-142.25,105.4-139.77,109.69S1684.85,145.41,1687.47,150c2.78,4.82-175.56,118.66-172.85,123.36,3.46,6,203.12-123.67,205.89-118.87,2.55,4.41-209.08,131-205.53,137.16S1730.62,158.73,1734.24,165c2.82,4.89-213.47,149.07-210.39,154.39,3.31,5.75,200.82-123.63,204.15-117.86,2.43,4.2-197.46,131.67-194.8,136.27,3.14,5.43,180.32-110.46,183.07-105.7,2.3,4-180,116.52-176.78,122.06,2.75,4.75,173.35-105.17,175.55-101.36,2.77,4.8-162.39,111.28-159.61,116.1,2.41,4.17,152.09-93,154.31-89.09s-133.5,104.49-131.63,107.73c2.13,3.67,124.67-75.44,126.17-72.85s-108.86,77.47-107.14,80.44c1.38,2.39,103.94-63.36,105.4-60.85,1.21,2.11-70.62,64.56-69.32,66.81.82,1.42,63.33-38.91,64.35-37.15.63,1.09-22.1,40.37-21.4,41.58.27.47,15.95-9.69,16.15-9.33"/><path class="cls-4" d="M1592.93,149.77c0,.1,7.6-4.54,7.66-4.43.68,1.17,56.55-4.72,57.34-3.36,0,0,1.22-.74,1.24-.71.43.75,38.09,7,38.59,7.84,0,0,1.2-.74,1.22-.7.49.86,33.53,6.53,33.91,7.18,0,0,1.23-.76,1.25-.73.36.63-6.88,32.57-6.41,33.4,0,0,1.06-.65,1.07-.62.31.53-3.73,26.47-3.42,27,0,0,1.84-1.09,1.86-1.07.43.75-8.07,30.27-7.74,30.84,0,0,.51-.33.53-.31.44.77-9.32,28.2-8.93,28.88,0,0,.32-.22.34-.19.32.55-6.57,30.19-6.13,30.95,0,0,5.8-3.38,5.81-3.36.43.75-14,30.39-13.53,31.25,0,0,7.38-4.3,7.39-4.27.28.48-5.45,20.27-5.15,20.79,0,0,.28-.2.29-.17.39.67-11.4,31.51-10.89,32.38,0,0,5.31-3.1,5.32-3.07.31.54-10,24.39-9.62,25.05,0,0,2.31-1.37,2.32-1.34"/><path class="cls-4" d="M1556.49,169.73c.09.16,10.21-6.12,10.31-5.95.92,1.6-45.54,50.33-44.55,52,0,0,1.26-.77,1.28-.74.39.68-12.13,34.79-11.61,35.69,0,0,1-.58,1-.56.32.57-2.69,24.37-2.37,24.93,0,0,.85-.52.86-.5.18.31,2.79,16.32,3,16.74,0,0,.7-.43.71-.41.32.55,7.76,27.65,8.11,28.25,0,0,.67-.42.68-.4.22.37,6.07,19.76,6.31,20.17,0,0,.75-.46.76-.44.18.32,7.51,15,7.77,15.5,0,0,1-.59,1-.57.3.52,15.24,14.43,15.55,15,0,0,.79-.48.8-.46.38.67,20.66,19.07,21,19.62,0,0,3.7-2.16,3.71-2.14.2.34,15,9.41,15.18,9.81,0,0,5.53-3.23,5.55-3.2.4.69,29.91,8.53,30.34,9.27,0,0,3.8-2.24,3.81-2.2.54.92,38.54,5.6,39.14,6.63,0,0,0-.05,0,0"/><path class="cls-4" d="M1733.63,138.74s5.42-3.2,5.45-3.14c.39.67-4.4,27.89-4,28.61.65,1.13,36.41-22.54,37.07-21.4.77,1.34-48.51,54.62-47.48,56.4.93,1.62,63-38.61,64-36.93,1.15,2-64.62,58.29-63.5,60.23s59.86-36.57,60.73-35.06-67.32,54.47-66.07,56.64c1.09,1.9,65.18-40.17,66.28-38.27s-73.77,72.68-72.54,74.8c1.08,1.87,65.21-40.15,66.3-38.27,1,1.71-72.59,63.22-71.51,65.09s58.82-36.18,59.78-34.52-69.19,56.84-67.85,59.16c1,1.8,65.78-39.9,66.62-38.45,1.34,2.32-72,62.38-70.63,64.71,1,1.79,64.38-39.36,65.33-37.71,1.42,2.46-75.83,72.83-74.67,74.84s68.4-41.35,69.2-40c1.05,1.81-73.9,58.45-72.68,60.54.9,1.58,70-42.61,70.94-41s-57.52,57.45-56.42,59.37c.65,1.12,50.65-31.1,51.45-29.71.48.82-9,33.21-8.47,34.12.07.12,3.18-1.95,3.23-1.86"/><path class="cls-4" d="M1740.69,135.43s4.16-2.44,4.18-2.41c.42.73,34.17,8.88,34.66,9.74,0,0,1.23-.75,1.25-.72.28.5,10,23.54,10.38,24.13,0,0,1.06-.65,1.07-.62.45.77-6.92,30-6.58,30.56,0,0,1-.65,1.07-.62.37.64-7.67,33-7.19,33.84,0,0,1-.64,1.07-.62.3.53-3.74,26.48-3.43,27,0,0,1.85-1.09,1.86-1.07.44.75-8.07,30.27-7.74,30.84,0,0,.52-.33.53-.31.44.77-9.32,28.2-8.93,28.88,0,0,.32-.22.34-.19.32.55-6.57,30.19-6.13,30.95,0,0,5.8-3.38,5.81-3.36.43.75-14,30.39-13.53,31.25,0,0,7.37-4.3,7.39-4.27.28.48-5.45,20.27-5.15,20.79,0,0,.27-.2.29-.17.39.67-11.4,31.51-10.9,32.38,0,0,5.31-3.09,5.33-3.07.29.51-9.69,22.87-9.34,23.49,0,0,2.31-1.37,2.33-1.34"/><path class="cls-4" d="M1733.25,138.2s5.42-3.2,5.45-3.15c.42.72-7.11,29.39-6.67,30.16,0,0,1-.61,1-.58.35.61-7.46,32.21-7,33,0,0,1-.61,1-.58.37.62-6.23,26.35-5.87,27,0,0,1-.62,1-.59.21.36-3.08,19.59-2.79,20.1,0,0,.91-.57.93-.54.41.71-7.63,36.31-7.19,37.08,0,0,.93-.58.95-.55.31.53-8.79,28.11-8.45,28.69,0,0,1-.63,1-.61.27.47-7.18,23.29-6.81,23.93,0,0,1.26-.76,1.27-.74.38.66-5,25.93-4.57,26.58,0,0,1-.63,1.05-.6.54.92-11.54,37.39-11.1,38.14,0,0,3.85-2.25,3.86-2.23.27.46-7.66,22.29-7.35,22.83,0,0,5.6-3.27,5.61-3.24.3.51,7.31,21.83,7.63,22.38,0,0,3.85-2.27,3.87-2.24.54.93,38.53,5.61,39.13,6.64,0,0,0-.06.06,0"/><path class="cls-4" d="M1783.69,189.2c0,.05,5.42-3.2,5.45-3.14.39.67-4.4,27.89-4,28.61.65,1.13,36.38-22.52,37-21.39.41.71-13.7,35.65-13.15,36.59.69,1.2,46.11-28.29,46.83-27,.41.72-11,29-10.56,29.66s19.8-12.21,20.13-11.63"/><path class="cls-4" d="M1790.76,185.89s4.15-2.43,4.17-2.41c.42.74,34.17,8.88,34.66,9.74,0,0,1.17-.72,1.19-.69.38.65,31.88,10.7,32.32,11.47,0,0,.76-.47.77-.45.35.61-.88,23.92-.62,24.37,0,0,1.78-1.09,1.81-1"/><path class="cls-4" d="M1783.31,188.65s5.42-3.19,5.45-3.14c.42.72-7.11,29.39-6.67,30.16,0,0,1-.64,1.06-.61.31.54,25.57,13.28,26,14,0,0,1.2-.74,1.22-.71.4.7,29.36,5.72,29.75,6.39,0,0,1.17-.71,1.18-.68"/><path class="cls-4" d="M1750.75,367.82c0,.05,5.42-3.2,5.45-3.14.39.67-4.4,27.89-4,28.61.65,1.13,36.38-22.52,37-21.39.41.71-13.68,35.64-13.14,36.58.69,1.2,46.1-28.28,46.82-27,.41.71-11,28.95-10.54,29.65s19.78-12.2,20.11-11.62"/><path class="cls-4" d="M1757.82,364.51s4.15-2.44,4.17-2.41c.42.73,34.16,8.88,34.66,9.74,0,0,1.17-.72,1.19-.69.37.65,31.88,10.7,32.32,11.46,0,0,.75-.46.77-.44.35.6-.89,23.92-.63,24.37,0,0,1.79-1.09,1.82-1"/><path class="cls-4" d="M1750.37,367.27c0,.05,5.42-3.2,5.45-3.14.42.72-7.11,29.39-6.67,30.16,0,0,1-.64,1.06-.61.31.53,25.58,13.27,26,14,0,0,1.2-.73,1.22-.7.4.69,29.37,5.71,29.75,6.38,0,0,1.17-.71,1.18-.68"/><path class="cls-4" d="M1430.58,216.43s5.42-3.2,5.45-3.14c.39.67-4.4,27.89-4,28.61.65,1.13,36.4-22.53,37.06-21.4.41.71-13.71,35.66-13.17,36.59.73,1.27,48.76-29.9,49.52-28.59.45.77-13.68,30.46-13.24,31.22s19.82-12.23,20.15-11.64"/><path class="cls-4" d="M1437.65,213.12s4.15-2.44,4.17-2.41c.42.73,34.16,8.89,34.65,9.74,0,0,1.22-.74,1.24-.71.43.74,37.83,7.12,38.33,8,0,0,1.23-.76,1.25-.72.44.75-5.44,29.15-5.12,29.71,0,0,1-.64,1.07-.61"/><path class="cls-4" d="M1430.2,215.89s5.42-3.2,5.45-3.15c.42.72-7.11,29.39-6.67,30.16,0,0,1-.64,1.06-.61.31.54,25.57,13.27,26,14,0,0,1.23-.75,1.25-.72.39.69,29.33,5.73,29.72,6.4,0,0,1.21-.73,1.22-.7"/></g></g></svg>