<svg xmlns="http://www.w3.org/2000/svg" viewBox="0 0 949.7 809.92"><defs><style>.cls-1{fill:#fcb656;}.cls-2{fill:none;stroke:#fcb656;stroke-linecap:round;stroke-linejoin:round;stroke-width:6px;}</style></defs><title>rl-process-configuration_1</title><g id="Layer_2" data-name="Layer 2"><g id="Layer_2-2" data-name="Layer 2"><path class="cls-1" d="M892,564.34c-14,11.74-33.33,5.84-32.61-17.86l1.72-57a31.46,31.46,0,0,0-30.36-32.24l-39.95-1.21a66.77,66.77,0,0,1,6.1,29.54c-1.06,35.09-29.21,60.86-66.93,61.24l-1.22,0-1.21,0c-37.64-2.65-64.18-30.07-63.12-65.16a65.52,65.52,0,0,1,7.87-29.11l-41.63-1.26h-.76A30.72,30.72,0,0,0,598.3,481l-1.73,57.58c-.72,23.7-20.63,28.27-33.94,15.86-22-20.59-56.85-11-59.46,25.27.42,36.36,34.59,48,57.68,28.81,14-11.74,33.78-5.82,33.07,17.88l-1.71,56.37A30.72,30.72,0,0,0,622,714.34l57.12,1.73c23.71.71,28.27,20.77,15.86,34.08-20.59,22-11,57.15,25.26,59.77,36.36-.42,48-34.9,28.82-58.13-11.74-14-5.82-33.94,17.89-33.22l56.82,1.71a30.73,30.73,0,0,0,31.62-29.76l1.7-56.37c.71-23.7,20.16-28.29,33.48-15.87,21.73,20.58,56.54,11,59.15-25.13C949.28,556.79,915.26,545.12,892,564.34Z"/><path class="cls-2" d="M578.94,321.9c1.15,2,62.17-37.79,63-36.37"/><path class="cls-2" d="M636.21,185.49c.73,1.26,63.85-38.69,64.64-37.32s-43.42,40.35-42.8,41.42,44.32-27,44.93-25.94"/><path class="cls-2" d="M382.83,315.67s2.1-1.28,2.13-1.23c.39.68,6.75,24.86,7,25.37,3.75,6.5,225.73-137.1,228.66-132,3.22,5.58-229.12,144.32-225.42,150.73,2.84,4.93,233-142.93,236.6-136.61,4,6.94-225.17,144.72-221.69,150.75C413.31,378.14,629,237.6,632.79,244.12c3.13,5.43-175,115.18-172.34,119.84,2.43,4.21,176.92-108.4,179.63-103.71,1.77,3.07-130.42,94.85-128.59,98,1.57,2.72,134.29-81.76,136.13-78.59,2,3.41-128.89,96.55-127.2,99.49.66,1.13,42.57-26.32,43.32-25,1,1.7-51.76,50.44-50.83,52S580,365.8,580.71,367c.88,1.52-54.94,53.17-53.92,54.93.92,1.6,62.69-38.07,63.5-36.67S545,425.37,545.63,426.46s38.8-24.07,39.52-22.82"/><path class="cls-2" d="M636.83,127.9c.24.42,22-13.32,22.28-12.86"/><path class="cls-2" d="M337,132.62c.26.44,13.44-8.41,13.72-7.92.59,1-24.67,35.56-24.14,36.49,1.95,3.38,140.84-85.2,142.52-82.28,1.81,3.12-137.35,93.43-135.54,96.56,2.85,4.95,198-120,200.44-115.72,3,5.1-199,124.72-196.13,129.61,3.51,6.09,225.25-138.24,228.8-132.1,2.91,5-166.08,119.68-163.28,124.53,2.2,3.82,172.41-106.49,175.42-101.27C580.79,84,418.72,191,421,195c1.89,3.27,162.08-98,164-94.67,1.8,3.12-145.53,99.92-143.36,103.68,1.82,3.15,147.09-90.5,149.5-86.31,1.91,3.3-151.67,98-149.61,101.6,2.45,4.24,156.59-95.9,159-91.78,2.55,4.42-151.43,98.55-148.95,102.85s152.26-92.16,154.1-89c2,3.47-150.84,97.35-148.44,101.51,3.19,5.53,218-132.5,220.89-127.53,3.72,6.43-230.12,139.35-226.23,146.08,3.22,5.59,235.39-144.39,239.07-138,2.95,5.11-246.48,150.73-243.13,156.54,4,7,246.82-151.91,250.89-144.86"/><path class="cls-2" d="M393.68,17.17C394,17.68,417.87,2.45,418.19,3c.47.8-29.48,34.76-28.89,35.8.88,1.52,54.44-33.32,55.26-31.9s-55.94,47.43-55.06,49,61.21-37.73,62.24-35.94c.74,1.28-40.14,50.42-39.22,52,.65,1.13,50.36-30.46,51-29.43.81,1.4-41.18,40.95-40.36,42.37.45.78,29.84-18.28,30.29-17.49"/><path class="cls-2" d="M402.31,694.17c.95,1.65,67-40.87,68-39.24"/><path class="cls-2" d="M178.07,657.42c2.39,4.13,161.16-98.56,163.55-94.43,2.62,4.54-149.59,104.69-147.19,108.85,2.07,3.58,154.73-93.67,156.61-90.42,2.65,4.58-146.61,97.83-144.24,101.94,2.14,3.7,149.39-91.59,151.7-87.59,2.11,3.66-145.88,105.61-143.72,109.34s158.51-96.25,160.56-92.7c2.58,4.48-160.4,102.06-157.77,106.61S391.34,612,394.25,617c2.35,4.06-174.1,118.45-171.42,123.09C225.68,745,456.17,599,458.92,603.79c3.43,5.94-202.5,135.49-198.93,141.67,2.36,4.09,199.13-121.28,201.87-116.55,2.27,3.94-138.38,91.79-136.14,95.67,2.43,4.21,143.4-87.24,145.33-83.9,2.24,3.89-136.56,90.73-134.74,93.9.49.84,38.9-24,39.58-22.85S335.31,753,336,754.16c.54.93,42.82-25.88,43.32-25,1,1.69-46.25,50.46-45.4,51.93,1,1.68,69.32-41.75,70.07-40.45,1.12,1.92-51.9,55.25-50.94,56.91.72,1.25,58.48-35.92,59.41-34.3.59,1-30.66,34.16-30.13,35.07.3.52,16.43-10,16.66-9.62"/><path class="cls-2" d="M389.27,490.16c.38.65,23.28-14.3,23.65-13.65"/><path class="cls-2" d="M103.49,626.62c.27.48,16.56-10.21,16.84-9.73.47.81-22.22,28.61-21.69,29.52.86,1.5,51.23-30.94,51.82-29.92,1,1.78-56.21,47-55.42,48.39,4,7,250.9-155.08,255.32-147.42,4.23,7.32-250.3,157-247.06,162.62C106.83,686.2,338,535.18,342,542.24,345.27,547.83,132.8,680,136.48,686.38c.36.64,20.06-12.4,20.41-11.79"/><path class="cls-2" d="M161.24,504.57c.3.52,17.38-10.74,17.69-10.21.8,1.38-29.69,45.58-29.13,46.54,2,3.5,152.68-93.26,154.89-89.42,2.35,4.07-147.09,95.4-145,99,3.53,6.11,209.64-128.68,213-123S155.58,562,158.89,567.69c2.91,5,224.68-137,227.82-131.54C390.09,442,164.24,588.74,167,593.45c3,5.25,234.65-143,237.88-137.34,4.2,7.27-239.79,145.23-236,151.7,2.84,4.92,235.47-143.87,238.9-137.93"/><path class="cls-2" d="M217.19,388.9c.23.41,19.57-11.86,19.81-11.44.56,1-26.94,40.62-26.41,41.54.9,1.55,57.37-35.5,58.4-33.72.91,1.57-44.21,53.72-43.31,55.28.66,1.15,56.54-34.43,57.31-33.08s-45.93,53.8-44.86,55.66c.63,1.08,36.86-22.72,37.48-21.64"/><path class="cls-1" d="M66.55,394.29c8.76-16.07,28.87-17.65,36.89,4.67l19.29,53.63a31.46,31.46,0,0,0,40.06,18.87l37.62-13.53a66.64,66.64,0,0,1-16.51-25.24c-11.88-33,4.86-67.33,39.82-81.51l1.15-.41,1.14-.42c36-11.32,70.73,4.45,82.62,37.49a65.63,65.63,0,0,1,3.34,30l39.2-14.09.14-.05.57-.21a30.71,30.71,0,0,0,18.5-39.28L350.89,310c-8-22.31,8.82-33.87,25.76-27.19,28.05,11.07,56.91-10.62,46.05-45.32-13.72-33.67-49.79-32-64.22-5.66-8.76,16.08-29.3,17.81-37.32-4.51l-19.09-53.06a30.71,30.71,0,0,0-39.28-18.5L209,175.07c-22.31,8-33.91-9-27.24-25.9,11.07-28-10.72-57.21-45.42-46.34-33.67,13.72-31.91,50.07-5.5,64.65,16.07,8.76,17.85,29.44-4.46,37.46l-53.5,19.24a30.72,30.72,0,0,0-18.5,39.28l19.08,53.07c8,22.31-8.39,33.71-25.32,27C20.38,332.39-8.49,354.08,2.33,388.64,16.05,422.31,52,420.69,66.55,394.29Z"/></g></g></svg>