<svg xmlns="http://www.w3.org/2000/svg" viewBox="0 0 1417.4 1134.81"><defs><style>.cls-1{fill:#6cbbb6;}.cls-2{fill:#cccccb;}.cls-3{fill:#999;}.cls-4{fill:none;stroke:#6bbbb6;stroke-linecap:round;stroke-linejoin:round;stroke-width:5px;}</style></defs><title>Asset 3</title><g id="Layer_2" data-name="Layer 2"><g id="Layer_2-2" data-name="Layer 2"><path class="cls-1" d="M672.57,674.18a62.7,62.7,0,0,0-56.73,57.06l-60.6,5.51a186.05,186.05,0,0,0-57-108.49l39-46.78a62.61,62.61,0,1,0-17-94.43h0a62.7,62.7,0,0,0,.22,80.43l-39,46.79a186.07,186.07,0,0,0-116.95-36.53L359,517.17a62.64,62.64,0,1,0-21.77,2l5.5,60.58a187.3,187.3,0,0,0-108.55,57l-46.77-39a62.62,62.62,0,1,0-94.46,17h0a62.72,62.72,0,0,0,80.45-.24l46.77,39a185.71,185.71,0,0,0-20.07,34.12,10.93,10.93,0,0,0,19.92,9,164.66,164.66,0,0,1,23.17-37.12c.19-.19.37-.38.55-.59s.2-.27.3-.41A164.83,164.83,0,0,1,475.94,637.7l.1.09.1.08a165,165,0,0,1,56.48,157.19,10.93,10.93,0,1,0,21.49,4,186.27,186.27,0,0,0,3.08-40.59l60.63-5.5a62.63,62.63,0,1,0,54.75-78.83ZM537,501a40.77,40.77,0,1,1,5.22,57.41h0A40.8,40.8,0,0,1,537,501ZM164.36,592.75l0,0,0,0a40.76,40.76,0,1,1-5.18-57.43A40.83,40.83,0,0,1,164.32,592.79Zm181.82-95.38a40.76,40.76,0,1,1,36.92-44.28A40.81,40.81,0,0,1,346.18,497.37ZM681.92,777.13a40.76,40.76,0,1,1,36.92-44.28A40.82,40.82,0,0,1,681.92,777.13Z"/><path class="cls-1" d="M648,914.2a62.73,62.73,0,0,0-80.48.26l-46.72-38.93a188.25,188.25,0,0,0,23-41.24,10.93,10.93,0,1,0-20.27-8.19,165.74,165.74,0,0,1-24.34,41.61,132.45,132.45,0,0,0-45.44-45.57,137.13,137.13,0,0,0-37.46-15.59,67.89,67.89,0,0,0,21.22-55.69L433.06,702a68,68,0,0,0-135.51,12.24l4.5,48.95a67.87,67.87,0,0,0,30.9,51,137.29,137.29,0,0,0-34,22.09,132.29,132.29,0,0,0-36.44,52.87,164.36,164.36,0,0,1-56.31-109.26c0-.13,0-.26,0-.39l-.06-.38a164.92,164.92,0,0,1,3-49.5,10.93,10.93,0,1,0-21.37-4.61,186.1,186.1,0,0,0-4.06,45.56L123.06,776a62.61,62.61,0,1,0,2,21.76l60.65-5.51a186,186,0,0,0,57,108.37l-39.06,46.85a62.75,62.75,0,0,0-79.18,14.27h0a62.63,62.63,0,1,0,96-.28l39.06-46.84,1.66,1.22a9.55,9.55,0,0,0,.91.75A187,187,0,0,0,366.27,951.2h.41c1.14,0,2.28,0,3.43,0h1.19l2.92,0,1.81-.05h.4l5.5,60.65a62.63,62.63,0,1,0,21.78-2l-5.51-60.66c.54-.08,1.09-.15,1.63-.24.76-.12,1.51-.26,2.27-.39l2.79-.49a186.06,186.06,0,0,0,101.88-55.71l46.7,38.92a62.62,62.62,0,1,0,94.48-17ZM66.32,833a40.76,40.76,0,1,1,36.92-44.28A40.82,40.82,0,0,1,66.32,833Zm137.54,194.9a40.76,40.76,0,0,1-62.63-52.19h0a40.81,40.81,0,0,1,57.4-5.23h0A40.79,40.79,0,0,1,203.86,1027.93ZM319.38,712.29a46.13,46.13,0,1,1,91.88-8.41l1.07,11.78c-17.78-4.24-26.68-21.63-27.09-22.47a10.94,10.94,0,0,0-19.89.49c-.11.26-10.75,24.22-44.8,31.48l-1.17-12.87Zm28.73,215.16.62.47a165.22,165.22,0,0,1-30.14-6.9l-1.44-.48c-1.61-.55-3.22-1.13-4.81-1.73l-2.56-1c-.74-.29-1.48-.6-2.21-.9-1.93-.8-3.85-1.62-5.74-2.49l-.27-.13a164.9,164.9,0,0,1-20.69-11.4c8.9-30.18,32.11-55.61,61.2-68.91L353,851.11l-9.05,66.17A10.93,10.93,0,0,0,348.11,927.45ZM439,1068.51a40.77,40.77,0,1,1-44.29-36.91A40.82,40.82,0,0,1,439,1068.51ZM385.33,928.3l-18.9-14.38,7.55-55.2,10-.9,17.37,52.94Zm-22-101.58c1.32-.3,2.65-.58,4-.83l.92-.17c.95-.17,1.9-.32,2.86-.47l1.05-.16,2.15-.27c.53,0,1.06-.06,1.6-.11s1.06-.12,1.6-.18c.71,0,1.43-.09,2.15-.12l1.07,0c1,0,1.93,0,2.89,0h.94c1.35,0,2.71,0,4.06.1L384,835.87l-14,1.27Zm12.42-24c-.56,0-1.13.06-1.69.11h0l-.3,0h0c-.57.06-1.13.14-1.69.21a46.2,46.2,0,0,1-48.28-41.89L322.54,747h0c27.25-5.1,43.86-18.82,53.1-29.75,7.94,9,20.71,19.06,38.75,20.86l1.33,14.7A46.17,46.17,0,0,1,375.78,802.73Zm45.47,118.61.53-.57a10.93,10.93,0,0,0,2.3-10.77l-20.82-63.46,7.62-18.81c31,7.85,58.46,28.71,72.64,56.83A164.92,164.92,0,0,1,421.25,921.34Zm217.9,67.06A40.74,40.74,0,1,1,633.94,931,40.82,40.82,0,0,1,639.15,988.4Z"/><path class="cls-1" d="M1343.38,1076.17a2.5,2.5,0,0,0-2.59-.61c13.21-36.36,19.8-78.49,11.79-115.47a6,6,0,0,0-1.65-6.76c-7.71-28.43-24.66-53.31-54.78-69.34-68.59-36.51-187.94,11-201.07,90.57-14.48-4.44-40.14-3-52.62,6.29-17.38,13-6.22,36.71,2.1,51.61,12,21.48,28.39,48.41,50.41,60.79,26.91,15.13,53.74,6.12,79.53-7.38a5.23,5.23,0,0,0,2.41-2.62c44.1,19.65,88,35.38,136.86,29.73C1331.46,1110.94,1366.64,1096.84,1343.38,1076.17Zm-3-116.44c7.73,37.38-.82,81.63-11.75,115-22.94,22.78-76.89,7.21-104.82,1.29-33.52-7.11-60.34-20.17-82.67-39.57v0C1181.14,963.54,1262,922,1340.34,959.73ZM1336.65,946c-74.62-31.61-172,9.49-199.76,86.73-4.09-3.8-8-7.89-11.79-12.14,34.46-75.38,126.07-107.61,203.78-86a5.24,5.24,0,0,0,2.95-.08A97,97,0,0,1,1336.65,946Zm-45.2-50.5a80.89,80.89,0,0,1,33.78,27.67c-75.16-18.58-179.8,13.52-203.79,93.07a228.8,228.8,0,0,1-22.71-32.32,2.81,2.81,0,0,0,2-2C1124.52,907.35,1218.64,862.58,1291.45,895.51Zm-10.86,208.06c-35.15-1.46-68.43-16.83-101.71-26.73a3.46,3.46,0,0,0-2.81.32,4.46,4.46,0,0,0-5.69-1.07c-19,9.28-38.48,18.81-60.1,13.09-20.38-5.4-34.7-27.94-45.69-44.38-7.06-10.57-36-47.09-12.91-57.34,12.47-5.53,29.29-7.31,42.84-9.34,0,.33-.11.65-.15,1a3.29,3.29,0,0,0-3.78,4.52c22.54,61.28,75.92,91,137,104.32,15,3.26,88.45,19.4,105.71-1.09a5.07,5.07,0,0,0,4.46-3.4c.37-.91.7-1.83,1.06-2.74C1344.69,1105.71,1294.52,1104.14,1280.59,1103.57Z"/><line class="cls-2" x1="955.73" y1="1057.44" x2="438.73" y2="1068.44"/><polygon class="cls-3" points="438.7 1067.5 440.16 1068.19 440.56 1066.14 438.7 1067.5"/><path class="cls-3" d="M445.65,1074.76l2.43-.91c-1.53-5.92.4-4.23-3.52-8.42-1.32,1-4.24,3.09-3.8,5.41,1-.26,2.32-2.57,3.77-1.88-.57,1.74-2.11,1.55-2.79,3.82,2.35,1.78,1.43-1.5,4-.73Z"/><path class="cls-3" d="M448.42,1068.76a12.88,12.88,0,0,0-.36,2.91C448.27,1070.63,449.44,1069.34,448.42,1068.76Z"/><path class="cls-3" d="M449.9,1068.13c1.55.19,0,2.19.18,2.5l1.68-3.88Z"/><path class="cls-3" d="M456.34,1068.24a4.08,4.08,0,0,0,.72-.37C456.8,1067.26,456.6,1067.77,456.34,1068.24Z"/><path class="cls-3" d="M459.5,1067.71c-.67-1.31-1.45-.49-2.44.16a1.58,1.58,0,0,1,.1.24c.91,1.09.14,3.86-1.31,3.15-1.49.66-1.41-2-2.67-.24l1.83,2.18C457.35,1072.8,458.6,1068.82,459.5,1067.71Z"/><path class="cls-3" d="M456.34,1068.24a2.4,2.4,0,0,1-.84.2C455.89,1068.88,456.13,1068.6,456.34,1068.24Z"/><polygon class="cls-3" points="453.1 1067.99 452.31 1068.57 452.53 1069.73 453.1 1067.99"/><path class="cls-3" d="M464.76,1067.4c-.28,3.72-3.78-.33-4.13,2.57,2.08-.2,3.8,2.51,3.4,4.56l2.28-1.21C467,1071.9,466,1069.13,464.76,1067.4Z"/><path class="cls-3" d="M469.48,1076.73a1.36,1.36,0,0,1,.52-.65A1,1,0,0,0,469.48,1076.73Z"/><path class="cls-3" d="M481,1070.08l-5.3,3.86c.48-1.22.25-2.38,1.47-2.83-2.39-.45-2.65,1.94-4.62,1.61-.67-3.46,3.47-.33,2.27-3.41a4.53,4.53,0,0,0-4.51,3.29l-2.25-2.3.83,3.79c.91,1.07,1.73-3,2.34-.4.31,1.63-.58,2-1.2,2.37,1.41-.81,4,2.89,6.82,2.32C479.88,1077.93,479,1071.94,481,1070.08Z"/><polygon class="cls-3" points="481.3 1074.25 481.68 1075.73 481.39 1073.73 481.3 1074.25"/><path class="cls-3" d="M487.07,1069.17l-2.76,2.44a5.42,5.42,0,0,1-.71-1.8c.14.86-.59,2.37-.46,3.1,1.36,3.41,3.41-1.17,4.9-1.81,4,1.47-.14,1.86,1.48,5.08-1.12-.07-1.18-.91-2.73-1.09,2.51,3.83,5.5.2,7-.8-.45-.33-.59-1.4-1.45-1.07L494,1072C492.23,1069.36,490.79,1068.65,487.07,1069.17Z"/><path class="cls-3" d="M482.05,1069.3c1-.28,1.44,0,1.53.45C483.29,1068.82,482.93,1068.16,482.05,1069.3Z"/><path class="cls-3" d="M494.67,1074.17c-.18-.21-.47-.12-.85.12C494,1074.43,494.28,1074.46,494.67,1074.17Z"/><path class="cls-3" d="M493,1070.12l2,.31-.8-1.6C493.89,1069,492.92,1069.29,493,1070.12Z"/><path class="cls-3" d="M568.22,1073.8c-.21-1.41-1-2.08-2.46-1.77.14-1.88,2.12-1.56,3-2.65-2-1.17,0-2.18-.55-4-2.24-.14-3.19,2.32-5.59,1.87a3.29,3.29,0,0,0-.28-2c-2.85,1.24-7.7,3.08-10.54,1.54-2.72-.64-4.71.28-7.67,1.18-9.81-.75-20,1.38-30.54-.15l-1.41,3.67c-.55-1.79-2.51,0-2.26-2.31.58.45,1.13,0,1.81,0-2.31-3.14-6,.39-8.69-.7.32.64.83,3.8,0,4.37.13-4-3.19.14-4.08-4.49-2.73-1.09,0,3.54-2.86,2.95-.24,2.39,2.73,1.1,3.27,2.89-.84,2-2.56-.75-2.38,1.75,4.54,1.08,12.81-4.06,19.69-5.56l-.69,2.26c3.5-1.68,9.21-1.88,12.11,1.71-.71-2.12,5.24,1,4.61-3.8.91,1.09,1.18.9,2.46,1.29l.32-1.54c1.8,0,1.56,2.37,3.63,2.17-1.39-2,.1-2.7.67-4.43,2.42,2.26,5.23,4.25,7.39,6.09a5.47,5.47,0,0,0-1.13-2.31c1.45.71,1.16-1.29,1.53-2,1.38-.13,1.29,2.56,1.26,3.92,2.56.77,3.59-4.38,5.53-2.71l-.72-2.12c2.61-.59,4.86,1.72,7.74,1,1.45,2.9-2.32,2.58-3.5,3.87.61.61,1.85.74,2.27,1.71a58.69,58.69,0,0,1,4.74-5.07C563.55,1073.87,567.22,1073.59,568.22,1073.8Z"/><path class="cls-3" d="M560.2,1075.48a9.36,9.36,0,0,0-.81,1.17,1,1,0,0,1,1-.25A1.73,1.73,0,0,0,560.2,1075.48Z"/><path class="cls-3" d="M568.22,1073.8c0,.11.06.2.07.33C568.57,1073.93,568.47,1073.85,568.22,1073.8Z"/><path class="cls-3" d="M551.43,1066.63c.11.08.26.11.38.18a3.55,3.55,0,0,1,.47.08Z"/><path class="cls-3" d="M549.48,1076.42a17.81,17.81,0,0,0-2.26-2.26C547.48,1075.13,547.71,1075.88,549.48,1076.42Z"/><path class="cls-3" d="M531.77,1074.38c-.53.39-.21,1-.57,1.73C532.32,1076.18,532.68,1075.47,531.77,1074.38Z"/><polygon class="cls-3" points="563.38 1075.96 565.57 1075.24 566.37 1074.66 563.38 1075.96"/><path class="cls-3" d="M607.7,1063.85c-2-2.51-4.81-.89-7.21-1.34-4.36,1.43-.44,5.61-4.59,6l.6-5.28c-4.15.39-10.08-.57-13.51,4.13-.33-.64-1.07-1.41,0-2.2-2.77.29-1.28,7.54-5,5.87,3.39-3.34-1.2-3.08-.32-6.36l.53-.39c-2.34.39-5.41,2.2-7,2,0,1.35,1.36,3.41-.71,3.61.85.25.54,1.79.5,3.16,2.12-1.55,3.31-.65,4.57-2.46,1.24,1.73-.8.58.44,2.31l1.69-1.68c1.28.4-1.27,1.81.72,2.14a3.18,3.18,0,0,1,3.34-2l-.44.62c1.17-.72,2.87.12,2.23-2.81l1.46,2.88-.29-2c3.26.72,4.58,5.47,8.72,2.89-1-.58-.12-1.67.41-2.07-1.78-1.34-2.12,1.56-3.77,1.86-.29-2,2.47-4.43.44-5.58,2.25,2.32,4.16-.39,5.2,4.55,2.66.27,3.62-2.2,6.34-1.08l-.06.73c.42-3.29,2.22,1.45,4.15-2l-1.44-.71c0-1.35.73-1.41,1.69-1.67-.1.52-.1.52.23,1.16.24-2.38,3.27-2.84,3.64-3.54-1.29-.39-2.81,1.61-4.3,2.25C606.7,1065.47,606.42,1063.46,607.7,1063.85Z"/><path class="cls-3" d="M580.48,1073.15l.83-1.17A1.91,1.91,0,0,0,580.48,1073.15Z"/><path class="cls-3" d="M619.83,1067.77c1.71.51-.42,2.06,1.19,3.08,1.69-1.69-2-3.35-.41-5.85,1.07,1.41,2.7-1.1,3.4-1.17-.74,1.43-.23,4.58.09,5.21.64-.89,2.14.64,3.26.72-2.79-1.93,2.28-1.24-.24-3.35.14-1.87,2.7-3.3,3.77-1.88,0,1.35-.9,1.09-1.6,1.16-.51,2.57,1.77,1.35,2.22,3.67,2.53-3.61,10.9-3.55,8.41-9.21-.92-1.09-1.66.32-2.62.58,2.74,1.08.08,3-.13,4-1.17-.89-3.13,1-2.71-1.09l1.79-2.18c-5.92-1-14-.39-20.73.6l2.93.05c-.31,1.56-1.69,1.68-2.75,2.45l1.51,3.74c-.85-.26-1.65.32-1.6-1-1,1.62-.51,2.58.14,3.85-2.18.72-2.57-.75-4.2,1.75,3.7,3,3-2.63,7.24,0Z"/><polygon class="cls-3" points="611.9 1070.02 612.74 1068.09 611.41 1069.06 611.9 1070.02"/><path class="cls-3" d="M613.11,1061.67c.07.83-.46,1.21-.4,2C614.42,1064.23,614.19,1063.07,613.11,1061.67Z"/><path class="cls-3" d="M633.76,1069.48l2.17-.71-1.44-.7A1.53,1.53,0,0,1,633.76,1069.48Z"/><path class="cls-3" d="M648.91,1059.3c-3,.44-4.29,2.26-7.77.39-1.63,2.52.88,4.63.21,6.89,1.72.5,1.42-3.68,3.17-4.51.7,2.1,2.57-.53,4.27-.07A4.23,4.23,0,0,1,648.91,1059.3Z"/><path class="cls-3" d="M659.56,1067.24c1.39,0,2.76-1.69,3.88-.7-.13,1.35-1,1.85-1.8,1.52.61,3,1.53-.51,3.08,1.49-.14-.33-.69-.84-.29-1.5,3.75.63,2.05-2.53,6.94-.91.69-.84,1.38-.84,1.22-2.85,2.81,2.49,1.42,2.5,4.78,4.66-.16-1.18-1.3-3.86-1.33-6.37,4.76,3.45,4.77-.6,7.82,2-.34.14-.72.79-1.54.47.46,3.52,2.5-.69,4.17,0l-.1,3c1.53-.52,4.13-2.55,6.11-.38l-.4,1.52c3.87-2.39,8.47-1.42,11.78-2.62l1.84,1.83c4.55-2.39-4.59-1-1.32-5.52.62,5.53,2.33-1.87,5,.29,1.29,2.17-2.63,1.2-1.2,3.7.52-2.86,1.38-.85,2.75-1.7-.24,2.69,2.93.31,2.13,3.34l4.8-5.08c.83,1.51,2.24,1.22,3.29.81-2.66,0,.64-4-2.36-5.17-4.3,1.37-11.51,2.44-16.95,1.14-.51,3.69-3.47,0-4.27,3.06-.15-1.18-.58-2.18-.74-3.35-3.47.87.87,2,0,3.35-1.52.52-2.8-1.66-2.69-3-2.5-.14-.25,1-1.48,3l-1.72-4c-7.77,1.41-18,4.35-26.94,2.24l.73,2.52c-4-1.32-6.61,5.76-10.28.42l-1.17,2.2c.63-1.26-.78-3.79.24-5.53-1.08.87-2.26,0-3.38.75l2,1.16c-1.35,2.18-2.93.89-3.44-1-2.94,2.63,1.88,4.35,2.59,6.47,4.12-4.78,4.34,4.48,8.36,2.44C662.23,1069.4,659.43,1068.59,659.56,1067.24Z"/><path class="cls-3" d="M654.18,1060.42a2.55,2.55,0,0,0-.59.69A2.29,2.29,0,0,0,654.18,1060.42Z"/><path class="cls-3" d="M721.17,1064.21a4.4,4.4,0,0,0,1.17-.16C722.73,1063.4,722.1,1063.85,721.17,1064.21Z"/><path class="cls-3" d="M648.79,1062a0,0,0,0,0,0,0l0,0Z"/><polygon class="cls-3" points="646.91 1068.25 648.03 1068.31 647.81 1067.15 646.91 1068.25"/><path class="cls-3" d="M733.08,1067.13l0-1.32A2.47,2.47,0,0,0,733.08,1067.13Z"/><path class="cls-3" d="M765.19,1067.26l-.7,0A.57.57,0,0,0,765.19,1067.26Z"/><path class="cls-3" d="M842.14,1062.87c2.08-.86,4.85-1.72,6.35-3.91l-.12,1.34c1.1-.68,4.68-2.89,2.29-5.22l-.54,1.17c-2.61,2-2-2.16-4.07-3-2.48.68-3.81,5.73-6,4.57-1,.19-.85-1.17-.58-2.18-2.24-.32-3,3.55-4.54,4.07-.83-10-6.77,2.91-10.2-3.44-2.06.85-4.87,0-7.48,2.08,1.36-2.54-2.5-.16-2-3-.62,5.87-7.68-2.47-8,4.93-3.64-2-.13.5-4.32-1.15,0-.83.68-.84,1-1-1.68-1.5-2.46,3.2-3.9-.13-3.33-.49-.52,2-2.45,4-3.48-.8-2.53-1.81-4.51-4.83-.23,3.53-2.33,1.88-4,3.73.42.17,2.79.81,1.28,2.17-4-.47-3.17,2.39-6.91,3.41-2-3.83,3.75-.18.38-3.19,2.34-1.85,4.15-1.71,5.37-4.57a22.33,22.33,0,0,0-10.54,2.27c-2-.49.95-1.85-.58-2.19-3.5-1.63-5.24,4.08-8,2.42l.53-2c-1.62,2.7-6.12-.45-9.3,1.08.43,1,.72,1.68.31,2.35-.06-5-4.41,2.72-7.65-.77.32,3.18-2.72,5-4.66,5.42a4.77,4.77,0,0,1-.59-3c3.22,1.8,3-3.56,5.5-5.09-2.07,1.7-5.57,0-7.35,2.41l.66-2.51c-2.91-.32-2.42,5.71-5.51,3.38l.26-1.83c-6.11.38-13.38-2.75-18.19,1.47-.4,1.54,2.15,5,2.3,6.2,2.9-1.36,4.53-4.06,6.74-5.43l0,2.88c.47-2,3.13-3.21,1.61-4.73,1.79-1.52,1.44,2.51,3.49.81-.11,3-1.35,3.37-1.31,5.88l1.79-1.52c-.55,1.18,1.11,1,.58,2.18,3.29-3.72,4.73,1.29,8.19-.41l-1.95-.49c0-1.67,1.09-1.53,1.92-2,1,2.33,1.56,2,3.37,3,1.51-1.36,2.31-4.38,4.4-4.4-.38,3.18,3.5,1.65,3.94,4.32.38-3.17,4-1.21,4.27-3.05,1.1-.67,2.63-.36,2.66,1.32a5,5,0,0,1-.83.57l1.12.1c-.1.36-.06.63-.18.7,1,0,1-2.26,2.27-.72,0,.84-.69.86-1.25,1.19,2.65.48,4.52-4.91,6.79-2.07.4-1.51,3.45-1.7,2.72-5.06.85,1.16.59,3.85,2.81,3.33,1.22-2.86,2.52,1,4.17-.86-2.19,3,0,.82-1.9,3.71,1.54,1.15,3.72-2.73,6.37-2.25.28.67.29,1.51.58,2.18,1-1,2-3.37,3-1l-.16-2c1.82,1,4.31.3,6.28,2.47l2.18-3.88c3.1,4,7.09.28,9.41-3.27,1.11.15,2.79.81,2.8,1.65-.25.31-.68.91-1.17,1.43,1.63.11,3.66,2.25,4.52-1,1.65-1,1.27,2.18,2.53,2.68,3.28-4.57,10,3.1,10.93-3.78-1.39,0-4-1.32-6.68-1,.68-.85.11-2.18,1.08-2.36,2.64-.37,4,2.14,6.68,1l-.22,4.37C834.54,1067.13,838.45,1056.69,842.14,1062.87Z"/><path class="cls-3" d="M808.24,1063.49l2,2.16-.24-1.87A1.27,1.27,0,0,1,808.24,1063.49Z"/><path class="cls-3" d="M810,1063.78a4.54,4.54,0,0,0,1.1-.91,1.33,1.33,0,0,0-1.17.44Z"/><path class="cls-3" d="M849.77,1062a2.23,2.23,0,0,0,2.09,0C851.3,1061.45,850.19,1061.29,849.77,1062Z"/><polygon class="cls-3" points="851.98 1060.6 851 1059.94 850.87 1060.44 851.98 1060.6"/><path class="cls-3" d="M908.07,1055.61l3-2.71c.57,1.33,4-.37,2.95,2,1.76-3.2,5.82-.21,4.24-4.73-9,1.75-21.54-.66-31.93,3.62l1.64-1.86c-5.36,3.74-7.53-3.8-11.76,3.45l.51-3.69c-2.51-1-4.66,5.41-7.34,1.57l.28,1.51c-.68,0-1-.66-1.67-.66l.29.67c-1.78,1.54-2.9,1.36-4.72.38-.15-1.17.83-.51,1.38-.84-.85-1.18-2.21,1.35-3.6,1.36-1.12-1,0-1.69.11-2.19-4.15,1.72-6.14-2.12-9,3.44-.27,1,1.12,1.84-.4,2.36,2.81,1.65,5-.56,7.49-2.1h-.7c1.89-5.38,1.54,1.18,4.71-1.2-.8,2.19-2.2,2.19-2.73,3.37,3.79,4,5.23-3.22,7.8,2l-.27.17c.56.51,1.52-.51,2.35-1-.29-.67-1.13-1-1.7-1.49.84-.53,1.22-2.88,1.49-3.88,1,2.34,1.24-1.17,2.77,0,.59,2.17-1.22,2-1.76,3.2l1.79-1.52c1.66-.19,1.69,2.34,2.54,3.5,1.38-1.69-.85-1.16.24-3.52,1.84,2.66,9.47,1.75,13.06-.44-1.25.34-.4,2.34-1.92,2,.56.49,2.49-.7,2.47-2.37,2.48-1.54,5.7-.55,8.08.93l-.72-1.67c1.91-2.87,5,2,8.48.28l-.07,0c1.11-.38,2-4.5,4.06-3.69C909,1053.74,907.92,1053.6,908.07,1055.61Z"/><path class="cls-3" d="M920.26,1051.48l-1.09,2.35c1.26.5,2.76-2.53,2.46-4-.84.51-2-.5-2.08.85C919.7,1051,919.7,1051.81,920.26,1051.48Z"/><path class="cls-3" d="M943.6,1050.61c.44-.55.3-1.43.48-2.09-4.94.4-11,1.46-13-.32-1.68-.66-1.91,2.86-4,3.73l-1-2.35c-1.1,1.52-4.61-1-3.31,2.88.14.34,1-1.85,1.93-1.19l-.13,1.34,2.22-.51-.68,1.68c3.1,2.32,2-5.06,5.8-3.58l.05,3.36c2.5.14,3.74-1,6,1,0,0,0-1.7-.43-1a2.65,2.65,0,0,1-.71-2.51c3.72-2.71-.55,2,2.12,3.33,3.16-2.37,9.26-4.43,11.09-1.77-1.55-2,.65-4.19,2.45-4,.85,1.17-.52,2-.79,3,.84.33,1.54,1.17,2.37.65a4.1,4.1,0,0,1,1.46-5.55C951.17,1044.67,947.91,1050.9,943.6,1050.61Z"/><path class="cls-3" d="M944.81,1047.74a1,1,0,0,0-.73.78c.58,0,1.17-.09,1.71-.11Z"/><line class="cls-2" x1="959.73" y1="564.44" x2="674.73" y2="724.44"/><polygon class="cls-3" points="674.26 723.62 675.41 723.81 674.66 721.88 674.26 723.62"/><path class="cls-3" d="M681.63,728l.93-1.5c-3.69-4.76-1.79-3.83-6-6.37-.29,1.23-.91,3.95.44,5.85.42-.5.08-2.93,1.23-2.74.5,1.69-.45,2,.25,4.16,2.17.89.09-1.73,1.89-1.79Z"/><path class="cls-3" d="M680.33,721.9a18.65,18.65,0,0,0,1.18,2.66C681.13,723.59,681.17,722.12,680.33,721.9Z"/><path class="cls-3" d="M680.85,720.91c1-.28,1.06,1.92,1.3,2.15l-.91-3.89Z"/><path class="cls-3" d="M684.52,719.14a2.57,2.57,0,0,0,.23-.53C684.31,718.15,684.44,718.66,684.52,719.14Z"/><path class="cls-3" d="M686,717.76c-1-1-1,0-1.29.85l.17.18c1,.69,1.92,3.35.77,3.15-.52,1-1.77-1.39-1.62.56l2.07,1.39C687.27,722.86,686.07,719,686,717.76Z"/><path class="cls-3" d="M684.52,719.14a1,1,0,0,1-.38.42C684.57,719.84,684.57,719.52,684.52,719.14Z"/><polygon class="cls-3" points="682.58 719.86 682.42 720.61 683.09 721.56 682.58 719.86"/><path class="cls-3" d="M688.85,716c1.62,3.36-2.28.81-1.09,3.47,1.07-.78,3.33,1.09,4.08,3l.7-1.73C692.28,719.24,690.37,717.11,688.85,716Z"/><path class="cls-3" d="M696,722.78a1.4,1.4,0,0,1,0-.73A1.08,1.08,0,0,0,696,722.78Z"/><path class="cls-3" d="M699.24,713.59l-1.13,4.93c-.31-1.21-1-2.16-.53-2.91-1.56.3-.56,2.47-1.83,2.76-2-2.85,1.8-1.3-.35-3.66-.72.52-1.78,1.29-1,4.21l-2.36-1.38,2.27,3.09c1,.68-.47-3.16,1.13-1a2.18,2.18,0,0,1,.46,2.42c.4-1.11,3.59,1.39,4.94.06S699,715.79,699.24,713.59Z"/><polygon class="cls-3" points="701.4 717.16 702.32 718.36 701.21 716.68 701.4 717.16"/><path class="cls-3" d="M702.21,711l-.38,3a7.45,7.45,0,0,1-1.25-1.38c.48.72.8,2.26,1.22,2.86,2.39,2.6,1.35-2,1.88-3,3,.12.81,1.67,3.26,4-.66.26-1.09-.46-2.05-.17,3.24,2.64,3.18-1.42,3.57-2.74-.42-.16-1-1.06-1.33-.53l.33-1.49C705.21,709.69,704.06,709.49,702.21,711Z"/><path class="cls-3" d="M699.47,712.6c.44-.55.79-.45,1.07-.06C699.93,711.82,699.41,711.34,699.47,712.6Z"/><path class="cls-3" d="M708.87,713.21c-.2-.14-.32,0-.41.35C708.64,713.62,708.79,713.57,708.87,713.21Z"/><path class="cls-3" d="M706,710.14l1.26-.3L706,708.66A1.51,1.51,0,0,0,706,710.14Z"/><path class="cls-3" d="M750,691.49c-.79-1.17-1.53-1.55-2.23-.84-.81-1.69.45-2,.43-3.2-1.7-.44-1.05-1.91-2.22-3.34-1.32.53-.68,3-2.24,3.27a5.12,5.12,0,0,0-1.11-1.67c-1,1.92-2.85,4.94-5.18,4.41-1.84.23-2.52,1.62-3.74,3.27-5.87,2.19-10.56,7-17.22,8.75l1,3.64c-1.17-1.42-1.38.77-2.37-1.38.54.23.65-.28,1-.53-2.8-2.08-3.16,2.08-5.21,1.92.49.46,2.28,3.09,2.11,3.83-1.87-3.59-1.73,1-4.44-2.76-2-.17,1.67,3.12-.2,3.42,1,2.18,2.06.18,3.22,1.59.46,2-1.8.08-.5,2.23,3.07-.37,5.25-7.3,8.39-10.61l.7,2.18a4.93,4.93,0,0,1,7.62-2c-1.42-1.66,3.43-.62.77-4.68,1,.69,1.09.44,2,.42L730,698c1-.53,2,1.63,3.09.85-1.77-1.4-1.24-2.4-1.75-4.09,2.44,1.29,5,2.21,7.06,3.21a7,7,0,0,0-1.74-1.7c1.16.2,0-1.47-.09-2.2.71-.52,2,1.87,2.58,3.08,1.81-.07-.08-4.9,1.81-4l-1.42-1.65c1.19-1.28,3.55.1,4.8-1.42,2.21,2.13-.07,2.94-.11,4.42.63.36,1.39.11,2.09.84a54.34,54.34,0,0,1,.24-5.83C747.4,692.91,749.33,691.6,750,691.49Z"/><path class="cls-3" d="M746.29,695.3a10.19,10.19,0,0,0,.11,1.27c.06-.25.11-.5.41-.5A2.57,2.57,0,0,0,746.29,695.3Z"/><path class="cls-3" d="M750,691.49c.06.1.13.16.19.27C750.25,691.5,750.15,691.46,750,691.49Z"/><path class="cls-3" d="M737.14,690.08a1.54,1.54,0,0,0,.3,0c.11,0,.18-.07.3-.06Z"/><path class="cls-3" d="M740.72,699.24a16.66,16.66,0,0,0-2.35-1.32A2.54,2.54,0,0,0,740.72,699.24Z"/><path class="cls-3" d="M729.8,702.6c-.11.5.38,1,.5,1.68C731,704,730.84,703.3,729.8,702.6Z"/><polygon class="cls-3" points="748.3 694.79 749.19 693.53 749.36 692.78 748.3 694.79"/><path class="cls-3" d="M767.4,671.27c-2.32-1.62-3.12.62-4.69.93-1.76,2.51,2.44,5,.29,6.6L760.81,674c-2.13,1.55-5.92,2.44-5.6,7.56-.49-.47-1.28-.93-1.06-1.93-1.42,1.06,2.88,7,0,6.62.31-3.92-2.14-2.36-3.21-5.49l.11-.51c-1.13,1-2,3.51-3,3.79.63,1.2,2.39,2.6,1.33,3.38.59,0,1.16,1.41,1.78,2.63.45-2,1.55-1.54,1.39-3.49,1.53,1.16-.16.74,1.36,1.9l.14-2c.91,0,.16,2,1.43,1.67-.39-1,0-2.44.92-2.73l.05.67c.31-1,1.67-.72-.09-3.11l2.19,2.11-1.11-1.67c2.17-.32,5.18,3.47,6.28,0-.85-.22-.87-1.44-.76-1.95-1.64-.65-.45,2-1.23,2.74-1.11-1.66-.73-4.61-2.42-5,2.37,1.38,2.15-1.55,5.1,2.49,1.62-.55,1-3,3-2.8l.31.66c-1.33-3,1.94.62,1.39-2.94l-1.14-.2c-.63-1.2-.27-1.45.15-2a1.85,1.85,0,0,0,.68,1c-1-2.16.48-3.45.35-4.17-.91,0-.81,2.23-1.33,3.23C767.61,673,766.5,671.3,767.4,671.27Z"/><path class="cls-3" d="M756.56,687.35l-.09-1.27A1.93,1.93,0,0,0,756.56,687.35Z"/><path class="cls-3" d="M776.08,671.19c1.2-.05.75,1.93,2.14,2.36.14-2-2.75-2.35-3-5,1.27.93,1-1.75,1.35-2a13.4,13.4,0,0,0,2.54,4.54c-.07-1,1.5,0,2.17-.32-2.49-.88.69-1.75-1.74-2.87-.81-1.68-.06-3.68,1.22-2.75.62,1.2,0,1.23-.34,1.49.94,2.4,1.64.67,3,2.58-.3-3.91,4.42-6.29.32-10.54-1-.69-.77.77-1.19,1.27,2.05.15,1.49,2.64,1.86,3.6-1.08-.44-1.29,1.76-2-.17l0-2.43c-3.78.87-8,3.71-11.35,6.55l1.67-.81c.57,1.46-.15,2-.38,3l2.64,2.85c-.6,0-.77.76-1.39-.44a5,5,0,0,0,1.92,3.35c-.88,1.26-1.8.07-1.53,2.75,3.53,1.58.44-3.19,4.07-2.11Z"/><polygon class="cls-3" points="772.71 675.47 772.26 673.53 771.97 674.76 772.71 675.47"/><path class="cls-3" d="M769.4,667.78c.43.71.32,1.2.75,1.92C771.35,669.65,770.68,668.7,769.4,667.78Z"/><path class="cls-3" d="M784.72,668.64l.88-1.26-1.14-.19A1.8,1.8,0,0,1,784.72,668.64Z"/><path class="cls-3" d="M788.37,655.29c-1.5,1.27-1.34,3.23-4.18,2.61.28,2.68,2.7,3.8,3.4,6,1.21,0-1-3.64-.37-4.88,1.4,1.65,1.19-1.21,2.37-1.3A6.4,6.4,0,0,1,788.37,655.29Z"/><path class="cls-3" d="M798.13,659.17c.78-.41.74-2.29,1.85-1.74.57,1.22.35,1.9-.28,1.85,1.78,2.48.61-.89,2.43.42-.23-.25-.78-.54-.87-1.23,2.4-.54-.06-2.82,3.46-2.82a3.45,3.45,0,0,0-.68-2.86c2.77,1.37,2,1.78,4.91,2.7a52.67,52.67,0,0,1-3.79-5.21c4.32,1.65,2.39-1.91,5.34-.52-.12.22,0,.9-.64.86,1.94,3,1.08-1.33,2.33-1.24l1.39,2.67c.6-.9,1.1-3.44,3.24-2.11l.5,1.45c1-3.22,4.08-3.71,5.36-5.73l1.91,1.08c1.41-3.42-3,.49-3.38-4.47,3,4.68.42-2.32,2.95-1.2,1.75,1.53-.9,1.82,1.09,3.6-1.07-2.66.37-1.14.73-2.29,1.15,2.43,1.79-.58,2.79,2.31l.27-5.85c1.19,1.08,1.85.42,2.24-.24-1.48.79-1.56-3.72-3.8-3.87-1.76,2.46-5.3,5.5-9,5.94,1.48,3.39-1.94,1-.94,3.92-.64-1-1.36-1.74-2-2.72-1.53,1.77,1.44,1.5,1.63,2.93-.61.9-2.37-.65-2.94-1.85-1.47.6.34,1,.61,3.09L812,643c-3.69,3.5-8,9.06-14.05,9.81l1.61,2c-2.91,0-1,7-5.58,3.35l.4,2.28c-.24-1.29-2.25-3.11-2.51-4.93-.18,1.08-1.29.61-1.53,1.64l1.69.43c.28,2.31-1.22,1.63-2.4.14-.4,3.16,3.13,3.27,4.54,4.92,0-5.39,4.58,2.67,5.86-.29C800.67,660.3,798.7,660.39,798.13,659.17Z"/><path class="cls-3" d="M791.86,654.74a2.91,2.91,0,0,0,0,.78A2.46,2.46,0,0,0,791.86,654.74Z"/><path class="cls-3" d="M831.28,638.6a2,2,0,0,0,.58-.49C831.76,637.43,831.63,638,831.28,638.6Z"/><path class="cls-3" d="M789.59,657.7l0,0s0,0,0,0Z"/><polygon class="cls-3" points="791.51 663.74 792.17 663.46 791.5 662.51 791.51 663.74"/><path class="cls-3" d="M839.36,637.69l-.64-1.15A3.67,3.67,0,0,0,839.36,637.69Z"/><path class="cls-3" d="M857.45,628.47l-.42.16A.27.27,0,0,0,857.45,628.47Z"/><path class="cls-3" d="M898.55,602.24c.76-1.36,1.9-2.92,1.7-5.28l.57,1.21c.29-.92,1.25-3.9-1.2-5.25l.25,1.19c-.49,2.55-2.14-1.33-3.7-1.44-1.07,1.32.59,6.15-1.22,5.79-.45.44-1-.79-1.36-1.75-1.41.37,0,4-.61,4.89-5.26-8.59-2.41,4.53-7.37-.05-.75,1.35-2.71,1.45-3.2,4-.45-2.62-1.48.6-2.55-2.06,2.45,5.34-5.49.07-2.13,6.67-3-.7.16.47-3,.24a.92.92,0,0,1,.06-1.16c-1.66-.82.15,3.53-2.25,1-2.11.55.66,1.91.55,4.25-2.34.31-2.28-.85-4.84-2.92,1.56,3.16-.41,2.32-.45,4.43.31,0,1.95-.1,1.75,1.53-2.49.76-.64,3-2.25,5-3-2.79,2-1.26-1.31-2.91.43-2.31,1.51-2.72.83-5.58a9.74,9.74,0,0,0-4.83,5.06c-1.33.14-.35-1.91-1.37-1.75-2.75-.42-1,5.1-3.36,4.46l-.66-1.92c.37,2.84-3.65,1.38-4.7,3.65a3.78,3.78,0,0,1,1.29,2c-2.44-4.41-1.18,3.67-4.66,1.55,1.69,2.71.88,5.23,0,6.11a7.21,7.21,0,0,1-1.78-2.48c2.67.65,0-4,.66-6.06-.35,2.09-3.1,1.66-3,4.25l-.83-2.4c-1.79.57,1.37,5.72-1.48,4.57l-.73-1.68c-3.25,2.11-8.82,1.47-9.51,6.58.51,1.47,3.61,3.8,4.26,4.78,1-2,.6-4.89,1.18-6.73l1.4,2.52c-.69-1.88.22-3.73-1.36-4.62.28-1.86,2,1.78,2.35-.31,1.38,2.69.85,3.35,2.07,5.55l.28-1.86c.25,1.2,1.1.55,1.36,1.75.08-4.22,3.28-.24,4.41-2.74l-1.33.14c-.81-1.47-.12-1.66.11-2.34,1.68,1.76,1.83,1.3,3.32,1.65.2-1.63-.79-4.52.37-5.14,1.31,2.9,2.75.42,4.28,2.64-1.3-2.89,1.67-2.23.94-3.92.29-.91,1.31-1.08,2.12.39a3.66,3.66,0,0,1-.19.74l.67-.24c.12.35.28.57.23.67.59-.24-.54-2.26.94-1.29.4.74,0,.95-.14,1.4,1.73-.34.2-5.63,2.82-3.79-.49-1.44,1.13-2.49-.88-5.23,1,.77,2.17,3.21,3.17,2.1-.68-2.86,1.88.15,1.93-2,.21,3.29.39.72.7,3.81,1.42.57.79-3.47,2.5-3.81.48.5.89,1.23,1.37,1.74,0-1.18-.47-3.56,1.22-1.79l-1.05-1.72c1.49.34,2.56-1,4.7.34l-.63-4c3.65,2.6,4.12-1.82,3.72-5.61.7-.19,1.95-.1,2.36.64a15.6,15.6,0,0,1,0,1.59c1-.37,3.14.92,2.08-2.16.45-1.36,1.76,1.54,2.7,1.61-.34-5,7.12-.2,4.33-6.5-.77.41-2.89,0-4.2,1.11,0-.94-1-1.94-.52-2.38,1.31-1.09,3.3.7,4.2-1.11l2,3.9C896.32,608.19,893.53,597.88,898.55,602.24Z"/><path class="cls-3" d="M879.81,612.64,882,614l-1-1.58C880.74,612.84,880.42,613,879.81,612.64Z"/><path class="cls-3" d="M880.92,612.39a3,3,0,0,0,.18-1.12.7.7,0,0,0-.44.73Z"/><path class="cls-3" d="M902.4,599.21a1,1,0,0,0,1.17-.6C903,598.32,902.31,598.51,902.4,599.21Z"/><polygon class="cls-3" points="902.99 597.39 902.13 597.08 902.29 597.57 902.99 597.39"/><path class="cls-3" d="M932.1,576.69l.4-3.26c1,1,2.09-1.49,2.61.88-.54-3.32,3.16-1.88.12-5.39-4.22,4.16-12.41,5.69-16.2,12.47l0-2.12c-1.23,4.85-6.05-1.14-5,6.46l-1.48-3.39c-1.88-.14,0,6.1-3.37,3.51l.88,1.24c-.38.22-.86-.29-1.25-.09l.48.5c-.27,1.87-1,2-2.47,1.71-.64-1,.22-.69.37-1.14-1-.79-.59,1.83-1.37,2.25-1.11-.56-.82-1.48-1-2-1.51,2.73-4.46-.07-3.4,5.64.33,1,1.51,1.29.9,2.19,2.37.63,2.54-1.95,3.2-4l-.38.21c-1.51-5.27,1.42.58,2.07-2.42.59,2.15-.19,2.56.07,3.75,4,2.42,1.41-4.35,5.32-.55l-.07.22c.55.28.61-.89.83-1.57a4.76,4.76,0,0,0-1.67-.83c.22-.7-.68-2.87-1-3.83,1.69,1.76.14-1.39,1.55-.83,1.37,1.74.28,2.13.54,3.32l.28-1.85c.84-.65,2.07,1.56,3.1,2.34,0-1.89-1-.78-1.55-3.17,2.31,1.81,6.15-1.21,7.12-4.18-.54.66.9,2.17-.11,2.33.55.27,1.06-1.33.25-2.8.67-2.07,2.94-2.14,5-1.52l-1.19-1.26c-.31-3.08,3.76.27,4.89-2.23l-.07,0c.45-.66-1-4.53.52-4.42C931.74,574.77,931.05,575,932.1,576.69Z"/><path class="cls-3" d="M937,569.52l.51,2.38c.95.07.34-3-.55-4.27-.22.7-1.34.14-.76,1.36C936.41,569.23,936.81,570,937,569.52Z"/><path class="cls-3" d="M949.66,562a8.79,8.79,0,0,0-.73-2c-2.58,1.79-5.49,4.49-7.47,3.5-1.25-.09.3,3.08-.45,4.44l-1.68-1.77c.11,1.65-3.05.49-.48,3.49.23.25-.35-1.9.51-1.61l.57,1.22,1-1.1.42,1.68c2.85,1.13-1.27-5,1.55-4.84l1.63,2.94c1.47-.6,1.61-2,3.82-.89,0,0-.82-1.48-.72-.76a3.81,3.81,0,0,1-1.61-2c.8-3.46.66,1.93,2.79,2.31.64-3,3.08-6.59,5.38-4.78-1.83-1.31-1.64-3.87-.55-4.27,1,.78.66,1.93,1,2.9.64,0,1.43.57,1.64-.13a5.54,5.54,0,0,1-1.82-5.29C951.07,554.55,952.21,561,949.66,562Z"/><path class="cls-3" d="M949,559.1a.92.92,0,0,0,0,.89c.3-.21.61-.42.91-.59Z"/><path class="cls-4" d="M922.31,158.46c.1.16,10.9-6.5,11-6.34"/><path class="cls-4" d="M765.88,169.09c1.11,1.93,92.37-56,93.51-54s-104.48,75.23-103.76,76.49c1.19,2.06,127.52-76.95,129-74.46,1.28,2.23-131.13,90.78-130.11,92.56,1.23,2.13,148.31-88.64,149.61-86.38C905.3,125.4,761,225.6,762,227.42c1.65,2.86,157.66-94.31,159.09-91.84S757.2,242.41,759,245.56c1.24,2.15,171.73-102.39,173.13-100,1.12,1.93-162.41,108.53-161.21,110.61,1,1.83,162.85-96.7,164-94.7S773.11,268.7,774.33,270.82c1.63,2.82,163.13-98.46,165-95.25"/><path class="cls-4" d="M738.63,142.26c.14.26,26-15.36,26.14-15.09.45.77-52.81,58.65-52.31,59.51,1.22,2.11,108.62-64.75,109.5-63.22,1,1.77-111.07,78.06-110.05,79.83.35.61,31.59-18.85,31.85-18.39S713.54,220.37,713.92,221c.2.35,20.07-12.23,20.35-11.75s-21.49,32.9-21.11,33.57c.15.26,23.4-14,23.61-13.63s-9.47,30.4-9.26,30.76,16.76-10,16.89-9.76c.24.41-8,30.88-7.74,31.28s18.74-11.28,18.94-10.94-9.52,32.43-9.19,33c1.8,3.11,190.76-113,192-110.86S758.85,317.08,760.81,320.47c1.32,2.29,169.47-101.56,171.08-98.78S775.7,330.84,777.6,334.13c.91,1.57,151.36-90.9,152.88-88.27.59,1-83.38,64.11-82.59,65.48s76.42-45.61,77.07-44.49-45.49,55-45,56c.31.53,34.16-20.28,34.4-19.86"/><path class="cls-4" d="M819.79,45.85c.1.18,8.93-5.41,9-5.22.33.59-23.91,38.94-23.59,39.5.22.39,28.55-17.28,28.89-16.68S798.47,98.2,798.9,99c.27.47,29.9-18,30.2-17.44s-25.2,29.79-25,30.13,15-9,15.18-8.76"/><path class="cls-4" d="M923,155.73s.54-.32.55-.32"/><path class="cls-4" d="M760.81,172.8s2.69-1.58,2.7-1.56c.3.52-10.4,32.21-10.1,32.73,0,0,7.71-4.48,7.72-4.46.24.41-6,23.84-5.81,24.19,0,0,.37-.23.38-.22s4.35,12.67,4.49,12.9c0,0,2.23-1.3,2.23-1.29.14.23,3,15.62,3.17,15.84,0,0,2.89-1.68,2.9-1.67.17.3-2.27,24.82-2.13,25.06,0,0,7.69-4.46,7.7-4.45"/><path class="cls-4" d="M756.62,173.77c.06.09,5.6-3.36,5.65-3.26.26.45-27.63,38.38-27.18,39.15,0,0,5.56-3.23,5.57-3.22.18.31-.9,19.8-.72,20.12l1.1-.64c.24.42,5,25.16,5.19,25.47,0,0,.62-.38.63-.36.16.27,11,15.9,11.17,16.19,0,0,.75-.45.76-.44"/><path class="cls-4" d="M830.76,40s3.44-2,3.46-2c.14.24,1.62,18.64,1.81,19,0,0,1-.61,1-.59.23.39-10.7,24.42-10.56,24.66,0,0,2.3-1.35,2.31-1.33.25.42-7.33,28.88-7,29.35l.88-.52c.3.52,38.87,4.36,39.23,5,0,0,1.54-.92,1.55-.9.19.32,29.38,8.44,29.56,8.75,0,0,6.14-3.56,6.15-3.55.14.25,13,8.1,13,8.24s.83-.5.84-.48,11.59,12.06,11.69,12.24c0,0,.72-.43.73-.42.11.19,5.85,12.35,6,12.56,0,0,.66-.4.67-.39.15.26,1.8,21.52,1.95,21.79,0,0,6.71-3.89,6.72-3.88.17.31-3.73,18-3.54,18.32,0,0,.85-.51.86-.5.17.29-4.85,30.7-4.54,31.23,0,0,3.11-1.81,3.12-1.8.29.51-8.59,33.31-8.34,33.75,0,0,.86-.51.87-.5.22.38-1.41,21.54-1.22,21.86,0,0,.29-.18.29-.17.28.48-19.54,37.47-19.17,38.12,0,0,1.87-1.11,1.89-1.09"/><path class="cls-4" d="M739.94,140.93c.07.11,5.69-3.43,5.75-3.32.42.72-31.65,34.25-31.39,34.7,0,0,1.67-1,1.69-1,.19.34-9.16,22.36-9,22.63,0,0,2.77-1.62,2.78-1.6.15.26-.18,21.87,0,22.1,0,0,.82-.49.83-.48.13.23-2.42,17.43-2.26,17.72,0,0,6.69-3.88,6.7-3.87.09.17,1.53,16.42,1.63,16.6,0,0,.79-.47.8-.46.15.26,8.15,24.28,8.31,24.57,0,0,.82-.5.83-.48s5.83,11.65,5.93,11.83c0,0,.21-.14.22-.13.17.3,11.16,21.76,11.38,22.13,0,0,2-1.16,2-1.15.11.17,4,12.5,4.07,12.7,0,0,3.28-1.91,3.29-1.9.11.19,8.59,11.78,8.72,12,0,0,.84-.51.85-.5.2.36,27,13.1,27.3,13.55,0,0,1.94-1.15,1.95-1.13.36.62,64.53-16,65.07-15.06,0,0,.94-.57.95-.55.27.48,30.78,2.85,31,3.31,0,0,2.66-1.61,2.69-1.55"/><path class="cls-4" d="M762.16,129.13s6.25-3.66,6.27-3.62c.2.34,34.73.25,35,.63,0,0,1.24-.73,1.25-.72"/><path class="cls-4" d="M817.07,46.83s3.73-2.22,3.76-2.17c.3.54-19.74,36.6-19.45,37.1,0,0,1-.6,1-.58.12.22-4.1,17.18-3.95,17.44,0,0,4.15-2.42,4.16-2.4.16.28-2.43,16.9-2.34,17s.77-.46.77-.45"/><path class="cls-4" d="M743.56,48.61c.25.42,41.67-24.66,41.93-24.21s-9,34-8.78,34.38,19.83-11.85,20-11.55-1.62,15.7-1.5,15.91,5.6-3.32,5.64-3.26"/><path class="cls-4" d="M647.5,10.85c0,.08,1-.7,1-.61.17.3,18.22,15,18.39,15.26.29.5,38.23-23.11,38.67-22.33.34.57-33.44,33.52-33,34.23.57,1,59.57-35.85,60.2-34.76s-47.3,42.27-47,42.83,61.91-37,62.44-36.06S694.07,66.1,694.47,66.8c.52.9,85.53-51.32,86.37-49.86s-72,57.28-71.37,58.32c.27.47,37.81-22.91,38.28-22.1.37.65-21.7,36-21.36,36.58s38.16-23,38.58-22.28c.29.51-14.88,32-14.66,32.42S784.72,79.13,785.1,79.8"/><path class="cls-4" d="M650.63,9.57S654.94,7,655,7.07c.29.5,40.26-4.17,40.67-3.47,0,0,1.89-1.13,1.91-1.1.24.43,28.41,1.81,28.56,2.08,0,0,2.59-1.53,2.61-1.51.25.44,30.31,7.12,30.59,7.61,0,0,1.06-.63,1.07-.61.21.35,22.71,13.94,23,14.35,0,0,.79-.46.79-.45.14.24,7.87,21,8,21.2,0,0,6-3.44,6-3.43.14.23,2.3,14.26,2.38,14.39s.8-.47.8-.46"/><path class="cls-4" d="M748.4,49.2s1-.59,1-.57c.14.24,13.32,8.68,13.41,8.84s1.29-.77,1.3-.75c.15.26,17.39,7.11,17.51,7.32,0,0,2.91-1.7,2.92-1.69"/><path class="cls-4" d="M740.27,47.5s3.1-1.8,3.11-1.79c.14.25,19.5,17.66,19.67,17.95,0,0,.76-.46.77-.45.1.19,9,10.86,9.09,11.05,0,0,.78-.46.78-.45.1.18,14.54,10.16,14.69,10.41,0,0,.72-.44.73-.43"/><path class="cls-4" d="M644.63,12s1.52-.9,1.53-.88c.17.29,16.36,16.05,16.52,16.33,0,0,.81-.48.81-.47.1.16,8.22,10.15,8.34,10.35,0,0,4-2.35,4-2.34.13.22,5.82,12.18,5.89,12.3s.76-.46.77-.45c.15.26,11.13,19.65,11.25,19.85,0,0,6.3-3.65,6.31-3.64.15.26,4.86,14.09,5,14.26,0,0,.77-.46.78-.45.19.34,16.2,14.48,16.38,14.78,0,0,.87-.52.88-.5.22.38,25.34,8.92,25.51,9.22,0,0,2.6-1.54,2.62-1.51.28.5,29.54-3.64,29.81-3.17.05.08,3.69-2.27,3.75-2.16"/><line class="cls-2" x1="338.73" y1="416.44" x2="771.73" y2="273.44"/><polygon class="cls-3" points="772.02 274.33 770.59 274.04 770.86 276.1 772.02 274.33"/><path class="cls-3" d="M764,269.17l-1.78,1.49c3,5.27.91,4.15,5.46,7.15.83-1.27,2.67-4.05,1.61-6.15-.73.5-1.2,3-2.63,2.76,0-1.8,1.33-2,1.23-4.36-2.51-1.1-.77,1.8-3.15,1.71Z"/><path class="cls-3" d="M763.45,275.61a13.77,13.77,0,0,0-.56-2.87C763,273.79,762.42,275.32,763.45,275.61Z"/><path class="cls-3" d="M762.39,276.6c-1.37.21-.67-2.09-.9-2.35l-.27,4.13Z"/><path class="cls-3" d="M756.92,278.13a5.16,5.16,0,0,0-.5.54C756.82,279.19,756.84,278.65,756.92,278.13Z"/><path class="cls-3" d="M754.41,279.45c1,1.08,1.37.1,2-.78a1.67,1.67,0,0,1-.15-.2c-1.1-.81-1.26-3.65.17-3.35,1.06-1,1.8,1.6,2.32-.45l-2.18-1.62C754.72,274,754.84,278.17,754.41,279.45Z"/><path class="cls-3" d="M756.92,278.13a1.79,1.79,0,0,1,.65-.39C757.11,277.41,757,277.74,756.92,278.13Z"/><polygon class="cls-3" points="759.73 277.55 760.22 276.79 759.7 275.74 759.73 277.55"/><path class="cls-3" d="M750.06,281.1c-.86-3.63,3.29-.65,2.73-3.52-1.7.72-3.95-1.42-4.22-3.49L747,275.84C746.81,277.39,748.5,279.76,750.06,281.1Z"/><path class="cls-3" d="M743.32,273.39a1.39,1.39,0,0,1-.24.76A1,1,0,0,0,743.32,273.39Z"/><path class="cls-3" d="M735.57,282.7l3.33-5.05c0,1.29.5,2.34-.4,3.08,2.15-.18,1.66-2.53,3.43-2.72,1.58,3.13-2.83,1.2-.91,3.84,1.13-.48,2.82-1.2,2.83-4.3l2.58,1.62-1.82-3.41c-1.09-.79-.57,3.34-1.86,1a2,2,0,0,1,.31-2.56c-.95,1.12-4.18-1.75-6.44-.48C734.19,274.92,736.67,280.42,735.57,282.7Z"/><polygon class="cls-3" points="734.08 278.8 733.33 277.47 734.16 279.31 734.08 278.8"/><path class="cls-3" d="M730.72,285.12l1.6-3a5.62,5.62,0,0,1,1.13,1.54c-.37-.79-.2-2.42-.53-3.08-2.15-2.91-2.52,2-3.59,3-3.82-.37-.43-1.81-2.75-4.47,1-.22,1.26.56,2.62.34-3.25-3-4.7,1.22-5.7,2.56.49.2.91,1.19,1.54.66l-1,1.53C726.3,286.27,727.73,286.57,730.72,285.12Z"/><path class="cls-3" d="M734.91,283.71c-.79.54-1.2.4-1.42,0C734,284.49,734.51,285,734.91,283.71Z"/><path class="cls-3" d="M722.82,282.3c.22.15.43,0,.68-.34C723.29,281.88,723.07,281.92,722.82,282.3Z"/><path class="cls-3" d="M725.44,285.73l-1.76.21,1.16,1.33C725,287,725.74,286.51,725.44,285.73Z"/><path class="cls-3" d="M660.87,301.5c.6,1.29,1.41,1.74,2.6,1.06.43,1.83-1.33,2-1.76,3.3,2.06.6.66,2.08,1.65,3.66,1.93-.44,2-3,4.16-3.22a3.73,3.73,0,0,0,.82,1.84c2-1.91,5.59-4.91,8.44-4.17,2.49-.09,3.9-1.47,6.13-3.1,8.5-1.79,16.44-6.43,25.81-7.68l.11-3.86c1,1.57,2.1-.7,2.58,1.62-.62-.28-1,.24-1.52.47,2.88,2.41,4.92-1.9,7.54-1.56-.46-.53-1.83-3.41-1.32-4.17,1.09,3.9,2.65-.95,4.77,3.24,2.63.35-1-3.38,1.54-3.55-.5-2.34-2.62-.35-3.61-1.92.13-2.07,2.38.06,1.49-2.28-4.15.13-9.61,7.17-15,10.35l-.09-2.33c-2.45,2.51-7.21,4.16-10.73,1.47,1.23,1.85-4.72.36-2.76,4.81-1.09-.8-1.26-.55-2.46-.6l.19,1.56c-1.52.46-2-1.87-3.71-1.15,1.79,1.61.72,2.61.76,4.41-2.72-1.55-5.68-2.72-8-3.93a5.81,5.81,0,0,0,1.64,1.92c-1.44-.31-.6,1.53-.7,2.3-1.13.47-1.85-2.12-2.22-3.43-2.39-.08-1.74,5.11-3.87,4l1.24,1.84c-2,1.23-4.61-.4-6.82,1.07-2.08-2.39,1.2-3.06,1.81-4.59-.69-.43-1.78-.23-2.42-1.05a56.42,56.42,0,0,1-2.5,6.05C664.79,300.24,661.78,301.44,660.87,301.5Z"/><path class="cls-3" d="M667.14,297.84a8.21,8.21,0,0,0,.33-1.33c-.18.25-.33.51-.73.49A1.94,1.94,0,0,0,667.14,297.84Z"/><path class="cls-3" d="M660.87,301.5c0-.1-.11-.18-.15-.3C660.54,301.47,660.64,301.52,660.87,301.5Z"/><path class="cls-3" d="M677.16,304a2.32,2.32,0,0,0-.38-.07,2.85,2.85,0,0,1-.42,0Z"/><path class="cls-3" d="M675.91,294.2a16.77,16.77,0,0,0,2.57,1.57A2.56,2.56,0,0,0,675.91,294.2Z"/><path class="cls-3" d="M691.45,291.6c.34-.51-.13-1,0-1.79C690.46,290,690.36,290.79,691.45,291.6Z"/><polygon class="cls-3" points="664.31 298.2 662.68 299.44 662.18 300.2 664.31 298.2"/><path class="cls-3" d="M630.5,321.12c2.42,1.88,4.32-.39,6.48-.57,3.25-2.48-1.29-5.47,2.1-6.9l1,5.2c3.39-1.44,8.67-2.05,10.18-7.41.47.52,1.33,1.07.66,2.09,2.25-1-1.15-7.53,2.5-6.89-1.87,4.06,1.92,2.63,2.15,6l-.33.51c1.86-1,3.92-3.49,5.28-3.7-.36-1.29-2.15-2.9-.46-3.63-.79,0-1-1.57-1.35-2.88-1.34,2-2.6,1.47-3.13,3.52-1.56-1.34.5-.76-1.06-2.1l-.93,2c-1.19-.05.54-2.06-1.23-1.86a2.81,2.81,0,0,1-2.23,2.77l.18-.7c-.77,1-2.45.61-1.05,3.25l-2.08-2.38.83,1.83c-3,.15-5.48-4.05-8.22-.53,1,.29.6,1.56.28,2.09,1.89.82,1.32-2,2.63-2.75.82,1.81-.78,4.86,1.28,5.44-2.59-1.63-3.4,1.44-5.74-3-2.32.43-2.4,3-5,2.66l-.16-.72c.61,3.26-2.31-.81-2.92,2.95l1.42.3c.37,1.31-.2,1.54-.93,2-.07-.51-.07-.51-.54-1.05.51,2.34-1.92,3.56-2,4.33,1.2,0,1.89-2.27,3-3.26C630.87,319.32,631.69,321.16,630.5,321.12Z"/><path class="cls-3" d="M650.72,305.26l-.36,1.34A1.9,1.9,0,0,0,650.72,305.26Z"/><path class="cls-3" d="M619.1,320.48c-1.59,0-.25-2.07-1.91-2.63-.93,2,2.72,2.67,2.08,5.48-1.32-1.07-2,1.74-2.53,2,.2-1.54-1.16-4.42-1.62-4.95-.27,1-2-.06-3,.16,2.92,1.12-1.56,1.76,1.2,3.13.43,1.82-1.3,3.84-2.63,2.77-.36-1.31.44-1.28,1-1.52-.33-2.59-1.89-.84-3-2.94-1.07,4.1-8.15,6.18-4.37,11,1.1.8,1.3-.74,2-1.23-2.64-.33-1-2.87-1.1-3.91,1.26.56,2.36-1.72,2.62.35l-.87,2.54c5.28-.6,11.9-3.2,17.32-5.88l-2.49.7c-.21-1.57.93-2,1.59-3.05l-2.38-3.18c.8,0,1.3-.72,1.66.57.36-1.8-.34-2.59-1.26-3.64,1.62-1.24,2.39.06,3-2.75-4-1.94-1.77,3.29-6.11,1.86Z"/><polygon class="cls-3" points="625.13 316.31 624.99 318.36 625.83 317.1 625.13 316.31"/><path class="cls-3" d="M626.58,324.59c-.3-.77,0-1.28-.27-2.06C624.72,322.48,625.25,323.53,626.58,324.59Z"/><path class="cls-3" d="M606.85,322.42l-1.63,1.24,1.43.3A1.54,1.54,0,0,1,606.85,322.42Z"/><path class="cls-3" d="M597.07,336c2.43-1.2,2.95-3.26,6.44-2.37.63-2.82-2.11-4.19-2.21-6.52-1.6-.05-.11,3.87-1.34,5.12-1.22-1.84-2,1.16-3.59,1.16A4.77,4.77,0,0,1,597.07,336Z"/><path class="cls-3" d="M585.74,331.17c-1.18.36-1.83,2.33-3.07,1.66-.29-1.32.25-2,1.06-1.91-1.4-2.73-1.14.88-3-.63.21.27.83.62.68,1.35-3.35.37-1,2.95-5.58,2.65-.33,1-.92,1.16-.19,3-3.1-1.66-1.93-2-5.4-3.23.47,1.09,2.23,3.35,3,5.75-5-2.08-3.85,1.8-7.19.1.24-.22.38-.94,1.16-.84-1.43-3.25-1.9,1.29-3.51,1.1l-.81-2.91c-1.13.89-2.73,3.49-5,1.93l-.11-1.55c-2.56,3.27-6.73,3.52-9.17,5.52l-2.09-1.28c-3.13,3.45,4.16-.25,2.75,4.94-2.16-5.13-1.42,2.38-4.31,1-1.72-1.75,1.86-1.83-.08-3.85.41,2.86-.91,1.16-1.82,2.33-.59-2.63-2.56.46-2.78-2.64l-2.55,6.08c-1.14-1.23-2.26-.6-3,.06,2.23-.71.64,4,3.52,4.34,3.22-2.41,9-5.28,14-5.43-.66-3.66,2.92-.92,2.7-4,.48,1.09,1.13,1.93,1.61,3,2.67-1.72-1.32-1.68-1-3.19,1.13-.89,2.85.87,3.15,2.18,2.16-.51-.08-1,.36-3.28l2.64,3.4c6.13-3.34,13.92-8.78,22.06-9.05l-1.36-2.22c3.82.22,3.88-7.2,8.56-3l.33-2.41c-.16,1.37,1.78,3.43,1.44,5.35.65-1.11,1.92-.53,2.62-1.58l-2.05-.59c.5-2.43,2.21-1.6,3.19.06,1.71-3.27-2.86-3.67-4.09-5.52-2.06,5.63-5-3.16-7.78-.18C582.84,329.79,585.45,329.85,585.74,331.17Z"/><path class="cls-3" d="M592.29,336.31a2.57,2.57,0,0,0,.3-.81A2.37,2.37,0,0,0,592.29,336.31Z"/><path class="cls-3" d="M534.65,349.85a3.83,3.83,0,0,0-.95.46C533.57,351,534,350.43,534.65,349.85Z"/><path class="cls-3" d="M596.37,333.42a0,0,0,0,0,0,0,.08.08,0,0,1,0,0Z"/><polygon class="cls-3" points="596.11 326.96 595.14 327.2 595.67 328.25 596.11 326.96"/><path class="cls-3" d="M523.73,350.12l.41,1.25A2.92,2.92,0,0,0,523.73,350.12Z"/><path class="cls-3" d="M496.59,358.23l.61-.13A.45.45,0,0,0,496.59,358.23Z"/><path class="cls-3" d="M433,382.14c-1.5,1.35-3.59,2.88-4.21,5.36l-.29-1.31c-.73.93-3.1,4-.4,5.57l.12-1.26c1.6-2.62,2.31,1.57,4.31,1.8,1.9-1.28,1.52-6.45,3.76-5.92.76-.43,1.05.9,1.13,1.93,2-.26,1.5-4.16,2.63-5,3.67,9.38,4.85-4.52,9.62.67,1.49-1.35,4.09-1.29,5.69-3.9-.39,2.77,2.16-.5,2.56,2.36-1.2-5.77,7.22.38,5.29-6.77,3.67,1,0-.5,4,0,.26.79-.32,1-.51,1.21,1.86,1,1.13-3.7,3.32-.88,3-.39-.15-2,.88-4.47,3.18-.13,2.67,1.08,5.23,3.45-.84-3.43,1.41-2.39,2.26-4.59-.4,0-2.6,0-1.72-1.74,3.54-.58,2-3.09,4.82-5,2.82,3.16-3.11,1.14.63,3.15-1.43,2.37-3,2.7-3.18,5.74a17.66,17.66,0,0,0,8.22-4.87c1.79,0-.25,2,1.14,1.94,3.43.66,3.21-5.23,6.06-4.37l.15,2.06c.57-3,5.3-1.14,7.53-3.42-.67-.85-1.1-1.42-1-2.16,1.54,4.8,2.92-3.73,6.69-1.23a5.2,5.2,0,0,1,2.33-6.36,5.26,5.26,0,0,1,1.39,2.73c-3.25-.9-1.49,4.17-3.14,6.26,1.24-2.14,4.69-1.47,5.49-4.18l.18,2.57c2.56-.44.36-6.08,3.66-4.64l.32,1.81c5-1.93,12.1-.8,14.91-6.07-.12-1.57-3.3-4.25-3.78-5.33-2,2.05-2.62,5.05-4.08,6.92l-.87-2.75c.19,2-1.7,3.87,0,4.93-1.07,1.91-2-2-3.19.12-.8-2.9.14-3.56-.63-5.95l-1.06,1.92c.12-1.28-1.23-.67-1.13-1.94-1.69,4.4-4.38,0-6.79,2.49l1.79,0c.51,1.6-.47,1.75-1,2.44-1.54-2-1.91-1.51-3.74-2-.87,1.68-.65,4.77-2.4,5.33-.63-3.14-3.44-.68-4.61-3.12.62,3.13-3,2.19-2.7,4a1.44,1.44,0,0,1-2.64-.58,4.64,4.64,0,0,1,.53-.75l-1,.19c0-.38-.15-.62-.06-.72-.85.2-.13,2.4-1.7,1.27-.26-.81.33-1,.7-1.45-2.38.21-2.37,5.85-5.12,3.71.11,1.54-2.41,2.51-.8,5.53-1.06-.89-1.64-3.53-3.36-2.46-.18,3.05-2.41-.31-3.26,1.89,1-3.44-.25-.78.51-4-1.64-.7-2.33,3.56-4.71,3.77-.44-.56-.69-1.36-1.13-1.92-.51,1.22-.73,3.74-2.27,1.76l.73,1.88c-1.82-.48-3.72.82-6-.75l-.69,4.27c-3.8-3-6.07,1.55-7,5.53-1,.14-2.59-.06-2.85-.86.12-.36.3-1,.56-1.66-1.41.31-3.76-1.22-3.53,2.07-1.09,1.38-1.71-1.75-2.92-1.9-1.42,5.2-9.4-.39-8.1,6.41,1.16-.36,3.79.22,5.91-.8-.33,1,.55,2.11-.22,2.52-2.11,1-4.05-1-5.91.81l-1.11-4.23C438.11,376.12,437.9,387.09,433,382.14Z"/><path class="cls-3" d="M461.39,372.86l-2.3-1.57.75,1.73A1,1,0,0,1,461.39,372.86Z"/><path class="cls-3" d="M459.84,373a3.92,3.92,0,0,0-.66,1.16,1.11,1.11,0,0,0,.86-.72Z"/><path class="cls-3" d="M426.79,385a1.76,1.76,0,0,0-1.76.53C425.66,385.84,426.64,385.71,426.79,385Z"/><polygon class="cls-3" points="425.33 386.82 426.35 387.21 426.31 386.69 425.33 386.82"/><path class="cls-3" d="M379.47,406l-1.75,3.36c-.87-1.12-3.29,1.38-3.07-1.14-.54,3.52-4.85,1.7-2.18,5.61,7.08-4,18.37-4.89,25.87-11.64l-.84,2.2c3.42-4.95,7.49,1.7,8.91-6.31l.66,3.65c2.41.3,2.33-6.36,5.73-3.38l-.68-1.36c.57-.19,1,.37,1.6.2l-.44-.57c1.05-1.92,2.05-2,3.87-1.57.47,1.08-.55.7-.92,1.16,1.07.9,1.47-1.86,2.64-2.23,1.24.67.52,1.61.55,2.13,3-2.72,5.81.44,6.57-5.6-.08-1-1.5-1.47-.37-2.35-2.85-.86-4.05,1.82-5.69,3.92l.58-.19c0,5.62-1.65-.72-3.62,2.36,0-2.3,1.21-2.65,1.31-3.92-4.38-2.85-3.46,4.42-7.16.13l.18-.23c-.62-.34-1.13.88-1.68,1.58.44.57,1.24.67,1.87,1-.55.72-.18,3.06-.11,4.08-1.53-2-.69,1.44-2.33.74-1.14-1.93.43-2.25.54-3.51L408.45,396c-1.35.6-2.12-1.8-3.18-2.69-.66,2,1.06.89.84,3.42-2.34-2.07-8.51.75-10.89,3.77.95-.65-.36-2.34,1-2.42-.61-.33-1.89,1.3-1.38,2.89-1.64,2.11-4.65,2-7.09,1.18l1.1,1.41c-.77,3.24-4.83-.6-7.24,1.92l.08,0c-.83.65-.35,4.8-2.34,4.57C379.22,408,380.2,407.85,379.47,406Z"/><path class="cls-3" d="M370.42,413l.22-2.53c-1.21-.15-1.58,3.13-.88,4.49.55-.7,1.8,0,1.5-1.34C371,413.38,370.79,412.58,370.42,413Z"/><path class="cls-3" d="M351,419.85c-.22.64.16,1.44.21,2.12,4-1.65,8.86-4.22,11.08-3,1.61.2.77-3.23,2.26-4.59l1.54,2c.47-1.73,4.17-.26,1.93-3.59-.21-.29-.25,2-1.27,1.62l-.29-1.31-1.72,1.06.07-1.78c-3.29-1.42-.21,5.35-3.83,4.91l-1-3.2c-2.15.51-2.84,1.95-5.33.61,0,0,.52,1.61.66.86a2.88,2.88,0,0,1,1.35,2.21c-2.34,3.54-.14-2.06-2.77-2.64-2,3.08-6.51,6.61-8.84,4.54a2.6,2.6,0,0,1-.88,4.49c-1.06-.9-.15-2.06-.22-3.1-.81-.1-1.65-.72-2.19,0a4.41,4.41,0,0,1,.41,5.67C346.35,427.46,347.26,420.67,351,419.85Z"/><path class="cls-3" d="M350.8,422.9a1,1,0,0,0,.39-.93c-.48.19-1,.39-1.41.54Z"/><path class="cls-4" d="M1059.86,404.34c.39.68,50.24-29.93,50.64-29.23.22.38-14,29.35-13.79,29.67.37.64,55.66-33.49,56.25-32.47.42.74-31,33.43-30.71,33.95s55-32.89,55.47-32c.23.4-11.25,30.92-11.07,31.24.54.94,51.18-30.55,51.62-29.8.31.54-11.41,30-11.22,30.36.49.84,53.31-31.56,53.64-31s-11.47,28.78-11.22,29.21c.57,1,51.91-31.3,52.49-30.3.27.48-14.65,31-14.4,31.41.53.91,50.15-29.89,50.56-29.19.27.47-19,31.28-18.74,31.74.6,1,53.84-32.16,54.3-31.35.29.5-21,34.08-20.7,34.62s46.46-27.67,46.83-27-29.1,37.43-28.81,37.93,25-15,25.25-14.57-28.08,37.53-27.67,38.25c.33.56,36.62-21.62,36.83-21.26.33.58-32.38,42.34-31.89,43.17.37.66,34.06-20.22,34.3-19.8s-35.59,35.93-35.23,36.55c.24.42,38.33-22.91,38.67-22.33s-38.19,40.74-37.64,41.69c.3.51,40.31-24,40.63-23.45S1373,523.18,1373.53,524c.35.61,37.22-22.09,37.48-21.64.47.82-41.53,43.51-41.13,44.21.24.43,39.1-23.56,39.53-22.82.54.93-40.12,38.22-39.69,39,.35.6,42-24.86,42.24-24.39.42.72-42.93,49-42.49,49.76.33.58,35.39-21,35.65-20.58s-31.38,41.52-30.89,42.37c.3.51,27-16.23,27.29-15.76"/><path class="cls-4" d="M1296.33,653.91c.5.88,59.47-35.57,60-34.65.39.68-30.44,35.17-30.14,35.69.68,1.18,79.53-47.38,80.16-46.28s-54.74,45.43-54.2,46.37c.39.69,45.45-27.14,45.84-26.46.17.28-11.45,26.22-11.23,26.6.08.14,7.35-4.49,7.46-4.31"/><path class="cls-4" d="M1121,728.3c.1.18,12.74-7.59,12.85-7.41s-14.44,22.74-14.24,23.07c2.16,3.74,205.29-123.61,207.49-119.8,1.87,3.23-191.21,119.8-189.25,123.21,1.33,2.3,157.63-93.1,158.54-91.53,1.54,2.66-132.32,91.3-130.78,94,.78,1.34,124.16-73.85,125.1-72.23,1.09,1.89-98.91,72.84-98.08,74.28S1296.14,690.07,1297,691.6c.76,1.33-68,59.79-67.2,61.11s64.6-38.68,65.2-37.64c.3.52-33.39,36.2-32.93,37s50.93-30.25,51.29-29.62c.22.38-.4,22.87-.26,23.11s15.1-8.95,15.2-8.78"/><path class="cls-4" d="M1028.56,382.74c.09.17,3.37-2.19,3.47-2,.21.35-3.5,29.07-3.27,29.47.38.65,57.29-34.1,57.73-33.33.68,1.19-62.29,62.91-61.41,64.43.33.57,39-23.32,39.36-22.73s-34.62,34.52-34.3,35.07,30.15-18.21,30.5-17.6-29.49,38.83-29.14,39.44,34.33-20.64,34.69-20-34.6,33-34.18,33.76,35.87-21.42,36.17-20.89-34.72,34.88-34.47,35.31c.42.73,33.2-19.9,33.52-19.35s-34.11,44.58-33.68,45.33c.3.52,38.74-22.88,39-22.5.56,1-38.89,49.63-38.35,50.57.31.53,34.45-20.57,34.74-20.06s-38.42,35.38-38.13,35.89,31.25-19,31.66-18.28c.57,1-36.2,44.77-35.89,45.3s37.7-22.4,38-21.93-39.69,49-39.35,49.57,35.12-21,35.44-20.46c.45.77-36.52,49-35.93,50,.21.35,38.69-23.16,39-22.54.23.39-15.65,27.52-15.33,28.08.52.9,53.26-31.49,53.58-30.94s-20.08,31.42-19.76,32,57.94-34.79,58.52-33.78c.26.44-24.75,28-24.41,28.55.47.83,49.6-29.79,50.1-28.92.25.43-11.53,33.35-11.24,33.84.73,1.27,67.69-40.46,68.29-39.43s-69.68,64-69.13,65c.92,1.58,109-65.5,110.13-63.58s-114.21,83.67-113.3,85.24c1.29,2.24,151.59-91,153.09-88.39"/><path class="cls-4" d="M1061,404.59s2.19-1.3,2.2-1.27c.31.53,31.07.78,31.32,1.22,0,0,1.47-.87,1.48-.86.21.38,33.45.9,33.69,1.32,0,0,1.07-.66,1.09-.63.24.41,35.13.55,35.4,1,0,0,1.5-.9,1.51-.88.2.35,32.87.5,33.17,1,0,0,1.5-.9,1.52-.88.22.39,38.26.82,38.54,1.3,0,0,1.45-.87,1.46-.85.19.33,26.89,1.11,27.13,1.53,0,0,1.45-.87,1.47-.84.22.38,25.62,4.3,25.88,4.75,0,0,4.56-2.67,4.58-2.65.19.34,27.95,3.8,28.14,4.13,0,0,4.83-2.82,4.85-2.8.13.24,25.76,5.24,25.9,5.48,0,0,3.92-2.31,3.94-2.28.14.24,5.33,15.81,5.47,16.06,0,0,.65-.38.65-.37.13.22-1,22.08-.77,22.42,0,0,5.88-3.4,5.88-3.39.25.42-2.63,26.74-2.39,27.15,0,0,.86-.51.86-.5s-.56,15.53-.41,15.79c0,0,.86-.52.87-.5.17.29-1,19.93-.86,20.22,0,0,.88-.53.89-.51.17.29-1.73,18.3-1.57,18.58,0,0,2.67-1.57,2.68-1.55.22.38-6.66,31.36-6.47,31.69,0,0,3.85-2.25,3.86-2.23.1.17-3.8,16.57-3.67,16.8,0,0,2.18-1.28,2.19-1.27.16.29-4.57,27.63-4.38,28,0,0,3.76-2.2,3.77-2.18.22.39-1.3,23.81-1.14,24.08,0,0,.88-.53.89-.51"/><path class="cls-4" d="M1061.83,402.4s3.07-1.82,3.09-1.78c.13.22-5.27,18.51-5.1,18.8,0,0,3.07-1.78,3.07-1.77.12.21-1.13,19.9-1,20.19,0,0,1.15-.69,1.16-.68.1.18-.42,18.1-.25,18.4,0,0,4.37-2.53,4.38-2.52.14.25.36,24.39.6,24.8,0,0,.86-.51.87-.5s-.65,15.37-.53,15.57c0,0,.87-.52.87-.51.13.23-1.07,14.91-.93,15.17,0,0,.89-.53.89-.52.18.31-4.44,18.24-4.32,18.46,0,0,5.15-3,5.16-3,.11.19-3.36,18.54-3.23,18.77,0,0,.92-.54.92-.53.19.32-4,30.59-3.84,31,0,0,1-.56,1-.55.15.24-4.2,22-4,22.31,0,0,1-.58,1-.56.19.32-5.3,25.27-5.1,25.61,0,0,4.41-2.56,4.42-2.55.1.19,1.62,18,1.8,18.31,0,0,2.27-1.35,2.28-1.32.34.58,35.69-.72,36-.11,0,0,1.69-1,1.71-1,.33.57,36.45-1.91,36.75-1.38,0,0,1.69-1,1.71-1,.43.74,47.82-2.19,48.27-1.41,0,0,3.43-2,3.44-2,.26.44,33.85.8,34.11,1.24,0,0,7.23-4.21,7.25-4.18.29.5,39.37,2,39.67,2.5,0,0,2.42-1.44,2.44-1.41.47.81,56.07-4.08,56.48-3.36,0,0,.08-.08.09-.06.23.4,31.26,4.23,31.43,4.53,0,0,1.9-1.15,1.92-1.11"/><path class="cls-4" d="M1034.55,379.81s3.1-1.82,3.11-1.8c.45.78,53.75-3.62,54.27-2.73,0,0,1.68-1,1.69-1,.18.32,33.67-1.68,34-1.13,0,0,2.65-1.56,2.66-1.54.17.31,18.29,4.22,18.41,4.43,0,0,3.55-2.07,3.56-2.05.11.18,19.43,2.5,19.53,2.68,0,0,4.18-2.45,4.19-2.42.39.68,39-.07,39.3.45,0,0,1.46-.87,1.47-.85.24.42,48.26-.27,48.54.2,0,0,1.82-1.08,1.84-1.06.21.38,39.52,4.79,39.86,5.38,0,0,6.74-3.93,6.75-3.9.46.78,47.13,1.59,47.48,2.19,0,0,1.89-1.12,1.9-1.1.17.3,24.11,6.48,24.31,6.83,0,0,4.92-2.85,4.93-2.84.16.29,8.35,15.67,8.46,15.86,0,0,2.69-1.57,2.7-1.55.2.35-.57,23.34-.41,23.6,0,0,.78-.46.79-.45.21.36,4.14,26.34,4.29,26.59,0,0,.81-.48.82-.47.2.35,1.26,24.55,1.5,25,0,0,.84-.5.85-.49.21.37-3.75,21.7-3.57,22,0,0,7.12-4.12,7.13-4.11.19.34-5.67,22.07-5.56,22.27,0,0,2.65-1.55,2.66-1.53.14.24-4.42,16.11-4.26,16.38,0,0,.49-.3.49-.28.18.3-1.21,20.31-1.06,20.57,0,0,1.41-.83,1.41-.82.11.17-1.17,17.25-1,17.49,0,0,3.48-2,3.49-2,.3.52-7.59,28.62-7.3,29.12,0,0,2.6-1.52,2.61-1.51.2.34-4.92,26.56-4.76,26.84,0,0,.94-.56.94-.54.17.28-2.07,21.39-2,21.59,0,0,3.46-2,3.47-2"/><path class="cls-4" d="M1297.16,654.28s3.1-1.81,3.11-1.79c.36.62,35.55,4.21,35.73,4.52,0,0,1.47-.88,1.49-.85.28.49,29.08.2,29.24.47,0,0,3.46-2,3.48-2"/><path class="cls-4" d="M1289.48,657.09s4-2.33,4-2.3c.15.25-1,22-.85,22.21,0,0,5.23-3,5.24-3,.2.34-6.82,19.84-6.68,20.08,0,0,3.45-2,3.46-2,.18.31-1.76,25.53-1.61,25.78,0,0,1-.58,1-.57.27.47,27,7.9,27.18,8.19,0,0,3.1-1.8,3.11-1.79.12.22,2.36,13.39,2.47,13.58,0,0,2.82-1.67,2.84-1.64"/><path class="cls-4" d="M1125,725.46s4.7-2.77,4.72-2.73c.17.3-3.39,19.94-3.26,20.17,0,0,3-1.76,3-1.75.13.23,13.38,7.08,13.5,7.28,0,0,1.19-.7,1.2-.69.18.31,30.68,3.4,30.91,3.81,0,0,1.22-.73,1.23-.71.41.71,44.09,2.75,44.37,3.24,0,0,1.4-.84,1.41-.82.22.39,24.86-.38,25.06,0,0,0,2-1.19,2-1.16.35.62,37.17-1.65,37.49-1.11,0,0,1.4-.85,1.42-.82"/><path class="cls-4" d="M1131.49,722.68s4.32-2.54,4.34-2.51"/><path class="cls-4" d="M1026.52,383.37s2.06-1.24,2.08-1.2c.19.33-.48,27.36-.27,27.73,0,0,.93-.55.94-.54.24.43-5,31.13-4.68,31.68,0,0,5.65-3.28,5.65-3.27.14.24-2.24,16.32-2.13,16.5,0,0,.85-.51.86-.49.19.33,0,22.22.2,22.5,0,0,.85-.51.86-.49.11.19-.3,13.92-.18,14.13,0,0,.86-.51.87-.5.11.2-.4,15.46-.32,15.6s.86-.52.87-.51c.13.23,1.66,24.49,1.85,24.82,0,0,2.23-1.31,2.24-1.3.29.5-6.17,31.35-5.89,31.83,0,0,.9-.54.9-.52s-1.72,14.67-1.64,14.82.91-.55.92-.53c.26.46-3.68,26.37-3.54,26.62,0,0,3.31-1.93,3.32-1.92.16.28-4.86,29.29-4.7,29.56,0,0,3.23-1.88,3.23-1.86.23.39-4.23,31-3.93,31.51,0,0,4.16-2.42,4.17-2.41.14.26,18.22,8.24,18.42,8.59,0,0,3.59-2.09,3.6-2.07.23.41,29.88,2.71,30.13,3.15,0,0,4.45-2.6,4.47-2.57.17.3,25.44-.77,25.67-.37,0,0,1.64-1,1.65-1,.3.52,42.21,2.2,42.55,2.79,0,0,5.14-3,5.15-3,.15.27-5.07,27.61-4.91,27.89,0,0,.9-.54.91-.52.19.32-5.32,22.55-5.17,22.81,0,0,6.94-4,6.95-4"/><path class="cls-4" d="M1161.3,451.68c0,.09,9.79-5.79,9.85-5.68.24.41-16.11,30.52-15.77,31.11.47.81,43.72-26,44-25.44.5.86-34.6,45.35-34.15,46.13.89,1.53,74.87-44.69,75.5-43.59.82,1.43-74.72,56.29-74.08,57.4.94,1.63,87-52.52,88-50.78.7,1.21-83.3,67.59-82.71,68.62s87.73-52.05,88.33-51c.72,1.24-51.31,52.8-50.93,53.47.52.9,42.3-25.47,42.76-24.69s-31.85,39.36-31.6,39.8c.53.91,44.81-26.54,45.1-26s-33.09,38.07-32.75,38.65,40-24.24,40.49-23.38"/><path class="cls-4" d="M1170.92,446.63s1.35-.8,1.36-.78c.17.29,32.33,6.08,32.63,6.6,0,0,1.23-.74,1.24-.72.36.62,38.46,4.73,38.72,5.19,0,0,7-4.05,7-4,.16.26,9.07,12.23,9.22,12.5,0,0,.78-.47.79-.45.2.34-15.49,24.48-15.34,24.74,0,.05.62-.41.65-.37s0,15.78.2,16.06c0,0,.85-.51.86-.49.17.29,19.64,12.28,19.85,12.65,0,0,2.65-1.55,2.66-1.53.13.22,3.91,20.73,4.12,21.09,0,0,1.15-.68,1.16-.67"/><path class="cls-4" d="M1161,451.27s4-2.35,4-2.32c.2.35-10.4,27.35-10.12,27.84,0,0,4.12-2.39,4.13-2.38.22.38,1.77,24.93,2,25.28,0,0,.81-.49.82-.48.12.21,1.71,13.43,1.8,13.59s.79-.47.8-.46c.12.21,6.86,16.67,7,16.84,0,0,1.81-1.06,1.82-1,.31.54,31.58,5.44,31.75,5.73,0,0,.78-.47.79-.46.16.29,12.13,14.33,12.22,14.5,0,0,.8-.47.8-.46.13.21,12.93,12,13,12.2,0,0,.82-.49.83-.48"/></g></g></svg>