<svg xmlns="http://www.w3.org/2000/svg" viewBox="0 0 698.14 925.68"><defs><style>.cls-1{fill:#4981a9;}</style></defs><title>rl-process-impact</title><g id="Layer_2" data-name="Layer 2"><g id="Layer_2-2" data-name="Layer 2"><path class="cls-1" d="M273.17,795.25c194.11,17,394-157.18,421.35-333.16,28.78-185-118-384-311.45-422.27,1.64-7.36,3.3-14.71,5.19-22C392.67.79,368-7.7,360.61,9.16a177.89,177.89,0,0,0-8.73,25.89,341.13,341.13,0,0,0-88.36,2.23c-18.81,2.95-13.27,28.92,5.23,26.7a340.43,340.43,0,0,1,76.59-.48c-.61,3-1.22,6-1.84,9-1.93,9.3-7.43,23.49-8.52,35.7-1.61,4.06-3.31,8.11-5.2,12.16a10.86,10.86,0,0,0-.71,2C200.21,119.14,76,188.23,22.58,303.44c-61.74,133.26,10,289.45,131.59,363.48,24.77,15.09,53.66,27.69,83.72,33.87.83,5.37,4.84,10.14,12.47,10.7,2.41.18,4.8.24,7.2.37-3.59,12.47-9.28,31.86-14.23,52.68A324.7,324.7,0,0,1,195.69,756c-13.23-3.46-19.51,13.76-7.25,18.79a286.7,286.7,0,0,0,49.49,15.08,253.56,253.56,0,0,0-4.1,32.57c-2.51,7.25-4.89,14.64-6.6,21.81-33.31,13.91-54.71,36.8-40.78,76.07,2.17,6.14,8.57,6.41,13.51,3.74a16,16,0,0,0,6,0C292.06,907,377.47,887.26,464.83,878c40.26-4.27,80.45-10.09,120.24-17.77,31-6,74.1-12.43,97.85-34.65,20.37-19.07,1.32-40.89-18.76-49.52-45.62-19.61-105-3.86-151.63,7.31-49.29,11.81-97.71,30.49-148.25,36.28-23.81,2.73-63,5.12-98.88,13,2.07-10.08,3.6-19.93,5.47-27.67C271.67,801.76,272.4,798.51,273.17,795.25ZM370.53,88c2.21-6.51,4.1-13.14,5.82-19.82C553.89,103.81,681.51,278.26,666,450.31,650.09,627,462.59,767,279.54,766.54c3.75-18,6.89-36.15,9-54.34,159-5.25,285.2-117.54,310.4-267.29,24.27-144.15-60.42-288.75-217-317.2-7.73-1.4-15.48-2.48-23.22-3.34C367.47,116.09,368.77,99.35,370.53,88Zm-247.69,520c-50.21-45.09-81-106.72-90.2-171.44C26,390.07,34.35,346,53.63,306.93a7.88,7.88,0,0,0,.86,1.18C71.64,324.15,70,360,73.24,381.17c3.62,23.59,8.4,53.13,25,72.09C152,514.68,218.1,550.55,239,632.86c2.46,9.69,17.25,6.62,16.22-3.17-.11-1.05-.34-2-.47-3.06h0c20.6-5.74,34.68-32.33,45.74-47.83,18.18-25.48,33.58-56,34.46-86.6a65,65,0,0,0-1.59-16.93c4.22-6.7,1.47-15.81-8.21-18-23.07-31.52-81.7-31.9-120.4-32.14-41.69-.25-121.84-22-81.9-71.41,21.18-26.21,50.81-45.17,71.12-72.32,12.43-16.61,59.21-100.38,25.85-114.72a320.16,320.16,0,0,1,66.29-15.32c39.46-4.79,76.31-1.62,109.62,7.9a8.34,8.34,0,0,0-1.52,1.2c-20.79,22.79-37.31,48.1-43.47,77.44-1.8,8.59,9.72,14.71,17.36,10.77,29.21-15.06,42.92,3.52,71.56,6.31,12.8,1.24,27.54-2.93,40-5.33s27.65-2.8,39.41-7.71a246.5,246.5,0,0,1,31.32,52.34c-56.8-23.68-186-38.93-200.4,18.82-10.53,42.31,45.1,77,82.12,83.23,43.67,7.37,68.27,16.41,75.9,62.16,4.22,25.26-2.67,59.59,21.9,76.58a12.41,12.41,0,0,0,7.3,1.94,295.4,295.4,0,0,1-45.95,62.65C438,655.09,365.58,679.71,290,684,227.36,668.11,172,652.06,122.84,607.94ZM641.31,798c14.29,3.05,18.62,6.37,17.37,9.66a42.51,42.51,0,0,0-6.11-4.38,16.5,16.5,0,0,0-9.07-4.67c-1-.18-2-.29-3-.46-.75-.21-1.48-.43-2.24-.63C639.28,797.73,640.3,797.81,641.31,798ZM291.36,878c2.75-.76,5.52-1.43,8.28-2.14,2.49.38,5,.67,7.5.94-10.43,1.85-20.85,3.66-31.28,5.57C281.21,880.82,286.47,879.36,291.36,878Z"/></g></g></svg>