<svg xmlns="http://www.w3.org/2000/svg" viewBox="0 0 707.77 599.17"><defs><style>.cls-1{fill:#827792;}</style></defs><title>rl-process-analysis</title><g id="Layer_2" data-name="Layer 2"><g id="Layer_2-2" data-name="Layer 2"><path class="cls-1" d="M705.89,553.53c-.21-6.15-.73-12.1-3.19-17.25,1.23-3.45-.35-8-5.11-8.35q-63.42-4-126.39-7.31c-.35-.28-.64-.61-1-.89a2.15,2.15,0,0,0-3.17.67q-36.84-2-73.63-3.83c-1.24-1.26-2.53-2.46-3.76-3.72a2.65,2.65,0,0,0-4.08,3.36c-37.7-1.83-75.41-3.73-113.07-5.18-.32-.45-.71-.85-1-1.31a2.36,2.36,0,0,0-4.37,1.11c-22.27-.85-44.53-1.73-66.81-2.42l-.78-.65a1.91,1.91,0,0,0-2.83.54c-27.26-.84-54.5-1.74-81.81-2.31a1.52,1.52,0,0,0-1.33,0c-64.42-1.34-129-2-194.07-1.5-.12,0-.16.11-.28.11-1.57-3.05-5.81-3.82-8.68-1.74-.89-.85-1.76-1.72-2.66-2.56a1.86,1.86,0,0,0-2.77,2.47C6,503.9,7,504.93,7.89,506.06-.59,519.77-.94,541.66.91,557c-1.59,1.86-.74,5.73,2.24,5.6,30.7-1.33,61.29-1.26,91.83-.37.12,0,.23.09.34.12s.29-.1.46-.1c30.91.92,61.75,2.89,92.57,5.15a2.65,2.65,0,0,0,2.89.22c39.85,3,79.69,6.42,119.57,9.74,1,.62,2,1.32,3,1.9a3.27,3.27,0,0,0,4.8-1.3q26.22,2.16,52.48,4.07c.17.12.32.27.48.39a2.93,2.93,0,0,0,3.57-.07c3.78.27,7.55.63,11.33.87,53.49,3.45,110.25,1.41,166.49,2.13,1.81,1.4,3.58,2.9,5.49,4.13,2.26,1.47,5.94-1.22,4.2-3.76,0-.07-.11-.12-.16-.19,33.69.65,67.11,2.45,99.43,7.29a55.42,55.42,0,0,0,9,5.9,3.42,3.42,0,0,0,5.13-3.3c6.36,1.15,12.77,2.16,19,3.59a4.49,4.49,0,0,0,4.69-1.59c3.71,1.34,8.77-1.31,7.9-6.49C705.6,578.61,706.29,566,705.89,553.53Zm-11.84,5.4c-2.85-4.09-7-7.5-10.58-10.83a84.39,84.39,0,0,0-13.07-9.92c6.87.5,13.73,1.05,20.6,1.46A74.86,74.86,0,0,1,694.05,558.93Zm-30.6-21.24a1.92,1.92,0,0,0,.88,1.57A99,99,0,0,1,679,552.1c4.09,4.27,7.46,9.83,12.45,13a2.65,2.65,0,0,0,2.79,0c.12,4.77.19,9.56.45,14.27-6.65-7.45-14.62-14.1-21.31-21.58a276.56,276.56,0,0,0-20-20.91C656.73,537.23,660.09,537.44,663.45,537.69ZM11.34,555.25a101.2,101.2,0,0,1,1-16.6c2.85,3.3,5.48,6.79,8.21,10.18.81,1,2.53,3.42,4.56,5.63C20.52,554.78,15.94,554.84,11.34,555.25Zm23.4-1.35a7.44,7.44,0,0,0-1.68-3.39c-2.73-3.11-5.47-6.19-8.2-9.29-2.94-3.34-6.69-8.26-10.95-11.29,1-4.18,2.39-8.28,3.63-12.4,6.27,7,12.74,13.87,19.41,20.47,4.4,4.35,10.15,10.92,16.42,15.28C47.16,553.52,41,553.53,34.74,553.9Zm31.77-1c-.05-.06,0-.15-.09-.2-7.18-8.3-18.2-14.47-26.41-21.83-7.1-6.37-13.93-13-20.77-19.64.05-.23.14-.45.18-.69,7.74.48,15.48.76,23.22,1.13a2.43,2.43,0,0,0-1.78,4A322.69,322.69,0,0,0,68.94,545c2.66,2.47,5.65,5.22,8.78,7.86C74,552.88,70.25,552.77,66.51,552.86Zm25.7-.07c-6.29-4.24-12.94-8-18.91-12.87-10.34-8.36-19.57-18-28.81-27.53a2.33,2.33,0,0,0-1.7-.74c10.94.51,21.88.86,32.83,1.19,2,7.5,11,14.52,15.84,19.52,6.88,7,14.36,14.71,22.54,20.83C106.74,553,99.48,552.8,92.21,552.79Zm35.68.65c-.3-.49-.39-1-1-1.43-10.27-6.56-19.25-14.68-28.15-23q-6.36-5.92-12.37-12.23c-.71-.73-2.68-2.26-4.41-3.74,8,.21,16,.19,24,.33.14.32.08.63.39.94,9.24,8.93,18.68,17.65,28.15,26.35,4.37,4,8.89,9.08,13.69,13.62C141.44,554,134.67,553.65,127.89,553.44Zm33.46,1.43c-5.92-7.15-15-13-21.62-18.84q-12.7-11.22-25.38-22.51c6.15.09,12.3.06,18.45.12a1.65,1.65,0,0,0,.5,1.54c14.21,13.37,28,27.31,42.36,40.64C170.89,555.54,166.12,555.12,161.35,554.87Zm25.56,1.7C170.57,542.34,155,527,138,513.67c7.76.05,15.53,0,23.29.06,5.26,9.52,18.19,18.11,25.6,24.6q8.7,7.62,17.9,14.65c2.17,1.67,4.59,3.81,7.19,5.46C203.6,557.83,195.26,557.12,186.91,556.57Zm35,2.62a2.74,2.74,0,0,0,.07-2.63c-2-4.19-6.68-6.1-10.41-8.67-6.85-4.72-13.39-9.92-19.91-15.09-6.26-5-12.33-10.15-18.35-15.41-1.3-1.12-2.6-2.39-3.9-3.63h22.3a286.4,286.4,0,0,0,27.36,30c5.68,5.42,11.81,11.38,18.27,16.69C232.17,560,227,559.58,221.88,559.19Zm29,2.35c-7.62-7-16.53-12.84-24.39-19.45a280.61,280.61,0,0,1-28.76-28.32h19a283.19,283.19,0,0,0,29.6,32.82c5,4.78,10.77,10.73,17,16ZM280.11,564c-8.74-8-20-14.53-28.56-22a388.33,388.33,0,0,1-28.92-28.18c7.64,0,15.28.09,22.91.11a2.29,2.29,0,0,0,.42,2.66c14.73,15.86,30.27,34,47.71,48.49C289.15,564.67,284.63,564.35,280.11,564Zm65.46,5.08c-2.9-4-8.25-6.95-11.89-9.88-7.59-6.1-15.07-12.33-22.53-18.59-11.45-9.6-22.63-20-36.41-25.78-1.5-.63-2.58,1.69-1.23,2.52,13,8,24.47,21,35.83,31.16,4.7,4.18,12.43,13,20.28,19.36-6.95-.55-13.91-1-20.86-1.59-8.62-6.83-17.29-13.53-25.4-21.1-10.93-10.19-21.23-21-32.16-31.22q24.41.08,48.8.39c18.28,18.29,36.48,38.29,56.21,55.47C352.67,569.53,349.12,569.32,345.57,569.05Zm24.31,1.69c-19.13-19.94-41-38.69-62.34-56.35,7.62.11,15.23.44,22.84.61a2.19,2.19,0,0,0,.62,1.06c14.11,10.84,25.57,25.14,37.53,38.21,5.22,5.69,11.06,12.76,18,17.4C381,571.34,375.41,571.11,369.88,570.74Zm46.34,2.62c-5.18-.21-10.36-.6-15.53-.88a3.26,3.26,0,0,0-1.25-2.39c-22.78-16.07-40-38.14-61.92-54.9,10.76.27,21.52.43,32.28.86,7.9,13.19,17.91,25,28.59,36,6,6.21,13.82,15.15,22.15,21.54Zm19.23.86c-7.88-10.34-22.12-18.33-31.54-27.15a234.41,234.41,0,0,1-27.21-30.66c7.95.36,15.9,1,23.86,1.44,15.1,20.49,34.54,38,51.47,57.12C446.5,574.72,441,574.46,435.45,574.22ZM461,575.38a3.15,3.15,0,0,0-.41-1.54C445.11,553.32,424,537,406.25,518.2c6.67.38,13.34.93,20,1.36,11.62,11.06,22.31,23,33,34.93,5.91,6.6,12.76,15.77,20.67,21.74C473.64,575.93,467.33,575.67,461,575.38Zm31.26,1.4a3,3,0,0,0-.39-1C483,565.49,471.12,557,461.59,547.05c-8.76-9.16-17.48-18.45-26.94-26.92,8.25.55,16.5,1.23,24.75,1.83,18.09,17.5,35.51,42.09,58.41,52.54,2.7,1.24,5.43-2.9,3.21-4.88-10.57-9.47-22.4-17.37-32.9-27.06-7.29-6.74-14.45-13.57-21.92-20.1,8.92.66,17.83,1.4,26.74,2.1,9.94,11.18,20.3,22,30.84,32.59,7,7.08,14.08,14.9,21.66,21.9Q518.88,578,492.27,576.78Zm65.34,2.67c-8.41-9.92-19-18.46-28.27-27.28s-18.16-17.86-27.12-26.89L523.93,527a2.09,2.09,0,0,0,.66,1.93c9.57,9.51,18.76,19.37,28,29.2,6.36,6.76,13,16,20.9,21.75C568.2,579.75,562.91,579.64,557.61,579.45Zm24.08.71a2.28,2.28,0,0,0-.25-1.29c-5.69-9.41-16.52-17-24.26-24.82-8.83-8.95-17.72-17.84-26.86-26.49l19.16,1.55c9.35,10.15,18.6,20.38,27.68,30.79,5.2,6,11,14.45,17.57,20.65Zm24.56.67c-5.53-9.38-16.63-17.84-23.83-25.65-7.94-8.62-15.92-17.28-24.43-25.39,5.6.46,11.2.89,16.8,1.34,9.07,9.22,17.62,19,26.28,28.59,5.52,6.15,12.25,15.16,19.87,21.06C616,580.84,611,580.89,606.25,580.83Zm27.08-.17c-8.08-10.39-20.49-18.94-29.69-28.6-6.57-6.88-13.25-13.65-20.11-20.24,6.1.5,12.21.95,18.31,1.43a449.18,449.18,0,0,1,35,34.11c4,4.23,8.09,8.89,12.35,13.45C643.92,580.65,638.61,580.62,633.33,580.66Zm31,1.15c-8.26-8-17.3-15.56-25.24-23.49-8.58-8.58-17.51-16.63-26.82-24.25,4.55.35,9.1.61,13.64,1,8.74,8.76,17.48,17.48,25.88,26.58,5.82,6.32,11.52,14.15,17.77,21C667.85,582.4,666.15,582,664.37,581.81Zm19,3.45C676.59,574.75,665.39,565.53,657,557c-7.26-7.37-14.84-14.49-22.62-21.36,4.35.33,8.71.6,13.07.93a2.06,2.06,0,0,0,.54,1.68c7.95,8.49,15.32,17.46,22.74,26.42,6.48,7.83,13.47,17.76,22.82,22.24a2.41,2.41,0,0,0,1.83.12c.09.68.08,1.39.18,2.06A88.83,88.83,0,0,0,683.32,585.26Z"/><path class="cls-1" d="M123,307.75a5.9,5.9,0,0,0-4.42-5.68,3.73,3.73,0,0,0-1.28-1.4c-8.41-4.67-19.7-2.73-29.09-3-13.61-.35-26.89-.5-40.25-3.59a4.41,4.41,0,0,0-5.47,4.54,4.78,4.78,0,0,0-3.87,3.07c-15.83,44.81-10.17,100.4-6.81,147.39-3.54,1.1-4.55,6.79-.32,7.82,26.05,6.29,53,7.9,79.48,12,6.06.93,8-5.9,5.3-10C127.71,410.64,125.64,356.83,123,307.75ZM107.89,455.58c-22.8-3.09-45.83-5.07-68.8-6.47,3.06-48.65,5.21-96.89,9.84-145.41,0-.07,0-.09,0-.15,11.22,3.29,22.76,4.82,34.42,6,8.24.81,18.84,2.46,27.67.88C105.09,358.31,113.24,407.29,107.89,455.58Z"/><path class="cls-1" d="M219.63,184a6.1,6.1,0,0,0-.13-1.23c.91-3.57-.79-7.9-5.55-8.16-21-1.13-42.11-1.75-63.12-1.42a4.4,4.4,0,0,0-3.64,7,4.35,4.35,0,0,0-1.3,2.4c-12.16,90-13.78,184.9-15.31,275.66a4.14,4.14,0,0,0,2.87,4.1c.43,1.9,1.69,3.61,4,3.6,10.19,0,20.35,0,30.53.19,8.46.19,19.87,1.65,27.33-2.86a5,5,0,0,0,1.07-1.14c.28,5.56,8.61,6,9.07.21C213,369.68,210.54,276.59,219.63,184Zm-25,270.52c-7.77-2.85-17.8-.55-26-.3a284.25,284.25,0,0,0-28.53,2.11C148.41,366.69,157,273,154.7,183.08c0-.28-.22-.4-.27-.66,17.43,2.09,35,3.54,52.5,4.6-9.08,89.25-9.17,179.12-10.57,268.76A4.52,4.52,0,0,0,194.65,454.52Z"/><path class="cls-1" d="M293.21,418.69a5.12,5.12,0,0,0-.76-5.13,5.61,5.61,0,0,0-2.93-2.45c-16.21-6-34.12-6.74-51.17-8.52a3.18,3.18,0,0,0-3.46,2.53,3.7,3.7,0,0,0-5,.25c-5.08,5.15-4.79,13.3-5.47,20.18-1.07,10.8-1.32,21.65-1.46,32.5a4.26,4.26,0,0,0,4.32,4.49,3.16,3.16,0,0,0,2.41,1.74,485.73,485.73,0,0,0,49.74,5.32,5.32,5.32,0,0,0,3.82-1.25c.19.63.3,1.28.49,1.91a3.69,3.69,0,0,0,7.21-1.58C288.77,451.82,287.33,435,293.21,418.69ZM280.09,458c-15.92-.85-32.22-.9-48.18-.17.81-8.37,1.56-16.76,2.48-25.13.77-7,4-15.83,2.8-23,14.24,4.57,29,6.7,43.3,11.19-3,12.33-2.48,24.86.16,37.22C280.45,458.08,280.31,458,280.09,458Z"/><path class="cls-1" d="M397.79,251.67c.83-5.54-6.27-8.07-10.12-5.56a6.35,6.35,0,0,0-3.74-1.68c-14.14-1.38-31.77-2.68-45.66.81a5.19,5.19,0,0,0-2.39,1.45c-1.2-4.7-8.06-4.86-9.63-.29C313,285.25,313.93,336.16,310,376.9c-1.59,16.69-13.92,84.6,8.29,93.73a2.21,2.21,0,0,0,2.77-1.38c3.74-10.35-1.34-24.84-1.39-35.71-.1-22.12,2-44.19,4.1-66.19,3.33-34.39,17.18-78.56,13-113.87,4.76,3.08,13.93,1.85,18.89,2.09,9.18.44,18.37,1.66,27.56,1.77a7.17,7.17,0,0,0,.83-.15c-12.69,66.67-5.71,135.56-11.27,203.09-.23,0-.4-.17-.64-.2-14.49-1.84-30-1.51-44.56-1.06a4.73,4.73,0,0,0-.52,9.43c14.45,2,29.81,4.06,44.41,3.81.19,0,.31-.08.49-.1.15,5.61,8.67,5.58,9.68-.19C394.45,399.14,386.88,324.79,397.79,251.67Z"/><path class="cls-1" d="M512.59,123.64a6.47,6.47,0,0,0-3.72-5.43,4.49,4.49,0,0,0-2.12-4.35c-9-5.14-21.61-2.78-31.93-2.73-6.18,0-12.37,0-18.53-.42-3.36-.2-6.8-1.35-9.74.26a1.19,1.19,0,0,0-1.16.46c-.26.36-.52.71-.77,1.08a5.89,5.89,0,0,0,3,8.75c9.91,3.3,21.21,3,31.52,3.19,5.45.12,10.9,0,16.35.08,1.6,0,3.18-.09,4.75-.17,4.16,114.32-9.26,226.69-20,340.26-7.15-2.87-16.47-.74-24-.55-11.8.3-23.59-.05-35.38.22,6.13-60.47,10.51-121,12-181.74,1.36-57.09-6.54-110.74,9.83-166.79,1.38-4.72-5.56-8.63-8.06-3.93-21.47,40.51-16.49,89.68-15.17,134.15,2.23,75.17-5.92,149.93-7.12,225-.07,4.26,4.91,5,6.91,2.24,12.07,1.64,24.19,2.54,36.35,3.14,8.47.43,20.45,2.7,27.26-3.29a4.73,4.73,0,0,0,1-1.41,5.22,5.22,0,0,0,6.06-4.34C508,354.51,520.91,238,512.59,123.64Z"/><path class="cls-1" d="M603,286.58a5.23,5.23,0,0,0-6.41-5.15c-.2-.43-.13-1-.47-1.33-5.62-5.07-13-3.43-20.07-3.64-11.36-.34-23.5-.15-34.69-2.37a4.06,4.06,0,0,0-4.38,2,4.76,4.76,0,0,0-5.48.54C515,293,516.31,326.65,515.32,348c-1.82,39.27,1,78.92,2,118.19a4.56,4.56,0,0,0,7,3.88,6.07,6.07,0,0,0,6.31,7.4c16.15-1.35,32.39-.16,48.53.93,8,.54,8.64-12,.67-12.35-17.2-.71-34.38-1.2-51.52.73a5.08,5.08,0,0,0-2.34.85c.12-.37.43-.51.48-.94,3.52-32.43,1.63-65.73,1.92-98.31.27-30.26,5.8-57.33,10.88-86.62,10,3.57,21.24,4.41,31.73,5.74,6.51.82,14.31,3.08,20.79,1.12-9.31,59.42-6.23,124-6.2,183.94,0,5.72,8.26,6.18,8.86.48C600.77,412.49,606.57,347.43,603,286.58Z"/><path class="cls-1" d="M697.45,395.48c-1.16-6.75-11.5-5.73-11.84.94,0,.61,0,1.2,0,1.81-7.48-7.75-24.35-7-33.56-7.42-2.84-.14-18.94-2-26.85.43-.08-.18-.09-.39-.17-.56-2.06-4.75-8.54-2.45-9.11,1.93-1.78,13.72.71,28.77.74,42.71a241,241,0,0,0,2.72,36.51,3.61,3.61,0,0,0,1.95,6.46c.22,0,.43,0,.65.06a4.89,4.89,0,0,0,3.49.29c11.47,1.4,23.19,1.42,34.69,1.4,8.2,0,18.1,1.6,25.67-2.26,1.63,3.08,7.28,3.4,8.58-.62C702.37,452.34,701.83,421,697.45,395.48Zm-36.74,74c-10.74.79-21.52.76-32.28,1.14-.64-13.44-.3-26.85,0-40.31.17-9.29,1-19.44-.48-28.91,6.14,1.4,14.54.7,18.15,1,9.65.75,28.38,1.62,34.29,6.29a4.23,4.23,0,0,0,5.14.17c.33,19.72,2.75,39.07.55,58.94C677.68,466.32,669.12,468.85,660.71,469.47Z"/><path class="cls-1" d="M101.89,212.8c-4.41-18.9-10.71-37.29-15.31-56.15-1-4.11-4.34-5.09-7.31-4.19a4.37,4.37,0,0,0-4.84-2.13c-8.79,1.83-12.6,14.14-15.12,21.55a.45.45,0,0,1,0,.11c0,.25-.27.32-.28.59s0,.47,0,.71a121.73,121.73,0,0,0-5.45,35.86c0,2.82,2.63,3.66,4.52,2.73a4.83,4.83,0,0,0,5.49,5.23c1.37-.12,2.77,0,4.16,0,.12,0,.22.07.35,0l.06,0c1.08,0,2.14-.07,3.23,0-.47,13.95-.29,28.09,2,41.74.83,5,9,4.39,8.88-.71-.39-13.28.34-26.42,1.12-39.6,4.14.63,8.25,1.29,12.25,1.68S102.76,216.56,101.89,212.8Z"/><path class="cls-1" d="M211.25,88a417.81,417.81,0,0,1-17.56-49.44c-2-7.25-12.85-6.78-13.38,1.07-1,14.72-4.74,28.68-9.9,42.45a6,6,0,0,0-.26,2.86c-.69,2.19-.06,5,2.43,6A59,59,0,0,0,183,93.72a5.38,5.38,0,0,0-.55,1.1c-2,7.81-2.48,16-3.25,24-.37,3.74-.81,7.47-1.09,11.22a15.25,15.25,0,0,0,0,4.32c.76,3.51.85,1.61,2.58.61a2.48,2.48,0,0,0,1.65,4.61c6.09-1.09,7.42-6.85,8.34-12.23q2.56-15,5.18-30a5.35,5.35,0,0,0-.07-1.56c2.5.41,5,.88,7.5,1.52A6.71,6.71,0,0,0,211.25,88Z"/><path class="cls-1" d="M288.11,328.23c-4.26-21.5-10.44-42.56-14.81-64-1.05-5.17-9.17-7.39-11.85-2.21-6.42,12.39-9.56,25.39-13.25,38.77-1.38,5-3.39,9.11-3.56,14.3,0,1.78.17,3.91.31,6.05a6.47,6.47,0,0,0-2.24,5.12c0,.54.12,1.07.19,1.61-.15,0-.31,0-.46,0-6.1.26-6.85,9.26-.52,9.64a99.4,99.4,0,0,0,12-.14c-.63,13.57-1.44,27.2-.8,40.68a5.05,5.05,0,0,0,10.08.56c2.19-13.88,2.85-28.09,3.76-42.19A116.15,116.15,0,0,1,281.5,336,6.49,6.49,0,0,0,288.11,328.23Z"/><path class="cls-1" d="M374.11,109c-.71-7.42-10.48-5.9-12.92-.7-6.38,13.57-10.35,28-15.44,42.06-2.17,4.81-4.05,9.76-6,14.73-2.09,5.37,2.51,8.65,6.89,8.14,4.14,1.66,8.77,1.75,13.5,1.49a94.79,94.79,0,0,1,1.5,10.52c.63,9.19,0,18.41.59,27.6.4,6.41,8.82,6.88,9.91.54a171.62,171.62,0,0,0,2-27.46c0-3.54,0-7.45-.25-11.33.54.06,1.09.08,1.62.19,4.83.94,8.59-2.15,8-7.19C381.32,148,376,128.81,374.11,109Z"/><path class="cls-1" d="M499.68,54c-5.87-16.07-8.09-32.21-9.61-49.17-.53-5.87-8.7-6.19-11.55-2.15C467.36,18.55,462.24,37.52,452.12,54c-2.67,4.45.67,8.82,4.52,9.57.15,0,.21.17.36.18a59.38,59.38,0,0,0,13.11-1c-.08,7.24-.24,14.48,0,21.71a4.19,4.19,0,0,0,8.36.45c1.11-7.76,1.79-15.58,2.59-23.39a30.59,30.59,0,0,1,11.24,1.09C497.87,64.39,501.45,58.85,499.68,54Z"/><path class="cls-1" d="M588.65,208.5c-3.86.12-7.76.28-11.64.54,0-1,0-2-.08-3.06-.28-6.58-.67-13.15-1-19.74a39.24,39.24,0,0,0-.57-6.77c-.45-2.06-.81-2.49-1.19-2.27a2.23,2.23,0,0,0-.89-2.34l-.16-.11a2.48,2.48,0,0,0-2.51-.14c-6.78,4.13-5.55,18.15-5.77,26.47-.06,2.09,0,4.18,0,6.27-1.86,0-3.68,0-5.24,0-3.34,0-7.72-.07-10.78,1.79-3.71-.09-7.44,2.64-6.32,7.37,4.2,15.23,9,30.28,13.25,45.51a6.5,6.5,0,0,0,11.65,2.18c10.86-14.75,20.13-30.43,26.71-47.55C595.55,213.1,592.6,208.39,588.65,208.5Z"/><path class="cls-1" d="M679.35,313.75a86.94,86.94,0,0,0-11.73-2.34c-.74-12.4-1.5-24.79-2-37.21-.21-5.4-7.75-5.9-8.41-.46-1.5,12.18-1.46,24.58-1.19,36.92a87.26,87.26,0,0,0-14.11,1.08,6.16,6.16,0,0,0-4.69,7.31c3.45,11.94,8.75,23.26,14.34,34.38.62,2,1.11,4,1.79,6a6.65,6.65,0,0,0,3.18,3.78l1.2,2.35a4,4,0,0,0,4.9,2.25,3.55,3.55,0,0,0,2.13-1c3.72-4,4.87-9.6,5-15.48,5.08-9.67,10.39-19.21,13.41-29.79C684.13,318.47,682.69,314.69,679.35,313.75Z"/></g></g></svg>