<svg xmlns="http://www.w3.org/2000/svg" viewBox="0 0 1246.52 1091.99"><defs><style>.cls-1{fill:#fff;}.cls-2{fill:#ed662d;}.cls-3{fill:#394042;}</style></defs><title>rl-process-implementation_1</title><g id="Layer_2" data-name="Layer 2"><g id="Layer_2-2" data-name="Layer 2"><path class="cls-1" d="M78.36,558.29c.16-.35-.4-.2,0,0Z"/><path class="cls-2" d="M382.92,143.24a4.58,4.58,0,0,0-3.77-8c-55.54,7.62-109.12,26.37-165,34.38-7.13-4.45-15.58-5.67-23.91-4.69-9.17,1.08-16.19,5.49-20.56,11.48a5.08,5.08,0,0,0-3.15-.56c-27.57,4-54.07,12.94-81.18,19.17-26,6-52.61,3.51-77,15.58a3.73,3.73,0,0,0-1.21.95c0-.15-.06-.34-.08-.49-.52-3.92-6.69-3.33-6.83.52-2.73,76.47,25.45,152.07,42,225.92,21.92,97.69,38.11,196.66,58.67,294.65a5.39,5.39,0,0,0,6.34,4.12l2-.41a4.77,4.77,0,0,0,3.76-3.45c54.44-10.64,108.38-23.76,162.79-34.61,68.1-13.57,134.3-40,203.73-45.55,1.93,1.18,4,1.93,6,1.31,1.49-.46,3.11-2.07,2.48-3.83-.06-.14-.17-.24-.23-.38a6.65,6.65,0,0,0,.54-.65c3.31-.53,6.12-3.77,3.88-7.41-18.55-30-16.94-71.5-20-105.66-3.93-43.63-16.79-87.25-26.59-129.86C426,320.72,421,222.43,382.92,143.24Zm63,313.23c-4-2.12-8.59-3.32-12.79-4.89q-12.29-4.59-24.47-9.39c-1.95-8.23-3.93-16.51-5.81-24.65-2.68-11.64-4.94-23.5-7-35.46,3.39,5.62,12.1,9.72,17.28,12.92,5.72,3.53,14.46,10.93,21.48,10.24h0c1.76,8,3.5,15.94,5.33,23.9.93,4.06,1.79,8.14,2.67,12.22a1.69,1.69,0,0,0-1,.19c.87-.59-3.35-2-4.31-2.45A82.44,82.44,0,0,1,428,434c-6.58-4-12.75-8.51-19.2-12.67-1.52-1-3.48,1.17-2.09,2.47,7.17,6.7,15.63,12.31,23.85,17.61,2.63,1.7,9.41,7.13,13.16,4.65C444.43,449.51,445.2,453,446,456.47Zm-8.45,111.34c3.55,2.74,7.24,5.3,10.9,7.89,3.9,2.74,10.77,9.7,16.16,8.31a2.47,2.47,0,0,0,1.24-.83c.44,4.42.81,8.85,1.41,13.24-3.75-3-8.87-4.91-12.82-7-5-2.73-10.11-5.15-15.21-7.47-.77-5-1.85-10-2.72-15.06C436.84,567.15,437.15,567.53,437.51,567.81Zm-1.86-5.46c-1.29-7.2-2.84-14.38-4.29-21.58,7.4,8.79,16.9,16.47,25.74,23.45a38.88,38.88,0,0,0,7.44,5.14c.3,3.44.58,6.81.9,10.28-.21-.15-.32-.36-.61-.45s-4-3-5.27-3.7c-4-2.23-7.87-4.59-11.79-6.92A68.19,68.19,0,0,0,437.26,563Zm15.53,32c5.13,3.3,10.7,8.36,16.86,9.23.06,0,.1,0,.15,0a156.53,156.53,0,0,0,4.07,18.07c-3.77-2-7.41-4.35-11-6.64A195.33,195.33,0,0,0,444,605c1.19-2.37.27-5.6-2.39-6.46-.51-4.05-1.16-8.11-1.75-12.16C443.46,589.18,447.24,591.79,451.18,594.33ZM388.05,295c5.31,4,10.61,8,16.17,11.68,3.17,2.08,6.81,4.42,10.69,4.66q1.13,5.43,2.26,10.85c-1.83-1.07-3.73-2.07-5.41-3.16-5.41-3.5-10.78-7-16.31-10.35-1.56-.94-7.84-4.75-11.89-4.93q-1.12-6.73-2.33-13.46C383.5,292.11,386.29,293.69,388.05,295Zm-7.78-9.88c-1-5.18-2.09-10.31-3.16-15.45,1.48,1.32,2.82,2.38,3.41,2.88A168.76,168.76,0,0,0,396.34,284c4.37,2.87,9.21,6.71,14.42,7.68.85,4,1.72,8.07,2.56,12.11-.88-.35-1.78-.64-2.63-1.08a134.23,134.23,0,0,1-12.24-7.61C395.09,292.85,385.7,284.74,380.27,285.15Zm18.83,33.1c5.52,4,13,11.91,20,13.24l2.07,10c-1.56-.69-3.18-1.79-4.55-2.47-3.53-1.76-6.93-3.79-10.35-5.77-6.46-3.75-12.87-7.85-19.74-10.84-.72-4.68-1.47-9.35-2.22-14C388.69,311.44,398.06,317.49,399.1,318.25ZM405.74,340c4.11,2.73,11,8.83,16.46,6.91,0,0,.06-.06.09-.07,1,4.79,2,9.57,3,14.36a147.9,147.9,0,0,1-13.64-7.07,197.18,197.18,0,0,1-21.88-14.7c-.22-.17-.43-.09-.65-.16q-.86-5.64-1.72-11.28Q396.62,333.92,405.74,340Zm2.95,18.68c4.89,3.23,11.82,8.68,18.2,10.25,1.09,5.15,2.14,10.32,3.24,15.47-5.51-2.8-11.55-4.62-17-7.68a108.9,108.9,0,0,1-20.46-14.93s-.06,0-.08,0c-.87-5.51-1.7-11-2.54-16.57C396.08,349.92,402.27,354.48,408.69,358.7Zm1.7,22.23c5.71,3.79,13.67,9.45,20.85,8.64.65,3,1.29,6.08,1.95,9.11a48.66,48.66,0,0,0-4.75-2.62c-4-2-8-4.16-11.89-6.34-3.77-2.1-7.46-4.35-11.15-6.6-2.58-1.57-5-3.83-8-4.65a1.89,1.89,0,0,0-2.05.7c-.64-3.73-1.21-7.51-1.82-11.26A148.89,148.89,0,0,0,410.39,380.93Zm-1.54-98.34-.5-.29a2.63,2.63,0,0,0-2.42-.07c-1.17-.64-2.33-1.28-3.48-1.94-3.76-2.15-7.45-4.44-11.1-6.79-1.05-.67-11.68-8.07-15.84-11.62-1.7-7.6-3.61-15.12-5.67-22.59,6.85,7.89,15.78,14.51,23.81,20.9,3.22,2.56,7.31,6.61,11.62,6.9.09,0,.15,0,.24,0C406.62,272.23,407.75,277.4,408.85,282.59Zm-4.79-22.32a32.18,32.18,0,0,1-3.86-1.71,120.77,120.77,0,0,1-11.69-7.43c-6.71-4.78-14.13-9.77-19.7-15.92-.06-.06-.12,0-.18-.09-.85-3-1.91-5.83-2.83-8.76C376.48,235,393.42,248,401,246.89,402,251.36,403.1,255.8,404.06,260.27Zm-4.47-19.84c-1.38-.65-4.83-1.9-6-2.51a131.12,131.12,0,0,1-11.36-6.75c-6.35-4-12.52-8.37-18.84-12.45-1.23-3.67-2.58-7.29-3.91-10.92a44.77,44.77,0,0,0,3.8,2.81c5,3.59,10.27,6.91,15.5,10.2,4.1,2.58,12.25,9.42,18.81,10.76C398.22,234.53,398.93,237.47,399.59,240.43Zm-3.91-17c-5.69-2.92-12-7.12-16.95-10-4.47-2.59-8.93-5.24-13.46-7.73-2.26-1.24-4.52-1.52-6.61-2.5a1,1,0,0,0-.87,0c-2-5.25-4.21-10.45-6.63-15.55-.05-.11-.17-.12-.23-.22,8,4.21,16,8.38,24.15,12.26,4.71,2.25,10.86,5.94,16.64,6.86C393,212.17,394.41,217.79,395.68,223.42Zm-19.13-77.73c2.45,8.91,4.76,17.86,7,26.82a84.61,84.61,0,0,1-35.24-18C358,151.53,367.51,148.56,376.55,145.69Zm-47.72,14.7c5.59,7.24,13.42,12.26,21.48,16.68,5.88,3.23,12,6,18.12,8.79,4.9,2.27,10.53,6.71,16.05,6.57,1.91-.05,3.93-2.14,2.66-4.1-4.77-7.36-18.87-10-26.64-13.2-9.63-4-20.25-8.55-28.2-15.76,4.1-1.22,8.09-2.46,12.14-3.69,10.86,12.23,25.74,18.51,40.42,25a2.77,2.77,0,0,0,.72.14c1.28,5.26,2.58,10.51,3.83,15.77-1.65-.63-3.29-1.24-4.87-1.91-9.41-4-18.73-8.21-28-12.58-2.88-1.36-28.69-12.33-38.56-18.52C321.68,162.58,325.2,161.45,328.83,160.39Zm-30.63,8.17c5.19-1.24,10.38-2.45,15.53-3.84,5.32,7.74,25.06,16.36,28.9,18.49,1.84,1,3.77,1.87,5.63,2.86a4.35,4.35,0,0,0-.95,0h0c-3.91-1.85-9.11,1.44-12.76,2.65-1,.32-2,.56-3,.86a6.75,6.75,0,0,0,.61-2.2,2.91,2.91,0,0,0-5.31-1.76c.52-.75.54-.37-.91-.54a14.75,14.75,0,0,1-4.36-1.72,93.22,93.22,0,0,1-11.21-7c-3.14-2.18-6.16-4.52-9.28-6.71a3.51,3.51,0,0,0-3.41-.67C298.32,168.66,298.37,168.61,298.2,168.56Zm-2.21.55a1.11,1.11,0,0,0,0,1.1c.35.54.48.56.55.49s0,0,0,.14c-.1,1.75,1.89,3.23,3,4.27a152,152,0,0,0,12.93,10.57c2,1.46,6.88,4.75,11.3,6.17-4.2,1.15-8.43,2.22-12.66,3.29a2.22,2.22,0,0,0-1-1.59,40.86,40.86,0,0,0-3.8-2.94A75.29,75.29,0,0,1,298,185c-5.16-3.73-10.84-8-15-13.12C287.32,171,291.66,170.13,296,169.11Zm-17.49,3.72c3.4,6.42,9.73,11.82,15,16.3,2.14,1.81,5.84,5.72,9.6,7.81-2.67.45-5.8.94-9,1.49a2.32,2.32,0,0,0-1.19-1.62,101.9,101.9,0,0,1-15.64-9.58c-2.18-1.6-4.56-3.36-6.91-5.2a5.26,5.26,0,0,0-3.16-2.6,55.18,55.18,0,0,1-4.19-4C268.17,174.68,273.33,173.83,278.5,172.83Zm6.25,27.68c-4,1.09-7.68,2.42-10.26,4.42-.46-4.72-1.23-9.54-1.94-13.46l.66.57C276.41,194.77,280.44,198.38,284.75,200.51Zm-11.87,21.91c1.5-1.92,2-5.69,2-10.08,10.06,3.54,29.43-4.64,38-6.72,5.89-1.43,25.25-3.85,33.35-10.09C386,326.93,392.82,467.84,433,599.66,379.72,610,326.85,623.14,273.81,634.71c-43.11,9.4-91.47,14-132.53,31.06C97.9,536.9,87.47,396.6,54.19,264.39a5.17,5.17,0,0,0,1.37,0c12.67-2,25-6.12,37.37-9.58,10.43-2.92,26.92-4.08,36-10.68.13,2.24.28,4.47.42,6.73a4.79,4.79,0,0,0,3.81,4.47,3.63,3.63,0,0,0,3.28,3c8.58.46,16.46-.46,25-1.66,2.82-.39,4.56-3.56,4-6.19-3.95-18.82,13.93-17.39,28.73-21.14,13.85-3.5,37.82-14.13,44.11,3,.83,2.27,3.72,3.11,5.85,2.77,8.73-1.39,16.83-2.64,25.24-5.42A5.7,5.7,0,0,0,272.88,222.42ZM259,175.92a25.4,25.4,0,0,0,2.25,4.09c-5.86,1.26-11.76,2.54-17.6,4-1.91-1-4-1.81-5.9-2.91a15.61,15.61,0,0,1-3.88-3.32A242.69,242.69,0,0,0,259,175.92Zm-29.75,1.92a25.57,25.57,0,0,0,7.36,8.27c-3.35,1-6.72,1.8-10,3a24.07,24.07,0,0,0-4.06-11.15C224.72,178,227,177.84,229.22,177.84ZM174.7,209a3.32,3.32,0,0,0,1.33-4.35c-5.83-14.33-.47-26.17,15-29.1a25.51,25.51,0,0,1,17.54,2.89c7.42,4.4,4.76,11.55,8.78,17.47,1.83,2.69,5.29,3.13,7.34.36.14-.2.18-.43.31-.62a2.61,2.61,0,0,0,1.74.64c11.68-.78,23.25-3.14,34.72-5.56,1,5.53,2,11.07,2.62,16.65.4,3.47,1.31,9.59,1.72,12.47-10.6,3.48-18.34,6.88-22.9-5.55-.88-2.39-3.69-2.95-5.85-2.77-28,2.33-54.71,9.63-81.56,17.43a5.36,5.36,0,0,0-4.05,6.27c3,13.9-1.4,14.62-13.06,15.55a141.74,141.74,0,0,0-.71-24.47c11.11-5.11,22.86-8.23,34.27-12.63A4.37,4.37,0,0,0,174.7,209Zm-9.46-22.23a27.21,27.21,0,0,0,2.7,17.24l-.05,0a2.9,2.9,0,0,0-.39-.55c-5.75-5.13-12.75-8.86-19.43-12.88C153.76,189.18,159.48,187.86,165.24,186.75Zm-23.77,5.53c5.65,5.27,12.15,9.76,18.34,14.42-3.14,1-6.29,2-9.41,3.13a3.71,3.71,0,0,0-1.12-1.4c-4.69-3.57-9.91-6.54-14.8-9.85-1.58-1.06-3.13-2.15-4.69-3.24C133.67,194.3,137.58,193.29,141.47,192.28ZM123.53,197l1.07,1a142.68,142.68,0,0,0,18.5,14.75c-3.15,1.22-6.34,2.32-9.41,3.74-.89-.51-1.79-1-2.66-1.55a119.88,119.88,0,0,1-10.22-7.71c-2.91-2.34-5.76-4.83-8.69-7.2Q117.84,198.55,123.53,197Zm-36,8.45c6.21-1.08,12.36-2.44,18.49-3.92,6.35,5.63,12.41,11.62,18.83,17.13l2.38,2.08a5.42,5.42,0,0,0-.5,3.44,113.53,113.53,0,0,1,1.57,12.26,20.24,20.24,0,0,0-5-.53c-.08-.11-.07-.26-.18-.36-5.62-5.38-12.75-9.28-18.82-14.23a228.55,228.55,0,0,1-17.13-15.81C87.29,205.5,87.43,205.49,87.56,205.46Zm-5.92.88c5,7.59,11.66,14.12,18.22,20.22,3.86,3.59,8.25,8,13.1,11-2.48.66-5,1.4-7.41,2.23a4.54,4.54,0,0,0,.83-.57,2.9,2.9,0,0,0-2.53-4.94c2-.22,1,0-.46-1.18s-3.39-2-5-3.09c-4.58-3.12-9-6.5-13.3-10S76.51,213,72.21,209.39c-.57-.46-1.13-.93-1.69-1.41C74.23,207.49,77.93,206.9,81.64,206.34Zm-16.4,2.38a77.3,77.3,0,0,0,11.05,12.53c3.61,3.4,18.78,19.74,27,19.29-3.06,1.06-6,2.08-8.58,2.81l-4,1.13a3,3,0,0,0-2-2.64c-7-2.13-13.9-8.4-19.64-12.75-7.41-5.62-14.2-11.86-21-18.14C53.8,210.16,59.51,209.45,65.24,208.72Zm-23.41,3.11c7.31,9,16.55,17,25.28,24.36,3.42,2.86,9.08,8.6,14.72,10.83-4.76,1.35-9.51,2.66-14.25,4.06,0,0,0,0,0-.05-1.58-5.87-12.21-10.31-16.86-13.78a273.16,273.16,0,0,1-26.19-22.19C30.27,213.74,36,212.73,41.83,211.83ZM9.75,227.14c6.12,6.2,12.27,12.37,18.65,18.27,4.71,4.35,14.29,14.88,21.57,12.34,1.93-.68,3.23-3.05,1.53-4.79-2.3-2.38-5.65-3.38-8.48-5A100.27,100.27,0,0,1,30.73,239C23,232.78,15.86,225.86,8.35,219.38c-.06-.33-.13-.74-.19-1.06a3.49,3.49,0,0,0,3,.32c3.29-1.06,6.59-2,9.91-2.81a1.72,1.72,0,0,0,.37,1.18c6.91,8.59,15.26,16,23.52,23.27,3.71,3.25,9.76,10.28,15.47,13-2.28.71-4.59,1.33-6.85,2.09a4.76,4.76,0,0,0-3.4,5.19,4.59,4.59,0,0,0-5.28,4.78,28.06,28.06,0,0,0-4.18-2.77c-3.4-2-6.62-4.31-9.84-6.56-6-4.18-11.86-8.53-18-12.44C11.67,237.34,10.63,231.9,9.75,227.14Zm9.5,48.28,0,0c4.36,3.68,8.72,7.35,13.21,10.88,2.19,1.72,17.62,13.46,16.72,3.21a2,2,0,0,0-2.11-1.87l-.51-.34a14.76,14.76,0,0,0-1.6-.89c-1.54-.79-3-1.69-4.48-2.61-4.16-2.62-8.14-5.52-12.12-8.39-3.11-2.24-6.9-5.34-10.52-6.89q-1.9-9.45-3.54-17.67,6.63,5.13,13.25,10.26c3.86,3,11.66,11.25,17.09,9.82a2.94,2.94,0,0,0,1.14-.58c2.79,14.45,5.84,28.85,9.06,43.21-1.09-.53-2.23-1-3.32-1.65a147.86,147.86,0,0,1-13.45-8.86c-5.23-3.73-10.3-7.67-15.52-11.36C21.41,286.05,20.31,280.66,19.25,275.42Zm4.87,23.89c3,2.67,6.09,5.19,9.16,7.72,4.17,3.43,16.39,15.47,23.27,14.05,1,4.58,2,9.16,3.09,13.72-.58-.14-1.49-.22-1.88-.33a24,24,0,0,1-4.9-2.29A123.26,123.26,0,0,1,40,323.72c-3.72-2.7-7.33-5.56-11-8.31a17.16,17.16,0,0,0-1.78-1.27C26.12,309.06,25.11,304.13,24.12,299.31Zm4.74,23c1.49,1.34,2.95,2.73,4.48,4,4.06,3.34,20.36,18.49,27.78,14.92,1.59,6.85,3.13,13.72,4.74,20.57-.87-.45-1.77-.85-2.58-1.36-5.17-3.25-10.1-6.91-15-10.52-2.23-1.64-10.78-9.37-15.64-9.41C31.33,334.31,30.09,328.28,28.86,322.33Zm4.75,22.94c1.58,1.57,4,3.44,4.71,4.08,4.06,3.45,8.22,6.77,12.38,10.09,3.75,3,11,10.16,17.28,11.51q2.43,10.46,4.85,20.92c-6.14-4.64-12.3-9.32-18.4-14C49,373.7,43.71,369.44,37.94,366.1Q35.72,355.48,33.61,345.27Zm10.38,50c2.51,2.53,5,5.05,7.39,7.14,4.44,3.91,8.9,7.8,13.41,11.62,2.45,2.07,5.76,6.15,9.37,5a2.6,2.6,0,0,0,1.91-3c-.26-3.29-4.2-5-6.53-6.76-4.87-3.68-9.62-7.52-14.38-11.34-4-3.23-8.33-6.49-12.6-9.56q-1.7-8.13-3.34-16.08,7.22,6.2,14.4,12.42c5.32,4.6,13.57,14.8,21.15,15.87,2.93,13,5.79,26.1,8.41,39.22A7.22,7.22,0,0,1,82,439a36.17,36.17,0,0,0-3.65-2.17c-3.86-2.31-7.52-5-11.2-7.6-6.23-4.37-12.41-8.82-18.79-13Zm9.18,44.14a1.1,1.1,0,0,0-.07-.36l-3.4-16.33c6.11,4.79,12.12,9.72,18.19,14.55,2.74,2.18,11.61,11.06,16.41,8.5,1.27,6.56,2.54,13.12,3.69,19.71-.18-.16-.27-.39-.48-.52-4.59-2.71-8.74-6.46-12.9-9.77q-6.93-5.52-13.82-11.11c-1.69-1.38-3.43-2.7-5.13-4.06-1.25-1-2.34-1.24-2.48-.56Zm6.18,29.79c3.19,3,6.38,6.07,9.78,8.92,3.74,3.14,7.53,6.21,11.42,9.15,2.29,1.73,5.76,4.68,8.9,3.59a2.4,2.4,0,0,0,1.6-3.38c-1.18-2.7-4.62-4.21-6.94-5.71-4.08-2.63-8-5.5-11.93-8.37-4.57-3.34-9.44-6.49-14-9.86q-1.89-9.13-3.79-18.26c3.09,3.19,7.22,6.32,8.35,7.36q6.6,6.11,13.45,11.94c2.48,2.13,7,7.66,10.69,6.87a2.88,2.88,0,0,0,1.87-1.3q3.07,18,5.8,36.21a2.24,2.24,0,0,0-2.49-.55l-.89-.66c-1.23-.9-2.6-1.66-3.86-2.53-3-2.1-5.88-4.51-8.7-6.87-5.18-4.33-10.06-9.75-15.76-13.4a1.82,1.82,0,0,0-.81-.17C61.14,477.83,60.25,473.49,59.35,469.17Zm4.18,20.22a220,220,0,0,0,17.72,16.9c1.86,1.61,12,8.75,13.91,4q1.47,9.65,2.94,19.29c-3.95-2.91-8.65-5.16-12.63-8-6.1-4.29-11.52-9.27-17.26-14a1.62,1.62,0,0,0-1-.3C66,501.41,64.78,495.4,63.53,489.39Zm9.91,48.2c3.65,3.29,7.25,6.65,11,9.82,2.93,2.47,11.24,10.79,15.47,6a2.37,2.37,0,0,0-2.07-4c.92-.12-.41-.38-1.06-.85-1.11-.8-2.39-1.38-3.57-2.08-3.28-2-6.36-4.3-9.45-6.57-3.84-2.82-7.7-5.68-11.6-8.46l-3.4-16.55c4.09,4.32,9,8.08,13.56,11.68,4.37,3.46,10.18,9.09,16,9.49a2,2,0,0,0,.72-.2c2,12.53,4,25.05,6.33,37.48-1-.61-2.23-1.44-2.89-1.76-3.23-1.58-6.34-3.44-9.44-5.24s-6.35-3.79-9.47-5.77a27.68,27.68,0,0,0-3.41-1.79c-.33-.09-.67-.17-1-.23a2.13,2.13,0,0,1-.81-.19,1,1,0,0,1-.39.46c.59-.48.13-1.11-.48-1.26C76.16,551,74.81,544.29,73.44,537.59Zm4.85,23.86a63.18,63.18,0,0,0,8,6.73q5.86,4.29,12,8.25c2.24,1.44,5.1,3.61,8,2.7.13,0,.19-.16.31-.22,1.29,6.62,2.49,13.25,4,19.81a2.49,2.49,0,0,0-.25.52,1.77,1.77,0,0,0-.22-.08,23.27,23.27,0,0,1-4.37-1.43,95.3,95.3,0,0,1-11.23-5.79c-3.17-1.81-7.27-5.08-11.31-6.41C81.58,577.68,80,569.63,78.29,561.45Zm6.12,30.36,2.67,1.88a145.58,145.58,0,0,0,14.24,8.91c3.05,1.66,6.87,3.81,10.47,3,.11,0,.17-.11.28-.14,1.51,6.19,3.12,12.36,4.88,18.49-2.6-1.71-5.27-3.21-6.85-4.4-7.25-5.45-14.41-11-21.78-16.28a1.51,1.51,0,0,0-1.63,0C85.94,599.5,85.18,595.67,84.41,591.81Zm3.1,15.59c6.12,5.72,12.31,11.36,18.67,16.82,3.22,2.77,9.16,9.87,14.17,10.41,1.22,3.82,2.33,7.67,3.67,11.46-2.62-1.9-5.24-3.73-7.64-5.46-8.44-6.08-17-12.2-25.83-17.77C89.58,617.84,88.55,612.66,87.51,607.4Zm25.28,116.19a.19.19,0,0,0-.21-.25l-5.2.76c.28-2.49-.4-9-1.81-18.51A144.93,144.93,0,0,0,117,714.67c1.31.93,2.79,2.06,4.35,3.22C116.74,719.7,113.56,721.6,112.79,723.59Zm18-8.73c-2.9-1.74-6.07-3.22-8.76-4.91a126.91,126.91,0,0,1-17.8-13.17c-.89-5.41-2-11.59-3.15-18.27,6.86,8.65,15.33,16.12,23.75,23.13,3.9,3.25,9,7.87,14.39,11.12C136.23,713.44,133.38,714.14,130.76,714.86Zm21.15-4.78c-7.85-4.77-15.81-8.81-23.28-14.35a211.91,211.91,0,0,1-27-23.94,2.07,2.07,0,0,0-1.88-.68c-1-5.49-2.1-11.42-3.26-17.55,18.44,13.63,33.92,30.18,50.64,45.83,2,1.86,5.38,6.42,9,9.91C154.72,709.57,153.3,709.81,151.91,710.08ZM169.46,707c-.78-2.07-3.84-3.28-5.61-1.46,2.59-2.65-60.13-53.2-67.91-57.08-.16-.08-.3,0-.46,0-1.11-5.84-2.3-12-3.53-18.33,5.74,4.87,11.62,9.59,17.34,14.47,6.73,5.74,13.63,13.19,21.21,17.89,1,2.34,1.77,4.73,2.8,7.05a3.76,3.76,0,0,0,1.26,1.5,1.55,1.55,0,0,0,.36.19,4.68,4.68,0,0,0,4.1.15c1.11,0,2.23-.14,3.34-.16,0,.07,0,.16.1.23,8.74,8.64,17.78,17,26.55,25.6,2,2,5.35,5.85,8.94,8.63C175.17,706.05,172.35,706.49,169.46,707ZM188.19,704c-.2-.22-.29-.49-.59-.66-.82-.45-3.24-3.45-4.55-4.54-4.09-3.4-8.18-6.79-12.33-10.11-7.45-6-14.76-12.39-22.62-17.87,5.33-.28,10.68-.75,16-1.38,9.55,13.5,22.71,24.14,36.9,32.62Zm24.11-3.92a3.3,3.3,0,0,0-.52-.45c-15.53-8.76-29.79-17.75-41.65-31,6.51-.9,13.05-2.18,19.58-3.44,4.82,7.75,12.74,14.1,19.48,19.87,2.84,2.43,9.69,9.36,16,12.49C220.88,698.4,216.57,699.21,212.3,700.12ZM235,695.58a3.26,3.26,0,0,0-.48-1.38c-1.79-2.45-5.28-3.49-7.79-5a132.54,132.54,0,0,1-14.64-10.63c-5.61-4.47-12.11-9.2-17.71-14.22,5.47-1.11,10.93-2.35,16.39-3.61,11,12.13,37.71,39.15,42.81,28.7,1.18-2.4-.94-5.46-3.67-4.06.66-.33-4.67-2.86-5.79-3.5a110,110,0,0,1-11.79-8.22c-5.77-4.38-11.28-9.12-16.65-14,4.77-1.13,9.49-2.32,14.24-3.49,7.32,8,15.61,15.44,23.61,22.57,3.2,2.85,9.68,9.36,15.47,10.38C257.66,691.31,246.31,693.41,235,695.58Zm38.87-7.38a6.58,6.58,0,0,0,1.13-.67c2.44-2.28-.38-6.59-3.4-4.88-1,.55-7.23-3.81-8.19-4.41a140.83,140.83,0,0,1-12.34-9c-5.69-4.45-10.95-9.43-16.31-14.26,5.37-1.33,10.69-2.64,16-3.94,4.48,7.05,12.69,12.37,19,17.52,5.07,4.12,10.29,8,15.52,12,1.73,1.29,3.51,2.86,5.41,4.18C285.12,685.92,279.5,687.09,273.86,688.2Zm26-5.5c-2-3.31-5.78-5.09-8.9-7.23-5.31-3.64-10.54-7.4-15.74-11.19C268.65,659.5,262.12,654,255,650c3.6-.87,7.13-1.65,10.69-2.47,8.9,9.81,20.08,18.08,30.14,26.65,1.82,1.55,5,4.78,8.43,7.47C302.8,682,301.33,682.37,299.85,682.7ZM315.74,679l-1.71.4c-.93-.62-5.77-3.92-6.7-4.52-4.92-3.2-9.56-6.78-14.16-10.42-7.38-5.84-14.6-12.86-22.64-18,1.82-.4,3.68-.87,5.49-1.26,3.05-.66,6.11-1.29,9.16-1.94,6.4,6.52,13.73,12.32,20.72,18.08,6,4.93,13.42,12.36,21.29,14.6C323.38,676.92,319.57,678,315.74,679Zm16.46-4.39a3.87,3.87,0,0,0-1.14-4c-6.77-5.38-14.59-9.68-21.69-14.67C303.07,651.48,297,646.77,291,642l15.27-3.22a26.43,26.43,0,0,0,4.25,5.32c5.44,6,11.14,11.67,17.05,17.17,3.89,3.63,8.4,8.4,13.39,10.88C338,672.94,335.13,673.76,332.2,674.56Zm17.09-4.74c0-.29.16-.47.11-.78-.4-2.55-3.53-2.57-4.87-.91,1.74-2.15,3.38,0,.71-2.27-1.61-1.37-3.52-2.47-5.2-3.76-5-3.8-9.56-8-14.15-12.25-4.17-3.85-8.34-7.69-12.38-11.68l-.79-.78,9.5-2c8.23,7.27,15.92,15.18,23.94,22.67,2.16,2,7.43,7.72,12.09,9.25ZM364,665.67c.82-1.61.3-4.16-1.95-4-.46,0-4.4-3-5.53-3.83a158.54,158.54,0,0,1-12.43-10.15c-5.15-4.51-10.16-9.2-15.32-13.72l12.15-2.61c8,6.07,15.93,12.07,23.72,18.38,3.32,2.69,9.32,9.41,14.67,11.66Q371.66,663.51,364,665.67Zm21.44-5.92c0-.15.12-.28.09-.44-.54-3.14-3.2-4.32-5.69-6-4.08-2.73-8.06-5.59-12.07-8.42-7-5-14.07-10.09-21.38-14.71,4.38-.94,8.74-2,13.11-2.94,7.45,5.48,14.46,11.54,21.55,17.46,4,3.35,10.74,10.75,16.79,11.83C393.71,657.61,389.57,658.64,385.44,659.75Zm35-8.69-.48-.39q-3.33-2.59-6.63-5.22c-5.86-4.66-11.71-9.34-17.67-13.88-3.2-2.44-9.19-8.4-13.6-8-1,.1-4.63-.54-3.65,2.64a1.75,1.75,0,0,0,2.14,1.23c-.08.15.08.41,1.16,1.29,1.78,1.45,3.62,2.8,5.39,4.27q7.11,5.88,14.11,11.91c3.27,2.82,6.6,5.58,9.94,8.34-3,.71-5.93,1.38-8.88,2.12a2.65,2.65,0,0,0,.28-2.43c-1.21-3.14-4.07-4.1-6.81-5.82-3.84-2.42-7.47-5.2-11.1-7.93-6.12-4.59-12.23-9.16-18.56-13.44,9.47-2.11,18.91-4.31,28.35-6.53,1.41,1.44,3.17,2.7,4.37,3.8,4.91,4.46,10,8.74,15.13,12.93,3.59,2.93,10.16,9.52,16.61,12.92C427.14,649.62,423.76,650.3,420.41,651.06ZM442,646.69a2.53,2.53,0,0,0-1.58-1.58c-8.43-2.54-17.34-10.85-24.27-16.08-4.94-3.72-9.8-7.55-14.62-11.42,3.26-.78,6.48-1.7,9.72-2.5,8.88,6.56,17.39,13.61,25.93,20.6,3.51,2.88,7.27,6.63,11.25,9.95C446.33,646,444.17,646.3,442,646.69Zm16.77-2.7c-5.57-4.93-12.66-9-18.36-13.28-7.77-5.89-15.61-11.74-23.85-17,3.87-1,7.73-2,11.6-3a1.7,1.7,0,0,0,1.46,2.22c3,.09,8.4,5.93,10.69,7.69,6.15,4.72,12.09,9.74,18.06,14.69,3.1,2.57,6.23,5.08,9.35,7.62C464.78,643.34,461.77,643.57,458.81,644Zm20.4-2.29c-.17-.13-.37-.24-.53-.36-6.7-4.81-13.18-9.93-19.75-14.93-6.38-4.84-17-15.56-26.34-16.77,2.12-.55,4.23-1.08,6.35-1.64,7.15,4.3,13.82,9.17,20.67,14,4.45,3.14,10.05,7.34,15.77,8.82a96.26,96.26,0,0,0,4.93,10.74C479.93,641.6,479.58,641.66,479.21,641.7ZM463,552.31c.25,2.76.5,5.65.74,8.45-4-2.57-7.74-5.46-11.46-8.37-7.08-5.54-14.72-11.19-20.82-17.85a1.93,1.93,0,0,0-1.53-.69c-.83-4-1.74-7.89-2.6-11.84,3.31,5,13.8,11,15.42,12,5,3,10.36,6.18,15.9,8.15a7.31,7.31,0,0,0,3.1.16C462.17,545.63,462.73,549,463,552.31ZM461,535.76c-1-.42-1.9-.83-2.86-1.2A119.17,119.17,0,0,1,446,529c-2.09-1.09-16.72-10.51-17.13-10.15.89-.78-.18-2.4-1.22-1.74a2.67,2.67,0,0,0-1.08,1.49c-1.16-5.23-2.43-10.42-3.63-15.64,5.38,3.68,10.73,7.41,16.34,10.84,6.17,3.77,13.1,9.35,20.17,12.15C460,529.19,460.56,532.46,461,535.76Zm-2.93-19.29c-4.69-2.64-9.95-4.8-14-7-7.19-3.87-14.9-7.22-22.11-11.05-.82-3.54-1.65-7-2.48-10.54,2.16,1.38,5.83,3.83,6.46,4.2,4.72,2.78,9.41,5.61,14.18,8.31,4.57,2.59,10.72,7.08,16.64,8.6C457.16,511.49,457.65,514,458.05,516.47Zm-2.83-16c-7-3.26-13.91-6.67-20.77-10.16-2.76-1.4-11.13-6.81-15.92-6.34-1.19-5-2.35-10-3.54-15a1.3,1.3,0,0,0,1.7-1.38c-.15-1.64,7.65,2.61,9,3.38,4.59,2.55,9,5.31,13.5,8.1,2.61,1.64,8.29,6.29,13.33,8.27C453.43,491.71,454.41,496.08,455.22,500.48ZM450,477.79c-6.26-3.47-12.44-7.09-18.82-10.35-2.74-1.4-15.8-7.46-16.91-1.61-1.47-6.19-2.89-12.33-4.36-18.51,6.56,3.16,13.28,6.07,19.94,9,5.5,2.41,11.45,6,17.53,6.57,1.09,5.08,2.28,10.15,3.33,15.24C450.47,478,450.19,477.9,450,477.79Z"/><path class="cls-2" d="M435,415.62a2.38,2.38,0,0,0-2-.6c-1-.68-1.93-1.39-2.87-2.09-5.09-3.74-10-7.64-15.11-11.4-2.88-2.14-7.23-6.27-11.12-5.73-3.65.49-.38,4.55.63,5.78a1,1,0,0,0,1.53,0c.82.6,1.65,1.18,2.41,1.8,4.89,4,9.71,8.07,14.55,12.13,3.29,2.76,6.73,6.54,11.08,7.37C439.54,423.92,437,417.55,435,415.62Z"/><path class="cls-2" d="M135,281.21c-20.58,11.93-20.78,41-21.84,63.87-6.17-5.85-12.27-11.73-19.25-16.72-3.19-2.28-7.23,2.45-4.44,5.23,8.46,8.43,17.08,16.72,24.34,26.24,2.92,3.83,8.64.92,9.06-3.21,1.11-10.87,1.35-21.8,2.45-32.68,1.51-15,7.88-24.06,15.32-36.5C142.76,283.88,138.92,278.94,135,281.21Z"/><path class="cls-3" d="M222.05,299.23c-4.45,1.59-8.41-2-12.36,0a10.61,10.61,0,0,0-4,3.58c-3.89-1.65-7.86-3.08-11.63-5.06-3.57-1.87-7.16,0-7.81,3.95a57.74,57.74,0,0,1-2.41,9,68.19,68.19,0,0,1-8.25-17.53c-1.56-5.46-9.09-3.72-8.49,1.8,1.16,10.75,1.19,20.88-1.5,31.42-.89,3.49,4.09,5.2,5.33,1.77a72.3,72.3,0,0,0,3.54-15.41c2.05,3.73,4.25,7.39,6.59,11.07,2.16,3.39,7.44,3.52,8.83-.7,1.57-4.79,3.24-9.45,4.67-14.21a96.9,96.9,0,0,1,9.66,4.2,5.24,5.24,0,0,0,6.16-.5,20.74,20.74,0,0,0,2.62-3.09c4.94,1.65,9.06.73,14-3.07C231.37,303.06,226.3,297.7,222.05,299.23Z"/><path class="cls-3" d="M321,270c-2.92,1.71-5.2,4.61-7.24,7.52-2.73-1.41-5.43-2.9-8.25-4.15-1.64-.73-3.47,0-4.78,1a7.26,7.26,0,0,0-2.75,3.91,7.37,7.37,0,0,0-4.11-2.46,5,5,0,0,0-6.13,3.09,52.18,52.18,0,0,0-1.89,5.48,30.76,30.76,0,0,1-5.49-3.88c-2.72-2.48-6.71-1.83-8.12,1.73a79.72,79.72,0,0,1-4.37,8.72,48,48,0,0,1-5.59-10.22c-1.49-4.21-8.4-4.64-8.47.63-.11,7.22-1.86,14-2.61,21.18-.39,3.65,5.57,4.86,6.37,1.22.69-3.14,1.45-6.26,2.18-9.37a46.77,46.77,0,0,1,4.09,8.38c1.36,4,7.86,5.61,9.13.5,1.1-4.45,3.42-8.31,5.58-12.26,2.35,1.57,4.79,3,7.4,4.47a5,5,0,0,0,7.25-2.55,39.64,39.64,0,0,0,1.47-4.3,19.63,19.63,0,0,0,2.52,2.41,4.89,4.89,0,0,0,6.71-1.42c1-1.65,2.09-2.9,2.34-4.82q0-6.27,2.58,1.2c1.65.81,3.33,1.57,5,2.27,2,.89,4.42-.31,5.58-2,2.36-3.37,4.94-6.6,7.46-9.84C329,272.8,325.15,267.57,321,270Z"/><path class="cls-2" d="M155.19,371.08c-8.27,6.13-12.79,19.53-16.66,28.83a108.43,108.43,0,0,0-7,26c-9.52-11.3-23.64-23.6-27.89-8a.81.81,0,0,0,.93,1c12.3-2.6,21.24,14.31,26.24,23.5,2.44,4.48,9.61,3.18,9.86-2.1a117.37,117.37,0,0,1,7.91-37.05c3.57-9.32,11.37-18.11,13.35-27.77C162.81,371.3,158.68,368.49,155.19,371.08Z"/><path class="cls-3" d="M342,365.81a38.3,38.3,0,0,1-25.1,3.5,4.87,4.87,0,0,0-6,.49c-12.34,14-13.94-1-20.17-15.06-2.12-4.79-8.71-2.51-9.29,2-1.41,11.13-1.43,22.44-3.59,33.48.22-1.12-18.49-15.92-21.29-18.19-3.19-2.57-7,.61-7.56,3.83q-15.45,24.65-28.55,8c-2.54-2.11-6.2-.08-7.23,2.54-2,5.25-4.13,10.26-6,15.35-4.19-5.72-8.49-11.3-12.7-17.18-1.79-2.5-6.62-1.46-7.24,1.54-2.2,10.57-3.61,19.55-2.79,30.49.28,3.68,5.92,4.25,5.9.35A69.82,69.82,0,0,1,192.66,397c4.47,6.44,9.64,13.77,11.8,17.38,2,3.28,7.75,3.64,8.82-.7,7.11-28.72,11.66-4.54,29.76-8.4,9.1-1.93,12.35-11.11,14.11-19.8,6.43,5.95,12.38,12.33,19.23,17.87,2.7,2.19,6.16,0,7.34-2.58,4-8.74,5.11-17.56,5.9-26.58A86.72,86.72,0,0,0,300.94,389a5,5,0,0,0,7.78-.64c8.46-12.38,28.58-2,38.19-17.08C349,368,345.36,364.25,342,365.81Z"/><path class="cls-2" d="M168.47,453.37c-13.15,14.68-20.36,38.89-22,59.74a127.65,127.65,0,0,0-20.56-14.44,3.23,3.23,0,0,0-3.51,5.42c9,7.36,17.39,14.77,25,23.51,2.86,3.26,9.18,1.4,9.11-3.21-.2-11.93,1.95-23.15,5.61-34.47,3.56-11,10.56-20.77,13.62-31.77C176.93,454.14,171.71,449.75,168.47,453.37Z"/><path class="cls-3" d="M243.7,481.38l-.18-.39a4,4,0,0,0-5.34-1.69c-1.62,1-6.62-1.14-8.05-1.92-2.67-1.44-6.15-.61-7.16,2.52a64.26,64.26,0,0,1-3.55,8.28c-3.69-4.09-7.48-8.17-9-13.3-1.5-5-8-4.33-8.81.67a111,111,0,0,0-1.25,25.09c.24,3.71,5.3,4.14,5.82.35.58-4.33,1.09-8.59,1.75-12.83,2.84,3.66,6,7.09,8.63,11.11,2.14,3.31,7.29,3.48,8.67-.69a99.45,99.45,0,0,1,4.78-10.9c4.8,1.68,10.33,2.19,13.51-1.93A4.33,4.33,0,0,0,243.7,481.38Z"/><path class="cls-3" d="M374.25,450.15c-16-1.73-21.95,15.74-36.44,3-2.64-2.32-6.12-2.27-8.3.67L305,452.06c-3-2.89-7.07-1.74-8.73,1.86-3,6.55-6.54,12.83-9.81,19.24-6.27-5-10-11.13-13.55-18.93-1.6-3.48-7.41-3.15-8.37.67-2.29,9.08-5,17.71-5.88,27.05-.44,4.66,6.29,4.79,7.06.42a98.3,98.3,0,0,1,3.9-14.33,45.86,45.86,0,0,0,15.9,16.88c3,1.9,6.14.28,7.54-2.65,3-6.29,6.41-12.35,9.64-18.51,11.13,8.83,21.82,10.33,32,0,3.35,2.37,6.82,4.53,10.51,6.64,1.54.87,3.73,1.31,5.33.26,8-5.27,19.3-6.87,26.28-13.29A4.18,4.18,0,0,0,374.25,450.15Z"/><path class="cls-2" d="M191.35,558.47A127.73,127.73,0,0,0,170.19,602c-6.46-8.44-14.44-15.77-24.78-18.63-3.89-1.08-5.93,4.37-2.89,6h0c11.48,7.44,18.63,16.45,25.58,28.11a5.29,5.29,0,0,0,9.9-2.11c2.61-18.78,11.13-36,22.31-51.13C204.42,558.74,195.43,553,191.35,558.47Z"/><path class="cls-3" d="M393.6,547.56c-4.44-4.52-5.43-4.7-12.17-9.07-2.54-1.65-5.32-.66-7.09,1.51-5.37,6.57-4.75,6.44-12.33,2.63-2.55-1.29-5.36-1-7.09,1.51l-12.58-2.36a5.19,5.19,0,0,0-8.07.66c-4,5.32-8.11,10.49-11.84,15.94-3.92-4.61-8-9-12-13.88-2.48-3.11-7.46-1.61-8.66,1.84-5.88,16.92-6.84,24.81-19.6,8.22-2.4-3.11-7.67-1.66-8.75,1.86-5.88,19.24-5.49,14.44-17.09,4.59-2.23-1.88-5.71-.55-7.18,1.53-9.24,13.11-6.12,17.87-21.7,3.91-2.46-2.2-6.95-2-8,1.69-.77,2.81-1.76,16.63-1.82,16.68-1.83,1.31-.69,3.93,1,4.64l.53.23a3,3,0,0,0,3.53-1.24A37.3,37.3,0,0,0,226.5,578c4.47,3.51,9.15,6.53,14,10.06,2.73,2,6.52.27,7.59-2.67,5.63-15.47,5.9-15,16.59-3.48,2.16,2.32,6.53,2.32,8.18-.66,2.71-4.89,5.15-9,7.25-13.52,3.38,3.56,6.84,7,10.25,10.74,2.16,2.36,6.46,2.24,8.14-.67a164.44,164.44,0,0,0,9.8-20.19c3.28,3.92,6.47,7.92,10.06,11.59,2,2.93,6.73,4.12,8.82.43,8.34-14.69,8.87-18.73,21.23-8.58a5.05,5.05,0,0,0,6.24-.51c6.17-6.59,4.9-7.79,13.18-3.63a5.31,5.31,0,0,0,7.09-1.51c5.67-6.92,7.26-3.49,14.19-.9C393.09,556,396.6,550.62,393.6,547.56Z"/><path class="cls-2" d="M873.75,152.26c-21.18-46.5-83.51-50.89-127.59-38.18-41.42,11.94-82.39,43.79-81.86,89.67.23,20.33,3.69,43.47,20.08,57.94C707.12,281.76,742.12,290,750,321.63a3.39,3.39,0,0,0-2.75,2.48c-16.31,6.7-15.36,27.06.18,37.92-7.08,9.29-10.55,21,1.23,28.81a29.86,29.86,0,0,0,4.1,2.1c-18.36,23.83,7.16,32.19,31.27,33.75,4.26,16.36,19.5,25.23,36.63,23.59,16-1.54,32.43-16.85,31.71-33.07,6.53-2.66,12.24-6.14,15.83-11.15,6.24-8.67,6.38-28.16-2.91-35.92,9.75-9.62,5.86-22.65-5.31-28.36,5.7-4.93,7.63-10.62.53-16.51-6.11-5.08-14.82-7.12-23.41-7.78a5.54,5.54,0,0,0-.07-.81c-10.25-34.75,23.17-69.43,38.08-98.73C886.39,195.77,883.61,173.93,873.75,152.26ZM821.67,441.84c-13.85,3.23-25.18-4.1-31.8-14.91a118.68,118.68,0,0,0,18.16-.87c9.31-1.3,22.59-2.48,34.7-5.65C839.37,430.66,834.94,438.76,821.67,441.84Zm-14.92-24.43c-17.24,2.41-63.55,5.47-48-22.27,15.17,4.23,34.61,1.06,48.44-1.37,16.62-2.92,36.41-7.73,50.91-17.78C887.56,404.16,824.81,414.89,806.75,417.41Zm48.18-50.15-.11.09c-.81.61-1.53,1.2-2.52,1.85-12.63,8.37-28.91,12.45-43.6,15.5s-30.06,4.68-44.87,2.46c-16-2.37-15.7-11.51-10.12-22.16,7,2.09,15.08,1.21,22.2.62,16.1-1.32,32.15-4.51,47.9-8,4.92-1.08,18.27-5.07,28.47-10.68C861.75,355.17,864.88,359.72,854.93,367.26Zm-3.75-36.89c9.94,3.71-18.95,15.57-21.85,16.3a400.56,400.56,0,0,1-47.22,8.83,123,123,0,0,1-21.6,1.29c-17-.8-22.43-22.37-3.21-26.28a4.6,4.6,0,0,0,2.25-1.17c20.42.2,41.08-1.53,61.4-2.52C831.2,326.32,841.56,326.77,851.18,330.37Zm-53.94-11.53-10.92.61a1.08,1.08,0,0,1,0-.18,3.23,3.23,0,0,0,0-1.16c.25-11.62-7.16-29.15-12.63-39.15-5.88-10.75-13.91-20.47-21.39-30.17a95.67,95.67,0,0,1-5.42-8.2c8-14.19,25.64-20.45,45.35-26.21l2.24-.64C787.81,248.21,791.68,284.63,797.24,318.84Zm30.25-1.6c-1.23,0-2.47.06-3.64.12-6.07.3-12.14.67-18.21,1-3.85-33.48-7.47-67.35-2.32-101,.15-1,.69-3.43,1.49-6.79,12-4.08,25.42-10.78,23.37-22.67-.67-3.89-5.72-4.08-7.44-.82-3,5.61-7.69,9.58-13.18,12.75,4.22-15.71,10.51-36,14-35.83a3.63,3.63,0,0,0,1.88-6.95c-14.67-7.33-23.08,34-25.11,40.77-.7,2.34-1.17,4.73-1.76,7.09-11.3,4.12-23.94,6.66-33.77,11.19-9.25,4.27-16.06,10.17-20.51,17.18-2.83-4.25-5.88-8.16-9.46-10.57a3.52,3.52,0,0,0-5.45,2.28c-1.57,6.59,4.81,13,8.45,18.05.48.67,1,1.33,1.51,2a44.63,44.63,0,0,0,1.12,22.39c.72,2.44,4.57,1.12,4.3-1.23a51.07,51.07,0,0,1,.19-13.74c5.88,7.68,11.85,15.31,17.4,23.24,6,8.52,8.68,16.56,11.56,26.21,1.56,5.23,2.8,13.21,6.58,18-6.88.39-13.77.8-20.65,1.15C754.06,294,734,283,710.65,269.31c-66.82-39.1-33-120,28.68-143.55,32.72-12.47,72.67-12.19,102.81,5.07,47.24,27,29.8,76.59,7.91,111.66C836.33,264.51,821.48,290.82,827.49,317.24Z"/><path class="cls-2" d="M683.87,292.68c-4.92,7.61-8.41,16.14-12.73,24.07-4.16,7.63-11.3,14.69-14.28,22.74-.86,2.31,1.58,5.27,4.15,3.89,7.19-3.83,10.63-12.49,14.25-19.27,4.9-9.19,10.13-19.08,13-29.06C689,292.57,685.53,290.11,683.87,292.68Z"/><path class="cls-2" d="M623.45,220.93c-10-4.44-23.57-1.21-34.13.38a188.86,188.86,0,0,0-41.65,11c-2.69,1.07-1.49,5.42,1.41,4.79,12.16-2.66,24.16-5.6,36.49-7.48,12.5-1.91,26,.22,37.95-3.19C626.28,225.6,625.56,221.86,623.45,220.93Z"/><path class="cls-2" d="M668.53,108.82c-5.86-6.08-15.13-8.63-22.8-12.15-9.79-4.48-19.66-9.28-29.92-12.7-2.7-.9-5.24,2.88-2.57,4.44,8.49,5,17.66,8.93,26.54,13.24,8.28,4,16.74,10.58,25.93,12C668.3,114.1,670.38,110.74,668.53,108.82Z"/><path class="cls-2" d="M743.17,2.61c-1.07-3.09-4.69-3.38-6.87-1.17C732.67,5.13,735,12,735.58,16.27c2.48,17,4.65,35,9.66,51.46.71,2.33,5,1.71,5-.73-.07-11.53-2.69-23.18-4.21-34.58-.86-6.47-1.69-13-2.23-19.48-.19-2.2.11-4.55-.19-6.72-.13-.94-.24-1.5-.33-1.89A3.24,3.24,0,0,0,743.17,2.61Z"/><path class="cls-2" d="M887,11.66C879.16,5.33,872.1,22,869.82,26.4c-3.45,6.73-6.56,13.62-9.88,20.41-2.5,5.14-7.94,11.43-8.71,17a3.7,3.7,0,0,0,2.4,4l.37.1a4.07,4.07,0,0,0,4.55-1.26c1.14-1.51,1.56-3.19,3.3-4.23,1.33-.8,1-2.08.21-2.94a47.45,47.45,0,0,0,3-4.33c2.65-4.79,5.06-9.71,7.51-14.59S877.37,31,880,26.38a62,62,0,0,1,3.51-5.57c.69-1,3.53-3.22,1.84-2.9A3.5,3.5,0,0,0,887,11.66Z"/><path class="cls-2" d="M1015.19,139.66c-19.75,3.58-39.49,7-59.13,11.12-6.65,1.4-27.29,2.83-29.58,11.36-.57,2.14,2.78,3.21,4,1.53.35-.5,12.09-2,13.43-2.33,8.19-1.74,16.42-3.27,24.66-4.78,15.9-2.9,31.92-5.93,48-7.87C1022.67,147.94,1021,138.16,1015.19,139.66Z"/><path class="cls-2" d="M951.56,263.11c-3-2.78-8.32-3.25-12.15-4.49-6.11-2-12.13-4.22-18.16-6.42-6.42-2.33-19.71-9.91-26.58-6.57a1.71,1.71,0,0,0-.35,2.93c6.13,5.63,18.58,8.17,26.38,11.38,7.52,3.09,21.74,12,30.17,8.93C953.56,267.88,953.28,264.69,951.56,263.11Z"/><path class="cls-2" d="M1144,614.22c-21.31,2.65-44.46,6.13-64.53,13.78a8.7,8.7,0,0,0-5.38,10.64c-10.47,9.48-16.56,23.89-23.66,35.72-13.59,22.66-25,46.64-36.2,70.42-2.11,4.5,0,8.07,3.36,9.78-3.28,14.24,2,29.35,5,43.39,3.54,16.56,7.72,32.89,12.81,49,2.61,8.29,16.74,4.62,15.46-3.8-.08-.53-.19-1.06-.27-1.6,18.5,2.15,37.25.67,55.66-2.17,17.23-2.66,39.59-4.82,52.82-16.48,4.17-3.67,4.45-8.71,2-12.21,12.84-56.46-18.14-117-8.65-173.58a8.83,8.83,0,0,0,0-1.45C1161.52,629.59,1157.66,612.53,1144,614.22Zm-96,212.33c-1.78-10.29-3.64-20.57-5.37-30.88-2.49-14.76-1.65-31.47-9.17-44.69a8.69,8.69,0,0,0-2.33-2.28c11.61-19.88,24-39.22,36.39-58.69,9.21-14.47,23.37-29.3,26.25-46.16,11.6-1.56,23.18-2.86,34.8-4.1-6.27,16.85.31,44.88,1.49,57.25,3.52,36.9,8.81,74.17,14.62,110.84-12.28,2.28-24.26,8.15-36.17,11.62C1088.92,825.17,1068.32,825.92,1048.05,826.55Z"/><path class="cls-2" d="M1243.79,854c-2.43-4.22-8.49-7-13.06-4.69a11.85,11.85,0,0,0-6.83-1.83c-.31,0-.61.05-.92.06,2.54-45.09-.61-90.33-5.44-135.11-3.91-36.33-6-89.07-28.43-121.16,2.33-7.25-2.27-16.59-12.66-15.55-43.52,4.39-99.68,7.51-136.54,32.8-19.1,13.11-23.69,46.61-30.79,66.25-56.79-54.27-323.07-182.78-361.56-106.48-2.47,0-4.91,1.09-5.86,3.57C626.5,611.5,601,647,591.06,688.57c-6,25.19,3.42,63.55,31,74.14a27.1,27.1,0,0,0,17.23.95,15.9,15.9,0,0,1,1.22,4.71,74.56,74.56,0,0,0,.61,8.31c.08,1.05.08,2.11.08,3.17,0-3.17-.2.91-.29,1.54-.25,1.79-.28,3.57-.62,5.35,0,.22-.14.58-.23.92s-.32.84-.49,1.26c-.29.66-.63,1.3-1,1.93a39.28,39.28,0,0,1-3.08,4c-.1.11-.12.15-.2.24-.23.15-.53.37-1,.7s-1.58,1-2.35,1.5-1.82.85-2.77,1.2c-.58.22-1.18.39-1.78.57a31.86,31.86,0,0,1-4.13.6l-.56.06-.2,0c-.62-.05-1.22-.21-1.83-.31.71,0-1.34-.92-1.89-.91l-.23-.33a1.42,1.42,0,0,0-.08-.18c-.07-.48-.14-1-.18-1.45,0-.16,0-.21,0-.34a32,32,0,0,1,1-5.32c.26-1,.58-1.94.84-2.92l.27-1q-1,3,.64-2.1c2-8.06-5.23-19.91-15.3-15-19.36,9.45-20.21,38.68-4.81,51.34a31.9,31.9,0,0,0,13.95,6.6,54.52,54.52,0,0,0,8,25.78c-26.8,14.08-47.84,39.38-60.62,65.59C560,914,550.78,914,550.1,920.43c-.25,2.42-.35,4.81-.57,7.22-10.43,2.79-12.61,17.84-1.64,20.32a565.27,565.27,0,0,0,2,93c1.39,13.2,5.62,29.91,20.24,35.37,71.37,26.66,160.71-5.17,233-14.42a13.34,13.34,0,0,0,11.93-14.2c-2.57-45.61-10.46-89.9-21.89-134.13-1.87-7.25-6.67-11.35-14.76-11.15-.5,0-1,.07-1.49.09a7.69,7.69,0,0,0-.47-1.92c-17.27-38.91-66.19-58.3-108.41-58.53a92.89,92.89,0,0,0-31,5.27,67.35,67.35,0,0,1-3.53-12.6,46.07,46.07,0,0,1-.42-7.69,54.36,54.36,0,0,0,24.84-13.46c18.17-17.71,9.77-41.63-5.09-57.44,23.83-20.24,38.95-72,46.7-98.58,18.74,13,38.48,23.74,52.87,32.07,61.47,35.6,127.72,64.56,194.49,90.2,5.61,33.38,14.08,68,25.79,99.72,1.38,3.75,5.13,5.49,9,5.69-8,1.61-16,3.22-24,4.77a6.25,6.25,0,0,0-1,.36,9.08,9.08,0,0,0-10.15,6.79c-2.52,8.56.9,18.34,2.65,26.88q1.31,6.38,3.07,12.64c-10.93,4.24-5.18,20.18,6.17,19.51,18.44-1.11,37.11-2.37,55.87-3.76,8.72,42.49,14,84.48,18.8,127.79.57,5.13,5.08,10.2,10.72,10.65,46.92,3.79,93-3.45,139.6-9,5.54-.66,10.61-4.91,11.33-10.31a526.24,526.24,0,0,0,4.11-84.7c-.47-16.25-.36-38.73-9.15-54.31,14.61-2.41,29.14-5,43.45-7.85,3.23,4.06,12.35,2.41,12.55-3.34.38-11.19-.31-22.3-.56-33.49C1245,877.61,1249.08,863.17,1243.79,854ZM612.3,1058.3c-28.18-2-34-10.35-37.35-31.5q10.13,9.15,20.86,17.68c5.73,4.57,11.59,9.28,17.58,13.85C613,1058.31,612.67,1058.33,612.3,1058.3Zm18.78.6c-8.38-6-17.15-11.53-25.41-17.45-10.71-7.67-21.25-15.56-31.9-23.3,0-.1,0-.18,0-.28-.67-5.56-1.23-11.13-1.86-16.69,23.07,17.86,46.1,41.28,71.91,57.41C639.55,1058.73,635.32,1058.92,631.08,1058.9Zm34.93-1.66c-13.33-8.79-27.4-16.76-40.19-26.32-18.33-13.7-36-28-55.18-40.68q-.66-5.93-1.33-11.84c21.86,14.11,42.64,29.79,63.79,44.82,14.48,10.29,34.89,29.79,54,31.22,4.77.35,9.1-6.07,4.2-9-41.53-24.87-80.84-53.46-123.17-77.15q-1.06-9.56-2.14-19.11c2.62.05,5.21-.11,7.82-.12,23.52,21.13,49.4,39.43,76.83,55.94,25.55,15.39,55.28,35.11,85.52,42.07C712.86,1051.18,689.49,1055.12,666,1057.24Zm121-22.39c-23.88-16.63-50.75-30-76.33-44-24.71-13.5-52.15-34.41-79.42-42.21-2.55-.73-5.3,1.76-3.45,4.12,15.45,19.58,45.78,32.26,67.31,45,24.29,14.41,48.19,29.75,72.71,43.9-6,1-12.1,1.94-18.16,3a5,5,0,0,0-1.75-6.06c-23.77-16.85-54.68-26.16-80.81-39.65-28.26-14.58-55.68-31.09-80.89-50.13,24.87-.84,49.5-4,74.09-7.55,21.8,13.66,44.55,25.88,67.21,38.2,11.36,6.16,22.75,12.27,34.06,18.51,7.18,4,14.64,9.74,22.83,12.24C785.37,1018.44,786.27,1026.63,787,1034.85Zm-5.38-44.07c-13.25-8.3-31.64-14.23-42.75-19.45-22-10.37-44.12-20.67-65.66-31.91,11.78-1.77,23.56-3.51,35.36-5.15.23.31.29.69.68.94,12.15,7.76,25.19,14.35,37.73,21.57,9,5.19,17.9,10.59,26.58,16.27,1.86,1.22,3.73,2.55,5.62,3.79C780,981.49,780.87,986.12,781.58,990.78Zm-12.31-62.59c2.14,8.87,4,17.76,5.83,26.65-6.83-3.24-13.67-5.84-17.67-7.76-10.11-4.85-21.23-11.05-32.57-15C739.59,930.31,754.37,928.84,769.27,928.19ZM661.64,864.35c40.77-6.79,65.27,18.36,93.09,39.52C695.19,908.8,637,924.75,577.31,926.63,596.85,895.19,621.59,871,661.64,864.35ZM1043.35,651.1c17-47.51,87.18-46.35,132.2-51.53-1.39,32,10.4,67.36,13.74,98.49,5.38,50.15,6.21,100.43,8.71,150.75,0,.11.07.18.08.3-71.27,5.66-141.61,21.13-211.68,35.27.05-.07.08-.16.13-.23,3.33-2,5.86-5.21,5.22-9.2-5.59-34.44-16.67-67.89-21.81-102.44a10.42,10.42,0,0,0-1.17-3.13C998.43,730,1026.64,697.78,1043.35,651.1ZM717,574c-2.91,2.85-5.84,5.66-8.85,8.34-1.42-2.67-2.83-5.36-4.36-8A119.12,119.12,0,0,1,717,574Zm-85.45,166.5c-7.57,1.84-14.21-18.23-16.6-27.69,1.46.82,2.86,1.72,4.33,2.52,8.35,4.56,18.34,10.49,28.33,10C643,733,637.6,739,631.52,740.51Zm20.16-22.71a4,4,0,0,0-.92-1.29c-6.86-4.79-16.13-6.64-23.88-10-4.46-1.94-8.82-4.08-13.16-6.29a67.52,67.52,0,0,1,2.38-13.86c11.32,9.63,25.78,18.56,40.13,21.27C654.84,711,653.34,714.43,651.68,717.8Zm12.47-31c-.65,1.66-1.41,3.73-2.26,6.07-6.21-1.26-12.52-2.35-18.5-4.73A84.89,84.89,0,0,1,620.14,674c2.37-6.13,5-12,7.53-17.63,7.83,4.43,15.73,8.73,23.91,12.56,3.92,1.84,10.63,5.42,16.76,6.54C667,679.25,665.62,683.06,664.15,686.84Zm8.91-24.36c-4.14-1.6-8.78-2.63-10.75-3.32-10.33-3.61-20.19-8.4-29.9-13.34,1.5-3.3,3-6.69,4.52-10,12.56,6.38,25.66,13.68,39.16,17.9C675.08,656.62,674.08,659.55,673.06,662.48Zm-8-26.25c-8-3.19-16-6.55-23.9-9.87a214.05,214.05,0,0,0,7.94-20.94c6.2,13.15,16.92,25.18,29.56,36.07C674.19,639.69,669.62,638,665.07,636.23Zm9.39-29.86c-6.81-8.86-12-18.24-14.71-28.21,10.87.2,22.18-1.48,33.56-2.78,2.08,4.6,4.05,9.23,5.85,13.93-7.74,5.52-15.74,10.73-23.64,16A5,5,0,0,0,674.46,606.37ZM680,613a5.32,5.32,0,0,0,1.16-.4l2.88-1.63c.42.13.72.42,1.25.36a2.8,2.8,0,0,0,2.56-2.51c5.1-2.87,10.18-5.76,15.21-8.72q2.35,6.72,4.62,13.5c3.46,10.32,6,21.76,11,31.72C704.1,635.46,690.54,624.78,680,613Zm40.39-4.31c-2.08-5.11-4.33-10.12-6.67-15.08.28-.18.56-.34.84-.51,7-4.53,15.66-10.08,21.11-17a278.74,278.74,0,0,1,27.44,6c1.48,11.42,2.94,23,4.63,34.58-2.06,1.69-4.11,3.39-6.2,5-9.14,7-18.57,14.06-26.75,22.16C731.34,631.82,725.11,620.19,720.41,608.65Zm18.07,48.91c9.71-8.78,21.07-16.27,32.09-23.63,2.93,16.25,6.91,32.24,12.85,47.51C769.11,674.35,753.69,666.46,738.48,657.56ZM785.76,624c8.71-5.52,18.13-12.24,19.31-21.25.8-6.08-6.05-9.87-11.35-6.46a144.59,144.59,0,0,0-12.44,9.21q-2.26-9.66-4.57-19.38c19,5.89,37.64,13,55.71,20.12l.32.14a5,5,0,0,0-.12,1c.89,15.26,3.83,30.28,7.45,45.14-.87.79-1.74,1.59-2.6,2.33-10.67,9.11-21.81,17.38-34.23,24C795.79,661,790.42,642.64,785.76,624Zm54.69,84.86c-9.72-4.55-19.48-9-29.11-13.79l-.88-.42c-.86-1.71-1.54-3.45-2.35-5.17,12.47-4.71,23.89-11.42,34.73-19.11l1.5-1c2.37,9.4,4.34,19.77,6.92,29.88C847.65,702.46,843.93,705.57,840.45,708.9Zm5.78-96.54c10.12,4.58,20.1,9.47,29.84,14.84a8.54,8.54,0,0,0-3.59.43c-7.06,2.51-13.33,7.28-19.23,12.57Q849.37,626.39,846.23,612.36Zm17.84,63.26q-2.64-8.14-5.15-16.28c8.68-6.13,17.17-12.9,22.28-20.53a7.66,7.66,0,0,0,.11-8.6c9.86,5.56,19.59,11.39,29.28,17.26-7.58,6.45-14.64,14.11-20.47,18.92-7.54,6.21-15.16,12.4-22.71,18.67C866.22,681.86,865.06,678.69,864.07,675.62ZM876,725.4a1.76,1.76,0,0,0,.1-.3c.92-7.68-.59-15.58-2.93-23.39,9.52-6.85,18.95-13.82,28.35-20.75,5.5-4.05,13.22-8.61,20.44-13.74q5.61,16.83,10.56,33.84c.39,1.32.75,2.75,1.12,4.14-.36.23-.74.5-1.1.72a371.14,371.14,0,0,1-46.46,23.93C882.76,728.35,879.38,726.91,876,725.4Zm30.15,13.31c9.69-2.89,19.33-8.29,26.85-12,1.65-.81,3.48-1.65,5.32-2.5,3,12.35,6.73,24.94,13.33,34.59C936.48,752.15,921.33,745.41,906.17,738.71Zm44.56-45.56c-3.59-9.65-7.34-19.16-11.54-28.46,10.28,6.1,20.61,12,31.09,17.49C963.67,684.5,957.07,688.66,950.73,693.15Zm8.75,21.12c11.47-5.82,22.37-12.69,27.73-21.29a7.12,7.12,0,0,0,.86-2.11c3.74,1.72,7.47,3.44,11.28,5-8.62,15.65-19.45,30.25-29.87,45C967,732,963.23,723,959.48,714.27Zm125.13,353-2-1.06c-4.43-2.37-8.69-5-12.9-7.69-5.15-3.31-10.11-6.92-15-10.66-.72-4.69-1.64-9.38-2.48-14.07,9.49,7.39,18.65,15.19,28,22.78,3.66,3,7.77,6.65,12.15,10.26C1089.83,1066.94,1087.22,1067.16,1084.61,1067.25Zm32.86-2.27c-10.47-7.39-22.79-13.69-32.8-21.09-11.43-8.45-22.9-16.89-35.06-24.34-1.67-7.91-3.67-15.75-5.85-23.53,22.35,13.92,43.08,30.19,64,46,8.51,6.43,18,14.18,28.08,21C1129.69,1063.7,1123.59,1064.41,1117.47,1065Zm53-6.08-7.38.9c-19.09-13.56-41.61-25-60.52-38.07-20.11-14-40.45-27.18-62.49-38.06a239.27,239.27,0,0,0-12.95-32.1l2.64-.23c25.38,20.54,52.76,39,79.11,58.38q22.59,16.6,44.76,33.73c5.6,4.34,11.07,9.64,17,14.19C1170.57,1058.05,1170.54,1058.48,1170.49,1058.9Zm2.41-26.6c-15.15-11.82-34.3-21.82-46.67-30-26.75-17.79-53.71-35.63-81.39-52.2,6.8-.58,13.62-1.36,20.44-2a2.85,2.85,0,0,0,1.48,4.1c23.19,10.3,43.93,27.86,64.42,42.13,10.44,7.27,26.72,23.18,42.06,30C1173.11,1027,1173.08,1029.62,1172.9,1032.3Zm.57-42.49c.24,4.92.22,9.85.23,14.78-1.67-.91-3.34-1.83-4.79-2.74-12.52-7.9-24.85-16.06-37.29-24.08-16-10.28-36.67-26.39-56.81-30.62,11.42-1.1,22.83-2.35,34.23-3.59,17.83,10.24,33.81,23.26,50.25,35.33,3.88,2.85,8.79,7,14.1,10.14C1173.4,989.29,1173.46,989.55,1173.47,989.81Zm-30.13-50.44q12.45,10.1,25.48,19.72.92,5.07,1.86,10.14c-4.68-2.86-9.3-5.8-13.9-8.73-10-6.35-19.92-12.81-30.06-19C1132.27,940.88,1137.79,940.08,1143.34,939.37Zm-174-5.34c-.64-4-1.23-8-1.67-12-.81-7.3-.25-15.51-2.55-22.61,86.65-5.33,171.95-23.2,258.58-29.72.31,5.44,1.39,11,2,16.29.75,6.4,1.65,12.75,2.76,19.07C1142.49,908.05,1055,924.29,969.29,934Z"/></g></g></svg>