<svg xmlns="http://www.w3.org/2000/svg" viewBox="0 0 1891.72 1635.32"><defs><style>.cls-1{fill:#ed662d;}.cls-2{fill:none;stroke:#ec662e;stroke-linecap:round;stroke-linejoin:round;stroke-width:6px;}</style></defs><title>Asset 2</title><g id="Layer_2" data-name="Layer 2"><g id="Layer_2-2" data-name="Layer 2"><path class="cls-1" d="M1031.4,8C615.47-56.22,93.55,272.5,126.57,729.2c-26.38-23.49-55.06-44.07-83.75-64.65C19.93,648.61-6.65,670.13,1.5,695.67,34.75,826.87,125.81,933,223.22,1025.25c9,9.57,32.42,6.93,39-4.4,66.92-108.1,76.51-233.54,76-355.2.25-21.2-29.87-31-44.31-18.82-31.19,27.33-73.39,50.61-106.9,80.85,13.48-207.92,90.13-370,262.32-503.22,165-127.08,376.1-172,580.95-179.26C1051.43,45.46,1050.21,11.2,1031.4,8ZM75.68,745.52c20,13.62,37.08,24.93,57.07,38.55,2.9,2.32,5.51,2,8.4,4.35s8.4,4.34,13.91,6.37c6.38,9.86,20.28,16.23,32.12,4.32L281.65,725c-4.18,79.85-13.27,162.91-50.17,233.22C169.14,896.4,111.14,826.2,75.68,745.52Z"/><path class="cls-1" d="M1855.74,1029.12C1722.46,1086.47,1593,1154,1453,1198.88c-22.84,7.87-18.42,47.06,5.6,49.64,63.66,3.41,125.6,15,186.67,18.66-210.59,212.71-231.18,205-249,200.06-119.67,61.12-250.39,94.38-383.76,104.11-282.07,23.86-546.2-97.2-653.22-368.27-7.26-17.7-38.21-11.57-33.25,9C390,1498.63,663.65,1634.49,938,1635.32c234.67,0,593.86-88.1,743.32-306a335.67,335.67,0,0,0,72,148c15.09,16.82,35.91,14.47,46.87-5.28,67.46-126.68,69.19-275.06,90.62-412.43C1896.27,1037.79,1876,1021.54,1855.74,1029.12Zm-128,244.63c-.59-5.23-3.77-10.16-7-15.09,10.07-27.6-23.23-42.36-42.29-24.34l-2.31,2.91-2.61.29c-37.62-6.34-75.55-15.3-113.17-21.64,91.07-34.08,181-78.62,271.47-117.92-14.55,104.84-21,211.41-62.77,308.73C1748.77,1366.64,1736,1323.1,1727.75,1273.75Z"/><path class="cls-1" d="M1472.11,175.34c29.73-40.4,51.05-85.14,92.37-116.26,19.65-12.8,13.21-46.47-13.41-48.76-125.61-14.95-250.58-.87-373,12.93-26,2.93-30.6,32.55-12.92,49.08,91.61,87.58,163.86,190.57,233.8,296.47,15.67,22.05,53.55,7.2,50.6-18.93-7.32-41.51-6.53-81.29-8.63-123.39C1682.55,358,1780,638.09,1822.2,895.3c2.65,23.52,33.6,17.38,33.85-3.81C1851.75,619.42,1721.5,306,1472.11,175.34Zm-52.4-20.56c-2.31,2.91-4.92,3.2-4.62,5.81-7.52,3.5-11.85,11.92-13.86,17.44-2.31,2.91-4.62,5.82-4,11,0,23.81-2.22,50.53-2.17,74.34-47.3-68.76-96.91-134.62-153.74-194.36,80.71-9.1,164.32-15.88,243.9-11.62C1462.4,89.11,1442.5,123.11,1419.71,154.78Z"/><path class="cls-2" d="M912.82,281c.47.81,29.78-18.19,30.21-17.44,1.1,1.91-53.63,53.52-52.8,55,1.29,2.24,107.8-65.77,109.33-63.12,2.17,3.74-114.32,90.31-112.49,93.48,1.65,2.86,136.66-83.51,138.65-80.06,2.61,4.51-141.66,106.88-139.34,110.88s161.5-97.91,163.52-94.41c2.35,4.07-157.3,109.24-155.31,112.7s161-98.81,163.55-94.43c2.35,4.09-153.42,102.91-150.81,107.44,2.3,4,160.48-97.22,162.45-93.79,2.5,4.33-147.17,104.19-144.87,108.18s145-88.69,147.16-85c1.89,3.27-123,94.71-120.82,98.48,1.76,3.05,118.57-71.85,120-69.3s-84.78,67.39-83.16,70.2c1,1.74,71.33-43.47,72.32-41.75"/><path class="cls-2" d="M946.61,262c0,.1,4.55-2.74,4.6-2.65.6,1,46.4,0,46.88.84,0,0,6.17-3.6,6.18-3.58.29.5,22.35,16,22.67,16.58,0,0,5.81-3.38,5.82-3.36.16.29,6.2,13.5,6.37,13.78,0,0,6.88-4,6.89-4,.21.36,3,15.78,3.21,16.21,0,0,6.43-3.74,6.44-3.72.33.57,8.84,22.75,9.19,23.35,0,0,5-2.92,5-2.9.32.56,1.56,25.49,1.87,26,0,0,.81-.49.82-.47.2.34-2.84,17.44-2.62,17.82,0,0,3.8-2.23,3.81-2.21.34.59-9.6,30.12-9.13,30.94,0,0,2.15-1.27,2.16-1.25.65,1.14-27.67,33.46-27.14,34.39,0,.08,3.64-2.21,3.69-2.13"/><path class="cls-2" d="M912.6,280.58c.09.16,6.83-4.13,6.91-4,.74,1.29-30.21,40.64-29.65,41.59,0,0,4.11-2.42,4.13-2.38.53.92-10.81,33.73-10.36,34.51,0,0,.85-.52.86-.5.44.75,1,29,1.33,29.66,0,0,5.4-3.14,5.41-3.12.27.46,2.54,21,2.77,21.43,0,0,1.91-1.14,1.92-1.11.23.39,10.48,13.74,10.73,14.17,0,0,4.17-2.43,4.18-2.41.3.51,13,16.41,13.25,16.88,0,0,1.44-.85,1.45-.83.34.6,24.18,13.85,24.58,14.54,0,0,4.92-2.87,4.93-2.85.45.78,30.63,3.43,31.1,4.25,0,0,5.54-3.27,5.57-3.22"/><path class="cls-2" d="M1223,384.27c.44.75,26.08-16,26.48-15.29.83,1.43-50.66,44.82-49.93,46.09,1.3,2.24,87.94-53.39,89.08-51.43,1.55,2.69-98.74,72.91-97.42,75.2,1.74,3,121.13-73.73,122.77-70.88,1.75,3-124.82,87.26-123,90.41,2.46,4.26,139.16-85.81,141.53-81.71C1335,381,1189,470,1191.5,474.31c2.65,4.58,149.34-90.47,151.18-87.28,2.43,4.2-149.17,104.31-146.89,108.26,2.73,4.73,159.9-98.1,162.4-93.77,2,3.53-150.58,105.8-148.21,109.9s160.85-97.32,162.78-94c2.6,4.51-149.18,108-146.88,112,2.11,3.66,144.86-88.57,147-84.87,2.25,3.9-128.59,95.46-126.49,99.1,1.78,3.07,130.23-79.68,132.18-76.31,1.82,3.15-102.84,76.82-101.42,79.28,1.58,2.74,87.33-53.42,88.63-51.17.77,1.34-53.82,45.85-52.87,47.49.35.61,33.48-20.19,33.85-19.54"/><path class="cls-2" d="M1248.05,370.3c0,.09.77-.55.82-.47.47.81,44.4-6,44.85-5.2,0,0,.28-.2.3-.17.29.5,20.13,7.72,20.45,8.28,0,0,7.58-4.41,7.59-4.38.28.48,17.8,11.57,18.12,12.14,0,0,0-.06.07,0,.36.62,15.72,17.58,16.07,18.17,0,0,2.19-1.3,2.21-1.27.19.32,4.22,12.74,4.39,13,0,0,2.34-1.37,2.35-1.35.34.59,9.24,20.9,9.52,21.39,0,0,0,0,0,0,.4.69.58,29.85.91,30.41,0,0,.88-.54.9-.52.4.7-14.33,36.63-13.82,37.52,0,0,4.78-2.8,4.79-2.77.51.88-24.23,28.54-23.68,29.49.07.11,4.19-2.53,4.24-2.45"/><path class="cls-2" d="M1222.79,383.8c.08.15,3.07-1.95,3.15-1.81.55,1-30.47,33.72-30,34.57,0,0,1.33-.8,1.34-.77.32.55-9,23.54-8.77,24,0,0,1-.61,1-.59.24.42-2.46,20.26-2.21,20.69,0,0,.85-.52.86-.5.23.39.9,15.21,1.13,15.6,0,0,.79-.47.8-.46.28.49,4.7,20.13,5,20.59,0,0,1.47-.88,1.48-.86.24.41,12.43,16.53,12.7,17,0,0,2.59-1.52,2.6-1.5.33.57,12.76,19.15,13.06,19.66,0,0,.81-.49.82-.47.34.59,19.17,14.26,19.49,14.81,0,0,7.31-4.25,7.33-4.23.33.57,21.37,7.81,21.62,8.25,0,0,1.38-.84,1.4-.81.41.71,37.19-4.6,37.7-3.73.06.12,10.38-6.15,10.45-6"/><path class="cls-2" d="M1375.78,618.25c.37.65,25.88-16,26.32-15.19.84,1.46-47.6,46.9-46.91,48.1,1.55,2.68,93.58-58,95.3-55,1.82,3.16-110.79,77-108.77,80.49,1.85,3.2,132.32-80.46,134.08-77.4,2.23,3.85-130.27,89-128,92.88s142.5-87,144.54-83.45c2.29,4-145.09,104.91-143,108.56s154.4-95.21,157-90.67c2,3.42-150.3,108.79-148.09,112.6s160.85-98.71,163.38-94.33c2.67,4.62-144.22,108.8-142,112.57,2.06,3.59,153.21-93.17,155.25-89.63,1.84,3.19-136.74,98.78-135,101.82,2,3.47,133.44-80.83,135.08-78,1.86,3.23-112.57,86.11-110.6,89.53,1.24,2.15,96.92-59.78,98.58-56.91.93,1.61-51.08,47.4-50.3,48.75.39.68,27.46-17,28-16.14"/><path class="cls-2" d="M1409.57,599.33c0,.07.66-.5.71-.41.49.86,45-3.08,45.68-1.92,0,0,1.14-.69,1.15-.66.3.52,19.9,6.66,20.2,7.18,0,0,.92-.57.93-.54.23.4,19.92,10,20.19,10.49,0,0,1.48-.87,1.49-.86.24.42,8.7,15.54,8.91,15.89,0,0,3.27-1.92,3.29-1.89.18.32,6,15.28,6.23,15.62,0,0,2.78-1.63,2.79-1.61.19.34,6.36,12.91,6.52,13.19,0,0,.51-.32.52-.3.37.65,5.74,23.53,6.08,24.12,0,0,.42-.27.43-.26.46.8-5,31-4.6,31.81,0,0,1.05-.64,1.06-.61.71,1.22-31.52,46.42-30.68,47.87,0,.08,6.27-3.77,6.33-3.66"/><path class="cls-2" d="M1375.56,617.88c.07.12,2.93-1.89,3-1.74.58,1-28.39,36.3-27.91,37.13,0,0,1.17-.72,1.19-.68.35.61-11,23.13-10.57,23.8,0,0,7.92-4.6,7.93-4.57.31.54-5.21,21.24-4.9,21.78,0,0,.85-.52.86-.5.31.53,3.61,23.27,3.89,23.76,0,0,.77-.47.78-.45.26.44,7.45,22.14,7.74,22.63,0,0,2-1.15,2-1.13.4.7,18.88,18.9,19.21,19.47,0,0,3.19-1.87,3.2-1.85.24.42,16.64,13.75,16.87,14.15,0,0,1.52-.91,1.54-.89.33.59,22.19,12,22.55,12.66,0,0,2.41-1.44,2.43-1.4.64,1.1,46.93-7.55,47.46-6.63.08.14,4.54-2.83,4.63-2.67"/><path class="cls-2" d="M1382.28,879c.41.71,26.6-16.21,27-15.57,1,1.73-57.34,59.7-56.3,61.5,1.47,2.56,108.52-67.12,110.46-63.77,1.55,2.68-111.72,83.89-110,86.87S1491.72,862.81,1494,866.8s-142.16,98.44-139.89,102.37c2.55,4.42,153.13-93,155.12-89.56,2.73,4.73-156.73,105.49-154.15,110s165.94-100.5,168-97c2.25,3.89-154,110.51-151.92,114.12,2.74,4.75,160.28-98.88,163-94.12,2.36,4.08-153,98.85-150.39,103.38,2.12,3.67,147.59-90.79,150-86.61,2.24,3.89-138.43,93.8-136.49,97.16,2.34,4.06,139.1-84.84,141.06-81.44,1.51,2.61-119.15,89.15-116.91,93,2,3.39,111.35-68.55,113.2-65.35,1.16,2-56.74,59.56-55.85,61.1.48.83,22.53-13.95,22.93-13.24"/><path class="cls-2" d="M1416.06,860c0,.08,1.33-.87,1.37-.79.29.51,28.35-.89,28.69-.3,0,0,8.82-5.14,8.84-5.1.31.54,24.65,9.57,25,10.09,0,0,1-.59,1-.57.37.63,21.38,11.82,21.65,12.29,0,0,2.2-1.3,2.21-1.27.21.35,7.45,11.26,7.64,11.58,0,0,.78-.48.79-.46.2.34,9.69,12.54,9.87,12.84,0,0,4.13-2.41,4.14-2.39.19.33,5.68,15.31,5.91,15.7,0,0,2.24-1.32,2.25-1.3.27.47.67,21,1,21.53,0,0,.75-.46.76-.44.32.56-.43,28.25,0,29,0,0,.94-.57,1-.55.39.66-9.33,26.77-8.92,27.48,0,0,1.32-.8,1.34-.77.56,1-26.81,31.36-26.34,32.19.06.1,4.78-2.86,4.82-2.78"/><path class="cls-2" d="M1382.06,878.59c.08.13,3.6-2.25,3.67-2.12.7,1.21-34,47-33.32,48.23,0,0,1.09-.67,1.11-.64.26.46-.88,23.2-.59,23.7,0,0,.39-.26.41-.24.29.51,0,20.94.3,21.43,0,0,.65-.4.66-.38.3.52-.15,20.39.13,20.88,0,0,7.09-4.12,7.1-4.1.27.47,8.66,20.83,8.92,21.27,0,0,3.23-1.91,3.25-1.88.18.32,6.59,12.27,6.8,12.63,0,0,.79-.49.8-.47.23.4,13,10.42,13.16,10.76,0,0,.88-.53.89-.51.27.48,24.53,10.42,24.94,11.12,0,0,.59-.38.61-.35.78,1.36,55.38-3.42,56-2.38.09.16,5.46-3.34,5.54-3.2"/><path class="cls-2" d="M1200.59,1112.44c.45.79,25.49-15.54,25.84-14.93,1,1.8-58,60.3-56.84,62.36,1.68,2.91,111.91-68.79,113.72-65.66,2,3.42-118,84.73-116.07,88.14,2.37,4.11,134.06-81.18,135.69-78.35,2,3.45-140.63,103.58-138.39,107.45,2.62,4.54,158.44-97.13,160.89-92.89s-149.72,103.93-147.74,107.37c2.34,4,158.65-97.68,161.28-93.12,2.72,4.71-161.87,102-159,106.94,2.77,4.8,163.28-99.1,165.37-95.48,2.57,4.45-146.39,110.89-144.52,114.15s146.46-90.52,149-86.05c2.24,3.87-130.88,89.16-128.84,92.7s131.47-80,133.26-76.93c1.44,2.5-108.8,81.71-107.28,84.33,1.25,2.18,103.35-62.92,104.76-60.48,1.17,2-57.21,54.89-56.38,56.34.5.86,21.83-13.57,22.25-12.85"/><path class="cls-2" d="M1225.71,1098.51c0,.1,8.85-5.25,8.91-5.14.31.53,28.82-.74,29.21-.06,0,0,2.6-1.54,2.62-1.51.35.61,23.26,8.11,23.57,8.65,0,0,5-2.9,5-2.88.38.65,24.36,15.94,24.67,16.49,0,0,.82-.49.83-.47.2.35,10,10.94,10.19,11.21,0,0,.75-.46.76-.44.3.52,8,18.15,8.25,18.67,0,0,5.38-3.13,5.39-3.11.2.35,1.44,15.73,1.67,16.13,0,0,5.85-3.4,5.86-3.38.29.5-.4,21.73-.16,22.15,0,0,.8-.49.81-.47.32.55-2.35,26.54-2,27.05,0,0,1-.62,1-.59.4.71-11.29,26.6-10.88,27.31,0,.05,1.49-.91,1.51-.88"/><path class="cls-2" d="M1200.37,1112.06c.09.15,2.48-1.59,2.55-1.47.73,1.26-34.56,47.56-33.73,49,0,0,.12-.1.13-.07.34.58-5.46,23.51-5.13,24.08,0,0,.89-.53.9-.52.32.56-1.44,27.55-1.08,28.17,0,0,4.52-2.63,4.53-2.61.25.44,6.28,18,6.49,18.32,0,0,.81-.5.82-.47.19.33,3.3,12.76,3.5,13.12,0,0,4.46-2.6,4.47-2.58.38.65,17.4,20,17.68,20.49,0,0,.81-.5.82-.47.25.43,14.39,9.49,14.61,9.88,0,0,.93-.56.94-.54.3.53,27.55,5.75,27.87,6.3,0,0,.66-.42.68-.39.67,1.16,45-2.23,45.49-1.4.1.17,5.47-3.34,5.55-3.2"/><path class="cls-2" d="M916.61,1212.75c.39.67,32.88-19.86,33.26-19.2,1,1.75-57.87,54.85-57,56.34,1.79,3.11,97.24-59.46,98.68-57,1.71,3-107.7,87.67-106,90.64,2.09,3.61,138.78-84.79,140.8-81.29,2.44,4.23-140.35,104.62-138,108.62,2.73,4.72,154.51-93.54,156.38-90.29,2.67,4.61-145.33,108.57-142.94,112.71,1.92,3.32,161-97.64,163.06-94.14,2.32,4-150.85,107.94-148.49,112s153.1-93.41,155.27-89.65c1.87,3.24-148.68,98-146.75,101.28,1.81,3.14,142.12-87.44,144.45-83.4,1.72,3-114.28,91.9-112.43,95.11,1.33,2.31,107.09-65.84,108.82-62.83,1,1.78-55.36,55.11-54.3,56.94.4.7,31.79-19.25,32.18-18.57"/><path class="cls-2" d="M946.19,1196.25c0,.08,3.48-2.11,3.52-2,.54.92,48.41-2.22,48.9-1.36,0,0,1.15-.71,1.17-.67.38.66,25.22,15.24,25.56,15.82,0,0,8-4.67,8.06-4.65l7,11.89s.28-.19.29-.17c.34.58,15.35,15.69,15.64,16.19,0,0,.75-.46.76-.44.21.35,7.51,13.62,7.71,14,0,0,2.43-1.43,2.44-1.41.28.48-1.53,19.31-1.23,19.83,0,0,7.35-4.28,7.37-4.26.21.38-4.18,19.67-4,20,0,0,.41-.28.43-.25.24.41,1,16.26,1.21,16.64,0,0,1.41-.85,1.42-.82.45.77-14.69,32.81-14.18,33.69,0,0,2.29-1.36,2.31-1.33"/><path class="cls-2" d="M916.39,1212.37c.08.13,9.93-5.9,10-5.77.73,1.27-38,43.94-37.42,45,0,0,1.2-.73,1.22-.7.4.7-5.53,31.71-5.13,32.41,0,0,.14-.11.16-.09.38.66,2.47,26.65,2.83,27.28,0,0,.82-.49.83-.48.38.66,11.9,22.52,12.24,23.12,0,0,1.73-1,1.74-1,.28.49,12.43,18.44,12.72,18.95,0,0,1.59-.95,1.6-.93.15.26,6.67,12.35,6.82,12.62,0,0,1.35-.81,1.36-.78.38.66,29.82,12,30.23,12.73,0,0,1.67-1,1.69-1,.71,1.24,53.72-6.12,54.46-4.85.07.13,8.65-5.16,8.73-5"/><path class="cls-2" d="M641.45,1116.37c.38.67,31.82-19.17,32.17-18.58.86,1.5-53.73,51.35-52.94,52.71,1.65,2.87,101.9-61.75,103.16-59.56,1.81,3.13-112.92,83.88-111.32,86.65,1.77,3.07,132.77-80.24,134.32-77.55,2.27,3.93-133.27,91.65-131.36,95,1.82,3.15,147.26-89.86,149.35-86.23,2,3.43-145.83,104.51-143.75,108.12s155-95,157.43-90.89c1.86,3.23-151.71,107.33-149.5,111.16s156.76-97,159.56-92.12c2.53,4.38-150.19,103.88-147.54,108.47,1.93,3.35,156-94.31,157.86-91.14,2,3.49-137.94,102.46-135.38,106.89,2,3.55,137-83.42,138.9-80.2s-103.51,83.69-102,86.24c1.14,2,93-56.41,94.16-54.36.92,1.59-57.67,49.18-56.9,50.51.44.77,33.13-20,33.52-19.35"/><path class="cls-2" d="M675.23,1097.44c0,.08,6.51-3.89,6.57-3.79.63,1.09,41.9-.07,42.54,1,0,0,4.34-2.55,4.36-2.52.35.61,24.54,8.73,24.81,9.19,0,0,.84-.51.86-.49.21.36,15.21,12.83,15.51,13.36,0,0,2.11-1.24,2.12-1.23.2.35,9.61,14.16,9.81,14.5,0,0,2.28-1.35,2.29-1.33.16.27,4.85,13.77,5,14.08,0,0,.77-.47.78-.46.28.5,5.18,22.13,5.5,22.68,0,0,.91-.56.92-.54.17.29,1,15.23,1.24,15.58,0,0,4.65-2.72,4.67-2.69.5.86-5.41,33.06-5,33.7,0,0,1.09-.67,1.1-.64.65,1.13-33.59,45.71-32.8,47.06.06.1,3.19-2,3.24-1.87"/><path class="cls-2" d="M641.23,1116c.07.13,8.81-5.24,8.88-5.13.57,1-30.32,38.45-29.8,39.35,0,0,2.18-1.29,2.19-1.27.39.68-10.78,27.82-10.44,28.42,0,0,1.59-.95,1.6-.93.26.45,1.12,18,1.33,18.35,0,0,.6-.37.62-.35.26.45,2.57,23,2.84,23.48,0,0,.76-.47.77-.45.22.38,9.28,18.91,9.54,19.35,0,0,.74-.46.76-.44.28.48,10.46,16.57,10.75,17.08,0,0,3.5-2,3.51-2,.3.52,18.32,17.26,18.71,17.92,0,0,5.73-3.34,5.75-3.32.43.76,30.33,9,30.68,9.61,0,0,2.25-1.34,2.27-1.31.44.77,36.27-3.06,36.65-2.41.08.15,10.11-6,10.19-5.89"/><path class="cls-2" d="M464.27,879.46c.4.69,31.73-19.33,32.16-18.57.92,1.58-60.86,51.49-59.94,53.09,1.46,2.52,95.66-58.93,97.26-56.15,1.51,2.61-105.9,78-104.17,81,1.48,2.56,127.82-78.59,129.9-75,1.76,3-127.08,85.91-125,89.56,1.72,3,141.19-86.64,143.41-82.8,2.45,4.25-140.36,107.6-138.37,111s161.09-97.31,163-94.08c2.51,4.35-152.89,113.85-150.69,117.66,2.32,4,155.25-95.53,157.8-91.11,2,3.45-152,100.43-149.94,104,2,3.4,155.52-95.36,157.93-91.19,2.27,3.94-130.2,99.15-128.24,102.56s131-80.93,133.28-77c1.92,3.32-119.81,85.58-118.06,88.62,1.4,2.43,109.59-67,111.19-64.2,1.32,2.29-65.95,58.22-64.9,60,.79,1.37,45.87-27.85,46.46-26.82"/><path class="cls-2" d="M494.59,862.54c0,.08,3.51-2.15,3.56-2.06.62,1.08,41.87-3.32,42.33-2.52,0,0,1.25-.77,1.27-.74.3.52,23,8,23.29,8.54,0,0,2.29-1.35,2.3-1.33.25.44,16.95,10.27,17.19,10.68,0,0,1.07-.65,1.08-.63.33.57,14.72,17.12,15,17.56,0,0,.77-.48.79-.45.26.46,9.72,16.65,9.94,17,0,0,.73-.45.74-.43.27.47,2.22,18.29,2.41,18.64,0,0,.53-.33.54-.31.18.31,5.14,12.79,5.29,13,0,0,.79-.49.8-.47.32.55,2.34,22,2.6,22.41,0,0,1-.6,1-.58.69,1.21-23.25,42.68-22.74,43.57,0,.06,4.52-2.67,4.54-2.62"/><path class="cls-2" d="M464.05,879.08c.08.14,8.79-5.27,8.87-5.12.62,1.07-37.4,38.63-36.77,39.71,0,0,3.65-2.16,3.67-2.12.33.58-11.06,26.35-10.68,27,0,0,3-1.78,3.05-1.76.2.35-.19,17,0,17.39,0,0,.85-.52.86-.5.39.68,5.54,27.23,5.86,27.79,0,0,3.49-2,3.5-2,.36.62,8.79,24.87,9.1,25.41,0,0,.76-.47.77-.45.17.29,6.42,13.37,6.59,13.67,0,0,3.16-1.85,3.17-1.83.38.66,22.37,14.84,22.7,15.41,0,0,.92-.57.94-.54.26.46,17.34,9.88,17.58,10.3,0,0,4-2.34,4-2.32.61,1.06,40.3-1.81,40.78-1,0,.07,1.37-.87,1.4-.81"/><path class="cls-2" d="M460.53,617.89c.36.63,33.55-20.18,33.9-19.57,1,1.75-63.31,58.35-62.24,60.21,1.23,2.13,103.06-63.35,104.73-60.46,1.54,2.67-111.53,79.65-109.93,82.42,1.87,3.24,135.85-83,137.84-79.58,2.43,4.2-141.8,92.38-139.69,96,2.46,4.26,148.38-89.66,150.11-86.67,1.89,3.27-144.28,95.55-141.73,100,2,3.53,155.54-94,157.37-90.85,2.72,4.72-154.12,113.14-152,116.84,2.43,4.22,165.64-101.11,168-97,2.52,4.36-147,110-144.95,113.6,2.53,4.37,149.25-90.41,151.09-87.23,1.72,3-137,94.95-134.55,99.11,2,3.46,133.22-82.07,135.45-78.21,1.65,2.85-121.44,84.62-119.82,87.43,1.71,3,118.6-71.76,120-69.3s-85.08,70.34-83.7,72.72c1.26,2.19,70.71-43.79,72-41.57"/><path class="cls-2" d="M490.71,601c0,.07,3.45-2.13,3.51-2,.75,1.3,49.38-2.14,50-1.12,0,0,1.14-.7,1.15-.67.26.45,20.14,7.92,20.37,8.33,0,0,.91-.57.93-.54.18.32,14.26,9.92,14.45,10.24,0,0,.8-.5.82-.47.29.5,17.16,18.55,17.53,19.19,0,0,.74-.45.75-.43.28.48,5.42,17.62,5.63,18,0,0,7.27-4.22,7.28-4.2.2.33.42,15.68.59,16,0,0,.74-.45.75-.43.34.59,2.18,23.21,2.48,23.72,0,0,.85-.52.86-.49.29.5-3.54,23.16-3.29,23.6,0,0,4.21-2.46,4.22-2.43.32.54-11.12,21.89-10.85,22.36,0,0,1-.62,1-.58"/><path class="cls-2" d="M460.35,617.43c.07.12,10.5-6.22,10.57-6.1.7,1.2-38.49,44.79-37.75,46.07,0,0,1.19-.72,1.21-.69.27.48-8.11,23-7.82,23.46,0,0,6.49-3.78,6.5-3.75.31.54-8.66,19.76-8.39,20.23,0,0,4.84-2.81,4.85-2.8.18.31,3.15,15.75,3.39,16.17,0,0,1.68-1,1.69-1,.39.67,3.32,26.48,3.63,27,0,0,6.39-3.71,6.4-3.69.35.61,13.13,21.66,13.42,22.16,0,0,.79-.48.8-.46.21.35,15.13,12,15.42,12.53,0,0,.88-.54.89-.52.21.36,16.58,8.2,16.78,8.55,0,0,1-.59,1-.57.44.76,32.18,4.86,32.59,5.57,0,0,1.62-1,1.64-.94"/><path class="cls-2" d="M632.3,385.78c.37.63,29.76-18.1,30.16-17.41,1,1.69-64.24,64.5-63.11,66.47,1.9,3.29,113.27-69.18,114.91-66.35s-111.88,86-110.44,88.47c2.08,3.59,141-86.16,143.1-82.61,1.9,3.3-147.9,104.36-145.86,107.88s157.09-96.13,159.45-92.05c2.71,4.7-149.52,110.94-147,115.29,2.74,4.74,160.88-97.54,162.9-94.05,1.85,3.21-147.93,110.24-145.66,114.17s150.42-91.92,152.62-88.11-130.17,95.39-128.12,98.94c2.32,4,133-80.56,134.67-77.75S675.33,544.4,677,547.22c1.36,2.35,101.32-61.64,102.68-59.29,1.2,2.08-57.79,54.88-57,56.3.37.64,34.29-20.61,34.64-20"/><path class="cls-2" d="M657.38,371.81c0,.08,4.46-2.67,4.5-2.59.58,1,40.76-7.36,41.25-6.51,0,0,3-1.76,3-1.73.31.54,24,11.09,24.42,11.75,0,0,.19-.15.2-.12.3.51,20.52,14.18,20.88,14.81,0,0,4.61-2.69,4.62-2.67.33.57,11.72,18,12,18.53,0,0,5.86-3.41,5.87-3.39.21.36,4.6,19,4.84,19.4,0,0,.11-.1.12-.07.29.5,7.46,22.57,7.74,23.07,0,0,.85-.52.86-.5.42.71-1.27,26.88-.87,27.58,0,0,.94-.58,1-.55.46.79-16.72,37.07-16.1,38.14,0,0,1.74-1.07,1.77-1"/><path class="cls-2" d="M632.13,385.32c.07.12,6.74-4.07,6.82-3.94.7,1.22-40.81,51.69-40,53.11,0,0,.53-.34.55-.31.25.44,3.61,22.09,3.84,22.49,0,0,.86-.53.88-.5.27.47-4.07,25.34-3.78,25.85,0,0,3-1.78,3-1.76.39.67,9,24.4,9.36,25,0,0,1.35-.8,1.36-.79.26.46,16.56,19.76,16.88,20.32,0,0,.79-.48.8-.46.32.55,19,13.33,19.27,13.85,0,0,.93-.56.94-.54.29.51,24.64,8.42,24.94,8.94,0,0,1.15-.7,1.16-.67.67,1.15,44.2-2,44.66-1.25.07.13,11.25-6.65,11.32-6.53"/><path class="cls-2" d="M1135.48,238.53c.27.47,12.91-8.11,13.2-7.62.55,1-27.93,36.46-27.45,37.3.86,1.48,63.73-38.63,64.52-37.25,1,1.78-58.78,50.11-57.86,51.71,1.19,2.06,67.88-41.66,68.95-39.81,1.17,2-58.33,54.38-57.5,55.82,1,1.73,66.13-40.14,67-38.67.74,1.29-49.83,47.15-49,48.57.69,1.2,49.83-30.5,50.58-29.21"/><path class="cls-2" d="M748.34,247.81c.26.47,23.59-14.16,23.82-13.75.58,1-31.23,40.52-30.5,41.79,1,1.72,59.24-36.58,60.27-34.8.78,1.37-54.88,51.65-54.11,53,1.07,1.87,69.46-42.39,70.45-40.67s-61.12,56.89-60,58.89,67.22-41,68.17-39.35c.62,1.07-32.26,41.53-31.53,42.79.24.42,20.45-12.5,20.75-12"/><path class="cls-2" d="M770.25,235.69c0,.06,2.56-1.57,2.6-1.5.51.88,33.45,7.22,33.92,8,0,0,.83-.51.85-.49.21.37,10.56,16.14,10.84,16.62,0,0,4.61-2.68,4.62-2.66.35.6-.82,27.18-.49,27.74,0,0,4.62-2.69,4.63-2.67.34.6-15.22,23.71-14.84,24.36,0,.06,2.52-1.54,2.56-1.48"/><path class="cls-2" d="M748,247.47c.05.09,8-4.69,8-4.61.44.76-18.83,33.76-18.27,34.73,0,0,.84-.52.85-.49.21.35,4.19,18.87,4.39,19.21,0,0,.75-.45.76-.43.25.42,13.38,15.86,13.68,16.37,0,0,3-1.73,3-1.71.41.71,34.32,4.73,34.8,5.56,0,.07,4.68-2.83,4.73-2.73"/><path class="cls-2" d="M471.08,462.28c.28.5,11.54-7.39,11.85-6.85.66,1.14-26.93,38.8-26.24,40,.87,1.5,64.6-39.26,65.45-37.79,1.15,2-67.7,53.09-66.42,55.3,1.17,2,79.63-48.65,80.79-46.64,1,1.73-72.12,56.33-70.75,58.69,1.19,2.07,71.9-43.86,72.92-42.1s-48.49,53.8-47.48,55.55C491.87,539.62,540,509,540.52,510"/><path class="cls-2" d="M486.9,453.71c0,.06,3.09-1.88,3.13-1.81.4.7,32,8.74,32.45,9.55,0,0,2.21-1.3,2.22-1.28.22.38,10.25,11.67,10.47,12.05,0,0,.75-.45.76-.44.24.42,2.05,19.26,2.31,19.7,0,0,3.09-1.81,3.1-1.79.28.49-7.52,26.64-7.14,27.29,0,0,1.66-1,1.68-1"/><path class="cls-2" d="M467,464.1c.05.1,3.58-2.2,3.64-2.1.5.86-15,32.29-14.46,33.2,0,0,0-.05.05,0,.23.41-1.38,17.16-1.12,17.61,0,0,7.51-4.37,7.52-4.34.18.31,2.12,16,2.37,16.47,0,0,1.49-.89,1.5-.87.4.7,22.84,14.07,23.23,14.73,0,0,8.15-4.75,8.17-4.72"/><path class="cls-2" d="M370.9,784.78c.28.48,13.67-8.5,13.93-8,.69,1.18-29.93,46-29.2,47.28.91,1.57,68.35-41.72,69.33-40s-64.61,57.38-63.39,59.5,75.58-45.89,76.56-44.2c.83,1.44-56.06,55-54.9,57,.95,1.64,58.81-36,59.68-34.46.74,1.29-38.21,36.4-37.44,37.73.24.41,23-13.88,23.27-13.43"/><path class="cls-2" d="M386.77,776.19s5.12-3,5.15-3c.22.38,19.22,6,19.48,6.44,0,0,2.52-1.49,2.53-1.46.27.46,19,12.36,19.33,12.88,0,0,2.6-1.52,2.61-1.5.31.53,3.76,25.58,4.09,26.17,0,0,4.61-2.69,4.62-2.67.32.57-6.11,21.5-5.79,22.06,0,0,.93-.58.95-.55"/><path class="cls-2" d="M366.78,786.65c.05.08,3.59-2.19,3.64-2.11.52.9-15.87,38.3-15.32,39.26,0,0,.19-.13.2-.11.22.39,5.3,19.18,5.59,19.68,0,0,3.34-2,3.35-1.94.24.43,17.59,14.4,17.94,15,0,0,3.19-1.88,3.21-1.86.29.51,20.06,4.9,20.36,5.43.05.08,7.14-4.22,7.18-4.14"/><path class="cls-2" d="M482.71,1119c.32.55,13.91-8.59,14.15-8.17.51.89-28.36,34.51-27.76,35.54.89,1.55,63-38.28,63.81-36.84,1.19,2.06-56.42,58.88-55.34,60.77s69.88-42.69,70.9-40.93-67.92,53.41-66.87,55.22,74.64-45,75.49-43.58c.95,1.65-45.06,51.53-44.28,52.89.36.62,35.13-21.14,35.5-20.49"/><path class="cls-2" d="M498.4,1110.45c0,.06,5.43-3.21,5.46-3.16.4.7,26.25,7,26.6,7.59,0,0,5.47-3.19,5.48-3.16.39.67,11.77,22.43,12.09,23,0,0,5.05-2.94,5.07-2.92.29.5-2.73,20.88-2.51,21.25,0,0,8.26-4.8,8.28-4.78.56,1-21.75,32.6-21.32,33.35,0,.06,3.62-2.18,3.66-2.11"/><path class="cls-2" d="M479.46,1120.33c.06.11,3.74-2.27,3.79-2.19.35.62-15,27.23-14.6,27.95,0,0,3.3-1.94,3.31-1.92.4.71,1.1,27.33,1.47,28,0,0,.75-.46.76-.44.18.31,6.43,12.51,6.61,12.81,0,0,6.64-3.86,6.65-3.85.37.65,23.05,13.32,23.36,13.85,0,0,7.05-4.12,7.08-4.09"/><path class="cls-2" d="M763.55,1319.7c.24.42,19-11.69,19.32-11.15.63,1.08-28.59,37.5-27.94,38.62.86,1.5,63.09-38.15,63.84-36.85,1,1.68-67.14,60-65.88,62.23s79-48.08,80.07-46.23c1.2,2.09-64.27,53.2-63.2,55,.94,1.64,61.85-37.75,62.73-36.22s-35.89,46.73-35.1,48.1c.38.66,34.53-20.86,34.93-20.17"/><path class="cls-2" d="M779.41,1311.11c0,.07,1.85-1.15,1.89-1.09.43.74,37.14,3.35,37.63,4.2,0,0,2.61-1.54,2.62-1.51.25.42,10.33,18.72,10.61,19.21,0,0,5.57-3.25,5.59-3.23.23.41-1.22,21.9-1,22.31,0,0,.89-.55.91-.52.44.76-13.28,27.45-12.88,28.14,0,.07,2.51-1.52,2.55-1.46"/><path class="cls-2" d="M763.24,1319.36c0,.08,3.27-2,3.32-1.92.42.73-12.55,28.74-12.12,29.49,0,0,.49-.3.5-.28.28.48-3,25.12-2.68,25.75,0,0,6.31-3.67,6.32-3.66.23.4,7.57,13.72,7.77,14.07,0,0,.8-.48.81-.47.42.73,27.7,10.91,28.1,11.61,0,0,9.38-5.48,9.41-5.43"/><path class="cls-2" d="M1121.43,1334c.28.5,23.83-14.43,24.13-13.92.54.94-30.13,39-29.57,40,.79,1.36,64.59-39.13,65.39-37.75,1,1.72-64.9,55.14-63.79,57.07.92,1.59,74.42-45,75.29-43.47,1,1.78-61.45,62.27-60.25,64.35.79,1.37,67.63-40.94,68.45-39.52"/><path class="cls-2" d="M1145.55,1320.61c0,.06,2.71-1.66,2.75-1.59.47.81,31.66,7.28,32,7.89,0,0,3.78-2.22,3.8-2.2.23.4,12.48,13.65,12.71,14,0,0,1.09-.65,1.1-.63.21.35,1,15.57,1.22,15.89,0,0,.85-.53.86-.5.27.47-3.31,17.73-3,18.19,0,0,3-1.79,3-1.76"/><path class="cls-2" d="M1121.11,1333.64c.05.1,8.36-5,8.41-4.86.38.64-14.44,30.38-14,31,0,0,1.68-1,1.69-1,.24.41-.48,19.91-.21,20.37,0,0,1.84-1.08,1.85-1.07l12.81,22.17s5.59-3.26,5.6-3.23"/><path class="cls-2" d="M1425.86,1116.36c.24.41,16.85-10.48,17.18-9.91.52.91-24.72,36.13-24.26,36.94,1,1.75,59.91-36.47,60.72-35.06,1.22,2.11-55.91,59.71-54.73,61.75s75.49-46.36,76.69-44.28c1,1.78-55.41,55.29-54.42,57,.71,1.24,48.9-30.12,49.72-28.7.58,1-26.13,29.75-25.72,30.46.28.49,21-13,21.39-12.35"/><path class="cls-2" d="M1446.88,1104.79c0,.07,2.49-1.53,2.53-1.46.34.59,32.37,6.53,32.87,7.39,0,0,.83-.51.85-.49.13.24,9,9.54,9.14,9.85,0,0,.76-.46.77-.45.36.63,7.56,23.79,7.82,24.26,0,0,.84-.51.85-.49.5.86-13.35,30-12.85,30.88,0,.06,2.52-1.54,2.55-1.47"/><path class="cls-2" d="M1425.55,1116c0,.08,1.16-.8,1.22-.7.38.68-13,29.62-12.62,30.22,0,0,.9-.54.91-.52.39.67,8.65,24.28,9,24.93,0,0,3.43-2,3.44-2,.29.51,14.41,16.6,14.7,17.09,0,0,1-.59,1-.56.37.64,25,.6,25.23,1,0,0,1.58-1,1.61-.93"/><path class="cls-2" d="M1431.73,466.25c.3.53,22.54-13.64,22.81-13.17.62,1.07-27.51,40.72-26.91,41.76.82,1.42,63.22-38.54,64.1-37,1.11,1.93-62.29,60.95-61.34,62.6,1.23,2.14,74.28-45.17,75.27-43.46s-62.44,54.64-61.48,56.31,63.61-38.47,64.36-37.16-34.36,39.13-33.81,40.09c.33.57,25-15.15,25.34-14.63"/><path class="cls-2" d="M1456.21,452.67c0,.07,5.39-3.18,5.42-3.13.37.63,31.59,10.53,32,11.2,0,0,.79-.49.81-.47.32.57,13.77,19.53,14.13,20.16,0,0,1.35-.8,1.36-.78.34.59-6.53,26.82-6.12,27.53,0,0,4.53-2.65,4.55-2.62"/><path class="cls-2" d="M1431.42,465.9c.06.1,6.79-4,6.84-3.95.48.83-15.6,34.18-15.14,35,0,0,.84-.51.85-.49.31.54,5.47,23.41,5.73,23.87,0,0,2.07-1.22,2.08-1.2.2.34,11.24,13.83,11.45,14.2,0,0,2.82-1.65,2.83-1.63.43.75,28.62,4.39,28.93,4.93.06.11,9.26-5.47,9.31-5.37"/><path class="cls-2" d="M1538.13,785.43c.27.47,16-10,16.33-9.43.86,1.5-33.75,46.84-32.91,48.28s68.25-41.58,69.19-39.95c1.06,1.84-65.82,51.67-64.8,53.44.92,1.59,75-46,76.22-44,1,1.72-60,49.32-58.89,51.25,1.23,2.13,65-40.23,66.13-38.18.88,1.52-38.66,47.62-37.93,48.88.57,1,30.37-18.6,30.83-17.8"/><path class="cls-2" d="M1553.81,776.91c0,.05,7.61-4.49,7.65-4.42.31.54,23.17,2.42,23.5,3,0,0,3-1.78,3-1.75.19.34,8.56,11.84,8.73,12.12,0,0,1.78-1.05,1.79-1,.24.43,8.93,14.79,9.15,15.17,0,0,.76-.47.77-.45.3.53,1.89,20.38,2.12,20.79,0,0,1-.59,1-.56.37.65-13,24.39-12.72,24.93,0,.07,2.5-1.54,2.54-1.47"/><path class="cls-2" d="M1537.82,785.09c0,.09.41-.38.47-.27.63,1.1-17.87,38.18-17.26,39.24,0,0,.68-.41.69-.4.18.32,3.43,13.65,3.6,14,0,0,2.47-1.46,2.49-1.44.19.34,10.45,10.72,10.67,11.1,0,0,.79-.49.8-.46.42.71,26.45,10.92,26.79,11.51,0,0,1.44-.87,1.46-.84"/><path class="cls-2" d="M1037.84,502.39c.37.65,20.87-12.92,21.25-12.26,1,1.66-45.79,46.34-44.89,47.9,1.31,2.28,80.89-49.25,82-47.34,1.5,2.61-82.7,67.34-81.41,69.57s96.3-58.93,97.74-56.43c1.18,2.05-81.41,70-80,72.54,1.67,2.91,93.93-57.36,95.28-55,1.57,2.72-81.45,65.53-80.35,67.44,1.35,2.34,83.4-50.65,84.48-48.77s-67.13,59.09-66.19,60.72,58.16-35.62,59-34.09"/><path class="cls-2" d="M1056.46,492.2c0,.08,1.48-1,1.53-.88.54.92,40.92.54,41.46,1.48,0,0,.3-.2.31-.18.31.54,15.21,14.38,15.44,14.79,0,0,3.3-1.94,3.31-1.91.31.54,10.47,22.84,10.76,23.35,0,0,.77-.48.78-.45.14.25,4.49,13.16,4.64,13.4,0,0,1.21-.73,1.22-.7.59,1-23.44,43.15-22.94,44,0,.08,2.07-1.31,2.12-1.22"/><path class="cls-2" d="M1037.54,502.05c.08.13,3.08-1.94,3.15-1.81.68,1.17-27.57,36.43-26.94,37.53,0,0,6.84-4,6.86-4,.38.66-6.71,25.69-6.38,26.26,0,0,4.06-2.38,4.07-2.36.25.44,9.73,20,10,20.58,0,0,.76-.46.77-.44.28.49,13,13.07,13.22,13.42,0,0,.86-.52.87-.5.28.48,22.38,9,22.64,9.43,0,0,1.14-.7,1.16-.67"/><path class="cls-2" d="M1201.89,636.06c.31.55,17.46-10.82,17.78-10.26.81,1.41-36.5,41.29-35.74,42.61,1.06,1.84,66.18-40.25,67.07-38.72,1.19,2.07-62.77,56.45-61.75,58.22.9,1.55,72.29-44.2,73.36-42.35.79,1.36-48.48,52.14-47.52,53.8s54-33,54.8-31.64c.64,1.11-27.09,32.61-26.64,33.39.28.5,14.56-8.94,14.79-8.54"/><path class="cls-2" d="M1216.87,627.91c0,.07,1.09-.72,1.13-.65.46.8,35,4.14,35.44,5,0,0,.21-.14.22-.12.3.52,10.12,17.34,10.34,17.73,0,0,3.29-1.93,3.3-1.91.37.63-.94,29.32-.6,29.91,0,0,1.09-.67,1.11-.63"/><path class="cls-2" d="M1201.59,635.71c.06.1,2.2-1.4,2.26-1.3.58,1-21,32.86-20.46,33.79,0,0,6.69-3.89,6.7-3.87.33.58-1.78,22.95-1.49,23.44,0,0,4-2.35,4-2.33.26.45,17.58,15.47,17.91,16,0,0,.91-.56.92-.54.42.72,27.49,2.56,27.79,3.07,0,.1,3.57-2.16,3.61-2.08"/><path class="cls-2" d="M1237.13,786c.37.64,20.9-13,21.28-12.29,1,1.67-45.81,46.35-44.91,47.91,1.32,2.28,80.89-49.24,82-47.34,1.51,2.61-82.69,67.34-81.41,69.57s96.31-58.92,97.75-56.43c1.18,2.05-81.41,70-80,72.54,1.68,2.91,93.93-57.36,95.28-55,1.57,2.71-81.44,65.52-80.34,67.43,1.35,2.34,83.4-50.65,84.48-48.77s-67.13,59.09-66.19,60.72,58.16-35.62,59-34.09"/><path class="cls-2" d="M1255.76,775.78c0,.08,1.48-1,1.53-.88.53.93,40.93.54,41.47,1.47,0,0,.29-.19.3-.17.31.54,15.21,14.39,15.44,14.79,0,0,3.3-1.93,3.31-1.91.31.54,10.47,22.84,10.77,23.35,0,0,.76-.48.77-.45.15.25,4.5,13.16,4.64,13.41,0,0,1.21-.74,1.23-.71.58,1-23.45,43.15-22.94,44,0,.08,2.07-1.31,2.12-1.22"/><path class="cls-2" d="M1236.83,785.65c.07.12,3.08-1.95,3.15-1.82.68,1.17-27.56,36.43-26.92,37.52,0,0,6.83-4,6.85-4,.38.66-6.7,25.69-6.38,26.25,0,0,4.07-2.38,4.08-2.35.25.43,9.73,20,10,20.57,0,0,.76-.46.77-.44.28.49,13,13.08,13.22,13.42,0,0,.85-.52.86-.5.28.49,22.39,9,22.64,9.44,0,0,1.15-.71,1.17-.68"/><path class="cls-2" d="M1199,952.59c.31.54,17.45-10.82,17.78-10.26.81,1.41-36.5,41.29-35.74,42.61,1.06,1.84,66.18-40.25,67.07-38.72,1.19,2.07-62.77,56.45-61.75,58.22.9,1.55,72.29-44.2,73.36-42.35.78,1.36-48.48,52.13-47.52,53.8s54-33,54.8-31.64c.64,1.11-27.1,32.61-26.65,33.39.29.5,14.57-8.94,14.8-8.54"/><path class="cls-2" d="M1214,944.44c0,.07,1.08-.73,1.13-.65.46.8,35,4.14,35.44,5,0,0,.2-.14.21-.12.3.51,10.13,17.34,10.35,17.73,0,0,3.29-1.93,3.3-1.91.36.63-.94,29.32-.6,29.91,0,0,1.08-.67,1.1-.63"/><path class="cls-2" d="M1198.69,952.24c.06.1,2.2-1.4,2.26-1.3.58,1-21,32.86-20.46,33.79,0,0,6.69-3.89,6.7-3.87.33.57-1.78,22.95-1.5,23.44,0,0,4-2.36,4-2.34.26.46,17.59,15.48,17.91,16,0,0,.92-.55.93-.53.42.72,27.49,2.56,27.78,3.07.06.1,3.58-2.16,3.62-2.08"/><path class="cls-2" d="M1033.85,1041c.37.64,20.89-13,21.28-12.29,1,1.67-45.81,46.35-44.91,47.91,1.32,2.28,80.89-49.24,82-47.34,1.51,2.62-82.7,67.34-81.41,69.57s96.31-58.92,97.75-56.43c1.18,2-81.42,70-80,72.54,1.68,2.91,93.93-57.36,95.28-55,1.57,2.71-81.45,65.52-80.34,67.44,1.35,2.33,83.4-50.66,84.48-48.78s-67.13,59.09-66.19,60.72,58.15-35.62,59-34.08"/><path class="cls-2" d="M1052.48,1030.79c0,.09,1.48-1,1.53-.88.53.93,40.93.54,41.47,1.48,0,0,.29-.2.3-.18.31.54,15.21,14.39,15.44,14.79,0,0,3.3-1.93,3.31-1.91.31.54,10.47,22.84,10.76,23.35,0,0,.77-.47.78-.45.15.25,4.5,13.16,4.64,13.41,0,0,1.21-.73,1.22-.71.59,1-23.44,43.15-22.93,44,0,.09,2.07-1.3,2.12-1.22"/><path class="cls-2" d="M1033.55,1040.66c.07.12,3.08-2,3.15-1.82.68,1.17-27.56,36.43-26.92,37.53,0,0,6.83-4,6.85-4,.38.66-6.7,25.69-6.38,26.25,0,0,4.07-2.37,4.08-2.35.25.43,9.73,20,10,20.57,0,0,.76-.46.77-.44.28.49,13,13.08,13.22,13.42,0,0,.85-.51.86-.5.28.49,22.39,9,22.64,9.44,0,0,1.15-.7,1.17-.68"/><path class="cls-2" d="M861.41,1058.84c.31.55,17.46-10.82,17.78-10.26.81,1.41-36.5,41.29-35.74,42.61,1.06,1.84,66.18-40.25,67.07-38.72,1.19,2.07-62.77,56.45-61.75,58.22.9,1.55,72.29-44.2,73.36-42.35.78,1.36-48.48,52.14-47.52,53.8s54-33,54.8-31.64c.64,1.11-27.1,32.61-26.65,33.39.29.5,14.57-8.94,14.8-8.54"/><path class="cls-2" d="M876.54,1050.67c0,.07,1.09-.72,1.13-.65.46.8,34.88,4.2,35.34,5,0,0,.21-.14.22-.13.3.52,10.09,17.36,10.31,17.75,0,0,3.29-1.93,3.31-1.9.36.63-1,29.35-.67,29.94,0,0,1.1-.68,1.12-.64"/><path class="cls-2" d="M861.11,1058.5c0,.08,1.91-1.23,2-1.14.58,1-20.7,32.7-20.16,33.63,0,0,6.69-3.9,6.7-3.87.33.57-1.78,22.94-1.49,23.43,0,0,4-2.35,4-2.33.27.45,17.59,15.47,17.91,16,0,0,.92-.56.93-.54.42.73,27.49,2.56,27.78,3.07.06.1,3.57-2.15,3.61-2.08"/><path class="cls-2" d="M714.09,936.54c.37.65,20.89-12.94,21.27-12.28,1,1.67-45.86,46.38-45,47.94,1.32,2.29,81-49.31,82.11-47.4,1.51,2.61-82.85,67.42-81.56,69.65s96.48-59,97.92-56.53c1.18,2.05-81.64,70.15-80.19,72.67,1.69,2.91,94.2-57.52,95.56-55.17,1.57,2.72-81.78,65.7-80.67,67.62,1.35,2.35,83.76-50.87,84.85-49s-67.65,59.37-66.71,61,58.84-36,59.73-34.48"/><path class="cls-2" d="M732.74,926.33c0,.09,1.48-1,1.53-.88.54.93,41,.52,41.5,1.46,0,0,.31-.21.32-.19.31.54,15.24,14.37,15.47,14.77,0,0,3.3-1.93,3.32-1.91.31.54,10.51,22.82,10.8,23.32,0,0,.77-.47.78-.45.15.26,4.55,13.13,4.7,13.38,0,0,1.21-.74,1.22-.71.58,1-22.44,42.6-21.94,43.46,0,.07,1.65-1.05,1.69-1"/><path class="cls-2" d="M713.79,936.2c.07.13,3.08-1.94,3.16-1.82.67,1.17-27.63,36.47-27,37.57,0,0,6.84-4,6.85-4,.38.66-6.74,25.7-6.41,26.27,0,0,4.06-2.38,4.08-2.36.25.44,9.68,20.08,10,20.61,0,0,.75-.46.76-.44.28.48,13,13.11,13.16,13.45,0,0,.85-.51.86-.5.28.49,22.24,9.08,22.5,9.52,0,0,1.15-.7,1.17-.67"/><path class="cls-2" d="M665.77,778.89c.32.54,17.46-10.83,17.78-10.27.82,1.41-36.5,41.3-35.74,42.62,1.06,1.83,66.19-40.26,67.07-38.72,1.2,2.06-62.76,56.44-61.74,58.21.89,1.56,72.28-44.2,73.35-42.35.79,1.36-48.48,52.14-47.52,53.81s54-33,54.8-31.64c.64,1.1-27.09,32.61-26.64,33.39.29.5,14.56-9,14.8-8.54"/><path class="cls-2" d="M680.75,770.73c0,.07,1.09-.72,1.13-.65.46.8,35,4.15,35.45,4.95,0,0,.2-.14.21-.12l10.35,17.73s3.29-1.93,3.3-1.9c.36.63-1,29.32-.61,29.91,0,0,1.09-.67,1.11-.64"/><path class="cls-2" d="M665.48,778.54c.06.1,2.19-1.4,2.25-1.3.58,1-21,32.85-20.46,33.79,0,0,6.69-3.89,6.71-3.87.33.57-1.78,22.94-1.5,23.43,0,0,4-2.35,4-2.33.26.46,17.59,15.47,17.91,16,0,0,.91-.56.93-.53.41.72,27.49,2.56,27.78,3.07.06.09,3.57-2.16,3.61-2.09"/><path class="cls-2" d="M703.42,611.62c.37.64,20.9-13,21.28-12.29,1,1.66-45.8,46.35-44.9,47.91,1.31,2.28,80.88-49.25,82-47.34,1.51,2.61-82.69,67.34-81.4,69.57s96.3-58.93,97.74-56.43c1.18,2-81.41,70-80,72.54,1.68,2.91,93.93-57.36,95.28-55C795,633.28,712,696.09,713.1,698c1.34,2.34,83.39-50.65,84.48-48.77S730.45,708.32,731.39,710s58.15-35.62,59-34.09"/><path class="cls-2" d="M722.06,601.41c0,.08,1.47-1,1.52-.88.54.93,40.93.54,41.47,1.47,0,0,.29-.19.31-.17.31.54,15.2,14.38,15.43,14.79,0,0,3.3-1.94,3.32-1.91.31.54,10.47,22.84,10.76,23.34,0,0,.77-.47.78-.44.14.25,4.49,13.15,4.64,13.4,0,0,1.21-.73,1.22-.7.59,1-23.45,43.15-22.94,44,0,.08,2.07-1.31,2.12-1.22"/><path class="cls-2" d="M703.12,611.28c.08.12,3.08-1.95,3.16-1.82.67,1.17-27.56,36.43-26.93,37.52,0,0,6.84-4,6.85-4,.38.65-6.7,25.68-6.37,26.25,0,0,4.06-2.38,4.07-2.36.25.44,9.73,20.05,10,20.58,0,0,.75-.46.76-.44.28.49,13,13.07,13.22,13.42,0,0,.85-.52.86-.5.29.49,22.39,9,22.65,9.43,0,0,1.15-.7,1.16-.67"/><path class="cls-2" d="M859.61,522.29c.32.54,17.48-10.84,17.8-10.28.82,1.41-36.51,41.3-35.75,42.62,1.06,1.84,66.19-40.26,67.07-38.72C909.93,518,846,572.36,847,574.13c.9,1.55,72.29-44.2,73.36-42.35.78,1.36-48.48,52.13-47.52,53.8s54-33,54.79-31.63c.64,1.1-27.1,32.6-26.65,33.38.29.5,14.58-9,14.81-8.55"/><path class="cls-2" d="M874.77,514.1c0,.07,1.07-.72,1.11-.65.46.8,34.88,4.21,35.35,5,0,0,.2-.14.21-.12.3.52,10.09,17.36,10.31,17.75,0,0,3.29-1.93,3.31-1.91.36.63-1,29.36-.68,30,0,0,1.11-.69,1.13-.66"/><path class="cls-2" d="M859.32,521.94c0,.09,1.88-1.22,1.94-1.12.57,1-20.68,32.68-20.15,33.61,0,0,6.7-3.9,6.71-3.88.34.57-1.77,23-1.49,23.44,0,0,4-2.36,4-2.34.26.46,17.59,15.47,17.91,16,0,0,.91-.55.92-.53.42.72,27.49,2.56,27.79,3.07,0,.09,3.55-2.15,3.59-2.08"/></g></g></svg>