<svg width="133" height="135" viewBox="0 0 133 135" fill="none" xmlns="http://www.w3.org/2000/svg">
<g clip-path="url(#clip0_262_439)">
<path d="M101.073 40.3301C92.7635 40.3301 86.72 36.1753 81.432 32.3981C76.7106 28.9987 72.5557 26.1658 67.0788 26.1658C61.602 26.1658 57.636 28.9987 52.7257 32.3981C47.4376 36.1753 41.3942 40.3301 33.0845 40.3301C24.7747 40.3301 18.7313 36.1753 13.4433 32.3981C9.09956 29.3764 5.32241 26.7324 0.412109 26.3547V0.858887C8.72184 1.2366 14.9541 5.58032 19.8644 9.16862C24.9636 12.7569 28.363 15.0232 32.8956 15.0232C37.2393 15.0232 40.6388 12.7569 45.9268 9.16862C51.2148 5.58032 57.8248 0.858887 66.7011 0.858887C75.7663 0.858887 82.1874 5.39146 87.4755 9.16862C92.5746 12.7569 95.974 15.0232 100.507 15.0232C104.85 15.0232 108.25 12.7569 113.538 9.16862C118.637 5.76918 124.68 1.42546 132.99 0.858887V26.3547C128.269 26.7324 124.303 29.3764 119.959 32.3981C115.426 36.1753 109.383 40.3301 101.073 40.3301Z" fill="#003366"/>
<path d="M101.073 87.167C92.7635 87.167 86.72 83.0122 81.432 79.235C76.7106 75.8356 72.5557 73.0027 67.0788 73.0027C61.602 73.0027 57.636 75.8356 52.7257 79.235C47.4376 83.0122 41.3942 87.167 33.0845 87.167C24.7747 87.167 18.7313 83.0122 13.4433 79.235C9.09956 76.2133 5.32241 73.5693 0.412109 73.1916V47.6958C8.72184 48.0735 14.9541 52.4172 19.8644 56.0055C24.9636 59.5938 28.363 61.8601 32.8956 61.8601C37.2393 61.8601 40.6388 59.5938 45.9268 56.0055C51.2148 52.4172 57.8248 47.6958 66.7011 47.6958C75.7663 47.6958 82.1874 52.2284 87.4755 56.0055C92.5746 59.5938 95.974 61.8601 100.507 61.8601C104.85 61.8601 108.25 59.5938 113.538 56.0055C118.637 52.6061 124.68 48.2624 132.99 47.6958V73.1916C128.269 73.5693 124.303 76.2133 119.959 79.235C115.426 83.0122 109.383 87.167 101.073 87.167Z" fill="#003366"/>
<path d="M101.073 134.003C92.7635 134.003 86.72 129.849 81.432 126.071C76.7106 122.672 72.5557 119.839 67.0788 119.839C61.602 119.839 57.636 122.672 52.7257 126.071C47.4376 129.849 41.3942 134.003 33.0845 134.003C24.7747 134.003 18.7313 129.849 13.4433 126.071C9.09956 123.05 5.32241 120.406 0.412109 120.028V94.5322C8.72184 94.9099 14.9541 99.2537 19.8644 102.842C24.9636 106.43 28.363 108.697 32.8956 108.697C37.2393 108.697 40.6388 106.43 45.9268 102.842C51.2148 99.2537 57.8248 94.5322 66.7011 94.5322C75.7663 94.5322 82.1874 99.0648 87.4755 102.842C92.5746 106.43 95.974 108.697 100.507 108.697C104.85 108.697 108.25 106.43 113.538 102.842C118.637 99.4425 124.68 95.0988 132.99 94.5322V120.028C128.269 120.406 124.303 123.05 119.959 126.071C115.426 129.849 109.383 134.003 101.073 134.003Z" fill="#003366"/>
</g>
<defs>
<clipPath id="clip0_262_439">
<rect width="133" height="134" fill="white" transform="translate(0 0.00292969)"/>
</clipPath>
</defs>
</svg>
