<svg xmlns="http://www.w3.org/2000/svg" viewBox="0 0 785.65 740.6"><defs><style>.cls-1{fill:#4981a9;}</style></defs><title>Asset 1</title><g id="Layer_2" data-name="Layer 2"><g id="Layer_2-2" data-name="Layer 2"><path class="cls-1" d="M782.76,588.17,655.34,446.92a11.77,11.77,0,0,0-16.4-.93,11.23,11.23,0,0,0-1.07,16.06L751.6,588.12,621.21,611l-52.9-58.65L419.06,386.86l21.26-14.29,31.13,26.23a11.8,11.8,0,0,0,17.72-3.1l20.38-35.25,47.36,11.86,55.38,61.38a11.77,11.77,0,0,0,16.4.93,11.23,11.23,0,0,0,1.07-16.06l-57.72-64-110.1-122A11.77,11.77,0,0,0,442.42,236L392.76,357.71l-152-168.54-11.57-66.1,126-73.85a11.28,11.28,0,0,0-3.66-20.92L200,.19l-.21,0c-.32,0-.65-.09-1-.12l-.38,0h-1.33a10.79,10.79,0,0,0-1.26.14h0a10.83,10.83,0,0,0-1.28.3l-.31.1a9.33,9.33,0,0,0-.93.34l-.34.15c-.3.13-.58.28-.86.43l-.31.18c-.31.18-.6.38-.88.58l-.21.15a11.51,11.51,0,0,0-1,.85l0,0a.86.86,0,0,0-.13.14,10.27,10.27,0,0,0-.71.77l-.27.33q-.27.35-.51.72c-.08.11-.15.23-.23.35-.18.29-.34.6-.5.91l-.1.19a12.5,12.5,0,0,0-.48,1.2c0,.06,0,.12-.05.18-.11.35-.2.7-.28,1l-.06.33c-.06.31-.1.63-.13.94,0,.13,0,.25,0,.38,0,.31,0,.63,0,1,0,.11,0,.23,0,.34a11.72,11.72,0,0,0,.14,1.3l18.56,106,12.92,73.81L98.08,486.67a11.23,11.23,0,0,0,6.47,14.74,11.78,11.78,0,0,0,15.1-6.44l26.84-65.78,70-47.09L260,418.71a11.81,11.81,0,0,0,17.73-3.1l28.43-49.2L388,386.91l4.94,5.48h0l96.93,107.44L594.33,615.65,30.13,714.44l74.2-181.92a11.2,11.2,0,0,0-6.46-14.73,11.78,11.78,0,0,0-15.11,6.44L.83,725.07a11.17,11.17,0,0,0,1.75,11.37,11.7,11.7,0,0,0,11,4l605.14-106L776,606.93a11.7,11.7,0,0,0,9-7.48A11.12,11.12,0,0,0,782.76,588.17ZM457,261.51l72.53,80.41-22.67-5.68a11.8,11.8,0,0,0-13.07,5.48L476,372.48,448.8,349.59a11.72,11.72,0,0,0-9.58-2.55,12,12,0,0,0-4.57,1.83l-18.37,12.36ZM212.08,25.61l105,19.49-92.12,54ZM303.4,342.2a11.8,11.8,0,0,0-13.07,5.48L264.49,392.4,225,359.12a11.82,11.82,0,0,0-14.15-.71L162,391.29l71.61-175.55,127,140.77Z"/></g></g></svg>