<svg xmlns="http://www.w3.org/2000/svg" viewBox="0 0 196.73 201.71" aria-labelledby="svg-solutions-title svg-solutions-desc">
  <title id="svg-solutions-title">Remote-Learner Solutions Dots Graphic</title>
  <desc id="svg-solutions-desc">A circular grid of connected dots representing Remote-Learner&apos;s custom solutions.</desc>
  <g class="rl-solutions-dots">
    <path class="lines" d="M8.23 131.51l37.12-10.11a56.62 56.62 0 0 0 4.12 10.6 58.28 58.28 0 0 0 4.58 7.5l-14.7 10.8-.86.61c1.08 1.49 2.2 3 3.4 4.39q2.59 3.06 5.52 5.9a76.19 76.19 0 0 0 12.52 9.8l-9.38 15.22-.57.89q1.92 1.22 3.93 2.34c2.16 1.21 4.38 2.35 6.66 3.4a95.89 95.89 0 0 0 95.85-8.9l-.32-.44.09-.06-10.78-15.3a78.91 78.91 0 0 0 13.93-12.69 78 78 0 0 0 7-9.52l15.42 9.29.89.55a93.42 93.42 0 0 0 5.31-9.94 97.25 97.25 0 0 0 4.71-12.5 95.55 95.55 0 0 0 1.45-49.72 96.64 96.64 0 0 0-23.86-44l-.75-.77L155.85 52a77.79 77.79 0 0 0-18.65-14l8.32-15.79.51-.94c-.78-.41-1.55-.82-2.33-1.21-1.13-.56-2.28-1.11-3.45-1.63a95.22 95.22 0 0 0-60.32-6.18l.22 1L84 30.72a77.32 77.32 0 0 0-30.76 14.57l-.27.22-11.2-13.92-.7-.81c-1.2 1-2.39 1.93-3.55 3q-2.69 2.35-5.24 5a96.16 96.16 0 0 0-12.69 16 95 95 0 0 0-9 18.32q-1 2.77-1.84 5.65-1 3.45-1.77 7a96.58 96.58 0 0 0-2.14 20.36c0 6.9.65 13.47 3.05 24.34zm148.36-77.16c5.73 6.21 9.82 12.3 14.89 23.44l-35.92 13.94.33.83.06.17a37.61 37.61 0 0 1 2.36 13c0 1 0 2-.1 2.92l-17.68-1.53v-.55a19.8 19.8 0 0 0-11.62-18.77 19.18 19.18 0 0 0-2.25-.85 21.21 21.21 0 0 0-2.35-.58L107 68.81a37.21 37.21 0 0 1 9.22 2.81 37.83 37.83 0 0 1 7.33 4.38 37 37 0 0 1 4.71 4.28l.76-.77 26.81-25.94zM113 161a56.18 56.18 0 0 1-23.91.07l8.24-36.95-.89-.2a15 15 0 0 1-1.55-.44c-.57-.2-1.14-.42-1.71-.68a18.67 18.67 0 0 1-9.34-24.71A17.32 17.32 0 0 1 84.9 96l-1-.53-15.3-9.18a37.94 37.94 0 0 1 22.23-16.64 37.31 37.31 0 0 1 15.12-1l-2.83 18.6 1.06.16a19.42 19.42 0 0 1 2.19.54 21 21 0 0 1 2.12.81 18.66 18.66 0 0 1 11 17.75v.5l-.07.79 18.76 1.62a37.43 37.43 0 0 1-28.41 32.76l-1 .24zM54 46.12a76.26 76.26 0 0 1 30.17-14.36l1.06-.23-.22-1L81.2 13a94.26 94.26 0 0 1 58.61 6.35c1.14.51 2.28 1.05 3.41 1.61l1.35.69-8.83 16.74.95.5a77 77 0 0 1 18.39 13.85l-26.8 25.96a37.62 37.62 0 0 0-4.07-3.58 39.09 39.09 0 0 0-17-7.38L110 49l-1-.22c-7.19-1.33-13.78-.59-20.74.76s-14.46 5-23.49 10.59L53.65 46.35zm10.59 15.53l.83-.67c6-3.82 16-9 23-10.39s13.32-2.07 20.37-.76l-2.7 17.75a38.56 38.56 0 0 0-15.56 1C82 71 74.1 76 67.73 85.75l-.57.92 16.25 9.77c-.22.4-.42.81-.61 1.23a19.75 19.75 0 0 0 9.88 26.14c.6.26 1.2.5 1.81.71s1 .31 1.5.44L87.72 162l1 .24v-.1a57.29 57.29 0 0 0 24.39-.08l4.06 17.81c-10.17 1.8-15.49 2.1-22.25 1.58a76.13 76.13 0 0 1-19.65-4.19 77.64 77.64 0 0 1-7.27-3.05 73.26 73.26 0 0 1-6.6-3.56l10.11-16.4-.91-.57a68.4 68.4 0 0 1-10.22-8.34 57.7 57.7 0 0 1-4.83-5.64l15.24-11.23-.63-.86a42.84 42.84 0 0 1-6.11-14.42 43.07 43.07 0 0 1 .34-15.68l.26-1-37.44-9.2c.24-1 .51-1.93.79-2.89a77.35 77.35 0 0 1 3.65-9.83A75.2 75.2 0 0 1 52.82 47zM9 130.19c-2.15-10-3-17.25-3-24.06A94.56 94.56 0 0 1 8.08 86c.5-2.36 1.09-4.67 1.75-6.93s1.42-4.54 2.25-6.75A94.35 94.35 0 0 1 33 39.47q2.52-2.56 5.19-4.92c.89-.78 1.79-1.54 2.7-2.29l11.25 13.92A77.08 77.08 0 0 0 27 84.12c-.4 1.34-.74 2.69-1.06 4l1.05.21 36.39 8.9A44.26 44.26 0 0 0 63 113.4a44.3 44.3 0 0 0 6.3 14.85l-14.38 10.58c-.69-1-1.34-1.92-2-2.91q-1.37-2.16-2.52-4.44a56.08 56.08 0 0 1-4-10.36l-.28-1L9 130.19m39.18 30.23a78 78 0 0 1-5.45-5.81q-1.41-1.68-2.72-3.44l14.7-10.84q.69.94 1.44 1.86 1.65 2 3.48 3.9A70.82 70.82 0 0 0 70 154.6l-9.55 15.48a75.5 75.5 0 0 1-12.29-9.66zm110.36-5.68a76.77 76.77 0 0 1-13.73 12.52c-.29.21-.59.41-.89.61l.62.88L155 183.61a94.74 94.74 0 0 1-94 8.25q-3.39-1.56-6.59-3.36c-1-.56-2-1.13-3-1.73l9.38-15.22c1 .61 2 1.18 3 1.73a76.25 76.25 0 0 0 19 7.33 76.24 76.24 0 0 0 12.14 1.93c6.86.53 13.13.24 22.57-1.6l1.05-.24-4.3-18.86A57.62 57.62 0 0 0 149.91 136l15.5 9.4a73.87 73.87 0 0 1-6.89 9.34zm7.46-10.29L150.46 135l-.92-.56A56.59 56.59 0 0 1 114 160.79l-4-17.53a38.61 38.61 0 0 0 29.22-33.73l37.26 3.23A72.49 72.49 0 0 1 170 137a74.64 74.64 0 0 1-4 7.45zM191.63 133a94.52 94.52 0 0 1-9.32 21.28l-15.4-9.28a78 78 0 0 0 4-7.57 73.33 73.33 0 0 0 6.59-24.6l.08-.8-38.34-3.32c.08-1 .12-2 .12-3A38.84 38.84 0 0 0 137 92.34l35.89-13.94-.39-1-.17.07.15-.07c-5.06-11.43-9.28-17.47-15.1-23.78l-.78-.83 12.89-12.39a95.5 95.5 0 0 1 23.58 43.46 94.37 94.37 0 0 1-1.44 49.14z"/>
    <g class="circles-1">
      <path class="cls-1" id="cls-1-1" data-icon="icon1" data-contentsel="item1" tabindex="0" d="M153.3 25.05a8.78 8.78 0 1 0-11.62 4.4 8.78 8.78 0 0 0 11.62-4.4z"/>
      <path class="cls-1" id="cls-1-2" data-icon="icon2" data-contentsel="item2" tabindex="0" d="M92.05 17.78a12.6 12.6 0 1 0-16.67 6.3 12.59 12.59 0 0 0 16.67-6.3z"/>
      <path class="cls-1" id="cls-1-3" data-icon="icon3" data-contentsel="item3" tabindex="0" d="M38.16 92.91a12.59 12.59 0 1 0-16.66 6.3 12.6 12.6 0 0 0 16.66-6.3z"/>
      <path class="cls-1" id="cls-1-4" data-icon="icon4" data-contentsel="item4" tabindex="0" d="M77.12 131.46A7.64 7.64 0 1 0 67 135.28a7.65 7.65 0 0 0 10.12-3.82z"/>
      <path class="cls-1" id="cls-1-5" data-icon="icon5" data-contentsel="item5" tabindex="0" d="M50.71 156.24a12.6 12.6 0 1 0-16.66 6.3 12.6 12.6 0 0 0 16.66-6.3z"/>
      <path class="cls-1" id="cls-1-6" data-icon="icon6" data-contentsel="item6" tabindex="0" d="M129.39 185.45a12.6 12.6 0 1 0-16.66 6.3 12.59 12.59 0 0 0 16.66-6.3z"/>
      <path class="cls-1" id="cls-1-7" data-icon="icon7" data-contentsel="item7" tabindex="0" d="M179 81.29a7.64 7.64 0 1 0-10.1 3.81 7.64 7.64 0 0 0 10.1-3.81z"/>
      <path class="cls-1" id="cls-1-8" data-icon="icon8" data-contentsel="item8" tabindex="0" d="M120.8 148a12.59 12.59 0 1 0-16.66 6.3 12.6 12.6 0 0 0 16.66-6.3z"/>
      <path class="cls-1" id="cls-1-9" data-icon="icon-blank-1" data-contentsel="icon-blank-1" tabindex="0" d="M139.93 39.78a3.82 3.82 0 1 0-5.05 1.91 3.81 3.81 0 0 0 5.05-1.91z"/>
      <path class="cls-1" d="M88.07 32.69a3.82 3.82 0 1 0-5 1.91 3.83 3.83 0 0 0 5-1.91z"/>
      <path class="cls-1" d="M67.33 98.36a3.82 3.82 0 1 0-5 1.91 3.82 3.82 0 0 0 5-1.91z"/>
      <path class="cls-1" d="M139.74 93.6a3.82 3.82 0 1 0-5.05 1.91 3.82 3.82 0 0 0 5.05-1.91z"/>
    </g>
    <g class="circles-2">
      <path class="cls-2" id="cls-2-1" data-icon="icon9" data-contentsel="item9" tabindex="0" d="M188.53 117.58a12.6 12.6 0 1 0-16.67 6.3 12.6 12.6 0 0 0 16.67-6.3z"/>
      <path class="cls-2" id="cls-2-2" data-icon="icon10" data-contentsel="item10" tabindex="0" d="M49 35.1a8.78 8.78 0 1 0-11.61 4.39A8.77 8.77 0 0 0 49 35.1z"/>
      <path class="cls-2" id="cls-2-3" data-icon="icon11" data-contentsel="item11" tabindex="0" d="M53.59 124.41A8.78 8.78 0 1 0 42 128.8a8.79 8.79 0 0 0 11.59-4.39z"/>
      <path class="cls-2" id="cls-2-4" data-icon="icon12" data-contentsel="item12" tabindex="0" d="M76.48 66.49a12.59 12.59 0 1 0-16.66 6.3 12.58 12.58 0 0 0 16.66-6.3z"/>
      <path class="cls-2" id="cls-2-5" data-icon="icon13" data-contentsel="item13" tabindex="0" d="M120.91 54.53a12.6 12.6 0 1 0-16.67 6.3 12.61 12.61 0 0 0 16.67-6.3z"/>
      <path class="cls-2" id="cls-2-6" data-icon="icon14" data-contentsel="item14" tabindex="0" d="M62.2 192.13a12.59 12.59 0 1 0-16.66 6.3 12.6 12.6 0 0 0 16.66-6.3z"/>
      <path class="cls-2" id="cls-2-7" data-icon="icon15" data-contentsel="item15" tabindex="0" d="M128 111.06a8.78 8.78 0 1 0-11.61 4.39 8.77 8.77 0 0 0 11.61-4.39z"/>
      <path class="cls-2" id="cls-2-8" data-icon="icon16" data-contentsel="item16" tabindex="0" d="M163.75 187.36a8.78 8.78 0 1 0-11.61 4.39 8.77 8.77 0 0 0 11.61-4.39z"/>
      <path class="cls-2" id="cls-2-9" data-icon="icon17" data-contentsel="item17" tabindex="0" d="M16.78 134.41a8.78 8.78 0 1 0-11.61 4.39 8.78 8.78 0 0 0 11.61-4.39z"/>
      <path class="cls-2" d="M148.14 169.58a3.82 3.82 0 1 0-5 1.91 3.82 3.82 0 0 0 5-1.91z"/>
      <path class="cls-2" d="M107.19 88.35a3.82 3.82 0 1 0-5 1.91 3.83 3.83 0 0 0 5-1.91z"/>
      <path class="cls-2" d="M74.3 156a3.82 3.82 0 1 0-5 1.91 3.81 3.81 0 0 0 5-1.91z"/>
    </g>
    <g class="circles-3">
      <path class="cls-3" data-icon="icon18" id="cls-3-1" data-contentsel="item18" tabindex="0" d="M181 44.8a12.6 12.6 0 1 0-16.66 6.3A12.6 12.6 0 0 0 181 44.8z"/>
      <path class="cls-3" data-icon="icon19" id="cls-3-2" data-contentsel="item19" tabindex="0" d="M194 160.21a12.59 12.59 0 1 0-16.66 6.3 12.6 12.6 0 0 0 16.66-6.3z"/>
      <path class="cls-3" data-icon="icon20" id="cls-3-3" data-contentsel="item20" tabindex="0" d="M92.23 99.67a8.78 8.78 0 1 0-11.62 4.39 8.78 8.78 0 0 0 11.62-4.39z"/>
      <path class="cls-3" data-icon="icon21" id="cls-3-4" data-contentsel="item21" tabindex="0" d="M157.7 138.88a8.78 8.78 0 1 0-11.61 4.39 8.78 8.78 0 0 0 11.61-4.39z"/>
      <path class="cls-3" data-icon="icon22" id="cls-3-5" data-contentsel="item22" tabindex="0" d="M136.21 83a8.78 8.78 0 1 0-11.62 4.39A8.8 8.8 0 0 0 136.21 83z"/>
      <path class="cls-3" data-icon="icon23" id="cls-3-6" data-contentsel="item23" tabindex="0" d="M96.39 165.13a8.78 8.78 0 1 0-11.62 4.39 8.78 8.78 0 0 0 11.62-4.39z"/>
      <path class="cls-3" d="M71.48 88.11a3.82 3.82 0 1 0-5 1.91 3.82 3.82 0 0 0 5-1.91z"/>
      <path class="cls-3" d="M100.1 126.13a3.82 3.82 0 1 0-5 1.91 3.81 3.81 0 0 0 5-1.91z"/>
    </g>
    <g class="icons">
        <path class="cls-4" id="icon1" d="M149 18.7v6.71a.91.91 0 0 1-.91.91h-5.49a.92.92 0 0 1-.92-.91V18.7a.92.92 0 0 1 .92-.92h1.52a1.22 1.22 0 1 1 2.44 0H148a.92.92 0 0 1 1 .92zm-3.66-1.37a.46.46 0 1 0 .46.45.45.45 0 0 0-.46-.45m1.83 2.17v-.38A.11.11 0 0 0 147 19h-3.43a.12.12 0 0 0-.12.12v.38a.12.12 0 0 0 .12.11H147a.11.11 0 0 0 .12-.11z"/>
        <path class="cls-4" id="icon2" d="M80.94 6.63a2.8 2.8 0 1 1-2.8 2.8 2.81 2.81 0 0 1 2.8-2.8zm3 5.8l-1.06-.27a3.37 3.37 0 0 1-3.92 0l-1.07.27a1.92 1.92 0 0 0-1.45 1.86v1.62a1 1 0 0 0 1 1h7a1 1 0 0 0 1-1v-1.62A1.91 1.91 0 0 0 84 12.43zm2.52.49a1.87 1.87 0 1 0-1.87-1.86 1.87 1.87 0 0 0 1.89 1.86zm-11.08 0a1.87 1.87 0 1 0-1.87-1.86 1.86 1.86 0 0 0 1.89 1.86zm.63 3v-1.63a2.43 2.43 0 0 1 .34-1.22 2.27 2.27 0 0 1-2.28-.19l-.71.17a1.28 1.28 0 0 0-1 1.24v1.08a.64.64 0 0 0 .64.64h3a.34.34 0 0 0 0-.1zm12.49-2.87l-.71-.17a2.25 2.25 0 0 1-2.29.19 2.31 2.31 0 0 1 .34 1.22V16h3a.63.63 0 0 0 .64-.64v-1.07a1.28 1.28 0 0 0-1-1.24z"/>
        <path class="cls-4" id="icon3" d="M31.13 89.55H24l.16.78h6.53a.58.58 0 0 1 .57.71l-.13.6a1.36 1.36 0 1 1-1.55.25h-5.12a1.33 1.33 0 0 1 .41 1 1.36 1.36 0 1 1-2-1.18l-1.71-8.36h-1.7a.6.6 0 0 1-.59-.59v-.39a.59.59 0 0 1 .59-.58h2.5a.59.59 0 0 1 .57.47l.22 1.09h9.57a.58.58 0 0 1 .57.71L31.7 89.1a.59.59 0 0 1-.57.45zm-2.48-3.12h-1V85a.29.29 0 0 0-.29-.29h-.59a.29.29 0 0 0-.29.29v1.46h-1.1a.29.29 0 0 0-.2.5l1.63 1.63a.28.28 0 0 0 .41 0l1.64-1.63a.3.3 0 0 0-.21-.5z"/>
        <path class="cls-4" id="icon4" d="M66.65 129h7l-1.08 1a.56.56 0 0 0 0 .81l.25.25a.56.56 0 0 0 .79 0l2.3-2.3a.74.74 0 0 0 0-1l-2.3-2.3a.56.56 0 0 0-.79 0l-.25.25a.55.55 0 0 0 0 .8l1.08 1h-7l1.08-1a.56.56 0 0 0 0-.8l-.26-.25a.56.56 0 0 0-.79 0l-2.3 2.3a.74.74 0 0 0 0 1l2.3 2.3a.56.56 0 0 0 .79 0l.26-.25a.57.57 0 0 0 0-.81z"/>
        <path class="cls-4" id="icon5" d="M44.82 146.49v1.14c0 1-2.5 1.83-5.59 1.83s-5.59-.82-5.59-1.83v-1.14c0-1 2.51-1.82 5.59-1.82s5.59.82 5.59 1.82zm0 2.57v2.57c0 1-2.5 1.82-5.59 1.82s-5.59-.82-5.59-1.82v-2.57a10.79 10.79 0 0 0 5.59 1.21 10.76 10.76 0 0 0 5.59-1.21zm0 4v2.57c0 1-2.5 1.82-5.59 1.82s-5.59-.82-5.59-1.82v-2.57a10.79 10.79 0 0 0 5.59 1.21 10.76 10.76 0 0 0 5.59-1.22z"/>
        <path class="cls-4" id="icon6" d="M123.39 175.21h-11a1.26 1.26 0 0 0-1.27 1.26v7.59a1.27 1.27 0 0 0 1.27 1.26h11a1.26 1.26 0 0 0 1.26-1.26v-7.59a1.25 1.25 0 0 0-1.26-1.26zm-7.58 2.11a1.84 1.84 0 1 1-1.85 1.84 1.84 1.84 0 0 1 1.85-1.84zm3 5.34a.55.55 0 0 1-.56.55h-4.79a.55.55 0 0 1-.55-.55v-.43a1.1 1.1 0 0 1 .84-1.07l.82-.2a2.22 2.22 0 0 0 2.58 0l.82.2a1.11 1.11 0 0 1 .84 1.07zm4.21-1a.32.32 0 0 1-.32.32h-2.74a.31.31 0 0 1-.31-.32v-.21a.31.31 0 0 1 .31-.31h2.74a.31.31 0 0 1 .32.31zm0-1.68a.31.31 0 0 1-.32.31h-2.74a.31.31 0 0 1-.31-.31v-.21a.31.31 0 0 1 .31-.32h2.74a.32.32 0 0 1 .32.32zm0-1.69a.32.32 0 0 1-.32.32h-2.74a.31.31 0 0 1-.31-.32v-.21a.31.31 0 0 1 .31-.31h2.74a.31.31 0 0 1 .32.31z"/>
        <path class="cls-4" id="icon8" d="M116.46 137.9v8.33a.59.59 0 0 1-.33.53l-3.13 1.59a.59.59 0 0 1-.86-.53v-8.33a.57.57 0 0 1 .33-.53l3.17-1.59a.6.6 0 0 1 .82.53zm-5.11 1l-3.57-1.59a.6.6 0 0 0-.84.54v8.33a.61.61 0 0 0 .35.55l3.57 1.58a.59.59 0 0 0 .84-.54v-8.33a.58.58 0 0 0-.35-.44zm-5.67-1.58l-3.17 1.68a.59.59 0 0 0-.33.53v8.33a.59.59 0 0 0 .86.53l3.18-1.59a.58.58 0 0 0 .32-.53v-8.37a.6.6 0 0 0-.86-.53z"/>
        <path class="cls-4" id="icon7" d="M172.17 73.18a5 5 0 1 0 5 5 5 5 0 0 0-5-5zm3.47 2.39l-1.27 1.27a2.59 2.59 0 0 0-.9-.9l1.27-1.27a4.27 4.27 0 0 1 .9.9zm-3.47 4.5a1.93 1.93 0 1 1 1.92-1.92 1.92 1.92 0 0 1-1.92 1.92zm-2.58-5.4l1.27 1.27a2.59 2.59 0 0 0-.9.9l-1.27-1.27a4.27 4.27 0 0 1 .9-.9zm-.9 6l1.31-1.22a2.59 2.59 0 0 0 .9.9l-1.27 1.27a4.27 4.27 0 0 1-.94-.9zm6.05.9l-1.27-1.27a2.59 2.59 0 0 0 .9-.9l1.27 1.27a4.27 4.27 0 0 1-.9.95z"/>
        <path class="cls-4" id="icon9" d="M177.05 103.31a9.09 9.09 0 1 0 9.08 9.09 9.09 9.09 0 0 0-9.08-9.09zm0 16.71a7.62 7.62 0 1 1 7.62-7.62 7.62 7.62 0 0 1-7.62 7.6zm5.26-10.5a.73.73 0 0 1-.55.88 27.76 27.76 0 0 1-3.13.61c0 4.08.46 4.71 1 6a.88.88 0 1 1-1.63.64 11 11 0 0 1-.88-3.12H177a11.4 11.4 0 0 1-.87 3.12.88.88 0 0 1-1.64-.64c.52-1.34 1-2 1-6a27.5 27.5 0 0 1-3.14-.61.73.73 0 0 1 .33-1.43c3.84.91 4.93.91 8.77 0a.73.73 0 0 1 .88.55zm-6.66-1.59a1.4 1.4 0 1 1 1.4 1.4 1.39 1.39 0 0 1-1.4-1.4z"/>
        <path class="cls-4" id="icon10" d="M44.54 26.83l.08 1.58a4.75 4.75 0 0 0-8.29 2.2.22.22 0 0 0 .22.27h.94a.25.25 0 0 0 .23-.18 3.38 3.38 0 0 1 6.08-1.09l-1.95-.09a.22.22 0 0 0-.24.23v.9a.23.23 0 0 0 .23.23h3.84a.23.23 0 0 0 .23-.23v-3.83a.23.23 0 0 0-.23-.23h-.91a.23.23 0 0 0-.23.24zm-3.54 8a3.35 3.35 0 0 1-2.8-1.49l1.95.1a.23.23 0 0 0 .24-.23v-.91a.23.23 0 0 0-.23-.23h-3.84a.23.23 0 0 0-.23.23v3.84a.23.23 0 0 0 .23.23h.91a.23.23 0 0 0 .23-.24l-.08-1.59a4.76 4.76 0 0 0 8.29-2.19.24.24 0 0 0-.23-.28h-.94a.23.23 0 0 0-.22.18A3.38 3.38 0 0 1 41 34.86z"/>
        <path class="cls-4" id="icon11" d="M50.85 121.64H50v-.85a.71.71 0 0 0-.71-.71H46v-.72h.86a.42.42 0 0 0 .42-.42v-2.57a.42.42 0 0 0-.42-.42H44.3a.42.42 0 0 0-.42.42v2.57a.42.42 0 0 0 .42.42h.86v.72h-3.28a.71.71 0 0 0-.71.71v.85h-.85a.43.43 0 0 0-.43.43v2.56a.43.43 0 0 0 .43.43h2.56a.43.43 0 0 0 .43-.43v-2.56a.43.43 0 0 0-.43-.43H42v-.71h3.13v.71h-.83a.42.42 0 0 0-.42.43v2.56a.42.42 0 0 0 .42.43h2.57a.42.42 0 0 0 .42-.43v-2.56a.42.42 0 0 0-.42-.43H46v-.71h3.14v.71h-.86a.43.43 0 0 0-.43.43v2.56a.43.43 0 0 0 .43.43h2.56a.43.43 0 0 0 .43-.43v-2.56a.43.43 0 0 0-.42-.43z"/>
        <path class="cls-4" id="icon12" d="M62.54 57.82v.41a.62.62 0 0 1-.62.62h-.21v8.73a.3.3 0 0 1-.3.31h-1a.31.31 0 0 1-.31-.31v-8.73h-.21a.61.61 0 0 1-.61-.62v-.41a.61.61 0 0 1 .61-.62h.21V55a.31.31 0 0 1 .31-.31h1a.3.3 0 0 1 .3.31v2.2h.21a.62.62 0 0 1 .62.62zm3.49 6h-.2V55a.31.31 0 0 0-.31-.31h-1a.31.31 0 0 0-.31.31v8.74H64a.61.61 0 0 0-.62.62v.41a.61.61 0 0 0 .62.61h.2v2.16a.31.31 0 0 0 .31.31h1a.31.31 0 0 0 .31-.31v-2.12H66a.61.61 0 0 0 .62-.61v-.41a.62.62 0 0 0-.62-.62zm4.11-3.29h-.2V55a.31.31 0 0 0-.31-.31h-1a.31.31 0 0 0-.31.31v5.45h-.2a.62.62 0 0 0-.62.62v.41a.61.61 0 0 0 .62.61h.2v5.45a.31.31 0 0 0 .31.31h1a.31.31 0 0 0 .31-.31v-5.41h.2a.61.61 0 0 0 .62-.61v-.41a.62.62 0 0 0-.62-.62z"/>
        <path class="cls-4" id="icon13" d="M110.28 46.15v-3.63H105a.64.64 0 0 0-.64.64v12.37a.64.64 0 0 0 .64.64h9a.64.64 0 0 0 .64-.64v-8.74h-3.63a.64.64 0 0 1-.73-.64zm1.7 6.29a.32.32 0 0 1-.32.32h-4.48a.32.32 0 0 1-.31-.32v-.22a.32.32 0 0 1 .31-.32h4.48a.32.32 0 0 1 .32.32zm0-1.71a.32.32 0 0 1-.32.32h-4.48a.31.31 0 0 1-.31-.32v-.21a.31.31 0 0 1 .31-.32h4.48a.32.32 0 0 1 .32.32zm0-1.92V49a.32.32 0 0 1-.32.32h-4.48a.32.32 0 0 1-.31-.32v-.22a.32.32 0 0 1 .31-.32h4.48a.32.32 0 0 1 .34.35zm2.56-3v.16h-3.41v-3.45h.16a.64.64 0 0 1 .45.19l2.61 2.61a.64.64 0 0 1 .19.45z"/>
        <path class="cls-4" id="icon14" d="M53.88 179.73h-6.32a1.36 1.36 0 0 0-1.35 1.36v11.72a1.35 1.35 0 0 0 1.35 1.35h6.32a1.35 1.35 0 0 0 1.35-1.35v-11.72a1.36 1.36 0 0 0-1.35-1.36zm-3.16 13.53a.9.9 0 1 1 .9-.9.9.9 0 0 1-.9.9zm3.16-3a.35.35 0 0 1-.34.34H47.9a.35.35 0 0 1-.34-.34v-8.8a.34.34 0 0 1 .34-.33h5.64a.34.34 0 0 1 .34.33z"/>
        <path class="cls-4" id="icon18" d="M177.06 43.58a.38.38 0 0 1 .37.37v1.24a.38.38 0 0 1-.37.37h-15.12a.38.38 0 0 1-.37-.37V34a.37.37 0 0 1 .37-.37h1.24a.37.37 0 0 1 .37.37v9.54zm-9.54-1.36V40a.38.38 0 0 0-.38-.38h-1.23a.38.38 0 0 0-.38.38v2.23a.38.38 0 0 0 .38.37h1.23a.38.38 0 0 0 .38-.38zm5.94 0V38a.37.37 0 0 0-.37-.37h-1.24a.38.38 0 0 0-.37.37v4.22a.38.38 0 0 0 .37.37h1.24a.37.37 0 0 0 .37-.37zm-3 0V36a.38.38 0 0 0-.37-.37h-1.24a.37.37 0 0 0-.37.37v6.2a.37.37 0 0 0 .37.37h1.24a.38.38 0 0 0 .4-.35zm5.95 0V35a.38.38 0 0 0-.38-.37h-1.23a.38.38 0 0 0-.38.37v7.19a.38.38 0 0 0 .38.37h1.23a.38.38 0 0 0 .41-.34z"/>
        <path class="cls-4" id="icon19" d="M188.35 158.11c-.62-.62-1.39-1.4-1.39-4.42a4.48 4.48 0 0 0-3.74-4.42.9.9 0 1 0-1.64-.51.88.88 0 0 0 .16.51 4.48 4.48 0 0 0-3.74 4.42c0 3-.77 3.8-1.39 4.42a1.34 1.34 0 0 0 .95 2.29h3.13a1.79 1.79 0 0 0 3.58 0h3.13a1.34 1.34 0 0 0 .95-2.29zm-5.87 3a.22.22 0 0 1 .22.23.22.22 0 0 1-.22.22 1.12 1.12 0 0 1-1.12-1.12h.45a.67.67 0 0 0 .67.63z"/>
        <path class="cls-4" id="icon20" d="M84.33 91.47v4.29h4.29a.22.22 0 0 0 .22-.24 4.51 4.51 0 0 0-4.27-4.27.22.22 0 0 0-.24.22zm5 5.19a.23.23 0 0 1 .23.24 4.5 4.5 0 0 1-1.15 2.78.23.23 0 0 1-.33 0l-3-3zm-2.85 2.73a.22.22 0 0 1 0 .32 4.45 4.45 0 0 1-3 1.16 4.51 4.51 0 0 1-.24-9 .23.23 0 0 1 .24.23v4.28z"/>
        <path class="cls-4" id="icon21" d="M153.29 135.27l.81-.8a.42.42 0 0 0-.19-.71l-1.11-.29.31-1.09a.43.43 0 0 0-.52-.53l-1.1.31-.28-1.11a.43.43 0 0 0-.71-.19l-.8.82-.8-.82a.43.43 0 0 0-.71.19l-.28 1.11-1.1-.31a.43.43 0 0 0-.53.53l.32 1.09-1.11.29a.42.42 0 0 0-.19.71l.81.8-.81.79a.43.43 0 0 0 .19.72l1.11.28-.32 1.1a.43.43 0 0 0 .53.52l1.1-.31.28 1.11a.42.42 0 0 0 .71.19l.8-.82.8.82a.42.42 0 0 0 .71-.19l.28-1.11 1.1.31a.42.42 0 0 0 .52-.52l-.31-1.1 1.11-.28a.43.43 0 0 0 .19-.72l-.81-.79z"/>
        <path class="cls-4" id="icon22" d="M124.45 83.35a.82.82 0 0 1-.74-.45 5 5 0 0 1-.59-2.37 5.09 5.09 0 1 1 9.58 2.37.85.85 0 0 1-.75.45zm5.15-6.19a.42.42 0 0 0-.53.28l-1 3.09a1.12 1.12 0 1 0 .81.25l1-3.09a.42.42 0 0 0-.28-.53z"/>
    </g>
  </g>
</svg>