<svg xmlns="http://www.w3.org/2000/svg" viewBox="0 0 196.73 201.71" aria-labelledby="svg-solutions-title svg-solutions-desc">
  <title id="svg-solutions-title">Remote-Learner Solutions Dots Graphic</title>
  <desc id="svg-solutions-desc">A circular grid of connected dots representing Remote-Learner&apos;s custom solutions.</desc>
  <defs>
    <style>
      .cls-1{fill:#a7aeb0;}.cls-2{fill:#325a76;}.cls-3{fill:#4881a9;}.cls-4{fill:#fff;}.lines{fill:#ddd;}
    </style>
  </defs>
  <g class="rl-solutions-dots">
    <path class="lines" d="M8.23 131.51l37.12-10.11a56.62 56.62 0 0 0 4.12 10.6 58.28 58.28 0 0 0 4.58 7.5l-14.7 10.8-.86.61c1.08 1.49 2.2 3 3.4 4.39q2.59 3.06 5.52 5.9a76.19 76.19 0 0 0 12.52 9.8l-9.38 15.22-.57.89q1.92 1.22 3.93 2.34c2.16 1.21 4.38 2.35 6.66 3.4a95.89 95.89 0 0 0 95.85-8.9l-.32-.44.09-.06-10.78-15.3a78.91 78.91 0 0 0 13.93-12.69 78 78 0 0 0 7-9.52l15.42 9.29.89.55a93.42 93.42 0 0 0 5.31-9.94 97.25 97.25 0 0 0 4.71-12.5 95.55 95.55 0 0 0 1.45-49.72 96.64 96.64 0 0 0-23.86-44l-.75-.77L155.85 52a77.79 77.79 0 0 0-18.65-14l8.32-15.79.51-.94c-.78-.41-1.55-.82-2.33-1.21-1.13-.56-2.28-1.11-3.45-1.63a95.22 95.22 0 0 0-60.32-6.18l.22 1L84 30.72a77.32 77.32 0 0 0-30.76 14.57l-.27.22-11.2-13.92-.7-.81c-1.2 1-2.39 1.93-3.55 3q-2.69 2.35-5.24 5a96.16 96.16 0 0 0-12.69 16 95 95 0 0 0-9 18.32q-1 2.77-1.84 5.65-1 3.45-1.77 7a96.58 96.58 0 0 0-2.14 20.36c0 6.9.65 13.47 3.05 24.34zm148.36-77.16c5.73 6.21 9.82 12.3 14.89 23.44l-35.92 13.94.33.83.06.17a37.61 37.61 0 0 1 2.36 13c0 1 0 2-.1 2.92l-17.68-1.53v-.55a19.8 19.8 0 0 0-11.62-18.77 19.18 19.18 0 0 0-2.25-.85 21.21 21.21 0 0 0-2.35-.58L107 68.81a37.21 37.21 0 0 1 9.22 2.81 37.83 37.83 0 0 1 7.33 4.38 37 37 0 0 1 4.71 4.28l.76-.77 26.81-25.94zM113 161a56.18 56.18 0 0 1-23.91.07l8.24-36.95-.89-.2a15 15 0 0 1-1.55-.44c-.57-.2-1.14-.42-1.71-.68a18.67 18.67 0 0 1-9.34-24.71A17.32 17.32 0 0 1 84.9 96l-1-.53-15.3-9.18a37.94 37.94 0 0 1 22.23-16.64 37.31 37.31 0 0 1 15.12-1l-2.83 18.6 1.06.16a19.42 19.42 0 0 1 2.19.54 21 21 0 0 1 2.12.81 18.66 18.66 0 0 1 11 17.75v.5l-.07.79 18.76 1.62a37.43 37.43 0 0 1-28.41 32.76l-1 .24zM54 46.12a76.26 76.26 0 0 1 30.17-14.36l1.06-.23-.22-1L81.2 13a94.26 94.26 0 0 1 58.61 6.35c1.14.51 2.28 1.05 3.41 1.61l1.35.69-8.83 16.74.95.5a77 77 0 0 1 18.39 13.85l-26.8 25.96a37.62 37.62 0 0 0-4.07-3.58 39.09 39.09 0 0 0-17-7.38L110 49l-1-.22c-7.19-1.33-13.78-.59-20.74.76s-14.46 5-23.49 10.59L53.65 46.35zm10.59 15.53l.83-.67c6-3.82 16-9 23-10.39s13.32-2.07 20.37-.76l-2.7 17.75a38.56 38.56 0 0 0-15.56 1C82 71 74.1 76 67.73 85.75l-.57.92 16.25 9.77c-.22.4-.42.81-.61 1.23a19.75 19.75 0 0 0 9.88 26.14c.6.26 1.2.5 1.81.71s1 .31 1.5.44L87.72 162l1 .24v-.1a57.29 57.29 0 0 0 24.39-.08l4.06 17.81c-10.17 1.8-15.49 2.1-22.25 1.58a76.13 76.13 0 0 1-19.65-4.19 77.64 77.64 0 0 1-7.27-3.05 73.26 73.26 0 0 1-6.6-3.56l10.11-16.4-.91-.57a68.4 68.4 0 0 1-10.22-8.34 57.7 57.7 0 0 1-4.83-5.64l15.24-11.23-.63-.86a42.84 42.84 0 0 1-6.11-14.42 43.07 43.07 0 0 1 .34-15.68l.26-1-37.44-9.2c.24-1 .51-1.93.79-2.89a77.35 77.35 0 0 1 3.65-9.83A75.2 75.2 0 0 1 52.82 47zM9 130.19c-2.15-10-3-17.25-3-24.06A94.56 94.56 0 0 1 8.08 86c.5-2.36 1.09-4.67 1.75-6.93s1.42-4.54 2.25-6.75A94.35 94.35 0 0 1 33 39.47q2.52-2.56 5.19-4.92c.89-.78 1.79-1.54 2.7-2.29l11.25 13.92A77.08 77.08 0 0 0 27 84.12c-.4 1.34-.74 2.69-1.06 4l1.05.21 36.39 8.9A44.26 44.26 0 0 0 63 113.4a44.3 44.3 0 0 0 6.3 14.85l-14.38 10.58c-.69-1-1.34-1.92-2-2.91q-1.37-2.16-2.52-4.44a56.08 56.08 0 0 1-4-10.36l-.28-1L9 130.19m39.18 30.23a78 78 0 0 1-5.45-5.81q-1.41-1.68-2.72-3.44l14.7-10.84q.69.94 1.44 1.86 1.65 2 3.48 3.9A70.82 70.82 0 0 0 70 154.6l-9.55 15.48a75.5 75.5 0 0 1-12.29-9.66zm110.36-5.68a76.77 76.77 0 0 1-13.73 12.52c-.29.21-.59.41-.89.61l.62.88L155 183.61a94.74 94.74 0 0 1-94 8.25q-3.39-1.56-6.59-3.36c-1-.56-2-1.13-3-1.73l9.38-15.22c1 .61 2 1.18 3 1.73a76.25 76.25 0 0 0 19 7.33 76.24 76.24 0 0 0 12.14 1.93c6.86.53 13.13.24 22.57-1.6l1.05-.24-4.3-18.86A57.62 57.62 0 0 0 149.91 136l15.5 9.4a73.87 73.87 0 0 1-6.89 9.34zm7.46-10.29L150.46 135l-.92-.56A56.59 56.59 0 0 1 114 160.79l-4-17.53a38.61 38.61 0 0 0 29.22-33.73l37.26 3.23A72.49 72.49 0 0 1 170 137a74.64 74.64 0 0 1-4 7.45zM191.63 133a94.52 94.52 0 0 1-9.32 21.28l-15.4-9.28a78 78 0 0 0 4-7.57 73.33 73.33 0 0 0 6.59-24.6l.08-.8-38.34-3.32c.08-1 .12-2 .12-3A38.84 38.84 0 0 0 137 92.34l35.89-13.94-.39-1-.17.07.15-.07c-5.06-11.43-9.28-17.47-15.1-23.78l-.78-.83 12.89-12.39a95.5 95.5 0 0 1 23.58 43.46 94.37 94.37 0 0 1-1.44 49.14z"/>
    <g class="circles-1">
      <path class="cls-1" id="cls-1-1" data-contentsel="item1" tabindex="0" d="M153.3 25.05a8.78 8.78 0 1 0-11.62 4.4 8.78 8.78 0 0 0 11.62-4.4z"/>
      <path class="cls-1" id="cls-1-2" data-contentsel="item2" tabindex="0" d="M92.05 17.78a12.6 12.6 0 1 0-16.67 6.3 12.59 12.59 0 0 0 16.67-6.3z"/>
      <path class="cls-1" id="cls-1-3" data-contentsel="item3" tabindex="0" d="M38.16 92.91a12.59 12.59 0 1 0-16.66 6.3 12.6 12.6 0 0 0 16.66-6.3z"/>
      <path class="cls-1" id="cls-1-4" data-contentsel="item4" tabindex="0" d="M77.12 131.46A7.64 7.64 0 1 0 67 135.28a7.65 7.65 0 0 0 10.12-3.82z"/>
      <path class="cls-1" id="cls-1-5" data-contentsel="item5" tabindex="0" d="M50.71 156.24a12.6 12.6 0 1 0-16.66 6.3 12.6 12.6 0 0 0 16.66-6.3z"/>
      <path class="cls-1" id="cls-1-6" data-contentsel="item6" tabindex="0" d="M129.39 185.45a12.6 12.6 0 1 0-16.66 6.3 12.59 12.59 0 0 0 16.66-6.3z"/>
      <path class="cls-1" id="cls-1-7" data-contentsel="item7" tabindex="0" d="M179 81.29a7.64 7.64 0 1 0-10.1 3.81 7.64 7.64 0 0 0 10.1-3.81z"/>
      <path class="cls-1" id="cls-1-8" data-contentsel="item8" tabindex="0" d="M120.8 148a12.59 12.59 0 1 0-16.66 6.3 12.6 12.6 0 0 0 16.66-6.3z"/>
      <path class="cls-1" d="M139.93 39.78a3.82 3.82 0 1 0-5.05 1.91 3.81 3.81 0 0 0 5.05-1.91z"/>
      <path class="cls-1" d="M88.07 32.69a3.82 3.82 0 1 0-5 1.91 3.83 3.83 0 0 0 5-1.91z"/>
      <path class="cls-1" d="M67.33 98.36a3.82 3.82 0 1 0-5 1.91 3.82 3.82 0 0 0 5-1.91z"/>
      <path class="cls-1" d="M139.74 93.6a3.82 3.82 0 1 0-5.05 1.91 3.82 3.82 0 0 0 5.05-1.91z"/>
    </g>
    <g class="circles-2">
      <path class="cls-2" id="cls-2-1" data-contentsel="item9" tabindex="0" d="M188.53 117.58a12.6 12.6 0 1 0-16.67 6.3 12.6 12.6 0 0 0 16.67-6.3z"/>
      <path class="cls-2" id="cls-2-2" data-contentsel="item10" tabindex="0" d="M49 35.1a8.78 8.78 0 1 0-11.61 4.39A8.77 8.77 0 0 0 49 35.1z"/>
      <path class="cls-2" id="cls-2-3" data-contentsel="item11" tabindex="0" d="M53.59 124.41A8.78 8.78 0 1 0 42 128.8a8.79 8.79 0 0 0 11.59-4.39z"/>
      <path class="cls-2" id="cls-2-4" data-contentsel="item12" tabindex="0" d="M76.48 66.49a12.59 12.59 0 1 0-16.66 6.3 12.58 12.58 0 0 0 16.66-6.3z"/>
      <path class="cls-2" id="cls-2-5" data-contentsel="item13" tabindex="0" d="M120.91 54.53a12.6 12.6 0 1 0-16.67 6.3 12.61 12.61 0 0 0 16.67-6.3z"/>
      <path class="cls-2" id="cls-2-6" data-contentsel="item14" tabindex="0" d="M62.2 192.13a12.59 12.59 0 1 0-16.66 6.3 12.6 12.6 0 0 0 16.66-6.3z"/>
      <path class="cls-2" id="cls-2-7" data-contentsel="item15" tabindex="0" d="M128 111.06a8.78 8.78 0 1 0-11.61 4.39 8.77 8.77 0 0 0 11.61-4.39z"/>
      <path class="cls-2" id="cls-2-8" data-contentsel="item16" tabindex="0" d="M163.75 187.36a8.78 8.78 0 1 0-11.61 4.39 8.77 8.77 0 0 0 11.61-4.39z"/>
      <path class="cls-2" id="cls-2-9" data-contentsel="item17" tabindex="0" d="M16.78 134.41a8.78 8.78 0 1 0-11.61 4.39 8.78 8.78 0 0 0 11.61-4.39z"/>
      <path class="cls-2" d="M148.14 169.58a3.82 3.82 0 1 0-5 1.91 3.82 3.82 0 0 0 5-1.91z"/>
      <path class="cls-2" d="M107.19 88.35a3.82 3.82 0 1 0-5 1.91 3.83 3.83 0 0 0 5-1.91z"/>
      <path class="cls-2" d="M74.3 156a3.82 3.82 0 1 0-5 1.91 3.81 3.81 0 0 0 5-1.91z"/>
    </g>
    <g class="circles-3">
      <path class="cls-3 item18" id="cls-3-1" data-contentsel="item18" tabindex="0" d="M181 44.8a12.6 12.6 0 1 0-16.66 6.3A12.6 12.6 0 0 0 181 44.8z"/>
      <path class="cls-3 item19" id="cls-3-2" data-contentsel="item19" tabindex="0" d="M194 160.21a12.59 12.59 0 1 0-16.66 6.3 12.6 12.6 0 0 0 16.66-6.3z"/>
      <path class="cls-3 item20" id="cls-3-3" data-contentsel="item20" tabindex="0" d="M92.23 99.67a8.78 8.78 0 1 0-11.62 4.39 8.78 8.78 0 0 0 11.62-4.39z"/>
      <path class="cls-3 item21" id="cls-3-4" data-contentsel="item21" tabindex="0" d="M96.39 165.13a8.78 8.78 0 1 0-11.62 4.39 8.78 8.78 0 0 0 11.62-4.39z"/>
      <path class="cls-3 item22" id="cls-3-5" data-contentsel="item22" tabindex="0" d="M157.7 138.88a8.78 8.78 0 1 0-11.61 4.39 8.78 8.78 0 0 0 11.61-4.39z"/>
      <path class="cls-3 item23" id="cls-3-6" data-contentsel="item23" tabindex="0" d="M136.21 83a8.78 8.78 0 1 0-11.62 4.39A8.8 8.8 0 0 0 136.21 83z"/>
      <path class="cls-3" d="M71.48 88.11a3.82 3.82 0 1 0-5 1.91 3.82 3.82 0 0 0 5-1.91z"/>
      <path class="cls-3" d="M100.1 126.13a3.82 3.82 0 1 0-5 1.91 3.81 3.81 0 0 0 5-1.91z"/>
    </g>
    <g class="icons">
      <path class="cls-4" d="M117.12 174.05zm4.07 13.2h-6.56a1 1 0 0 1-1-1v-12a1 1 0 0 1 1-1h6.56a1 1 0 0 1 1 1v12a1 1 0 0 1-1 1zm-.75-11.74h-5v8.84h5v-8.84zm-3.32-1.14a.32.32 0 0 1-.32-.32.32.32 0 0 1 .32-.33h1.58a.33.33 0 0 1 .33.33.32.32 0 0 1-.33.32zm4.18 10.46V175a.13.13 0 0 0 0-.06.44.44 0 0 0-.42-.33H115a.44.44 0 0 0-.43.33v9.92a.44.44 0 0 0 .43.33h5.91a.44.44 0 0 0 .42-.33.13.13 0 0 0 0-.06zm-3 .88a.48.48 0 0 0-.35-.14.5.5 0 0 0-.35.14.51.51 0 0 0-.14.36.48.48 0 0 0 .49.49.48.48 0 0 0 .35-.14.51.51 0 0 0 .15-.35.51.51 0 0 0-.19-.36z"/>
      <path class="cls-4" d="M33.58 145.65h11.27a.84.84 0 0 1 .83.84v6.92a.84.84 0 0 1-.83.84H33.58a.84.84 0 0 1-.83-.84v-6.92a.84.84 0 0 1 .83-.84zM46.76 155H31.7a.75.75 0 0 0-.74.75.75.75 0 0 0 .74.75h15.06a.76.76 0 0 0 .75-.75.76.76 0 0 0-.75-.75zm-1.45 1h-5.17a.32.32 0 0 1-.32-.31.32.32 0 0 1 .32-.31h5.17a.32.32 0 0 1 .32.31.32.32 0 0 1-.32.31zm-1-8.83h-10.2v5.63h10.21v-5.63zm-10.58-.75a.37.37 0 0 0-.38.37v6.39a.37.37 0 0 0 .38.37h10.96a.37.37 0 0 0 .38-.37v-6.39a.37.37 0 0 0-.38-.37z"/>
      <path class="cls-4" d="M33.28 82.91H20.07a.88.88 0 0 0-.62.26.86.86 0 0 0-.25.58l7 5.31a.71.71 0 0 0 .9 0l7-5.31a.87.87 0 0 0-.26-.58.84.84 0 0 0-.62-.26zm.88 7.84l-4-3 4-3v6zm-.26 1.54a.84.84 0 0 1-.62.26H20.07a.88.88 0 0 1-.62-.26.84.84 0 0 1-.25-.57l4.63-3.5L26 89.86a1.16 1.16 0 0 0 .68.23 1.11 1.11 0 0 0 .67-.23l2.18-1.64 4.63 3.5a.84.84 0 0 1-.26.57zm-14.7-7.58l4 3-4 3z"/>
      <path class="cls-4" d="M172.13 77.5a.11.11 0 0 1 .06-.07.12.12 0 0 1 .1 0 .14.14 0 0 1 .08.07l1.87-1.87a.22.22 0 0 1 .15-.06.21.21 0 0 1 .22.22.22.22 0 0 1-.06.15l-2.12 2.12.3.22a.28.28 0 0 1 .12.2.31.31 0 0 1-.26.35.32.32 0 0 1-.23-.06l-.32-.24-1 2.8a.12.12 0 0 1-.07.07.12.12 0 0 1-.17-.06.16.16 0 0 1 0-.1l.87-2.44h-.08a.24.24 0 0 1-.16-.07.22.22 0 0 1-.06-.15.23.23 0 0 1 .06-.16l.21-.21-1.7-1.21a.33.33 0 0 1-.12-.21.31.31 0 0 1 .49-.29l1.69 1.26.09-.26zm2.65-2.1a3.91 3.91 0 0 0-4.23-.84 4 4 0 0 0-1.26.84 4.15 4.15 0 0 0-.84 1.26 3.95 3.95 0 0 0 0 3 4.15 4.15 0 0 0 .84 1.26 4 4 0 0 0 1.26.84 3.89 3.89 0 0 0 4.23-.84 3.81 3.81 0 0 0 .84-1.26 3.83 3.83 0 0 0 0-3 3.81 3.81 0 0 0-.84-1.26zm-6.34-.85a5.08 5.08 0 1 0 3.6-1.49 5.07 5.07 0 0 0-3.6 1.49zm1.38 3.38h-1.11a.21.21 0 0 0-.22.22.21.21 0 0 0 .22.21h1.11a.21.21 0 0 0 .21-.21.21.21 0 0 0-.21-.22zm4.44.43h1.11a.22.22 0 1 0 0-.43h-1.11a.22.22 0 1 0 0 .43zm-2.44 2v1.11a.22.22 0 1 0 .44 0v-1.1a.22.22 0 1 0-.44 0zm.44-4.45v-1.1a.22.22 0 1 0-.44 0v1.11a.22.22 0 1 0 .44 0z"/>
      <path class="cls-4" d="M87.43 9l.57-.87a.13.13 0 0 1 .07-.06L90.49 7a.16.16 0 0 1 .19 0 .17.17 0 0 1 0 .2l-.79 1.18 1.5.26a.14.14 0 0 1 .13.14.16.16 0 0 1-.09.17L89 10.07a.16.16 0 0 1-.1 0l-1.09-.19-3.5 1.6.29.63a.13.13 0 0 1 0 .12.14.14 0 0 1-.11.07l-3.7.42a.18.18 0 0 1-.17-.1.17.17 0 0 1 0-.19l2.71-2.5a.15.15 0 0 1 .14 0 .18.18 0 0 1 .12.09l.27.6L87.43 9zm-6.92.46a3.1 3.1 0 1 0 3 3.71l-1.67.19a1.6 1.6 0 0 1-1.37.77 1.59 1.59 0 0 1 0-3.17 1.45 1.45 0 0 1 .59.12L82.27 10a3.13 3.13 0 0 0-1.76-.54zm2.92 9.37a10.75 10.75 0 0 0 1.2 1.17 1 1 0 0 0 1.46-1.46l-.94-.94a6.86 6.86 0 0 0 2.26-5.1 7.16 7.16 0 0 0-.19-1.61l-1.52.69a5.5 5.5 0 0 1 .08.91 5.27 5.27 0 1 1-1-3.13l1.5-.69a6.9 6.9 0 0 0-4.52-3 6.22 6.22 0 0 0-1.22-.11 6.89 6.89 0 0 0-4.62 12l-.93.93A1 1 0 0 0 76.42 20a10.78 10.78 0 0 0 1.2-1.25 6.91 6.91 0 0 0 5.81 0z"/>
      <path class="cls-4" d="M104.74 56.56h9.36a.71.71 0 0 0 .71-.71V43.41a.71.71 0 0 0-.71-.71h-2.41V44h1.8v11.29h-8.14V44h1.81v-1.3h-2.42a.71.71 0 0 0-.71.71v12.44a.71.71 0 0 0 .71.71zm6.13-14.43a.66.66 0 0 1 .42.14.42.42 0 0 1 .16.32v1.79a.43.43 0 0 1-.16.32.73.73 0 0 1-.42.14H108a.68.68 0 0 1-.42-.14.45.45 0 0 1-.17-.32v-1.79a.43.43 0 0 1 .17-.32.63.63 0 0 1 .42-.14zm-2.51.59h2.12a.51.51 0 0 1 .35.12.4.4 0 0 1 .16.32v.57a.4.4 0 0 1-.16.31.52.52 0 0 1-.35.13h-2.12A.56.56 0 0 1 108 44a.42.42 0 0 1-.15-.31v-.57a.42.42 0 0 1 .15-.32.55.55 0 0 1 .35-.12zm-1.62 9.59h5.37a.29.29 0 0 1 .29.29.29.29 0 0 1-.29.29h-5.37a.29.29 0 0 1-.29-.29.29.29 0 0 1 .29-.29zm5.38-1.08h-5.67a.29.29 0 0 1 .29-.29h5.37a.29.29 0 0 1 .29.29h-.28zM106.74 49h5.37a.3.3 0 0 1 .29.29.29.29 0 0 1-.29.3h-5.37a.29.29 0 0 1-.29-.3.3.3 0 0 1 .29-.29zm0-1.66h5.37a.29.29 0 0 1 .29.29.3.3 0 0 1-.29.3h-5.37a.3.3 0 0 1-.29-.3.29.29 0 0 1 .29-.29zm0-1.56h5.37a.29.29 0 0 1 .29.29.29.29 0 0 1-.29.29h-5.37a.29.29 0 0 1-.29-.29.29.29 0 0 1 .29-.29zm1.35-1.78v-.82a.19.19 0 0 1 .07-.14.35.35 0 0 1 .2-.07h2.12a.32.32 0 0 1 .2.07.19.19 0 0 1 .07.14V44z"/>
      <path class="cls-4" d="M163.2 44.49h4.59v-.41h-4.87a.14.14 0 0 1-.15-.15.15.15 0 0 1 .15-.15h4.87v-.41h-4.87a.15.15 0 0 1-.15-.15.15.15 0 0 1 .15-.15h4.87V42h-4.65a.38.38 0 0 1-.37-.38v-5.44a.38.38 0 0 1 .37-.38h4.65v-1.06h-4.59a1.12 1.12 0 0 0-1.12 1.12v7.51a1.12 1.12 0 0 0 1.12 1.12zm5.1 0h2.4v-9.75h-2.4v9.67zm2.91 0h4.59a1.12 1.12 0 0 0 1.12-1.12v-7.51a1.12 1.12 0 0 0-1.12-1.12h-4.59v1.06h4.64a.38.38 0 0 1 .38.38v5.39a.38.38 0 0 1-.38.38h-4.64V43h4.87a.15.15 0 0 1 .15.15.15.15 0 0 1-.15.15h-4.87v.41h4.87a.15.15 0 0 1 .15.15.15.15 0 0 1-.15.15h-4.87v.41zm-3.42-8.08v1.14a2.83 2.83 0 0 0 0 2.65v1.14a3.64 3.64 0 0 1 0-4.93zm3.42 3.79a2.9 2.9 0 0 0 0-2.65v-1.14a3.64 3.64 0 0 1 0 4.93V40.2zm3.72-1.93a.62.62 0 1 1-.63.62.63.63 0 0 1 .63-.62zm-.93 2.94h1.6a.15.15 0 0 1 .15.15v.2a.15.15 0 0 1-.15.15H174a.15.15 0 0 1-.16-.15v-.2a.16.16 0 0 1 .16-.15zm0-5.15h1.6a.15.15 0 0 1 .15.15v.2a.15.15 0 0 1-.15.15H174a.16.16 0 0 1-.16-.15v-.2a.16.16 0 0 1 .16-.15zm-10 2.21a.62.62 0 1 1-.63.62.63.63 0 0 1 .63-.62zm.89 2.94a.15.15 0 0 1 .15.15v.2a.15.15 0 0 1-.15.15h-1.61a.15.15 0 0 1-.15-.15v-.2a.15.15 0 0 1 .15-.15zm0-5.15a.15.15 0 0 1 .15.15v.2a.15.15 0 0 1-.15.15h-1.61a.15.15 0 0 1-.15-.15v-.2a.15.15 0 0 1 .15-.15z"/>
      <path class="cls-4" d="M10 126c-.08.15-.51.83-.68 1.19a.11.11 0 0 1-.1.06H8.4a.11.11 0 0 1-.1-.06c-.17-.36-.6-1-.69-1.19-.32-.37 2.73-.37 2.4 0zm-2.36 3.56a12.46 12.46 0 0 1-3.06 2.2l-.68.08a.14.14 0 0 1-.12-.06.13.13 0 0 1 0-.13l.55-.63A17.74 17.74 0 0 0 8 128.18a12 12 0 0 0-.3 1.4zm1.66-1.94a.12.12 0 0 0-.11-.09h-.76a.12.12 0 0 0-.11.09l-1.46 6.77a.12.12 0 0 0 0 .1l1.85 2.19a.14.14 0 0 0 .08.05.13.13 0 0 0 .09 0l1.9-2.2a.1.1 0 0 0 0-.1z"/>
      <path class="cls-4" d="M173.4 117l.63-1a1.49 1.49 0 0 1 .21-.22.57.57 0 0 1 .66 0 .49.49 0 0 1 .17.18.69.69 0 0 1 .09.23 5.66 5.66 0 0 1-.82 1.4.1.1 0 0 1-.11.06c-.29 0-1-.42-.83-.68zm9.61-2.23a.66.66 0 0 0 1 .5l.91-.46a1 1 0 0 0 .55-.86v-5.09a1 1 0 0 0-.41-.78 1 1 0 0 0-.87-.12l-2.53.91a1 1 0 0 0-.26.13c-.38.27-.28.69-.07 1a9.94 9.94 0 0 1 1.73 4.74zm-11.93 0a.66.66 0 0 1-1 .5l-.91-.46a1 1 0 0 1-.54-.86v-5.09a.94.94 0 0 1 .4-.78 1 1 0 0 1 .87-.12l2.53.91a1 1 0 0 1 .26.13c.38.27.28.69.08 1a9.86 9.86 0 0 0-1.74 4.74zm10.84-2.77a9.93 9.93 0 0 1 .68 2.36v.09h-.07l-1 .57h-.09l-.06-.07a20.1 20.1 0 0 0-2.61-2.73 1.44 1.44 0 0 0-.89-.09 11.16 11.16 0 0 0-1.27.27 4.59 4.59 0 0 1-1.5.19.39.39 0 0 1-.28-.14.26.26 0 0 1 0-.33 3.2 3.2 0 0 1 1-.67 18 18 0 0 1 2.31-1 14.3 14.3 0 0 1 2.5-.63 8.4 8.4 0 0 1 1.25 2.07zm-9.45 3.51l.08.05.06-.06a7.1 7.1 0 0 0 2.38 0 1 1 0 0 1 .51.62.92.92 0 0 1 .71 0 .8.8 0 0 1 .46.75v.1a.74.74 0 0 1 .45.22l.08-.1a.19.19 0 0 1 .11-.07.17.17 0 0 1 .14 0l1.9 1.35a1 1 0 0 0 .44.12.37.37 0 0 0 .24 0 .41.41 0 0 0 .07-.6l-2.6-2.07a.17.17 0 0 1-.07-.18.25.25 0 0 1 0-.07h.06a.17.17 0 0 1 .19 0l2.67 2.12a.58.58 0 0 0 .41.08.35.35 0 0 0 .23-.37 1 1 0 0 0-.29-.61l-2.27-2.12a.19.19 0 0 1 .06-.3.16.16 0 0 1 .19 0l2.18 2a.13.13 0 0 0 .12 0 .66.66 0 0 0 .25-.07.33.33 0 0 0 .15-.29c0-.56-2.29-3-2.9-3.44-.54-.29-2.46.55-3.33.52a.68.68 0 0 1-.74-.78c0-.3.42-.64.93-.95a12.4 12.4 0 0 1 1.57-.77l.38-.16-.4-.08a9.38 9.38 0 0 0-3.84 0H173a10.63 10.63 0 0 0-1 2.09 11.26 11.26 0 0 0-.56 2.36l1 .57zm4.79 1.81l.24.17 1.46 1c.18.13-.07.46-.27.42a6.34 6.34 0 0 1-1.34-.69h-.07v-.09a2.21 2.21 0 0 0 0-.81zm-1.45 1.15l.68-1.09a.12.12 0 0 1 .1-.06.29.29 0 0 1 .29.15.58.58 0 0 1 .05.14.47.47 0 0 1 0 .17 1.08 1.08 0 0 1 0 .18 1.74 1.74 0 0 1-.13.46 1 1 0 0 1-.23.33.43.43 0 0 1-.38.09.89.89 0 0 1-.37-.2.13.13 0 0 1 0-.17zm.5-1.66a.48.48 0 0 0-.67-.4.4.4 0 0 0-.18.14l-.8 1.26a.11.11 0 0 0 0 .16 1.8 1.8 0 0 0 .67.35.14.14 0 0 0 .14 0l.74-1.18a.69.69 0 0 0 .06-.26zm-3.72-.19a.38.38 0 0 0 .09.13l.1.08.12.07a.13.13 0 0 0 .16 0l.61-.91a.14.14 0 0 0 0-.17.65.65 0 0 0-.15-.1.64.64 0 0 0-.18-.06.79.79 0 0 0-.79.7.54.54 0 0 0 .04.24z"/>
      <path class="cls-4" d="M65.8 70h-1.72a.43.43 0 1 1 0-.85h1.72a.43.43 0 1 1 0 .85zM65 56.23a4.59 4.59 0 0 1 4.65 4.52c0 2.35-1.1 2.37-1.7 3.84-.3.71-.32 2.32-1.36 2.32h-3.18c-1 0-1.08-1.64-1.36-2.32-.45-1.1-1.35-1.49-1.61-2.83A4.59 4.59 0 0 1 65 56.23zm1.31 9.43a2.31 2.31 0 0 0 .33-.84c.4-1.58 1.46-2.13 1.7-3.33a3.39 3.39 0 1 0-6.67 0c.24 1.21 1.28 1.71 1.7 3.33a2.31 2.31 0 0 0 .33.84h.51a11.54 11.54 0 0 0-.08-2 8.57 8.57 0 0 0-.67-2.19.76.76 0 0 1 .44-1.1 2.77 2.77 0 0 1 2-.07.84.84 0 0 1 .61 1.17 8.59 8.59 0 0 0-.68 2.2 12.49 12.49 0 0 0-.08 2zm-1.53 0h.44a14 14 0 0 1 .08-2.1 8.39 8.39 0 0 1 .7-2.26.58.58 0 0 0-.42-.44 1.35 1.35 0 0 0-.5-.09 1.77 1.77 0 0 0-.52.08.68.68 0 0 0-.5.47 9.14 9.14 0 0 1 .67 2.25 12.47 12.47 0 0 1 .09 2.09zM66.6 68h-3.21a.43.43 0 0 1 0-.85h3.21a.43.43 0 0 1 0 .85zm-7.77-6.57h-1.4c-.61 0-.61-1.43 0-1.43h1.4c.62 0 .59 1.43 0 1.43zM66.3 69h-2.73a.43.43 0 0 1 0-.85h2.73a.43.43 0 0 1 0 .85zm2.54-13.17c-.43.44.61 1.41 1 1l1-1c.42-.42-.59-1.43-1-1l-1 1zM71.15 60h1.44c.61 0 .58 1.43 0 1.43h-1.44c-.58 0-.6-1.43 0-1.43zm-11-3.13c.42.42 1.42-.59 1-1l-1-1c-.41-.41-1.44.56-1 1l1 1zm4.14-2.31v-1.51c0-.58 1.43-.61 1.43 0v1.47c-.01.58-1.44.62-1.44 0z"/>
      <path class="cls-4" d="M110.9 146.69v-6.4a1 1 0 0 0-1-1h-1.16a1 1 0 0 0-1 1v6.4a1 1 0 0 0 1 1h1.16a1 1 0 0 0 1-1zm-5.34 1h-1.15a1 1 0 0 1-1-1v-3a1 1 0 0 1 1-1h1.15a1 1 0 0 1 1 1v3a1 1 0 0 1-1 1zm8.67 0h-1.15a1 1 0 0 1-1-1v-9.27a1 1 0 0 1 1-1h1.15a1 1 0 0 1 1 1v9.27a1 1 0 0 1-1 1zm-11.41 1.45v-.6a.15.15 0 0 1 .15-.16h12.7a.16.16 0 0 1 .16.16v.6a.16.16 0 0 1-.16.16H103a.15.15 0 0 1-.18-.16z"/>
      <path class="cls-4" d="M118.73 103.09a3.13 3.13 0 0 1 2.81 4.53.79.79 0 0 1 .18.14l2.31 2.31a1 1 0 0 1 0 1.45 1 1 0 0 1-1.45 0l-2.31-2.31a1.1 1.1 0 0 1-.14-.18 3.14 3.14 0 1 1-1.4-5.94zm1.54 1.6a2.14 2.14 0 0 0-1.54-.64 2.19 2.19 0 0 0-2.17 2.17 2.17 2.17 0 0 0 2.17 2.17 2.15 2.15 0 0 0 2.17-2.17 2.15 2.15 0 0 0-.63-1.53z"/>
      <path class="cls-4" d="M146.34 130.86c.62-.09 1.23-.15 1.84-.19a.54.54 0 0 1 .53.29.57.57 0 0 1 0 .6 1.16 1.16 0 0 0 1 1.83 1.16 1.16 0 0 0 1.16-1.17 1.19 1.19 0 0 0-.13-.53 1.18 1.18 0 0 1-.12-.33.56.56 0 0 1 .58-.69c.67 0 1.35.1 2 .19.35 0 .7.3.65.65-.12.72-.21 1.44-.26 2.16a.56.56 0 0 0 .28.53.55.55 0 0 0 .6 0 1.19 1.19 0 0 1 .65-.2 1.17 1.17 0 1 1 0 2.33 1.19 1.19 0 0 1-.53-.13 1.16 1.16 0 0 0-.44-.12.57.57 0 0 0-.59.6 18.69 18.69 0 0 0 .29 2.34c.06.35-.3.59-.65.65a16.06 16.06 0 0 1-1.68.21.55.55 0 0 1-.52-.25.53.53 0 0 1 0-.57 1.22 1.22 0 0 0 .11-.54 1.17 1.17 0 0 0-2.33 0 1.2 1.2 0 0 0 .13.54.56.56 0 0 1 0 .56.57.57 0 0 1-.51.25c-.64-.05-1.29-.12-1.95-.23-.35-.06-.69-.29-.64-.65.09-.72.15-1.45.18-2.18a.56.56 0 0 0-.29-.52.57.57 0 0 0-.59 0 1.18 1.18 0 0 1-.67.21 1.17 1.17 0 0 1 0-2.33 1.2 1.2 0 0 1 .54.13 1.33 1.33 0 0 0 .4.12.56.56 0 0 0 .44-.16.54.54 0 0 0 .17-.43c0-.78-.1-1.57-.18-2.35-.15-.33.19-.57.53-.62z"/>
      <path class="cls-4" d="M44.32 179.18c.66 3.5.77 8.35 3.88 9.26 2.56.62 1.91 3.28.55 3.55l-2 .38h7.84L52.7 192c-1.37-.26-2-2.93.55-3.55 3.1-.91 3.21-5.76 3.87-9.26zm2.62.83l.18 1.9c.16 1.64.42 4.4 1.29 5.73-2-.61-2.51-3.84-2.79-5.59-.11-.68-.21-1.36-.32-2zm6.1 7.63c.83-1.29 1.11-4 1.28-5.73l.18-1.9h1.64c-.11.68-.21 1.36-.32 2-.25 1.56-.68 4.15-2 5.19a2.46 2.46 0 0 1-.82.44z"/>
      <path class="cls-4" d="M46.11 192.76h9.22v1.95h-9.22z"/>
      <path class="cls-4" d="M180.39 150.36v.48h-.68v-.56a1 1 0 0 1 1-1h3.61a1 1 0 0 1 1 1v.56h-.67v-.48a.38.38 0 0 0-.37-.37h-3.44a.38.38 0 0 0-.37.37zm9.39 7.25v-5.38a1 1 0 0 0-1-1h-12.64a1 1 0 0 0-1 1v5.38a.15.15 0 0 0 .14.15h6v-.29a.37.37 0 0 1 .37-.37h1.64a.37.37 0 0 1 .37.37v.29h6a.15.15 0 0 0 .15-.15zm-6.11.57v.29a.37.37 0 0 1-.37.37h-1.64a.37.37 0 0 1-.37-.37v-.29h-6a.15.15 0 0 0-.14.15v1.45a1 1 0 0 0 1 1h12.68a1 1 0 0 0 1-1v-1.45a.15.15 0 0 0-.15-.15z"/>
      <path class="cls-4" d="M158.81 179a4.37 4.37 0 0 1 1 .72 4.53 4.53 0 0 1 .71.95 1.12 1.12 0 0 1-.19 1.34l-5.54 5.55a.27.27 0 0 1-.14.07l-3.41 1a.28.28 0 0 1-.35-.19.22.22 0 0 1 0-.16l1-3.42a.21.21 0 0 1 .07-.13l5.55-5.54a1.17 1.17 0 0 1 .64-.33 1.1 1.1 0 0 1 .7.14zm-6.81 7.57a3.14 3.14 0 0 1 1 1l1.27-.36-.21-.89-1.08.1a.3.3 0 0 1-.3-.13l-.38-.63-.27.94zm8.12-5.42l-5.35 5.35v.28l5.15-5.15a.58.58 0 0 0 .16-.32.43.43 0 0 0 0-.16zm-7.22 4.43l5.93-5.93a1.58 1.58 0 0 0-.24-.15.51.51 0 0 0-.35-.07.52.52 0 0 0-.32.16l-5.44 5.41z"/>
      <path class="cls-4" d="M36.93 35.68a.28.28 0 0 1-.22-.09.27.27 0 0 1-.09-.21v-7.83a.11.11 0 0 1 .1-.11h.41a.1.1 0 0 1 .1.11v7.52h7.53a.1.1 0 0 1 .1.1v.41a.1.1 0 0 1-.1.1zm.8-1.94a.37.37 0 0 0 .07.51l.27.21a.37.37 0 0 0 .51-.07l1.78-2.3h2.1a.48.48 0 0 0 .26-.07.42.42 0 0 0 .18-.17L44 30v.64a.35.35 0 0 0 .37.34h.34a.35.35 0 0 0 .35-.37l-.12-3.26L42 28.74a.35.35 0 0 0-.17.48l.15.3a.36.36 0 0 0 .48.17l.59-.29-.89 1.6H40.1a.53.53 0 0 0-.24.06.66.66 0 0 0-.19.15z"/>
      <path class="cls-4" d="M84.23 91.29A4.77 4.77 0 1 0 89 96.06a4.77 4.77 0 0 0-4.77-4.77zm.1 4.91H88a.09.09 0 0 1 .08 0 .11.11 0 0 1 0 .08 3.9 3.9 0 0 1-2.38 3.32 3.87 3.87 0 0 1-1.48.29 3.87 3.87 0 0 1-2.55-1v-.08a.14.14 0 0 1 0-.09l2.58-2.58a.11.11 0 0 1 .08 0zm-2.11 2.67l2.24-2.25h3.17a2.88 2.88 0 0 1-.22.76 3.37 3.37 0 0 1-.74 1.12 3.61 3.61 0 0 1-1.12.75 3.53 3.53 0 0 1-1.32.26 3.49 3.49 0 0 1-1.32-.26 3.29 3.29 0 0 1-.69-.38zM84 92.2a.11.11 0 0 1 .08 0 .12.12 0 0 1 0 .08V96a.1.1 0 0 1 0 .07l-2.58 2.58a.09.09 0 0 1-.08 0h-.08a4.13 4.13 0 0 1-.66-1.07 3.89 3.89 0 0 1 0-3 4 4 0 0 1 .84-1.26A3.84 3.84 0 0 1 84 92.2zm.88 3.72h-.37a.11.11 0 0 1-.11-.11v-.38l.48.49zm1.21 0h-.81l-.91-.92v-.8l1.69 1.69zm1.21 0h-.81l-2.09-2.09V93l2.9 2.9zm.79-.42v.3a.11.11 0 0 1 0 .08.09.09 0 0 1-.08 0h-.31l-3.3-3.3v-.31a.11.11 0 0 1 0-.08.14.14 0 0 1 .09 0h.29l3.28 3.27zm-2.77-3.16l.42.14a4 4 0 0 1 1.25.84 3.81 3.81 0 0 1 .84 1.26A2.86 2.86 0 0 1 88 95l-2.66-2.65zm-1.06-.43a4.15 4.15 0 1 1-4.15 4.15 4.14 4.14 0 0 1 4.12-4.15z"/>
      <path class="cls-4" d="M48.29 122.72a.08.08 0 0 1 .05 0h.11l1.22-1.22a.15.15 0 0 1 .1 0 .21.21 0 0 1 .1 0 .14.14 0 0 1 0 .1.12.12 0 0 1 0 .1l-1.38 1.38.2.14a.17.17 0 0 1 .07.13.2.2 0 0 1-.17.23.17.17 0 0 1-.15 0l-.2-.15-.65 1.82a.08.08 0 0 1-.11 0 .13.13 0 0 1 0-.06l.57-1.59h-.06a.14.14 0 0 1-.1 0 .14.14 0 0 1 0-.2l.14-.14-1.11-.82a.17.17 0 0 1-.07-.13.2.2 0 0 1 0-.15.2.2 0 0 1 .15-.16.16.16 0 0 1 .15 0l1.12.84.06-.17zm-3-1.56a.79.79 0 0 1-.09-.43.69.69 0 0 1 .21-.59 1.55 1.55 0 0 1 .82-.14h.39a4.23 4.23 0 0 0-.6.41.64.64 0 0 0-.22.05.36.36 0 0 0-.08.23 3.92 3.92 0 0 0-.39.5zm3.17-2.38v.78a3.93 3.93 0 0 1 .48.06v-3a.7.7 0 0 0-.69-.7h-.48v.9a.38.38 0 0 1-.38.38h-.27a.38.38 0 0 1-.38-.38V116h-3.86v.9a.38.38 0 0 1-.37.38h-.28a.38.38 0 0 1-.37-.38v-.9h-.48a.7.7 0 0 0-.7.7v7.52a.69.69 0 0 0 .7.69h3.72a2.59 2.59 0 0 1-.14-.29h-3.79v-.06h3.76c0-.1-.08-.19-.11-.29h-3.65v-.06h3.63a2.86 2.86 0 0 1-.07-.28h-3.46a.1.1 0 0 1-.1-.11v-5a.09.09 0 0 1 .1-.1h7a.1.1 0 0 1 .11.1zm-1.21-3.63a.27.27 0 0 1 .27.27v1.29a.27.27 0 0 1-.27.27.27.27 0 0 1-.26-.27v-1.29a.27.27 0 0 1 .26-.27zm-4.83 0a.27.27 0 0 1 .27.27v1.29a.27.27 0 0 1-.27.27.27.27 0 0 1-.27-.27v-1.29a.27.27 0 0 1 .27-.27zm2.22 7.17v.41h-2.13v-.56a.82.82 0 0 1 .16-.58 1.72 1.72 0 0 1 .74-.25 1.75 1.75 0 0 0 .58-.16c.06 0 .09-.17.09-.37s0-.31-.09-.36a.78.78 0 0 0-.43-.07.82.82 0 0 0-.44.07c-.06 0-.09.18-.09.38v.17h-.51v-.12a.91.91 0 0 1 .21-.7 1.39 1.39 0 0 1 .83-.17 1.34 1.34 0 0 1 .82.18.89.89 0 0 1 .21.69.91.91 0 0 1-.16.64 1.54 1.54 0 0 1-.75.27 2 2 0 0 0-.57.15s-.08.16-.08.35v.08zm1.6-4.64h.18c0 .15-.11.22-.32.22a.4.4 0 0 1-.29-.08.53.53 0 0 1-.06-.31.42.42 0 0 1 .07-.29s.13-.07.27-.07.22 0 .26.07a.39.39 0 0 1 .07.28v.06h-.5v.14a.18.18 0 0 0 .13 0 .25.25 0 0 0 .12 0 .12.12 0 0 0 0-.09zm-2.3-.81v.72c0 .13 0 .22-.07.26s-.13.07-.27.07a.44.44 0 0 1-.28-.06.46.46 0 0 1-.06-.28v-.08h.19v.15c0 .07.06.1.15.1a.17.17 0 0 0 .12 0 .51.51 0 0 0 0-.16v-.69zm.83.31v.73h-.18v-.13a.24.24 0 0 1-.24.14.23.23 0 0 1-.25-.25v-.49h.18v.45a.29.29 0 0 0 0 .12.16.16 0 0 0 .11 0c.11 0 .17-.07.17-.2v-.4zm.17 0h.18v.12a.22.22 0 0 1 .23-.13c.17 0 .26.08.26.24v.5h-.17v-.52s0-.08-.13-.08a.15.15 0 0 0-.17.17v.43h-.18v-.73zm1.31.29h-.32a.22.22 0 0 1 0-.14.17.17 0 0 1 .12 0 .19.19 0 0 1 .13 0v.11zm3.75 3.88a2.5 2.5 0 1 0 .55.82 2.57 2.57 0 0 0-.55-.82zm-4.12-.55a3.3 3.3 0 1 0 2.34-1 3.29 3.29 0 0 0-2.32 1z"/>
      <path class="cls-4" d="M124.69 77h2.74a.2.2 0 0 1 .2.2v3.3a.2.2 0 0 1-.2.2h-2.74a.2.2 0 0 1-.21-.2v-3.3a.2.2 0 0 1 .2-.2zm2.3 4a8.13 8.13 0 0 0 .14 3.44c0 .07 0 .17-.08.17-1.69.14-2.06-2.26-2.11-3.64H127zm1.27-.36c1 .43 1.62 1.7 3.8 1.81v-7.2c-2.18.11-2.77 1.38-3.8 1.81v3.58zm4.32-5.39h.42a.42.42 0 0 1 .42.42V82a.41.41 0 0 1-.41.42h-.44v-7.18zM133.7 80a1.69 1.69 0 0 0 0-2.32V80zm-11.16-2.51l1.21-.33a.5.5 0 0 1 .21 0v3.39a.55.55 0 0 1-.18 0c-.35-.09-1-.21-1.23-.32a.6.6 0 0 1-.3-.58v-1.58a.6.6 0 0 1 .29-.58z"/>
      <path class="cls-4" d="M83.12 158.87v5.26a1 1 0 0 0 .3.71 1 1 0 0 0 .71.3h8.51a1 1 0 0 0 .72-.3 1 1 0 0 0 .29-.71v-5.22a1 1 0 0 0-.29-.71 1 1 0 0 0-.72-.3h-.58v.67a.51.51 0 0 1-.5.51.61.61 0 0 1-.51-.51v-.67h-5.5v.67a.5.5 0 0 1-.5.51c-.28 0-.5-.35-.5-.51v-.67h-.73a.93.93 0 0 0-.41.26 1 1 0 0 0-.3.71zm1 4.44c0-1 3.12-1 3.12 0v.28a.22.22 0 0 1-.23.22h-2.66a.22.22 0 0 1-.23-.22v-.28zm1.56-1c-.39 0-.83-.52-.83-1.16s-.11-1.15.83-1.15.82.51.82 1.15-.44 1.16-.82 1.16zm6.84-1.88a.12.12 0 0 1 .13.13.13.13 0 0 1-.13.13h-4.3a.13.13 0 0 1-.13-.13.13.13 0 0 1 .13-.13zm0 1.38a.13.13 0 0 1 0 .26h-4.3a.13.13 0 0 1 0-.26zm0 1.38a.13.13 0 0 1 0 .26h-4.3a.13.13 0 0 1 0-.26z"/>
      <path class="cls-4" d="M141.89 25.58h1.84v-1h-.3v-.79h.3v-.32h-.3v-.79h.3v-.33h-.3v-.78h.3v-1.2h-1.3a.06.06 0 0 0-.05.06v.11h-.19a.06.06 0 0 0-.06.05v.28h-.26a.26.26 0 0 0-.14.23v4.33a.17.17 0 0 0 .16.17zm-1 .72v-.38a.1.1 0 0 1 .11-.1h8.53a.09.09 0 0 1 .1.1v.38a.09.09 0 0 1-.1.1H141a.1.1 0 0 1-.11-.1zm4.17-8.49v-.7a.11.11 0 0 1 .11-.1h.13v-1.18a.06.06 0 0 1 0-.06.06.06 0 0 1 .06.06V17h.13a.11.11 0 0 1 .11.1v.7h.37a.11.11 0 0 1 .11.11v.5l.3.31h.12a.18.18 0 0 1 .17.17v6.5a.18.18 0 0 1-.17.18h-2.43a.18.18 0 0 1-.18-.18V18.9a.18.18 0 0 1 .18-.17h.12l.3-.31v-.5a.11.11 0 0 1 .11-.11zm.49 1.8v1h.9v-1zm0 1.41v1h.9V21zm0 1.4v1h.9v-1zm0 1.41v1h.9v-1zm-.35 1v-1h-.91v1zm0-1.41v-1h-.91v1zm0-1.41V21h-.91v1zm0-1.41v-1h-.91v1zm3.48 5h-1.65v-1h.39v-.7h-.39v-.29h.39v-.7h-.39v-.29h.39v-.71h-.39V21h1.18a.07.07 0 0 1 .07.07v.23h.4a.15.15 0 0 1 .15.15v4a.15.15 0 0 1-.15.15zm-1.05-1h.88v-.7h-.88v.7zm0-1h.88v-.7h-.88v.7zm0-1h.88v-.71h-.88v.71zm-5.47 2v-.79h.84v.79zm0-2.23v-.78h.84v.78zm0 1.12v-.79h.84v.79z"/>
      <path class="cls-4" d="M71.26 125.1q.45 3.36.92 6.73a.33.33 0 0 0 .36.27l1.68-.23a.33.33 0 0 0 .27-.36q-.46-3.37-.92-6.73a.33.33 0 0 0-.36-.28l-1.68.23a.33.33 0 0 0-.27.37zm-.7 7h-1.69a.32.32 0 0 1-.32-.32V125a.32.32 0 0 1 .32-.32h1.69a.32.32 0 0 1 .32.32v6.79a.32.32 0 0 1-.32.32zm-2.73 0h-1.69a.32.32 0 0 1-.32-.32V125a.32.32 0 0 1 .32-.32h1.69a.32.32 0 0 1 .32.32v6.79a.32.32 0 0 1-.32.32zm5.25-2.37a.49.49 0 0 1 .34.09.49.49 0 0 1 .18.3.49.49 0 0 1-.09.34.44.44 0 0 1-.3.17.46.46 0 0 1-.43-.72.49.49 0 0 1 .3-.18zm-.49 0a.69.69 0 0 1 1-.13.66.66 0 0 1 .27.46.69.69 0 0 1-.13.51.75.75 0 0 1-.47.27.7.7 0 0 1-.51-.14.73.73 0 0 1-.27-.46.68.68 0 0 1 .14-.52zm.46-3.83l-1 .13A.1.1 0 0 1 72 126v-.1a.1.1 0 0 1 .08-.11l1-.13a.1.1 0 0 1 .11.08v.1a.1.1 0 0 1-.08.11zM67 129.66a.72.72 0 0 0-.71.71.67.67 0 0 0 .21.49.69.69 0 0 0 .5.21.72.72 0 0 0 .7-.7.69.69 0 0 0-.21-.5.67.67 0 0 0-.49-.21zm.32.38a.46.46 0 0 0-.32-.13.44.44 0 0 0-.46.46.46.46 0 0 0 .13.32.49.49 0 0 0 .33.13.44.44 0 0 0 .45-.45.49.49 0 0 0-.13-.33zm-.81-3.9h1a.09.09 0 0 0 .09-.09v-.11a.09.09 0 0 0-.09-.09h-1a.09.09 0 0 0-.09.09v.11a.09.09 0 0 0 .09.09zm3.23 3.77a.46.46 0 0 0-.32.13.49.49 0 0 0-.13.33.44.44 0 0 0 .45.45.44.44 0 0 0 .32-.13.43.43 0 0 0 .14-.32.45.45 0 0 0-.2-.37.44.44 0 0 0-.32-.13zm-.49 0a.69.69 0 0 0-.21.5.72.72 0 0 0 .7.7.69.69 0 0 0 .5-.21.7.7 0 0 0 .2-.49.73.73 0 0 0-.2-.5.69.69 0 0 0-.5-.21.67.67 0 0 0-.49.21zm1-3.73a.09.09 0 0 0 .09-.09v-.11a.09.09 0 0 0-.09-.09h-1a.09.09 0 0 0-.09.09v.11a.09.09 0 0 0 .09.09zm-3.72 1h1a.09.09 0 0 0 .09-.09v-.11a.09.09 0 0 0-.09-.09h-1a.09.09 0 0 0-.09.09v.11a.09.09 0 0 0 .09.09zm0-.5h1a.09.09 0 0 0 .09-.09v-.11a.09.09 0 0 0-.09-.09h-1a.09.09 0 0 0-.09.09v.11a.09.09 0 0 0 .09.09zm3.72.5a.09.09 0 0 0 .09-.09v-.11a.09.09 0 0 0-.09-.09h-1a.09.09 0 0 0-.09.09v.11a.09.09 0 0 0 .09.09zm0-.5a.09.09 0 0 0 .09-.09v-.11a.09.09 0 0 0-.09-.09h-1a.09.09 0 0 0-.09.09v.11a.09.09 0 0 0 .09.09zm3 .32l-1 .13a.09.09 0 0 1-.1-.08v-.1a.09.09 0 0 1 .07-.11l1-.13a.08.08 0 0 1 .1.08v.11a.1.1 0 0 1-.08.1zm-.07-.5l-1 .14a.11.11 0 0 1-.11-.08v-.11a.08.08 0 0 1 .08-.1l1-.14a.09.09 0 0 1 .1.08v.11a.08.08 0 0 1-.13.06z"/>
    </g>
  </g>
</svg>